%TF.GenerationSoftware,KiCad,Pcbnew,9.0.3*%
%TF.CreationDate,2026-03-27T19:58:28-05:00*%
%TF.ProjectId,PiezoProjectEngineering,5069657a-6f50-4726-9f6a-656374456e67,rev?*%
%TF.SameCoordinates,Original*%
%TF.FileFunction,Soldermask,Top*%
%TF.FilePolarity,Negative*%
%FSLAX46Y46*%
G04 Gerber Fmt 4.6, Leading zero omitted, Abs format (unit mm)*
G04 Created by KiCad (PCBNEW 9.0.3) date 2026-03-27 19:58:28*
%MOMM*%
%LPD*%
G01*
G04 APERTURE LIST*
G04 Aperture macros list*
%AMRoundRect*
0 Rectangle with rounded corners*
0 $1 Rounding radius*
0 $2 $3 $4 $5 $6 $7 $8 $9 X,Y pos of 4 corners*
0 Add a 4 corners polygon primitive as box body*
4,1,4,$2,$3,$4,$5,$6,$7,$8,$9,$2,$3,0*
0 Add four circle primitives for the rounded corners*
1,1,$1+$1,$2,$3*
1,1,$1+$1,$4,$5*
1,1,$1+$1,$6,$7*
1,1,$1+$1,$8,$9*
0 Add four rect primitives between the rounded corners*
20,1,$1+$1,$2,$3,$4,$5,0*
20,1,$1+$1,$4,$5,$6,$7,0*
20,1,$1+$1,$6,$7,$8,$9,0*
20,1,$1+$1,$8,$9,$2,$3,0*%
G04 Aperture macros list end*
%ADD10RoundRect,0.250000X-1.950000X-1.000000X1.950000X-1.000000X1.950000X1.000000X-1.950000X1.000000X0*%
%ADD11RoundRect,0.125000X-0.125000X0.125000X-0.125000X-0.125000X0.125000X-0.125000X0.125000X0.125000X0*%
%ADD12RoundRect,0.200000X-0.200000X-0.275000X0.200000X-0.275000X0.200000X0.275000X-0.200000X0.275000X0*%
%ADD13R,2.900000X5.400000*%
%ADD14R,1.800000X1.800000*%
%ADD15C,1.800000*%
%ADD16RoundRect,0.150000X-0.512500X-0.150000X0.512500X-0.150000X0.512500X0.150000X-0.512500X0.150000X0*%
%ADD17RoundRect,0.200000X0.275000X-0.200000X0.275000X0.200000X-0.275000X0.200000X-0.275000X-0.200000X0*%
%ADD18RoundRect,0.200000X-0.275000X0.200000X-0.275000X-0.200000X0.275000X-0.200000X0.275000X0.200000X0*%
%ADD19RoundRect,0.250000X-1.000000X1.950000X-1.000000X-1.950000X1.000000X-1.950000X1.000000X1.950000X0*%
%ADD20RoundRect,0.250000X0.650000X-0.325000X0.650000X0.325000X-0.650000X0.325000X-0.650000X-0.325000X0*%
%ADD21RoundRect,0.102000X0.952500X0.952500X-0.952500X0.952500X-0.952500X-0.952500X0.952500X-0.952500X0*%
%ADD22C,2.109000*%
%ADD23RoundRect,0.200000X0.200000X0.275000X-0.200000X0.275000X-0.200000X-0.275000X0.200000X-0.275000X0*%
%ADD24RoundRect,0.750000X0.750000X0.750000X-0.750000X0.750000X-0.750000X-0.750000X0.750000X-0.750000X0*%
%ADD25C,3.000000*%
%ADD26RoundRect,0.250000X-0.325000X-0.650000X0.325000X-0.650000X0.325000X0.650000X-0.325000X0.650000X0*%
%ADD27RoundRect,0.250000X0.325000X0.650000X-0.325000X0.650000X-0.325000X-0.650000X0.325000X-0.650000X0*%
%ADD28RoundRect,0.750000X-0.750000X-0.750000X0.750000X-0.750000X0.750000X0.750000X-0.750000X0.750000X0*%
%ADD29RoundRect,0.375000X-0.625000X-0.375000X0.625000X-0.375000X0.625000X0.375000X-0.625000X0.375000X0*%
%ADD30RoundRect,0.500000X-0.500000X-1.400000X0.500000X-1.400000X0.500000X1.400000X-0.500000X1.400000X0*%
%ADD31RoundRect,0.225000X-0.225000X-0.250000X0.225000X-0.250000X0.225000X0.250000X-0.225000X0.250000X0*%
%ADD32RoundRect,0.250000X-0.650000X1.000000X-0.650000X-1.000000X0.650000X-1.000000X0.650000X1.000000X0*%
%ADD33RoundRect,0.150000X-0.150000X-0.425000X0.150000X-0.425000X0.150000X0.425000X-0.150000X0.425000X0*%
%ADD34RoundRect,0.075000X-0.075000X-0.500000X0.075000X-0.500000X0.075000X0.500000X-0.075000X0.500000X0*%
%ADD35O,1.000000X2.100000*%
%ADD36O,1.000000X1.800000*%
%ADD37RoundRect,0.102000X-0.698500X-0.139700X0.698500X-0.139700X0.698500X0.139700X-0.698500X0.139700X0*%
%ADD38RoundRect,0.102000X-0.965200X-1.079500X0.965200X-1.079500X0.965200X1.079500X-0.965200X1.079500X0*%
%ADD39RoundRect,0.102000X-0.304800X-1.104900X0.304800X-1.104900X0.304800X1.104900X-0.304800X1.104900X0*%
%ADD40RoundRect,0.250000X1.950000X1.000000X-1.950000X1.000000X-1.950000X-1.000000X1.950000X-1.000000X0*%
G04 APERTURE END LIST*
D10*
%TO.C,C6*%
X126710000Y-162080000D03*
X135110000Y-162080000D03*
%TD*%
D11*
%TO.C,D1*%
X100100000Y-116700000D03*
X100100000Y-118900000D03*
%TD*%
D12*
%TO.C,R5*%
X107645000Y-160195000D03*
X109295000Y-160195000D03*
%TD*%
D10*
%TO.C,C4*%
X93427500Y-163250000D03*
X101827500Y-163250000D03*
%TD*%
D13*
%TO.C,L2*%
X93450000Y-139570000D03*
X103150000Y-139570000D03*
%TD*%
D14*
%TO.C,U9*%
X127770000Y-154470000D03*
D15*
X129470000Y-150770000D03*
X131170000Y-154470000D03*
X132870000Y-150770000D03*
X134570000Y-154470000D03*
%TD*%
D16*
%TO.C,U8*%
X128880000Y-114510000D03*
X128880000Y-115460000D03*
X128880000Y-116410000D03*
X131155000Y-116410000D03*
X131155000Y-114510000D03*
%TD*%
D14*
%TO.C,U3*%
X94570000Y-155280000D03*
D15*
X96270000Y-151580000D03*
X97970000Y-155280000D03*
X99670000Y-151580000D03*
X101370000Y-155280000D03*
%TD*%
D17*
%TO.C,R1*%
X127587500Y-124725000D03*
X127587500Y-123075000D03*
%TD*%
D18*
%TO.C,R4*%
X127000000Y-116586000D03*
X127000000Y-118236000D03*
%TD*%
D19*
%TO.C,C7*%
X142620000Y-146520000D03*
X142620000Y-154920000D03*
%TD*%
D20*
%TO.C,C12*%
X114046000Y-114886000D03*
X114046000Y-111936000D03*
%TD*%
D21*
%TO.C,J2*%
X176910000Y-131650000D03*
D22*
X174370000Y-131650000D03*
X171830000Y-131650000D03*
X169290000Y-131650000D03*
X166750000Y-131650000D03*
X164210000Y-131650000D03*
X161670000Y-131650000D03*
X159130000Y-131650000D03*
X156590000Y-131650000D03*
X154050000Y-131650000D03*
X151510000Y-131650000D03*
X148970000Y-131650000D03*
X146430000Y-131650000D03*
X143890000Y-131650000D03*
X141350000Y-131650000D03*
%TD*%
D23*
%TO.C,R8*%
X146805000Y-158950000D03*
X145155000Y-158950000D03*
%TD*%
D24*
%TO.C,rec_screw1*%
X117755000Y-106430000D03*
D25*
X112755000Y-106430000D03*
%TD*%
D12*
%TO.C,R7*%
X140405000Y-158880000D03*
X142055000Y-158880000D03*
%TD*%
D13*
%TO.C,L1*%
X103515000Y-123260000D03*
X113215000Y-123260000D03*
%TD*%
D26*
%TO.C,C13*%
X116070000Y-117050000D03*
X119020000Y-117050000D03*
%TD*%
D27*
%TO.C,C2*%
X116975000Y-132862500D03*
X114025000Y-132862500D03*
%TD*%
D16*
%TO.C,U2*%
X116425000Y-113000000D03*
X116425000Y-113950000D03*
X116425000Y-114900000D03*
X118700000Y-114900000D03*
X118700000Y-113000000D03*
%TD*%
D28*
%TO.C,Battery_screw1*%
X90300000Y-128300000D03*
D25*
X95300000Y-128300000D03*
%TD*%
D29*
%TO.C,U6*%
X112460000Y-135620000D03*
X112460000Y-137920000D03*
D30*
X118760000Y-137920000D03*
D29*
X112460000Y-140220000D03*
%TD*%
D31*
%TO.C,C1*%
X103378000Y-113411000D03*
X104928000Y-113411000D03*
%TD*%
D32*
%TO.C,D2*%
X89580000Y-149772500D03*
X89580000Y-153772500D03*
%TD*%
D33*
%TO.C,J5*%
X107410000Y-162200000D03*
X108210000Y-162200000D03*
D34*
X109360000Y-162200000D03*
X110360000Y-162200000D03*
X110860000Y-162200000D03*
X111860000Y-162200000D03*
D33*
X113010000Y-162200000D03*
X113810000Y-162200000D03*
X113810000Y-162200000D03*
X113010000Y-162200000D03*
D34*
X112360000Y-162200000D03*
X111360000Y-162200000D03*
X109860000Y-162200000D03*
X108860000Y-162200000D03*
D33*
X108210000Y-162200000D03*
X107410000Y-162200000D03*
D35*
X106290000Y-162775000D03*
D36*
X106290000Y-166955000D03*
D35*
X114930000Y-162775000D03*
D36*
X114930000Y-166955000D03*
%TD*%
D23*
%TO.C,R2*%
X131412500Y-126462500D03*
X129762500Y-126462500D03*
%TD*%
D37*
%TO.C,U1*%
X107450600Y-113689240D03*
X107450600Y-114189619D03*
X107450600Y-114690000D03*
X107450600Y-115190381D03*
X107450600Y-115690760D03*
X111819400Y-115690760D03*
X111819400Y-115190381D03*
X111819400Y-114690000D03*
X111819400Y-114189619D03*
X111819400Y-113689240D03*
D38*
X109635000Y-114690000D03*
%TD*%
D33*
%TO.C,J3*%
X140230000Y-162240000D03*
X141030000Y-162240000D03*
D34*
X142180000Y-162240000D03*
X143180000Y-162240000D03*
X143680000Y-162240000D03*
X144680000Y-162240000D03*
D33*
X145830000Y-162240000D03*
X146630000Y-162240000D03*
X146630000Y-162240000D03*
X145830000Y-162240000D03*
D34*
X145180000Y-162240000D03*
X144180000Y-162240000D03*
X142680000Y-162240000D03*
X141680000Y-162240000D03*
D33*
X141030000Y-162240000D03*
X140230000Y-162240000D03*
D35*
X139110000Y-162815000D03*
D36*
X139110000Y-166995000D03*
D35*
X147750000Y-162815000D03*
D36*
X147750000Y-166995000D03*
%TD*%
D16*
%TO.C,U10*%
X129560000Y-122960000D03*
X129560000Y-123910000D03*
X129560000Y-124860000D03*
X131835000Y-124860000D03*
X131835000Y-122960000D03*
%TD*%
D32*
%TO.C,D3*%
X123030000Y-149912500D03*
X123030000Y-153912500D03*
%TD*%
D23*
%TO.C,R6*%
X114380000Y-160045000D03*
X112730000Y-160045000D03*
%TD*%
D39*
%TO.C,U7*%
X141545000Y-120346200D03*
X142815000Y-120346200D03*
X144085000Y-120346200D03*
X145355000Y-120346200D03*
X145355000Y-115113800D03*
X144085000Y-115113800D03*
X142815000Y-115113800D03*
X141545000Y-115113800D03*
%TD*%
D19*
%TO.C,C5*%
X110080000Y-146827500D03*
X110080000Y-155227500D03*
%TD*%
D20*
%TO.C,C3*%
X109750000Y-139097500D03*
X109750000Y-136147500D03*
%TD*%
D40*
%TO.C,C11*%
X95827500Y-116250000D03*
X87427500Y-116250000D03*
%TD*%
D21*
%TO.C,J1*%
X176910000Y-106250000D03*
D22*
X174370000Y-106250000D03*
X171830000Y-106250000D03*
X169290000Y-106250000D03*
X166750000Y-106250000D03*
X164210000Y-106250000D03*
X161670000Y-106250000D03*
X159130000Y-106250000D03*
X156590000Y-106250000D03*
X154050000Y-106250000D03*
X151510000Y-106250000D03*
X148970000Y-106250000D03*
X146430000Y-106250000D03*
X143890000Y-106250000D03*
X141350000Y-106250000D03*
%TD*%
D13*
%TO.C,L3*%
X125750000Y-138600000D03*
X135450000Y-138600000D03*
%TD*%
D23*
%TO.C,R3*%
X130872500Y-118260000D03*
X129222500Y-118260000D03*
%TD*%
M02*
