%TF.GenerationSoftware,KiCad,Pcbnew,9.0.3*%
%TF.CreationDate,2026-03-27T19:58:28-05:00*%
%TF.ProjectId,PiezoProjectEngineering,5069657a-6f50-4726-9f6a-656374456e67,rev?*%
%TF.SameCoordinates,Original*%
%TF.FileFunction,Copper,L1,Top*%
%TF.FilePolarity,Positive*%
%FSLAX46Y46*%
G04 Gerber Fmt 4.6, Leading zero omitted, Abs format (unit mm)*
G04 Created by KiCad (PCBNEW 9.0.3) date 2026-03-27 19:58:28*
%MOMM*%
%LPD*%
G01*
G04 APERTURE LIST*
G04 Aperture macros list*
%AMRoundRect*
0 Rectangle with rounded corners*
0 $1 Rounding radius*
0 $2 $3 $4 $5 $6 $7 $8 $9 X,Y pos of 4 corners*
0 Add a 4 corners polygon primitive as box body*
4,1,4,$2,$3,$4,$5,$6,$7,$8,$9,$2,$3,0*
0 Add four circle primitives for the rounded corners*
1,1,$1+$1,$2,$3*
1,1,$1+$1,$4,$5*
1,1,$1+$1,$6,$7*
1,1,$1+$1,$8,$9*
0 Add four rect primitives between the rounded corners*
20,1,$1+$1,$2,$3,$4,$5,0*
20,1,$1+$1,$4,$5,$6,$7,0*
20,1,$1+$1,$6,$7,$8,$9,0*
20,1,$1+$1,$8,$9,$2,$3,0*%
G04 Aperture macros list end*
%TA.AperFunction,Conductor*%
%ADD10C,0.254000*%
%TD*%
%TA.AperFunction,SMDPad,CuDef*%
%ADD11RoundRect,0.250000X-1.950000X-1.000000X1.950000X-1.000000X1.950000X1.000000X-1.950000X1.000000X0*%
%TD*%
%TA.AperFunction,SMDPad,CuDef*%
%ADD12RoundRect,0.125000X-0.125000X0.125000X-0.125000X-0.125000X0.125000X-0.125000X0.125000X0.125000X0*%
%TD*%
%TA.AperFunction,SMDPad,CuDef*%
%ADD13RoundRect,0.200000X-0.200000X-0.275000X0.200000X-0.275000X0.200000X0.275000X-0.200000X0.275000X0*%
%TD*%
%TA.AperFunction,SMDPad,CuDef*%
%ADD14R,2.900000X5.400000*%
%TD*%
%TA.AperFunction,ComponentPad*%
%ADD15R,1.800000X1.800000*%
%TD*%
%TA.AperFunction,ComponentPad*%
%ADD16C,1.800000*%
%TD*%
%TA.AperFunction,SMDPad,CuDef*%
%ADD17RoundRect,0.150000X-0.512500X-0.150000X0.512500X-0.150000X0.512500X0.150000X-0.512500X0.150000X0*%
%TD*%
%TA.AperFunction,SMDPad,CuDef*%
%ADD18RoundRect,0.200000X0.275000X-0.200000X0.275000X0.200000X-0.275000X0.200000X-0.275000X-0.200000X0*%
%TD*%
%TA.AperFunction,SMDPad,CuDef*%
%ADD19RoundRect,0.200000X-0.275000X0.200000X-0.275000X-0.200000X0.275000X-0.200000X0.275000X0.200000X0*%
%TD*%
%TA.AperFunction,SMDPad,CuDef*%
%ADD20RoundRect,0.250000X-1.000000X1.950000X-1.000000X-1.950000X1.000000X-1.950000X1.000000X1.950000X0*%
%TD*%
%TA.AperFunction,SMDPad,CuDef*%
%ADD21RoundRect,0.250000X0.650000X-0.325000X0.650000X0.325000X-0.650000X0.325000X-0.650000X-0.325000X0*%
%TD*%
%TA.AperFunction,ComponentPad*%
%ADD22R,1.905000X1.905000*%
%TD*%
%TA.AperFunction,ComponentPad*%
%ADD23C,1.905000*%
%TD*%
%TA.AperFunction,SMDPad,CuDef*%
%ADD24RoundRect,0.200000X0.200000X0.275000X-0.200000X0.275000X-0.200000X-0.275000X0.200000X-0.275000X0*%
%TD*%
%TA.AperFunction,ComponentPad*%
%ADD25RoundRect,0.750000X0.750000X0.750000X-0.750000X0.750000X-0.750000X-0.750000X0.750000X-0.750000X0*%
%TD*%
%TA.AperFunction,ComponentPad*%
%ADD26C,3.000000*%
%TD*%
%TA.AperFunction,SMDPad,CuDef*%
%ADD27RoundRect,0.250000X-0.325000X-0.650000X0.325000X-0.650000X0.325000X0.650000X-0.325000X0.650000X0*%
%TD*%
%TA.AperFunction,SMDPad,CuDef*%
%ADD28RoundRect,0.250000X0.325000X0.650000X-0.325000X0.650000X-0.325000X-0.650000X0.325000X-0.650000X0*%
%TD*%
%TA.AperFunction,ComponentPad*%
%ADD29RoundRect,0.750000X-0.750000X-0.750000X0.750000X-0.750000X0.750000X0.750000X-0.750000X0.750000X0*%
%TD*%
%TA.AperFunction,SMDPad,CuDef*%
%ADD30RoundRect,0.375000X-0.625000X-0.375000X0.625000X-0.375000X0.625000X0.375000X-0.625000X0.375000X0*%
%TD*%
%TA.AperFunction,SMDPad,CuDef*%
%ADD31RoundRect,0.500000X-0.500000X-1.400000X0.500000X-1.400000X0.500000X1.400000X-0.500000X1.400000X0*%
%TD*%
%TA.AperFunction,SMDPad,CuDef*%
%ADD32RoundRect,0.225000X-0.225000X-0.250000X0.225000X-0.250000X0.225000X0.250000X-0.225000X0.250000X0*%
%TD*%
%TA.AperFunction,SMDPad,CuDef*%
%ADD33RoundRect,0.250000X-0.650000X1.000000X-0.650000X-1.000000X0.650000X-1.000000X0.650000X1.000000X0*%
%TD*%
%TA.AperFunction,SMDPad,CuDef*%
%ADD34RoundRect,0.150000X-0.150000X-0.425000X0.150000X-0.425000X0.150000X0.425000X-0.150000X0.425000X0*%
%TD*%
%TA.AperFunction,SMDPad,CuDef*%
%ADD35RoundRect,0.075000X-0.075000X-0.500000X0.075000X-0.500000X0.075000X0.500000X-0.075000X0.500000X0*%
%TD*%
%TA.AperFunction,HeatsinkPad*%
%ADD36O,1.000000X2.100000*%
%TD*%
%TA.AperFunction,HeatsinkPad*%
%ADD37O,1.000000X1.800000*%
%TD*%
%TA.AperFunction,SMDPad,CuDef*%
%ADD38R,1.397000X0.279400*%
%TD*%
%TA.AperFunction,SMDPad,CuDef*%
%ADD39R,1.930400X2.159000*%
%TD*%
%TA.AperFunction,SMDPad,CuDef*%
%ADD40R,0.609600X2.209800*%
%TD*%
%TA.AperFunction,SMDPad,CuDef*%
%ADD41RoundRect,0.250000X1.950000X1.000000X-1.950000X1.000000X-1.950000X-1.000000X1.950000X-1.000000X0*%
%TD*%
%TA.AperFunction,ViaPad*%
%ADD42C,0.900000*%
%TD*%
%TA.AperFunction,ViaPad*%
%ADD43C,0.600000*%
%TD*%
%TA.AperFunction,Conductor*%
%ADD44C,0.350000*%
%TD*%
%TA.AperFunction,Conductor*%
%ADD45C,0.400000*%
%TD*%
%TA.AperFunction,Conductor*%
%ADD46C,0.200000*%
%TD*%
%TA.AperFunction,Conductor*%
%ADD47C,1.200000*%
%TD*%
%TA.AperFunction,Conductor*%
%ADD48C,0.600000*%
%TD*%
%TA.AperFunction,Conductor*%
%ADD49C,0.150000*%
%TD*%
G04 APERTURE END LIST*
D10*
%TO.N,Net-(U10--)*%
X129100000Y-124600000D02*
X130200000Y-124600000D01*
X130200000Y-126900000D01*
X129400000Y-126900000D01*
X127100000Y-125100000D01*
X127100000Y-124300000D01*
X127900000Y-124300000D01*
X129100000Y-124600000D01*
%TA.AperFunction,Conductor*%
G36*
X129100000Y-124600000D02*
G01*
X130200000Y-124600000D01*
X130200000Y-126900000D01*
X129400000Y-126900000D01*
X127100000Y-125100000D01*
X127100000Y-124300000D01*
X127900000Y-124300000D01*
X129100000Y-124600000D01*
G37*
%TD.AperFunction*%
%TO.N,/ESP_ADC*%
X135400000Y-126000000D02*
X135400000Y-127000000D01*
X131000000Y-126900000D01*
X131000000Y-125900000D01*
X131200000Y-125300000D01*
X131200000Y-124500000D01*
X132400000Y-124500000D01*
X135400000Y-126000000D01*
%TA.AperFunction,Conductor*%
G36*
X135400000Y-126000000D02*
G01*
X135400000Y-127000000D01*
X131000000Y-126900000D01*
X131000000Y-125900000D01*
X131200000Y-125300000D01*
X131200000Y-124500000D01*
X132400000Y-124500000D01*
X135400000Y-126000000D01*
G37*
%TD.AperFunction*%
%TD*%
D11*
%TO.P,C6,1*%
%TO.N,+9V*%
X126710000Y-162080000D03*
%TO.P,C6,2*%
%TO.N,GND*%
X135110000Y-162080000D03*
%TD*%
D12*
%TO.P,D1,1,K*%
%TO.N,Net-(D1-K)*%
X100100000Y-116700000D03*
%TO.P,D1,2,A*%
%TO.N,+9V*%
X100100000Y-118900000D03*
%TD*%
D13*
%TO.P,R5,1*%
%TO.N,GND*%
X107645000Y-160195000D03*
%TO.P,R5,2*%
%TO.N,Net-(J5-CC1)*%
X109295000Y-160195000D03*
%TD*%
D11*
%TO.P,C4,1*%
%TO.N,+9V*%
X93427500Y-163250000D03*
%TO.P,C4,2*%
%TO.N,GND*%
X101827500Y-163250000D03*
%TD*%
D14*
%TO.P,L2,1,1*%
%TO.N,Net-(D2-K)*%
X93450000Y-139570000D03*
%TO.P,L2,2,2*%
%TO.N,+5V*%
X103150000Y-139570000D03*
%TD*%
D15*
%TO.P,U9,1,VIN*%
%TO.N,+9V*%
X127770000Y-154470000D03*
D16*
%TO.P,U9,2,OUT*%
%TO.N,Net-(D3-K)*%
X129470000Y-150770000D03*
%TO.P,U9,3,GND*%
%TO.N,GND*%
X131170000Y-154470000D03*
%TO.P,U9,4,FB*%
%TO.N,+3.3V*%
X132870000Y-150770000D03*
%TO.P,U9,5,~{ON}/OFF*%
%TO.N,GND*%
X134570000Y-154470000D03*
%TD*%
D17*
%TO.P,U8,1,+*%
%TO.N,GND*%
X128880000Y-114510000D03*
%TO.P,U8,2,V-*%
X128880000Y-115460000D03*
%TO.P,U8,3,-*%
%TO.N,Net-(U8--)*%
X128880000Y-116410000D03*
%TO.P,U8,4*%
%TO.N,Net-(R1-Pad2)*%
X131155000Y-116410000D03*
%TO.P,U8,5,V+*%
%TO.N,+9V*%
X131155000Y-114510000D03*
%TD*%
D15*
%TO.P,U3,1,VIN*%
%TO.N,+9V*%
X94570000Y-155280000D03*
D16*
%TO.P,U3,2,OUT*%
%TO.N,Net-(D2-K)*%
X96270000Y-151580000D03*
%TO.P,U3,3,GND*%
%TO.N,GND*%
X97970000Y-155280000D03*
%TO.P,U3,4,FB*%
%TO.N,+5V*%
X99670000Y-151580000D03*
%TO.P,U3,5,~{ON}/OFF*%
%TO.N,GND*%
X101370000Y-155280000D03*
%TD*%
D18*
%TO.P,R1,1*%
%TO.N,Net-(U10--)*%
X127587500Y-124725000D03*
%TO.P,R1,2*%
%TO.N,Net-(R1-Pad2)*%
X127587500Y-123075000D03*
%TD*%
D19*
%TO.P,R4,1*%
%TO.N,Net-(U8--)*%
X127000000Y-116586000D03*
%TO.P,R4,2*%
%TO.N,/V_READ*%
X127000000Y-118236000D03*
%TD*%
D20*
%TO.P,C7,1*%
%TO.N,+3.3V*%
X142620000Y-146520000D03*
%TO.P,C7,2*%
%TO.N,GND*%
X142620000Y-154920000D03*
%TD*%
D21*
%TO.P,C12,1*%
%TO.N,Net-(U1-D1)*%
X114046000Y-114886000D03*
%TO.P,C12,2*%
%TO.N,GND*%
X114046000Y-111936000D03*
%TD*%
D22*
%TO.P,J2,1,Pin_1*%
%TO.N,unconnected-(J2-Pin_1-Pad1)*%
X176910000Y-131650000D03*
D23*
%TO.P,J2,2,Pin_2*%
%TO.N,GND*%
X174370000Y-131650000D03*
%TO.P,J2,3,Pin_3*%
%TO.N,unconnected-(J2-Pin_3-Pad3)*%
X171830000Y-131650000D03*
%TO.P,J2,4,Pin_4*%
%TO.N,/ESP_OUT*%
X169290000Y-131650000D03*
%TO.P,J2,5,Pin_5*%
%TO.N,unconnected-(J2-Pin_5-Pad5)*%
X166750000Y-131650000D03*
%TO.P,J2,6,Pin_6*%
%TO.N,unconnected-(J2-Pin_6-Pad6)*%
X164210000Y-131650000D03*
%TO.P,J2,7,Pin_7*%
%TO.N,unconnected-(J2-Pin_7-Pad7)*%
X161670000Y-131650000D03*
%TO.P,J2,8,Pin_8*%
%TO.N,unconnected-(J2-Pin_8-Pad8)*%
X159130000Y-131650000D03*
%TO.P,J2,9,Pin_9*%
%TO.N,unconnected-(J2-Pin_9-Pad9)*%
X156590000Y-131650000D03*
%TO.P,J2,10,Pin_10*%
%TO.N,unconnected-(J2-Pin_10-Pad10)*%
X154050000Y-131650000D03*
%TO.P,J2,11,Pin_11*%
%TO.N,unconnected-(J2-Pin_11-Pad11)*%
X151510000Y-131650000D03*
%TO.P,J2,12,Pin_12*%
%TO.N,unconnected-(J2-Pin_12-Pad12)*%
X148970000Y-131650000D03*
%TO.P,J2,13,Pin_13*%
%TO.N,unconnected-(J2-Pin_13-Pad13)*%
X146430000Y-131650000D03*
%TO.P,J2,14,Pin_14*%
%TO.N,/ESP_ADC*%
X143890000Y-131650000D03*
%TO.P,J2,15,Pin_15*%
%TO.N,/EN*%
X141350000Y-131650000D03*
%TD*%
D24*
%TO.P,R8,1*%
%TO.N,GND*%
X146805000Y-158950000D03*
%TO.P,R8,2*%
%TO.N,Net-(J3-CC2)*%
X145155000Y-158950000D03*
%TD*%
D25*
%TO.P,rec_screw1,1,Pin_2*%
%TO.N,Net-(U1-PZ2)*%
X117755000Y-106430000D03*
D26*
%TO.P,rec_screw1,2,Pin_1*%
%TO.N,Net-(U1-PZ1)*%
X112755000Y-106430000D03*
%TD*%
D13*
%TO.P,R7,1*%
%TO.N,GND*%
X140405000Y-158880000D03*
%TO.P,R7,2*%
%TO.N,Net-(J3-CC1)*%
X142055000Y-158880000D03*
%TD*%
D14*
%TO.P,L1,1*%
%TO.N,Net-(U1-SW)*%
X103515000Y-123260000D03*
%TO.P,L1,2*%
%TO.N,/V_READ*%
X113215000Y-123260000D03*
%TD*%
D27*
%TO.P,C13,1*%
%TO.N,/V_READ*%
X116070000Y-117050000D03*
%TO.P,C13,2*%
%TO.N,GND*%
X119020000Y-117050000D03*
%TD*%
D28*
%TO.P,C2,1*%
%TO.N,+3V3*%
X116975000Y-132862500D03*
%TO.P,C2,2*%
%TO.N,GND*%
X114025000Y-132862500D03*
%TD*%
D17*
%TO.P,U2,1*%
%TO.N,Net-(U1-PGOOD)*%
X116425000Y-113000000D03*
%TO.P,U2,2*%
%TO.N,/ESP_OUT*%
X116425000Y-113950000D03*
%TO.P,U2,3,GND*%
%TO.N,GND*%
X116425000Y-114900000D03*
%TO.P,U2,4*%
%TO.N,/EN*%
X118700000Y-114900000D03*
%TO.P,U2,5,VCC*%
%TO.N,+3V3*%
X118700000Y-113000000D03*
%TD*%
D29*
%TO.P,Battery_screw1,1,Pin_2*%
%TO.N,GND*%
X90300000Y-128300000D03*
D26*
%TO.P,Battery_screw1,2,Pin_1*%
%TO.N,+9V*%
X95300000Y-128300000D03*
%TD*%
D30*
%TO.P,U6,1,GND*%
%TO.N,GND*%
X112460000Y-135620000D03*
%TO.P,U6,2,VO*%
%TO.N,+3V3*%
X112460000Y-137920000D03*
D31*
X118760000Y-137920000D03*
D30*
%TO.P,U6,3,VI*%
%TO.N,+9V*%
X112460000Y-140220000D03*
%TD*%
D32*
%TO.P,C1,1*%
%TO.N,Net-(D1-K)*%
X103378000Y-113411000D03*
%TO.P,C1,2*%
%TO.N,Net-(U1-CAP)*%
X104928000Y-113411000D03*
%TD*%
D33*
%TO.P,D2,1,K*%
%TO.N,Net-(D2-K)*%
X89580000Y-149772500D03*
%TO.P,D2,2,A*%
%TO.N,GND*%
X89580000Y-153772500D03*
%TD*%
D34*
%TO.P,J5,A1,GND*%
%TO.N,GND*%
X107410000Y-162200000D03*
%TO.P,J5,A4,VBUS*%
%TO.N,+5V*%
X108210000Y-162200000D03*
D35*
%TO.P,J5,A5,CC1*%
%TO.N,Net-(J5-CC1)*%
X109360000Y-162200000D03*
%TO.P,J5,A6,D+*%
%TO.N,unconnected-(J5-D+-PadA6)*%
X110360000Y-162200000D03*
%TO.P,J5,A7,D-*%
%TO.N,unconnected-(J5-D--PadA7)*%
X110860000Y-162200000D03*
%TO.P,J5,A8*%
%TO.N,N/C*%
X111860000Y-162200000D03*
D34*
%TO.P,J5,A9,VBUS*%
%TO.N,+5V*%
X113010000Y-162200000D03*
%TO.P,J5,A12,GND*%
%TO.N,GND*%
X113810000Y-162200000D03*
%TO.P,J5,B1,GND*%
X113810000Y-162200000D03*
%TO.P,J5,B4,VBUS*%
%TO.N,+5V*%
X113010000Y-162200000D03*
D35*
%TO.P,J5,B5,CC2*%
%TO.N,Net-(J5-CC2)*%
X112360000Y-162200000D03*
%TO.P,J5,B6,D+*%
%TO.N,unconnected-(J5-D+-PadB6)*%
X111360000Y-162200000D03*
%TO.P,J5,B7,D-*%
%TO.N,unconnected-(J5-D--PadB7)*%
X109860000Y-162200000D03*
%TO.P,J5,B8*%
%TO.N,N/C*%
X108860000Y-162200000D03*
D34*
%TO.P,J5,B9,VBUS*%
%TO.N,+5V*%
X108210000Y-162200000D03*
%TO.P,J5,B12,GND*%
%TO.N,GND*%
X107410000Y-162200000D03*
D36*
%TO.P,J5,S1,SHIELD*%
X106290000Y-162775000D03*
D37*
X106290000Y-166955000D03*
D36*
X114930000Y-162775000D03*
D37*
X114930000Y-166955000D03*
%TD*%
D24*
%TO.P,R2,1*%
%TO.N,/ESP_ADC*%
X131412500Y-126462500D03*
%TO.P,R2,2*%
%TO.N,Net-(U10--)*%
X129762500Y-126462500D03*
%TD*%
D38*
%TO.P,U1,1,PZ1*%
%TO.N,Net-(U1-PZ1)*%
X107450600Y-113689240D03*
%TO.P,U1,2,PZ2*%
%TO.N,Net-(U1-PZ2)*%
X107450600Y-114189619D03*
%TO.P,U1,3,CAP*%
%TO.N,Net-(U1-CAP)*%
X107450600Y-114690000D03*
%TO.P,U1,4,VIN*%
%TO.N,Net-(D1-K)*%
X107450600Y-115190381D03*
%TO.P,U1,5,SW*%
%TO.N,Net-(U1-SW)*%
X107450600Y-115690760D03*
%TO.P,U1,6,VOUT*%
%TO.N,/V_READ*%
X111819400Y-115690760D03*
%TO.P,U1,7,VIN2*%
%TO.N,Net-(U1-D1)*%
X111819400Y-115190381D03*
%TO.P,U1,8,D1*%
X111819400Y-114690000D03*
%TO.P,U1,9,D0*%
%TO.N,GND*%
X111819400Y-114189619D03*
%TO.P,U1,10,PGOOD*%
%TO.N,Net-(U1-PGOOD)*%
X111819400Y-113689240D03*
D39*
%TO.P,U1,11,EPAD*%
%TO.N,GND*%
X109635000Y-114690000D03*
%TD*%
D34*
%TO.P,J3,A1,GND*%
%TO.N,GND*%
X140230000Y-162240000D03*
%TO.P,J3,A4,VBUS*%
%TO.N,+3.3V*%
X141030000Y-162240000D03*
D35*
%TO.P,J3,A5,CC1*%
%TO.N,Net-(J3-CC1)*%
X142180000Y-162240000D03*
%TO.P,J3,A6,D+*%
%TO.N,unconnected-(J3-D+-PadA6)*%
X143180000Y-162240000D03*
%TO.P,J3,A7,D-*%
%TO.N,unconnected-(J3-D--PadA7)*%
X143680000Y-162240000D03*
%TO.P,J3,A8*%
%TO.N,N/C*%
X144680000Y-162240000D03*
D34*
%TO.P,J3,A9,VBUS*%
%TO.N,+3.3V*%
X145830000Y-162240000D03*
%TO.P,J3,A12,GND*%
%TO.N,GND*%
X146630000Y-162240000D03*
%TO.P,J3,B1,GND*%
X146630000Y-162240000D03*
%TO.P,J3,B4,VBUS*%
%TO.N,+3.3V*%
X145830000Y-162240000D03*
D35*
%TO.P,J3,B5,CC2*%
%TO.N,Net-(J3-CC2)*%
X145180000Y-162240000D03*
%TO.P,J3,B6,D+*%
%TO.N,unconnected-(J3-D+-PadB6)*%
X144180000Y-162240000D03*
%TO.P,J3,B7,D-*%
%TO.N,unconnected-(J3-D--PadB7)*%
X142680000Y-162240000D03*
%TO.P,J3,B8*%
%TO.N,N/C*%
X141680000Y-162240000D03*
D34*
%TO.P,J3,B9,VBUS*%
%TO.N,+3.3V*%
X141030000Y-162240000D03*
%TO.P,J3,B12,GND*%
%TO.N,GND*%
X140230000Y-162240000D03*
D36*
%TO.P,J3,S1,SHIELD*%
X139110000Y-162815000D03*
D37*
X139110000Y-166995000D03*
D36*
X147750000Y-162815000D03*
D37*
X147750000Y-166995000D03*
%TD*%
D17*
%TO.P,U10,1,+*%
%TO.N,GND*%
X129560000Y-122960000D03*
%TO.P,U10,2,V-*%
X129560000Y-123910000D03*
%TO.P,U10,3,-*%
%TO.N,Net-(U10--)*%
X129560000Y-124860000D03*
%TO.P,U10,4*%
%TO.N,/ESP_ADC*%
X131835000Y-124860000D03*
%TO.P,U10,5,V+*%
%TO.N,+9V*%
X131835000Y-122960000D03*
%TD*%
D33*
%TO.P,D3,1,K*%
%TO.N,Net-(D3-K)*%
X123030000Y-149912500D03*
%TO.P,D3,2,A*%
%TO.N,GND*%
X123030000Y-153912500D03*
%TD*%
D24*
%TO.P,R6,1*%
%TO.N,GND*%
X114380000Y-160045000D03*
%TO.P,R6,2*%
%TO.N,Net-(J5-CC2)*%
X112730000Y-160045000D03*
%TD*%
D40*
%TO.P,U7,1,CS*%
%TO.N,/FRAM_CS*%
X141545000Y-120346200D03*
%TO.P,U7,2,SO*%
%TO.N,/FRAM_MISO*%
X142815000Y-120346200D03*
%TO.P,U7,3,WP*%
%TO.N,+3V3*%
X144085000Y-120346200D03*
%TO.P,U7,4,VSS*%
%TO.N,GND*%
X145355000Y-120346200D03*
%TO.P,U7,5,SI*%
%TO.N,/FRAM_MOSI*%
X145355000Y-115113800D03*
%TO.P,U7,6,SCK*%
%TO.N,/FRAM_SCK*%
X144085000Y-115113800D03*
%TO.P,U7,7,HOLD*%
%TO.N,+3V3*%
X142815000Y-115113800D03*
%TO.P,U7,8,VDD*%
X141545000Y-115113800D03*
%TD*%
D20*
%TO.P,C5,1*%
%TO.N,+5V*%
X110080000Y-146827500D03*
%TO.P,C5,2*%
%TO.N,GND*%
X110080000Y-155227500D03*
%TD*%
D21*
%TO.P,C3,1*%
%TO.N,+9V*%
X109750000Y-139097500D03*
%TO.P,C3,2*%
%TO.N,GND*%
X109750000Y-136147500D03*
%TD*%
D41*
%TO.P,C11,1*%
%TO.N,Net-(D1-K)*%
X95827500Y-116250000D03*
%TO.P,C11,2*%
%TO.N,GND*%
X87427500Y-116250000D03*
%TD*%
D22*
%TO.P,J1,1,Pin_1*%
%TO.N,unconnected-(J1-Pin_1-Pad1)*%
X176910000Y-106250000D03*
D23*
%TO.P,J1,2,Pin_2*%
%TO.N,GND*%
X174370000Y-106250000D03*
%TO.P,J1,3,Pin_3*%
%TO.N,unconnected-(J1-Pin_3-Pad3)*%
X171830000Y-106250000D03*
%TO.P,J1,4,Pin_4*%
%TO.N,unconnected-(J1-Pin_4-Pad4)*%
X169290000Y-106250000D03*
%TO.P,J1,5,Pin_5*%
%TO.N,unconnected-(J1-Pin_5-Pad5)*%
X166750000Y-106250000D03*
%TO.P,J1,6,Pin_6*%
%TO.N,unconnected-(J1-Pin_6-Pad6)*%
X164210000Y-106250000D03*
%TO.P,J1,7,Pin_7*%
%TO.N,unconnected-(J1-Pin_7-Pad7)*%
X161670000Y-106250000D03*
%TO.P,J1,8,Pin_8*%
%TO.N,/FRAM_CS*%
X159130000Y-106250000D03*
%TO.P,J1,9,Pin_9*%
%TO.N,/FRAM_SCK*%
X156590000Y-106250000D03*
%TO.P,J1,10,Pin_10*%
%TO.N,/FRAM_MISO*%
X154050000Y-106250000D03*
%TO.P,J1,11,Pin_11*%
%TO.N,unconnected-(J1-Pin_11-Pad11)*%
X151510000Y-106250000D03*
%TO.P,J1,12,Pin_12*%
%TO.N,unconnected-(J1-Pin_12-Pad12)*%
X148970000Y-106250000D03*
%TO.P,J1,13,Pin_13*%
%TO.N,unconnected-(J1-Pin_13-Pad13)*%
X146430000Y-106250000D03*
%TO.P,J1,14,Pin_14*%
%TO.N,unconnected-(J1-Pin_14-Pad14)*%
X143890000Y-106250000D03*
%TO.P,J1,15,Pin_15*%
%TO.N,/FRAM_MOSI*%
X141350000Y-106250000D03*
%TD*%
D14*
%TO.P,L3,1,1*%
%TO.N,Net-(D3-K)*%
X125750000Y-138600000D03*
%TO.P,L3,2,2*%
%TO.N,+3.3V*%
X135450000Y-138600000D03*
%TD*%
D24*
%TO.P,R3,1*%
%TO.N,Net-(R1-Pad2)*%
X130872500Y-118260000D03*
%TO.P,R3,2*%
%TO.N,Net-(U8--)*%
X129222500Y-118260000D03*
%TD*%
D42*
%TO.N,GND*%
X148020000Y-158940000D03*
X140843000Y-167005000D03*
X146050000Y-167000000D03*
X131200000Y-162100000D03*
X139200000Y-161100000D03*
X91175000Y-116250000D03*
X122980000Y-156210000D03*
X107300000Y-167000000D03*
X106100000Y-160200000D03*
X128877500Y-113010000D03*
X110100000Y-151200000D03*
X98300000Y-163200000D03*
X115845000Y-111530000D03*
X140300000Y-157530000D03*
X113500000Y-166900000D03*
D43*
X113157000Y-113792000D03*
D42*
X109790000Y-133420000D03*
X142600000Y-151200000D03*
X117435000Y-116790000D03*
X116800000Y-162800000D03*
X89570000Y-155920000D03*
X147110000Y-118890000D03*
X115540000Y-159990000D03*
X148336000Y-160782000D03*
X130700000Y-123900000D03*
%TO.N,Net-(U1-PZ1)*%
X108966000Y-112141000D03*
%TO.N,+3V3*%
X118760000Y-134647500D03*
X121725000Y-113000000D03*
X142810000Y-116690000D03*
X144040000Y-119217000D03*
%TO.N,/FRAM_SCK*%
X152740000Y-112420000D03*
X144163000Y-112930000D03*
%TO.N,/EN*%
X123444000Y-116713000D03*
X124841000Y-125349000D03*
%TO.N,/ESP_OUT*%
X119700000Y-121000000D03*
X117700000Y-114000000D03*
%TO.N,+5V*%
X113012000Y-161300000D03*
X108200000Y-161300000D03*
%TO.N,+9V*%
X132500000Y-112900000D03*
X133900000Y-122800000D03*
X124600000Y-130500000D03*
%TD*%
D44*
%TO.N,Net-(U1-CAP)*%
X106293988Y-114690000D02*
X105014988Y-113411000D01*
X107450600Y-114690000D02*
X106293988Y-114690000D01*
X105014988Y-113411000D02*
X104928000Y-113411000D01*
%TO.N,Net-(U1-PGOOD)*%
X112508640Y-113000000D02*
X111843640Y-113665000D01*
X111843640Y-113665000D02*
X111760000Y-113665000D01*
D45*
X116425000Y-113000000D02*
X112508640Y-113000000D01*
D46*
X111815000Y-113684840D02*
X111819400Y-113689240D01*
D47*
%TO.N,Net-(U1-SW)*%
X105981500Y-116141500D02*
X103515000Y-118608000D01*
D44*
X106616500Y-116141500D02*
X107067240Y-115690760D01*
D47*
X103515000Y-118608000D02*
X103515000Y-123260000D01*
D44*
X107067240Y-115690760D02*
X107450600Y-115690760D01*
D47*
X106616500Y-116141500D02*
X105981500Y-116141500D01*
%TO.N,GND*%
X110080000Y-155227500D02*
X110080000Y-151220000D01*
D44*
X112759381Y-114189619D02*
X113157000Y-113792000D01*
D48*
X129760000Y-122960000D02*
X130700000Y-123900000D01*
D47*
X131220000Y-162080000D02*
X131200000Y-162100000D01*
D44*
X139110000Y-162815000D02*
X139110000Y-161190000D01*
D47*
X107255000Y-166955000D02*
X107300000Y-167000000D01*
X106290000Y-162775000D02*
X106290000Y-160390000D01*
X106105000Y-160195000D02*
X106100000Y-160200000D01*
X107645000Y-160195000D02*
X106105000Y-160195000D01*
X111990000Y-135620000D02*
X109790000Y-133420000D01*
D44*
X140405000Y-158880000D02*
X140405000Y-157635000D01*
D47*
X109750000Y-136147500D02*
X109750000Y-133460000D01*
X114025000Y-132862500D02*
X110347500Y-132862500D01*
D48*
X129560000Y-122960000D02*
X129760000Y-122960000D01*
X115460000Y-111915000D02*
X115845000Y-111530000D01*
D47*
X123030000Y-156160000D02*
X122980000Y-156210000D01*
D48*
X130690000Y-123910000D02*
X130700000Y-123900000D01*
D47*
X142620000Y-151220000D02*
X142600000Y-151200000D01*
X123030000Y-153912500D02*
X123030000Y-156160000D01*
X145653800Y-120346200D02*
X147110000Y-118890000D01*
D48*
X146050000Y-167000000D02*
X146700000Y-167000000D01*
D47*
X109750000Y-133460000D02*
X109790000Y-133420000D01*
X116775000Y-162775000D02*
X116800000Y-162800000D01*
D45*
X113810000Y-162200000D02*
X113920000Y-162090000D01*
D48*
X140105000Y-167005000D02*
X140095000Y-166995000D01*
D47*
X110080000Y-151220000D02*
X110100000Y-151200000D01*
D44*
X140405000Y-157635000D02*
X140300000Y-157530000D01*
D47*
X101827500Y-163250000D02*
X98350000Y-163250000D01*
X98350000Y-163250000D02*
X98300000Y-163200000D01*
D45*
X115485000Y-160045000D02*
X115540000Y-159990000D01*
D47*
X114930000Y-166955000D02*
X113555000Y-166955000D01*
D48*
X148336000Y-160782000D02*
X148336000Y-162229000D01*
D47*
X114930000Y-162775000D02*
X116775000Y-162775000D01*
D48*
X117435000Y-115910000D02*
X117435000Y-116790000D01*
X113895000Y-111915000D02*
X115460000Y-111915000D01*
D47*
X87427500Y-116250000D02*
X91175000Y-116250000D01*
X128880000Y-113012500D02*
X128877500Y-113010000D01*
D48*
X140843000Y-167005000D02*
X140105000Y-167005000D01*
D47*
X135110000Y-162080000D02*
X131220000Y-162080000D01*
D45*
X107410000Y-161510000D02*
X106100000Y-160200000D01*
D47*
X106290000Y-160390000D02*
X106100000Y-160200000D01*
X89580000Y-153772500D02*
X89580000Y-155910000D01*
D48*
X148336000Y-162229000D02*
X147750000Y-162815000D01*
D47*
X101422500Y-155227500D02*
X101370000Y-155280000D01*
D48*
X116425000Y-114900000D02*
X117435000Y-115910000D01*
X117695000Y-117050000D02*
X117435000Y-116790000D01*
D44*
X139110000Y-161190000D02*
X139200000Y-161100000D01*
X140230000Y-162240000D02*
X140230000Y-162130000D01*
X146805000Y-158950000D02*
X148010000Y-158950000D01*
D45*
X113920000Y-161535000D02*
X114380000Y-161075000D01*
D44*
X140230000Y-162130000D02*
X139200000Y-161100000D01*
D47*
X142620000Y-154920000D02*
X142620000Y-151220000D01*
D48*
X140095000Y-166995000D02*
X139110000Y-166995000D01*
D47*
X110347500Y-132862500D02*
X109790000Y-133420000D01*
X106290000Y-166955000D02*
X107255000Y-166955000D01*
D44*
X148010000Y-158950000D02*
X148020000Y-158940000D01*
D45*
X114380000Y-161075000D02*
X114380000Y-160045000D01*
D47*
X145355000Y-120346200D02*
X145653800Y-120346200D01*
X113555000Y-166955000D02*
X113500000Y-166900000D01*
D45*
X113920000Y-162090000D02*
X113920000Y-161535000D01*
D47*
X89580000Y-155910000D02*
X89570000Y-155920000D01*
D48*
X129560000Y-123910000D02*
X130690000Y-123910000D01*
X146705000Y-166995000D02*
X147750000Y-166995000D01*
D45*
X107410000Y-162200000D02*
X107410000Y-161510000D01*
D48*
X146700000Y-167000000D02*
X146705000Y-166995000D01*
X119020000Y-117050000D02*
X117695000Y-117050000D01*
D47*
X102302500Y-162775000D02*
X101827500Y-163250000D01*
X112460000Y-135620000D02*
X111990000Y-135620000D01*
X128880000Y-114510000D02*
X128880000Y-113012500D01*
X128880000Y-114510000D02*
X128880000Y-115067500D01*
D45*
X114380000Y-160045000D02*
X115485000Y-160045000D01*
D44*
X111819400Y-114189619D02*
X112759381Y-114189619D01*
D46*
%TO.N,/V_READ*%
X112134760Y-115690760D02*
X112522000Y-116078000D01*
D47*
X117603000Y-118872000D02*
X116070000Y-120405000D01*
D48*
X115098000Y-116078000D02*
X112522000Y-116078000D01*
D47*
X116070000Y-120405000D02*
X113215000Y-123260000D01*
X127000000Y-118236000D02*
X126364000Y-118872000D01*
X116070000Y-117050000D02*
X116070000Y-120405000D01*
D46*
X111819400Y-115690760D02*
X112134760Y-115690760D01*
D48*
X116070000Y-117050000D02*
X115098000Y-116078000D01*
D47*
X126364000Y-118872000D02*
X117603000Y-118872000D01*
D44*
%TO.N,Net-(U1-PZ1)*%
X108077000Y-113284000D02*
X108966000Y-112395000D01*
X107450600Y-113689240D02*
X107671760Y-113689240D01*
X108966000Y-112395000D02*
X108966000Y-112141000D01*
X107671760Y-113689240D02*
X108077000Y-113284000D01*
D47*
%TO.N,Net-(D1-K)*%
X95827500Y-116250000D02*
X99650000Y-116250000D01*
X96197500Y-115880000D02*
X95827500Y-116250000D01*
X101600000Y-113411000D02*
X100100000Y-114911000D01*
D44*
X107450600Y-115190381D02*
X105157381Y-115190381D01*
X105157381Y-115190381D02*
X103378000Y-113411000D01*
D47*
X99650000Y-116250000D02*
X100100000Y-116700000D01*
X103378000Y-113411000D02*
X101600000Y-113411000D01*
X100100000Y-114911000D02*
X100100000Y-116700000D01*
%TO.N,+3V3*%
X118760000Y-137920000D02*
X112460000Y-137920000D01*
X123585000Y-111140000D02*
X121725000Y-113000000D01*
D44*
X144085000Y-119262000D02*
X144040000Y-119217000D01*
X142810000Y-116690000D02*
X141870000Y-116690000D01*
X142810000Y-116690000D02*
X142810000Y-115118800D01*
X141545000Y-116365000D02*
X141545000Y-115113800D01*
X144085000Y-120346200D02*
X144085000Y-119262000D01*
D47*
X123585000Y-111140000D02*
X138360000Y-111140000D01*
X118760000Y-137920000D02*
X118760000Y-134647500D01*
D44*
X142810000Y-115118800D02*
X142815000Y-115113800D01*
D47*
X138360000Y-111140000D02*
X142270000Y-115050000D01*
D44*
X141870000Y-116690000D02*
X141545000Y-116365000D01*
D47*
X118700000Y-113000000D02*
X121725000Y-113000000D01*
X118760000Y-134647500D02*
X116975000Y-132862500D01*
D44*
%TO.N,/FRAM_SCK*%
X144085000Y-115113800D02*
X144085000Y-113008000D01*
X144085000Y-113008000D02*
X144163000Y-112930000D01*
D47*
X156590000Y-106250000D02*
X156590000Y-108570000D01*
X156590000Y-108570000D02*
X152740000Y-112420000D01*
%TO.N,/ESP_ADC*%
X143890000Y-129790000D02*
X140562500Y-126462500D01*
X140562500Y-126462500D02*
X133912500Y-126462500D01*
X133912500Y-126462500D02*
X133200000Y-125750000D01*
X143890000Y-131650000D02*
X143890000Y-129790000D01*
%TO.N,/FRAM_CS*%
X159130000Y-106250000D02*
X159130000Y-109436900D01*
D44*
X141545000Y-122555000D02*
X141545000Y-120346200D01*
D47*
X159130000Y-109436900D02*
X145986900Y-122580000D01*
X145986900Y-122580000D02*
X141570000Y-122580000D01*
D44*
X141570000Y-122580000D02*
X141545000Y-122555000D01*
%TO.N,/FRAM_MISO*%
X142815000Y-120346200D02*
X142815000Y-118325000D01*
D47*
X154050000Y-108970000D02*
X144980000Y-118040000D01*
X144980000Y-118040000D02*
X143100000Y-118040000D01*
X154050000Y-106250000D02*
X154050000Y-108970000D01*
D44*
X142815000Y-118325000D02*
X143100000Y-118040000D01*
%TO.N,/FRAM_MOSI*%
X145355000Y-115113800D02*
X145355000Y-113135000D01*
D47*
X141350000Y-107870000D02*
X145340000Y-111860000D01*
D44*
X145355000Y-113135000D02*
X145340000Y-113120000D01*
D47*
X141350000Y-106250000D02*
X141350000Y-107870000D01*
X145340000Y-111860000D02*
X145340000Y-113120000D01*
%TO.N,/EN*%
X121631000Y-114900000D02*
X118700000Y-114900000D01*
X138900000Y-129200000D02*
X128700000Y-129200000D01*
D48*
X124892000Y-125400000D02*
X124841000Y-125349000D01*
D47*
X141350000Y-131650000D02*
X138900000Y-129200000D01*
X128700000Y-129200000D02*
X124900000Y-125400000D01*
X123444000Y-116713000D02*
X121631000Y-114900000D01*
D48*
X124900000Y-125400000D02*
X124892000Y-125400000D01*
D47*
%TO.N,/ESP_OUT*%
X169290000Y-131650000D02*
X166574000Y-134366000D01*
X119700000Y-123100000D02*
X119700000Y-121000000D01*
X130200000Y-133600000D02*
X119700000Y-123100000D01*
X137300000Y-133600000D02*
X130200000Y-133600000D01*
D44*
X117650000Y-113950000D02*
X117700000Y-114000000D01*
X116425000Y-113950000D02*
X117650000Y-113950000D01*
D47*
X138066000Y-134366000D02*
X137300000Y-133600000D01*
X166574000Y-134366000D02*
X138066000Y-134366000D01*
D48*
%TO.N,+5V*%
X113010000Y-161302000D02*
X113012000Y-161300000D01*
X113010000Y-162200000D02*
X113010000Y-161302000D01*
D47*
X110080000Y-146500000D02*
X103150000Y-139570000D01*
D48*
X108210000Y-162200000D02*
X108210000Y-161310000D01*
X108210000Y-161310000D02*
X108200000Y-161300000D01*
D47*
X104422500Y-146827500D02*
X99670000Y-151580000D01*
X110080000Y-146827500D02*
X110080000Y-146500000D01*
X110080000Y-146827500D02*
X104422500Y-146827500D01*
%TO.N,Net-(D2-K)*%
X96270000Y-151580000D02*
X91387500Y-151580000D01*
X89580000Y-149772500D02*
X89580000Y-143440000D01*
X91387500Y-151580000D02*
X89580000Y-149772500D01*
X89580000Y-143440000D02*
X93450000Y-139570000D01*
%TO.N,Net-(D3-K)*%
X123030000Y-149912500D02*
X123030000Y-141320000D01*
X123887500Y-150770000D02*
X123030000Y-149912500D01*
X123030000Y-141320000D02*
X125750000Y-138600000D01*
X129470000Y-150770000D02*
X123887500Y-150770000D01*
%TO.N,+3.3V*%
X138610000Y-155310000D02*
X134070000Y-150770000D01*
D48*
X139956572Y-160556572D02*
X139300000Y-159900000D01*
D47*
X134070000Y-150770000D02*
X132870000Y-150770000D01*
D46*
X145830000Y-162240000D02*
X145830000Y-162595586D01*
D48*
X139300000Y-159300000D02*
X138610000Y-158610000D01*
X141030000Y-162240000D02*
X141030000Y-161643428D01*
D46*
X141030000Y-162800000D02*
X141030000Y-162240000D01*
D47*
X135450000Y-139350000D02*
X142620000Y-146520000D01*
X137120000Y-146520000D02*
X132870000Y-150770000D01*
D48*
X138610000Y-158610000D02*
X138610000Y-155310000D01*
X141030000Y-161643428D02*
X139956572Y-160570000D01*
D47*
X142620000Y-146520000D02*
X137120000Y-146520000D01*
D48*
X139956572Y-160570000D02*
X139956572Y-160556572D01*
X139300000Y-159900000D02*
X139300000Y-159300000D01*
D47*
X135450000Y-138600000D02*
X135450000Y-139350000D01*
D46*
X141360000Y-163130000D02*
X141030000Y-162800000D01*
X145295586Y-163130000D02*
X141360000Y-163130000D01*
X145830000Y-162595586D02*
X145295586Y-163130000D01*
D48*
%TO.N,Net-(R1-Pad2)*%
X130800000Y-119800000D02*
X130872500Y-119727500D01*
D47*
X127587500Y-121312500D02*
X127600000Y-121300000D01*
D48*
X130872500Y-118260000D02*
X130872500Y-116692500D01*
D44*
X131155000Y-116410000D02*
X131155000Y-116357500D01*
D47*
X129300000Y-121300000D02*
X130800000Y-119800000D01*
D48*
X130872500Y-119727500D02*
X130872500Y-118260000D01*
X130872500Y-116692500D02*
X131155000Y-116410000D01*
D47*
X127600000Y-121300000D02*
X129300000Y-121300000D01*
X127587500Y-123075000D02*
X127587500Y-121312500D01*
%TO.N,+9V*%
X126710000Y-162080000D02*
X123420000Y-162080000D01*
X100100000Y-118900000D02*
X100100000Y-123500000D01*
X109750000Y-139097500D02*
X110872500Y-140220000D01*
X93427500Y-156422500D02*
X94570000Y-155280000D01*
X131155000Y-113745000D02*
X131155000Y-114432000D01*
X118070000Y-145830000D02*
X112460000Y-140220000D01*
X123463000Y-165327000D02*
X95504500Y-165327000D01*
X100100000Y-123500000D02*
X95300000Y-128300000D01*
X95300000Y-128300000D02*
X97400000Y-128300000D01*
X126710000Y-162080000D02*
X123463000Y-165327000D01*
X110872500Y-140220000D02*
X112460000Y-140220000D01*
X132000000Y-112900000D02*
X131155000Y-113745000D01*
X95504500Y-165327000D02*
X93427500Y-163250000D01*
X126710000Y-155530000D02*
X127770000Y-154470000D01*
X118070000Y-145830000D02*
X120488000Y-143412000D01*
X108197500Y-139097500D02*
X109750000Y-139097500D01*
X120488000Y-143412000D02*
X120488000Y-134612000D01*
X120488000Y-134612000D02*
X124600000Y-130500000D01*
X131835000Y-122960000D02*
X133740000Y-122960000D01*
X93427500Y-163250000D02*
X93427500Y-156422500D01*
X97400000Y-128300000D02*
X108197500Y-139097500D01*
X118070000Y-156730000D02*
X118070000Y-145830000D01*
X132500000Y-112900000D02*
X132000000Y-112900000D01*
X123420000Y-162080000D02*
X118070000Y-156730000D01*
X126710000Y-162080000D02*
X126710000Y-155530000D01*
X133740000Y-122960000D02*
X133900000Y-122800000D01*
D48*
%TO.N,Net-(U8--)*%
X127000000Y-116523000D02*
X128767000Y-116523000D01*
X129222500Y-116752500D02*
X128880000Y-116410000D01*
X129222500Y-118260000D02*
X129222500Y-116752500D01*
X128767000Y-116523000D02*
X128880000Y-116410000D01*
%TO.N,Net-(J3-CC1)*%
X142055000Y-158880000D02*
X142055000Y-161165000D01*
D46*
X142180000Y-161310000D02*
X142180000Y-162240000D01*
X142190000Y-161300000D02*
X142180000Y-161310000D01*
D48*
X142055000Y-161165000D02*
X142190000Y-161300000D01*
%TO.N,Net-(J3-CC2)*%
X145155000Y-161275000D02*
X145160000Y-161280000D01*
D46*
X145180000Y-162240000D02*
X145180000Y-161300000D01*
D48*
X145155000Y-158950000D02*
X145155000Y-161275000D01*
D46*
X145180000Y-161300000D02*
X145160000Y-161280000D01*
D49*
%TO.N,Net-(J5-CC2)*%
X112360000Y-160415000D02*
X112730000Y-160045000D01*
X112360000Y-162200000D02*
X112360000Y-160415000D01*
D46*
%TO.N,Net-(J5-CC1)*%
X109360000Y-160260000D02*
X109295000Y-160195000D01*
X109360000Y-162200000D02*
X109360000Y-160260000D01*
D48*
%TO.N,Net-(U1-D1)*%
X113079000Y-114759000D02*
X114046000Y-114759000D01*
X113079000Y-114759000D02*
X112903000Y-114935000D01*
X112903000Y-114935000D02*
X111506000Y-114935000D01*
D44*
%TO.N,Net-(U1-PZ2)*%
X106506779Y-114189619D02*
X106045000Y-113727840D01*
D47*
X117755000Y-106781000D02*
X117755000Y-106430000D01*
X106807000Y-112014000D02*
X108712000Y-110109000D01*
D44*
X107450600Y-114189619D02*
X106506779Y-114189619D01*
D47*
X108712000Y-110109000D02*
X114427000Y-110109000D01*
X114427000Y-110109000D02*
X117755000Y-106781000D01*
D44*
X106045000Y-113727840D02*
X106045000Y-112776000D01*
X106045000Y-112776000D02*
X106807000Y-112014000D01*
%TD*%
%TA.AperFunction,Conductor*%
%TO.N,GND*%
G36*
X114003039Y-162219685D02*
G01*
X114048794Y-162272489D01*
X114060000Y-162324000D01*
X114060000Y-162721757D01*
X114040315Y-162788796D01*
X113987511Y-162834551D01*
X113918353Y-162844495D01*
X113860766Y-162818196D01*
X113859816Y-162819435D01*
X113857169Y-162817404D01*
X113856236Y-162816127D01*
X113854797Y-162815470D01*
X113848319Y-162809438D01*
X113847619Y-162808738D01*
X113849481Y-162806875D01*
X113815965Y-162760977D01*
X113809036Y-162709292D01*
X113809570Y-162702511D01*
X113810500Y-162690694D01*
X113810500Y-162324000D01*
X113813050Y-162315314D01*
X113811762Y-162306353D01*
X113822740Y-162282312D01*
X113830185Y-162256961D01*
X113837025Y-162251033D01*
X113840787Y-162242797D01*
X113863021Y-162228507D01*
X113882989Y-162211206D01*
X113893503Y-162208918D01*
X113899565Y-162205023D01*
X113934500Y-162200000D01*
X113936000Y-162200000D01*
X114003039Y-162219685D01*
G37*
%TD.AperFunction*%
%TA.AperFunction,Conductor*%
G36*
X129753039Y-122979685D02*
G01*
X129798794Y-123032489D01*
X129810000Y-123084000D01*
X129810000Y-123660000D01*
X130719794Y-123660000D01*
X130744057Y-123633752D01*
X130804018Y-123597885D01*
X130873852Y-123600129D01*
X130902062Y-123613549D01*
X130913331Y-123620777D01*
X130920635Y-123628081D01*
X130972977Y-123659035D01*
X130974864Y-123660246D01*
X130976485Y-123662114D01*
X130995597Y-123676939D01*
X131024337Y-123705679D01*
X131057822Y-123767002D01*
X131052838Y-123836694D01*
X131010966Y-123892627D01*
X130989453Y-123905558D01*
X130861091Y-123965961D01*
X130738928Y-124067023D01*
X130733587Y-124072711D01*
X130731932Y-124071157D01*
X130685666Y-124106823D01*
X130616052Y-124112790D01*
X130567812Y-124091582D01*
X130504716Y-124045740D01*
X130504707Y-124045735D01*
X130357296Y-123987371D01*
X130200009Y-123967500D01*
X130200000Y-123967500D01*
X129668862Y-123967500D01*
X129639375Y-123963943D01*
X129404513Y-123906443D01*
X129386707Y-123896113D01*
X129366961Y-123890315D01*
X129357102Y-123878937D01*
X129344077Y-123871381D01*
X129334682Y-123853064D01*
X129321206Y-123837511D01*
X129317154Y-123818886D01*
X129312192Y-123809211D01*
X129313077Y-123800144D01*
X129310000Y-123786000D01*
X129310000Y-123084000D01*
X129329685Y-123016961D01*
X129382489Y-122971206D01*
X129434000Y-122960000D01*
X129686000Y-122960000D01*
X129753039Y-122979685D01*
G37*
%TD.AperFunction*%
%TA.AperFunction,Conductor*%
G36*
X151735266Y-112943588D02*
G01*
X151791199Y-112985460D01*
X151797656Y-112994974D01*
X151798766Y-112996785D01*
X151798768Y-112996788D01*
X151900586Y-113136928D01*
X152023072Y-113259414D01*
X152163212Y-113361232D01*
X152317555Y-113439873D01*
X152482299Y-113493402D01*
X152653389Y-113520500D01*
X152653390Y-113520500D01*
X152826610Y-113520500D01*
X152826611Y-113520500D01*
X152997701Y-113493402D01*
X153162445Y-113439873D01*
X153297209Y-113371207D01*
X153365876Y-113358312D01*
X153430617Y-113384588D01*
X153470874Y-113441694D01*
X153473866Y-113511500D01*
X153441183Y-113569374D01*
X146371481Y-120639077D01*
X146310158Y-120672562D01*
X146240466Y-120667578D01*
X146184533Y-120625706D01*
X146181693Y-120618093D01*
X146159800Y-120596200D01*
X145479000Y-120596200D01*
X145411961Y-120576515D01*
X145366206Y-120523711D01*
X145355000Y-120472200D01*
X145355000Y-120220200D01*
X145374685Y-120153161D01*
X145427489Y-120107406D01*
X145479000Y-120096200D01*
X146159800Y-120096200D01*
X146159800Y-119193472D01*
X146159799Y-119193455D01*
X146153398Y-119133927D01*
X146153396Y-119133920D01*
X146103154Y-118999213D01*
X146103150Y-118999206D01*
X146016990Y-118884113D01*
X145945822Y-118830836D01*
X145903951Y-118774902D01*
X145898967Y-118705210D01*
X145932449Y-118643892D01*
X151604253Y-112972087D01*
X151665574Y-112938604D01*
X151735266Y-112943588D01*
G37*
%TD.AperFunction*%
%TA.AperFunction,Conductor*%
G36*
X117639870Y-115417510D02*
G01*
X117664436Y-115445858D01*
X117664639Y-115445702D01*
X117667522Y-115449420D01*
X117668938Y-115451053D01*
X117669414Y-115451859D01*
X117669423Y-115451870D01*
X117785629Y-115568076D01*
X117785632Y-115568078D01*
X117785635Y-115568081D01*
X117836040Y-115597890D01*
X117860597Y-115616939D01*
X117983072Y-115739414D01*
X117987350Y-115742522D01*
X118054546Y-115791343D01*
X118097212Y-115846673D01*
X118103191Y-115916286D01*
X118087200Y-115956758D01*
X118010643Y-116080875D01*
X118010641Y-116080880D01*
X117955494Y-116247302D01*
X117955493Y-116247309D01*
X117945000Y-116350013D01*
X117945000Y-116800000D01*
X120094999Y-116800000D01*
X120094999Y-116350028D01*
X120094998Y-116350013D01*
X120084506Y-116247304D01*
X120056737Y-116163505D01*
X120054335Y-116093676D01*
X120090066Y-116033634D01*
X120152587Y-116002441D01*
X120174443Y-116000500D01*
X121123796Y-116000500D01*
X121190835Y-116020185D01*
X121211477Y-116036819D01*
X122727076Y-117552418D01*
X122728009Y-117553215D01*
X122728264Y-117553606D01*
X122730517Y-117555859D01*
X122730043Y-117556332D01*
X122766199Y-117611724D01*
X122766693Y-117681592D01*
X122729336Y-117740636D01*
X122665988Y-117770110D01*
X122647472Y-117771500D01*
X120219000Y-117771500D01*
X120151961Y-117751815D01*
X120106206Y-117699011D01*
X120095000Y-117647500D01*
X120095000Y-117300000D01*
X117945001Y-117300000D01*
X117945001Y-117647500D01*
X117925316Y-117714539D01*
X117872512Y-117760294D01*
X117821001Y-117771500D01*
X117689610Y-117771500D01*
X117516389Y-117771500D01*
X117459359Y-117780532D01*
X117345297Y-117798598D01*
X117345288Y-117798600D01*
X117332814Y-117802653D01*
X117262973Y-117804646D01*
X117203141Y-117768563D01*
X117172315Y-117705861D01*
X117170500Y-117684721D01*
X117170500Y-116963389D01*
X117147026Y-116815181D01*
X117145499Y-116795783D01*
X117145499Y-116349998D01*
X117145498Y-116349981D01*
X117134999Y-116247203D01*
X117134998Y-116247200D01*
X117117473Y-116194313D01*
X117079814Y-116080666D01*
X116987712Y-115931344D01*
X116964568Y-115908200D01*
X116931083Y-115846877D01*
X116936067Y-115777185D01*
X116977939Y-115721252D01*
X117034091Y-115700079D01*
X117033755Y-115698239D01*
X117039995Y-115697099D01*
X117197693Y-115651283D01*
X117197696Y-115651282D01*
X117339052Y-115567685D01*
X117339061Y-115567678D01*
X117455178Y-115451561D01*
X117455180Y-115451558D01*
X117455472Y-115451066D01*
X117455801Y-115450758D01*
X117459963Y-115445393D01*
X117460828Y-115446064D01*
X117506538Y-115403379D01*
X117575278Y-115390870D01*
X117639870Y-115417510D01*
G37*
%TD.AperFunction*%
%TA.AperFunction,Conductor*%
G36*
X130870835Y-112260185D02*
G01*
X130916590Y-112312989D01*
X130926534Y-112382147D01*
X130897509Y-112445703D01*
X130891477Y-112452181D01*
X130315588Y-113028069D01*
X130315588Y-113028070D01*
X130315586Y-113028072D01*
X130284783Y-113070469D01*
X130213768Y-113168211D01*
X130135128Y-113322552D01*
X130081597Y-113487302D01*
X130054500Y-113658389D01*
X130054500Y-113803398D01*
X130034815Y-113870437D01*
X129982011Y-113916192D01*
X129912853Y-113926136D01*
X129849297Y-113897111D01*
X129842819Y-113891079D01*
X129794061Y-113842321D01*
X129794052Y-113842314D01*
X129652696Y-113758717D01*
X129652693Y-113758716D01*
X129494995Y-113712900D01*
X129494989Y-113712899D01*
X129458149Y-113710000D01*
X129130000Y-113710000D01*
X129130000Y-115210000D01*
X130039794Y-115210000D01*
X130064057Y-115183752D01*
X130124018Y-115147885D01*
X130193852Y-115150129D01*
X130233512Y-115174530D01*
X130234469Y-115173298D01*
X130240632Y-115178078D01*
X130240635Y-115178081D01*
X130382102Y-115261744D01*
X130432408Y-115276359D01*
X130435373Y-115277775D01*
X130437157Y-115277842D01*
X130458177Y-115288668D01*
X130468692Y-115293691D01*
X130469716Y-115294404D01*
X130578212Y-115373232D01*
X130595526Y-115382054D01*
X130602521Y-115386927D01*
X130619276Y-115407787D01*
X130638728Y-115426157D01*
X130640821Y-115434609D01*
X130646276Y-115441400D01*
X130649094Y-115468011D01*
X130655525Y-115493977D01*
X130652716Y-115502218D01*
X130653634Y-115510881D01*
X130641617Y-115534792D01*
X130632989Y-115560113D01*
X130626170Y-115565528D01*
X130622259Y-115573311D01*
X130599227Y-115586926D01*
X130578276Y-115603566D01*
X130566285Y-115606400D01*
X130562113Y-115608867D01*
X130556703Y-115608665D01*
X130546148Y-115611160D01*
X130546167Y-115611263D01*
X130544169Y-115611627D01*
X130541381Y-115612287D01*
X130539938Y-115612400D01*
X130539926Y-115612402D01*
X130382106Y-115658254D01*
X130382103Y-115658255D01*
X130240637Y-115741917D01*
X130234469Y-115746702D01*
X130233164Y-115745019D01*
X130181454Y-115773246D01*
X130111763Y-115768251D01*
X130064058Y-115736247D01*
X130039796Y-115710000D01*
X129774315Y-115710000D01*
X129711194Y-115692732D01*
X129698965Y-115685500D01*
X129652898Y-115658256D01*
X129652897Y-115658255D01*
X129652896Y-115658255D01*
X129652893Y-115658254D01*
X129495073Y-115612402D01*
X129495067Y-115612401D01*
X129458201Y-115609500D01*
X129458194Y-115609500D01*
X128301806Y-115609500D01*
X128301798Y-115609500D01*
X128264932Y-115612401D01*
X128264926Y-115612402D01*
X128107106Y-115658254D01*
X128107103Y-115658255D01*
X128048806Y-115692732D01*
X127985685Y-115710000D01*
X127700981Y-115710000D01*
X127689346Y-115717477D01*
X127686624Y-115717868D01*
X127685505Y-115718538D01*
X127654411Y-115722500D01*
X127519225Y-115722500D01*
X127482336Y-115716886D01*
X127460237Y-115710000D01*
X127402196Y-115691914D01*
X127331616Y-115685500D01*
X126668384Y-115685500D01*
X126649145Y-115687248D01*
X126597807Y-115691913D01*
X126435393Y-115742522D01*
X126289811Y-115830530D01*
X126169530Y-115950811D01*
X126081522Y-116096393D01*
X126030913Y-116258807D01*
X126025782Y-116315275D01*
X126024500Y-116329384D01*
X126024500Y-116842616D01*
X126025937Y-116858428D01*
X126030913Y-116913192D01*
X126030913Y-116913194D01*
X126030914Y-116913196D01*
X126081522Y-117075606D01*
X126165606Y-117214698D01*
X126169530Y-117221188D01*
X126226318Y-117277976D01*
X126259803Y-117339299D01*
X126254819Y-117408991D01*
X126226319Y-117453338D01*
X126140247Y-117539411D01*
X125944475Y-117735182D01*
X125883155Y-117768666D01*
X125856796Y-117771500D01*
X124240528Y-117771500D01*
X124173489Y-117751815D01*
X124127734Y-117699011D01*
X124117790Y-117629853D01*
X124146815Y-117566297D01*
X124159991Y-117553215D01*
X124160923Y-117552418D01*
X124160924Y-117552416D01*
X124160928Y-117552414D01*
X124283414Y-117429928D01*
X124385232Y-117289788D01*
X124463873Y-117135445D01*
X124517402Y-116970701D01*
X124544500Y-116799611D01*
X124544500Y-116626389D01*
X124517402Y-116455299D01*
X124463873Y-116290554D01*
X124463871Y-116290551D01*
X124463871Y-116290549D01*
X124396044Y-116157432D01*
X124385232Y-116136212D01*
X124283414Y-115996072D01*
X123047343Y-114760001D01*
X127720204Y-114760001D01*
X127720399Y-114762488D01*
X127720400Y-114762494D01*
X127766216Y-114920193D01*
X127766222Y-114920208D01*
X127767216Y-114921888D01*
X127767593Y-114923375D01*
X127769317Y-114927359D01*
X127768674Y-114927637D01*
X127784393Y-114989613D01*
X127768878Y-115042451D01*
X127769317Y-115042641D01*
X127767778Y-115046196D01*
X127767216Y-115048112D01*
X127766222Y-115049791D01*
X127766216Y-115049806D01*
X127720400Y-115207505D01*
X127720399Y-115207511D01*
X127720204Y-115209998D01*
X127720205Y-115210000D01*
X128630000Y-115210000D01*
X128630000Y-114760000D01*
X127720205Y-114760000D01*
X127720204Y-114760001D01*
X123047343Y-114760001D01*
X122547340Y-114259998D01*
X127720204Y-114259998D01*
X127720205Y-114260000D01*
X128630000Y-114260000D01*
X128630000Y-113710000D01*
X128301850Y-113710000D01*
X128265010Y-113712899D01*
X128265004Y-113712900D01*
X128107306Y-113758716D01*
X128107303Y-113758717D01*
X127965947Y-113842314D01*
X127965938Y-113842321D01*
X127849821Y-113958438D01*
X127849814Y-113958447D01*
X127766218Y-114099801D01*
X127720399Y-114257513D01*
X127720204Y-114259998D01*
X122547340Y-114259998D01*
X122362044Y-114074702D01*
X122328559Y-114013379D01*
X122333543Y-113943687D01*
X122375415Y-113887754D01*
X122376840Y-113886703D01*
X122441928Y-113839414D01*
X124004523Y-112276819D01*
X124065846Y-112243334D01*
X124092204Y-112240500D01*
X130803796Y-112240500D01*
X130870835Y-112260185D01*
G37*
%TD.AperFunction*%
%TA.AperFunction,Conductor*%
G36*
X179782539Y-102120185D02*
G01*
X179828294Y-102172989D01*
X179839500Y-102224500D01*
X179839500Y-131901324D01*
X179819815Y-131968363D01*
X179803181Y-131989005D01*
X175423005Y-136369181D01*
X175361682Y-136402666D01*
X175335324Y-136405500D01*
X157334107Y-136405500D01*
X157206812Y-136439608D01*
X157092686Y-136505500D01*
X157092683Y-136505502D01*
X156999498Y-136598688D01*
X149535245Y-144062940D01*
X149535244Y-144062940D01*
X149535245Y-144062941D01*
X149459500Y-144138686D01*
X149393608Y-144252812D01*
X149359500Y-144380108D01*
X149359500Y-169555500D01*
X149339815Y-169622539D01*
X149287011Y-169668294D01*
X149235500Y-169679500D01*
X89078676Y-169679500D01*
X89011637Y-169659815D01*
X88990995Y-169643181D01*
X82197819Y-162850005D01*
X82164334Y-162788682D01*
X82161500Y-162762324D01*
X82161500Y-160520186D01*
X83959500Y-160520186D01*
X83959500Y-160789813D01*
X83989686Y-161057719D01*
X83989688Y-161057731D01*
X84049684Y-161320594D01*
X84049687Y-161320602D01*
X84138734Y-161575082D01*
X84255714Y-161817994D01*
X84255716Y-161817997D01*
X84399162Y-162046289D01*
X84468325Y-162133017D01*
X84537440Y-162219685D01*
X84567266Y-162257085D01*
X84757915Y-162447734D01*
X84968711Y-162615838D01*
X85191820Y-162756027D01*
X85197005Y-162759285D01*
X85202138Y-162761757D01*
X85439921Y-162876267D01*
X85569576Y-162921635D01*
X85694397Y-162965312D01*
X85694405Y-162965315D01*
X85694408Y-162965315D01*
X85694409Y-162965316D01*
X85957268Y-163025312D01*
X86225187Y-163055499D01*
X86225188Y-163055500D01*
X86225191Y-163055500D01*
X86494812Y-163055500D01*
X86494812Y-163055499D01*
X86762732Y-163025312D01*
X87025591Y-162965316D01*
X87280079Y-162876267D01*
X87522997Y-162759284D01*
X87751289Y-162615838D01*
X87962085Y-162447734D01*
X88152734Y-162257085D01*
X88157561Y-162251033D01*
X88198272Y-162199983D01*
X90727000Y-162199983D01*
X90727000Y-164300001D01*
X90727001Y-164300018D01*
X90737500Y-164402796D01*
X90737501Y-164402799D01*
X90792685Y-164569331D01*
X90792686Y-164569334D01*
X90884788Y-164718656D01*
X91008844Y-164842712D01*
X91158166Y-164934814D01*
X91324703Y-164989999D01*
X91427491Y-165000500D01*
X93570295Y-165000499D01*
X93637334Y-165020184D01*
X93657976Y-165036818D01*
X94665086Y-166043928D01*
X94787572Y-166166414D01*
X94927712Y-166268232D01*
X94980248Y-166295000D01*
X95082050Y-166346871D01*
X95082052Y-166346871D01*
X95082055Y-166346873D01*
X95246799Y-166400403D01*
X95394496Y-166423795D01*
X95417889Y-166427500D01*
X105166000Y-166427500D01*
X105233039Y-166447185D01*
X105278794Y-166499989D01*
X105290000Y-166551500D01*
X105290000Y-166705000D01*
X105990000Y-166705000D01*
X105990000Y-167205000D01*
X105290000Y-167205000D01*
X105290000Y-167453495D01*
X105328427Y-167646681D01*
X105328430Y-167646693D01*
X105403807Y-167828671D01*
X105403814Y-167828684D01*
X105513248Y-167992462D01*
X105513251Y-167992466D01*
X105652533Y-168131748D01*
X105652537Y-168131751D01*
X105816315Y-168241185D01*
X105816328Y-168241192D01*
X105998308Y-168316569D01*
X106040000Y-168324862D01*
X106040000Y-167521988D01*
X106049940Y-167539205D01*
X106105795Y-167595060D01*
X106174204Y-167634556D01*
X106250504Y-167655000D01*
X106329496Y-167655000D01*
X106405796Y-167634556D01*
X106474205Y-167595060D01*
X106530060Y-167539205D01*
X106540000Y-167521988D01*
X106540000Y-168324862D01*
X106581690Y-168316569D01*
X106581692Y-168316569D01*
X106763671Y-168241192D01*
X106763684Y-168241185D01*
X106927462Y-168131751D01*
X106927466Y-168131748D01*
X107066748Y-167992466D01*
X107066751Y-167992462D01*
X107176185Y-167828684D01*
X107176192Y-167828671D01*
X107251569Y-167646693D01*
X107251572Y-167646681D01*
X107289999Y-167453495D01*
X107290000Y-167453492D01*
X107290000Y-167205000D01*
X106590000Y-167205000D01*
X106590000Y-166705000D01*
X107290000Y-166705000D01*
X107290000Y-166551500D01*
X107309685Y-166484461D01*
X107362489Y-166438706D01*
X107414000Y-166427500D01*
X113806000Y-166427500D01*
X113873039Y-166447185D01*
X113918794Y-166499989D01*
X113930000Y-166551500D01*
X113930000Y-166705000D01*
X114630000Y-166705000D01*
X114630000Y-167205000D01*
X113930000Y-167205000D01*
X113930000Y-167453495D01*
X113968427Y-167646681D01*
X113968430Y-167646693D01*
X114043807Y-167828671D01*
X114043814Y-167828684D01*
X114153248Y-167992462D01*
X114153251Y-167992466D01*
X114292533Y-168131748D01*
X114292537Y-168131751D01*
X114456315Y-168241185D01*
X114456328Y-168241192D01*
X114638308Y-168316569D01*
X114680000Y-168324862D01*
X114680000Y-167521988D01*
X114689940Y-167539205D01*
X114745795Y-167595060D01*
X114814204Y-167634556D01*
X114890504Y-167655000D01*
X114969496Y-167655000D01*
X115045796Y-167634556D01*
X115114205Y-167595060D01*
X115170060Y-167539205D01*
X115180000Y-167521988D01*
X115180000Y-168324862D01*
X115221690Y-168316569D01*
X115221692Y-168316569D01*
X115403671Y-168241192D01*
X115403684Y-168241185D01*
X115567462Y-168131751D01*
X115567466Y-168131748D01*
X115706748Y-167992466D01*
X115706751Y-167992462D01*
X115816185Y-167828684D01*
X115816192Y-167828671D01*
X115891569Y-167646693D01*
X115891572Y-167646681D01*
X115929999Y-167453495D01*
X115930000Y-167453492D01*
X115930000Y-167205000D01*
X115230000Y-167205000D01*
X115230000Y-166705000D01*
X115930000Y-166705000D01*
X115930000Y-166551500D01*
X115946149Y-166496504D01*
X138110000Y-166496504D01*
X138110000Y-166745000D01*
X138810000Y-166745000D01*
X138810000Y-167245000D01*
X138110000Y-167245000D01*
X138110000Y-167493495D01*
X138148427Y-167686681D01*
X138148430Y-167686693D01*
X138223807Y-167868671D01*
X138223814Y-167868684D01*
X138333248Y-168032462D01*
X138333251Y-168032466D01*
X138472533Y-168171748D01*
X138472537Y-168171751D01*
X138636315Y-168281185D01*
X138636328Y-168281192D01*
X138818308Y-168356569D01*
X138860000Y-168364862D01*
X138860000Y-167561988D01*
X138869940Y-167579205D01*
X138925795Y-167635060D01*
X138994204Y-167674556D01*
X139070504Y-167695000D01*
X139149496Y-167695000D01*
X139225796Y-167674556D01*
X139294205Y-167635060D01*
X139350060Y-167579205D01*
X139360000Y-167561988D01*
X139360000Y-168364862D01*
X139401690Y-168356569D01*
X139401692Y-168356569D01*
X139583671Y-168281192D01*
X139583684Y-168281185D01*
X139747462Y-168171751D01*
X139747466Y-168171748D01*
X139886748Y-168032466D01*
X139886751Y-168032462D01*
X139996185Y-167868684D01*
X139996192Y-167868671D01*
X140071569Y-167686693D01*
X140071572Y-167686681D01*
X140109999Y-167493495D01*
X140110000Y-167493492D01*
X140110000Y-167245000D01*
X139410000Y-167245000D01*
X139410000Y-166745000D01*
X140110000Y-166745000D01*
X140110000Y-166496508D01*
X140109999Y-166496504D01*
X146750000Y-166496504D01*
X146750000Y-166745000D01*
X147450000Y-166745000D01*
X147450000Y-167245000D01*
X146750000Y-167245000D01*
X146750000Y-167493495D01*
X146788427Y-167686681D01*
X146788430Y-167686693D01*
X146863807Y-167868671D01*
X146863814Y-167868684D01*
X146973248Y-168032462D01*
X146973251Y-168032466D01*
X147112533Y-168171748D01*
X147112537Y-168171751D01*
X147276315Y-168281185D01*
X147276328Y-168281192D01*
X147458308Y-168356569D01*
X147500000Y-168364862D01*
X147500000Y-167561988D01*
X147509940Y-167579205D01*
X147565795Y-167635060D01*
X147634204Y-167674556D01*
X147710504Y-167695000D01*
X147789496Y-167695000D01*
X147865796Y-167674556D01*
X147934205Y-167635060D01*
X147990060Y-167579205D01*
X148000000Y-167561988D01*
X148000000Y-168364862D01*
X148041690Y-168356569D01*
X148041692Y-168356569D01*
X148223671Y-168281192D01*
X148223684Y-168281185D01*
X148387462Y-168171751D01*
X148387466Y-168171748D01*
X148526748Y-168032466D01*
X148526751Y-168032462D01*
X148636185Y-167868684D01*
X148636192Y-167868671D01*
X148711569Y-167686693D01*
X148711572Y-167686681D01*
X148749999Y-167493495D01*
X148750000Y-167493492D01*
X148750000Y-167245000D01*
X148050000Y-167245000D01*
X148050000Y-166745000D01*
X148750000Y-166745000D01*
X148750000Y-166496508D01*
X148749999Y-166496504D01*
X148711572Y-166303318D01*
X148711569Y-166303306D01*
X148636192Y-166121328D01*
X148636185Y-166121315D01*
X148526751Y-165957537D01*
X148526748Y-165957533D01*
X148387466Y-165818251D01*
X148387462Y-165818248D01*
X148223684Y-165708814D01*
X148223671Y-165708807D01*
X148041691Y-165633429D01*
X148041683Y-165633427D01*
X148000000Y-165625135D01*
X148000000Y-166428011D01*
X147990060Y-166410795D01*
X147934205Y-166354940D01*
X147865796Y-166315444D01*
X147789496Y-166295000D01*
X147710504Y-166295000D01*
X147634204Y-166315444D01*
X147565795Y-166354940D01*
X147509940Y-166410795D01*
X147500000Y-166428011D01*
X147500000Y-165625136D01*
X147499999Y-165625135D01*
X147458316Y-165633427D01*
X147458308Y-165633429D01*
X147276328Y-165708807D01*
X147276315Y-165708814D01*
X147112537Y-165818248D01*
X147112533Y-165818251D01*
X146973251Y-165957533D01*
X146973248Y-165957537D01*
X146863814Y-166121315D01*
X146863807Y-166121328D01*
X146788430Y-166303306D01*
X146788427Y-166303318D01*
X146750000Y-166496504D01*
X140109999Y-166496504D01*
X140071572Y-166303318D01*
X140071569Y-166303306D01*
X139996192Y-166121328D01*
X139996185Y-166121315D01*
X139886751Y-165957537D01*
X139886748Y-165957533D01*
X139747466Y-165818251D01*
X139747462Y-165818248D01*
X139583684Y-165708814D01*
X139583671Y-165708807D01*
X139401691Y-165633429D01*
X139401683Y-165633427D01*
X139360000Y-165625135D01*
X139360000Y-166428011D01*
X139350060Y-166410795D01*
X139294205Y-166354940D01*
X139225796Y-166315444D01*
X139149496Y-166295000D01*
X139070504Y-166295000D01*
X138994204Y-166315444D01*
X138925795Y-166354940D01*
X138869940Y-166410795D01*
X138860000Y-166428011D01*
X138860000Y-165625136D01*
X138859999Y-165625135D01*
X138818316Y-165633427D01*
X138818308Y-165633429D01*
X138636328Y-165708807D01*
X138636315Y-165708814D01*
X138472537Y-165818248D01*
X138472533Y-165818251D01*
X138333251Y-165957533D01*
X138333248Y-165957537D01*
X138223814Y-166121315D01*
X138223807Y-166121328D01*
X138148430Y-166303306D01*
X138148427Y-166303318D01*
X138110000Y-166496504D01*
X115946149Y-166496504D01*
X115949685Y-166484461D01*
X116002489Y-166438706D01*
X116054000Y-166427500D01*
X123549610Y-166427500D01*
X123549611Y-166427500D01*
X123720701Y-166400402D01*
X123885445Y-166346873D01*
X124039788Y-166268232D01*
X124179928Y-166166414D01*
X126479523Y-163866817D01*
X126540846Y-163833333D01*
X126567204Y-163830499D01*
X128710002Y-163830499D01*
X128710008Y-163830499D01*
X128812797Y-163819999D01*
X128979334Y-163764814D01*
X129128656Y-163672712D01*
X129252712Y-163548656D01*
X129344814Y-163399334D01*
X129399999Y-163232797D01*
X129410500Y-163130009D01*
X129410500Y-163129986D01*
X132410001Y-163129986D01*
X132420494Y-163232697D01*
X132475641Y-163399119D01*
X132475643Y-163399124D01*
X132567684Y-163548345D01*
X132691654Y-163672315D01*
X132840875Y-163764356D01*
X132840880Y-163764358D01*
X133007302Y-163819505D01*
X133007309Y-163819506D01*
X133110019Y-163829999D01*
X134859999Y-163829999D01*
X135360000Y-163829999D01*
X137109972Y-163829999D01*
X137109986Y-163829998D01*
X137212697Y-163819505D01*
X137379119Y-163764358D01*
X137379124Y-163764356D01*
X137528345Y-163672315D01*
X137652315Y-163548345D01*
X137744356Y-163399124D01*
X137744358Y-163399119D01*
X137799505Y-163232697D01*
X137799506Y-163232690D01*
X137809999Y-163129986D01*
X137810000Y-163129973D01*
X137810000Y-162330000D01*
X135360000Y-162330000D01*
X135360000Y-163829999D01*
X134859999Y-163829999D01*
X134860000Y-163829998D01*
X134860000Y-162330000D01*
X132410001Y-162330000D01*
X132410001Y-163129986D01*
X129410500Y-163129986D01*
X129410499Y-162062489D01*
X129410499Y-161030013D01*
X132410000Y-161030013D01*
X132410000Y-161830000D01*
X134860000Y-161830000D01*
X135360000Y-161830000D01*
X137809999Y-161830000D01*
X137809999Y-161030028D01*
X137809998Y-161030013D01*
X137799505Y-160927302D01*
X137744358Y-160760880D01*
X137744356Y-160760875D01*
X137652315Y-160611654D01*
X137528345Y-160487684D01*
X137379124Y-160395643D01*
X137379119Y-160395641D01*
X137212697Y-160340494D01*
X137212690Y-160340493D01*
X137109986Y-160330000D01*
X135360000Y-160330000D01*
X135360000Y-161830000D01*
X134860000Y-161830000D01*
X134860000Y-160330000D01*
X133110028Y-160330000D01*
X133110012Y-160330001D01*
X133007302Y-160340494D01*
X132840880Y-160395641D01*
X132840875Y-160395643D01*
X132691654Y-160487684D01*
X132567684Y-160611654D01*
X132475643Y-160760875D01*
X132475641Y-160760880D01*
X132420494Y-160927302D01*
X132420493Y-160927309D01*
X132410000Y-161030013D01*
X129410499Y-161030013D01*
X129410499Y-161029998D01*
X129410498Y-161029981D01*
X129399999Y-160927203D01*
X129399998Y-160927200D01*
X129372379Y-160843853D01*
X129344814Y-160760666D01*
X129252712Y-160611344D01*
X129128656Y-160487288D01*
X129003820Y-160410289D01*
X128979336Y-160395187D01*
X128979331Y-160395185D01*
X128938651Y-160381705D01*
X128812797Y-160340001D01*
X128812795Y-160340000D01*
X128710016Y-160329500D01*
X128710009Y-160329500D01*
X127934500Y-160329500D01*
X127867461Y-160309815D01*
X127821706Y-160257011D01*
X127810500Y-160205500D01*
X127810500Y-156037204D01*
X127819144Y-156007763D01*
X127825668Y-155977777D01*
X127829422Y-155972761D01*
X127830185Y-155970165D01*
X127846819Y-155949523D01*
X127889524Y-155906818D01*
X127950847Y-155873333D01*
X127977205Y-155870499D01*
X128717871Y-155870499D01*
X128717872Y-155870499D01*
X128777483Y-155864091D01*
X128912331Y-155813796D01*
X129027546Y-155727546D01*
X129113796Y-155612331D01*
X129164091Y-155477483D01*
X129170500Y-155417873D01*
X129170499Y-154359818D01*
X129770000Y-154359818D01*
X129770000Y-154580181D01*
X129804473Y-154797835D01*
X129872567Y-155007410D01*
X129972611Y-155203756D01*
X130018932Y-155267513D01*
X130646212Y-154640233D01*
X130657482Y-154682292D01*
X130729890Y-154807708D01*
X130832292Y-154910110D01*
X130957708Y-154982518D01*
X130999765Y-154993787D01*
X130372485Y-155621065D01*
X130372485Y-155621066D01*
X130436243Y-155667388D01*
X130632589Y-155767432D01*
X130842164Y-155835526D01*
X131059819Y-155870000D01*
X131280181Y-155870000D01*
X131497835Y-155835526D01*
X131707410Y-155767432D01*
X131903760Y-155667386D01*
X131967513Y-155621066D01*
X131967514Y-155621066D01*
X131340234Y-154993787D01*
X131382292Y-154982518D01*
X131507708Y-154910110D01*
X131610110Y-154807708D01*
X131682518Y-154682292D01*
X131693787Y-154640235D01*
X132321066Y-155267514D01*
X132321066Y-155267513D01*
X132367386Y-155203760D01*
X132467432Y-155007410D01*
X132535526Y-154797835D01*
X132570000Y-154580181D01*
X132570000Y-154359818D01*
X132535526Y-154142164D01*
X132467432Y-153932589D01*
X132367388Y-153736243D01*
X132321066Y-153672485D01*
X132321065Y-153672485D01*
X131693787Y-154299764D01*
X131682518Y-154257708D01*
X131610110Y-154132292D01*
X131507708Y-154029890D01*
X131382292Y-153957482D01*
X131340232Y-153946212D01*
X131967513Y-153318932D01*
X131903756Y-153272611D01*
X131707410Y-153172567D01*
X131497835Y-153104473D01*
X131280181Y-153070000D01*
X131059819Y-153070000D01*
X130842164Y-153104473D01*
X130632589Y-153172567D01*
X130436233Y-153272616D01*
X130372485Y-153318931D01*
X130372485Y-153318932D01*
X130999765Y-153946212D01*
X130957708Y-153957482D01*
X130832292Y-154029890D01*
X130729890Y-154132292D01*
X130657482Y-154257708D01*
X130646212Y-154299765D01*
X130018932Y-153672485D01*
X130018931Y-153672485D01*
X129972616Y-153736233D01*
X129872567Y-153932589D01*
X129804473Y-154142164D01*
X129770000Y-154359818D01*
X129170499Y-154359818D01*
X129170499Y-153522128D01*
X129164091Y-153462517D01*
X129113796Y-153327669D01*
X129113795Y-153327668D01*
X129113793Y-153327664D01*
X129027547Y-153212455D01*
X129027544Y-153212452D01*
X128912335Y-153126206D01*
X128912328Y-153126202D01*
X128777482Y-153075908D01*
X128777483Y-153075908D01*
X128717883Y-153069501D01*
X128717881Y-153069500D01*
X128717873Y-153069500D01*
X128717864Y-153069500D01*
X126822129Y-153069500D01*
X126822123Y-153069501D01*
X126762516Y-153075908D01*
X126627671Y-153126202D01*
X126627664Y-153126206D01*
X126512455Y-153212452D01*
X126512452Y-153212455D01*
X126426206Y-153327664D01*
X126426202Y-153327671D01*
X126375908Y-153462517D01*
X126369501Y-153522116D01*
X126369501Y-153522123D01*
X126369500Y-153522135D01*
X126369500Y-154262795D01*
X126349815Y-154329834D01*
X126333181Y-154350476D01*
X125993072Y-154690586D01*
X125870588Y-154813069D01*
X125870588Y-154813070D01*
X125870586Y-154813072D01*
X125851102Y-154839890D01*
X125768768Y-154953211D01*
X125690128Y-155107552D01*
X125636597Y-155272302D01*
X125609500Y-155443389D01*
X125609500Y-160205500D01*
X125589815Y-160272539D01*
X125537011Y-160318294D01*
X125485500Y-160329500D01*
X124709998Y-160329500D01*
X124709980Y-160329501D01*
X124607203Y-160340000D01*
X124607200Y-160340001D01*
X124440668Y-160395185D01*
X124440663Y-160395187D01*
X124291342Y-160487289D01*
X124167289Y-160611342D01*
X124075187Y-160760663D01*
X124075186Y-160760666D01*
X124034339Y-160883934D01*
X123994566Y-160941378D01*
X123930050Y-160968201D01*
X123861274Y-160955886D01*
X123828952Y-160932610D01*
X119206819Y-156310477D01*
X119173334Y-156249154D01*
X119170500Y-156222796D01*
X119170500Y-154962486D01*
X121630001Y-154962486D01*
X121640494Y-155065197D01*
X121695641Y-155231619D01*
X121695643Y-155231624D01*
X121787684Y-155380845D01*
X121911654Y-155504815D01*
X122060875Y-155596856D01*
X122060880Y-155596858D01*
X122227302Y-155652005D01*
X122227309Y-155652006D01*
X122330019Y-155662499D01*
X122779999Y-155662499D01*
X123280000Y-155662499D01*
X123729972Y-155662499D01*
X123729986Y-155662498D01*
X123832697Y-155652005D01*
X123999119Y-155596858D01*
X123999124Y-155596856D01*
X124148345Y-155504815D01*
X124272315Y-155380845D01*
X124364356Y-155231624D01*
X124364358Y-155231619D01*
X124419505Y-155065197D01*
X124419506Y-155065190D01*
X124429999Y-154962486D01*
X124430000Y-154962473D01*
X124430000Y-154162500D01*
X123280000Y-154162500D01*
X123280000Y-155662499D01*
X122779999Y-155662499D01*
X122780000Y-155662498D01*
X122780000Y-154162500D01*
X121630001Y-154162500D01*
X121630001Y-154962486D01*
X119170500Y-154962486D01*
X119170500Y-152862513D01*
X121630000Y-152862513D01*
X121630000Y-153662500D01*
X122780000Y-153662500D01*
X123280000Y-153662500D01*
X124429999Y-153662500D01*
X124429999Y-152862528D01*
X124429998Y-152862513D01*
X124419505Y-152759802D01*
X124364358Y-152593380D01*
X124364356Y-152593375D01*
X124272315Y-152444154D01*
X124148345Y-152320184D01*
X123999124Y-152228143D01*
X123999119Y-152228141D01*
X123832697Y-152172994D01*
X123832690Y-152172993D01*
X123729986Y-152162500D01*
X123280000Y-152162500D01*
X123280000Y-153662500D01*
X122780000Y-153662500D01*
X122780000Y-152162500D01*
X122330028Y-152162500D01*
X122330012Y-152162501D01*
X122227302Y-152172994D01*
X122060880Y-152228141D01*
X122060875Y-152228143D01*
X121911654Y-152320184D01*
X121787684Y-152444154D01*
X121695643Y-152593375D01*
X121695641Y-152593380D01*
X121640494Y-152759802D01*
X121640493Y-152759809D01*
X121630000Y-152862513D01*
X119170500Y-152862513D01*
X119170500Y-148862483D01*
X121629500Y-148862483D01*
X121629500Y-150962501D01*
X121629501Y-150962518D01*
X121640000Y-151065296D01*
X121640001Y-151065299D01*
X121695185Y-151231831D01*
X121695187Y-151231836D01*
X121730069Y-151288388D01*
X121787288Y-151381156D01*
X121911344Y-151505212D01*
X122060666Y-151597314D01*
X122227203Y-151652499D01*
X122329991Y-151663000D01*
X123204035Y-151662999D01*
X123271074Y-151682683D01*
X123276911Y-151686674D01*
X123310712Y-151711232D01*
X123465055Y-151789873D01*
X123629799Y-151843402D01*
X123800889Y-151870500D01*
X123974111Y-151870500D01*
X128561745Y-151870500D01*
X128628784Y-151890185D01*
X128634630Y-151894182D01*
X128673742Y-151922598D01*
X128735978Y-151967815D01*
X128863898Y-152032994D01*
X128932393Y-152067895D01*
X128932396Y-152067896D01*
X129037221Y-152101955D01*
X129142049Y-152136015D01*
X129359778Y-152170500D01*
X129359779Y-152170500D01*
X129580221Y-152170500D01*
X129580222Y-152170500D01*
X129797951Y-152136015D01*
X130007606Y-152067895D01*
X130204022Y-151967815D01*
X130382365Y-151838242D01*
X130538242Y-151682365D01*
X130667815Y-151504022D01*
X130767895Y-151307606D01*
X130836015Y-151097951D01*
X130870500Y-150880222D01*
X130870500Y-150659778D01*
X131469500Y-150659778D01*
X131469500Y-150880221D01*
X131503985Y-151097952D01*
X131572103Y-151307603D01*
X131572104Y-151307606D01*
X131672187Y-151504025D01*
X131801752Y-151682358D01*
X131801756Y-151682363D01*
X131957636Y-151838243D01*
X131957641Y-151838247D01*
X132053583Y-151907952D01*
X132135978Y-151967815D01*
X132263898Y-152032994D01*
X132332393Y-152067895D01*
X132332396Y-152067896D01*
X132437221Y-152101955D01*
X132542049Y-152136015D01*
X132759778Y-152170500D01*
X132759779Y-152170500D01*
X132980221Y-152170500D01*
X132980222Y-152170500D01*
X133197951Y-152136015D01*
X133407606Y-152067895D01*
X133407606Y-152067894D01*
X133407611Y-152067893D01*
X133594931Y-151972447D01*
X133663600Y-151959550D01*
X133728341Y-151985826D01*
X133738908Y-151995250D01*
X134601977Y-152858319D01*
X134635462Y-152919642D01*
X134630478Y-152989334D01*
X134588606Y-153045267D01*
X134523142Y-153069684D01*
X134514296Y-153070000D01*
X134459819Y-153070000D01*
X134242164Y-153104473D01*
X134032589Y-153172567D01*
X133836233Y-153272616D01*
X133772485Y-153318931D01*
X133772485Y-153318932D01*
X134399766Y-153946212D01*
X134357708Y-153957482D01*
X134232292Y-154029890D01*
X134129890Y-154132292D01*
X134057482Y-154257708D01*
X134046212Y-154299765D01*
X133418932Y-153672485D01*
X133418931Y-153672485D01*
X133372616Y-153736233D01*
X133272567Y-153932589D01*
X133204473Y-154142164D01*
X133170000Y-154359818D01*
X133170000Y-154580181D01*
X133204473Y-154797835D01*
X133272567Y-155007410D01*
X133372611Y-155203756D01*
X133418932Y-155267513D01*
X134046212Y-154640233D01*
X134057482Y-154682292D01*
X134129890Y-154807708D01*
X134232292Y-154910110D01*
X134357708Y-154982518D01*
X134399765Y-154993787D01*
X133772485Y-155621065D01*
X133772485Y-155621066D01*
X133836243Y-155667388D01*
X134032589Y-155767432D01*
X134242164Y-155835526D01*
X134459819Y-155870000D01*
X134680181Y-155870000D01*
X134897835Y-155835526D01*
X135107410Y-155767432D01*
X135303760Y-155667386D01*
X135367513Y-155621066D01*
X135367514Y-155621066D01*
X134740234Y-154993787D01*
X134782292Y-154982518D01*
X134907708Y-154910110D01*
X135010110Y-154807708D01*
X135082518Y-154682292D01*
X135093787Y-154640234D01*
X135721066Y-155267514D01*
X135721066Y-155267513D01*
X135767386Y-155203760D01*
X135867432Y-155007410D01*
X135935526Y-154797835D01*
X135970000Y-154580181D01*
X135970000Y-154525704D01*
X135989685Y-154458665D01*
X136042489Y-154412910D01*
X136111647Y-154402966D01*
X136175203Y-154431991D01*
X136181681Y-154438023D01*
X137773181Y-156029523D01*
X137806666Y-156090846D01*
X137809500Y-156117204D01*
X137809500Y-158688846D01*
X137840261Y-158843489D01*
X137840264Y-158843501D01*
X137900602Y-158989172D01*
X137900609Y-158989185D01*
X137988210Y-159120288D01*
X137988213Y-159120292D01*
X138463181Y-159595259D01*
X138496666Y-159656582D01*
X138499500Y-159682940D01*
X138499500Y-159978846D01*
X138530261Y-160133489D01*
X138530264Y-160133501D01*
X138590602Y-160279172D01*
X138590609Y-160279185D01*
X138678210Y-160410288D01*
X138678213Y-160410292D01*
X139299105Y-161031183D01*
X139306573Y-161039348D01*
X139310833Y-161044445D01*
X139334783Y-161080289D01*
X139371328Y-161116834D01*
X139374879Y-161121083D01*
X139386704Y-161148251D01*
X139400896Y-161174241D01*
X139400489Y-161179921D01*
X139402764Y-161185147D01*
X139398024Y-161214387D01*
X139395912Y-161243933D01*
X139392451Y-161248777D01*
X139391586Y-161254117D01*
X139377186Y-161270147D01*
X139360000Y-161294206D01*
X139360000Y-161990000D01*
X140105500Y-161990000D01*
X140172539Y-162009685D01*
X140218294Y-162062489D01*
X140229500Y-162114000D01*
X140229500Y-162730701D01*
X140230964Y-162749298D01*
X140229550Y-162756027D01*
X140231292Y-162762678D01*
X140222459Y-162789780D01*
X140216599Y-162817675D01*
X140211256Y-162824155D01*
X140209642Y-162829109D01*
X140191695Y-162848052D01*
X140192381Y-162848738D01*
X140191681Y-162849438D01*
X140189374Y-162850697D01*
X140185753Y-162855090D01*
X140182407Y-162857821D01*
X140182139Y-162857933D01*
X140180202Y-162859421D01*
X140179813Y-162858914D01*
X140155749Y-162869058D01*
X140130358Y-162882923D01*
X140123946Y-162882464D01*
X140118024Y-162884961D01*
X140089526Y-162880002D01*
X140060666Y-162877939D01*
X140055519Y-162874086D01*
X140049189Y-162872985D01*
X140027893Y-162853404D01*
X140004733Y-162836067D01*
X140002487Y-162830045D01*
X139997755Y-162825695D01*
X139990425Y-162797706D01*
X139980316Y-162770603D01*
X139980000Y-162761757D01*
X139980000Y-162490000D01*
X139410000Y-162490000D01*
X139410000Y-162225504D01*
X139389556Y-162149204D01*
X139350060Y-162080795D01*
X139294205Y-162024940D01*
X139225796Y-161985444D01*
X139149496Y-161965000D01*
X139070504Y-161965000D01*
X138994204Y-161985444D01*
X138925795Y-162024940D01*
X138869940Y-162080795D01*
X138860000Y-162098011D01*
X138860000Y-161295136D01*
X138859999Y-161295135D01*
X138818316Y-161303427D01*
X138818308Y-161303429D01*
X138636328Y-161378807D01*
X138636315Y-161378814D01*
X138472537Y-161488248D01*
X138472533Y-161488251D01*
X138333251Y-161627533D01*
X138333248Y-161627537D01*
X138223814Y-161791315D01*
X138223807Y-161791328D01*
X138148430Y-161973306D01*
X138148427Y-161973318D01*
X138110000Y-162166504D01*
X138110000Y-162565000D01*
X138810000Y-162565000D01*
X138810000Y-163065000D01*
X138110000Y-163065000D01*
X138110000Y-163463495D01*
X138148427Y-163656681D01*
X138148430Y-163656693D01*
X138223807Y-163838671D01*
X138223814Y-163838684D01*
X138333248Y-164002462D01*
X138333251Y-164002466D01*
X138472533Y-164141748D01*
X138472537Y-164141751D01*
X138636315Y-164251185D01*
X138636328Y-164251192D01*
X138818308Y-164326569D01*
X138860000Y-164334862D01*
X138860000Y-163531988D01*
X138869940Y-163549205D01*
X138925795Y-163605060D01*
X138994204Y-163644556D01*
X139070504Y-163665000D01*
X139149496Y-163665000D01*
X139225796Y-163644556D01*
X139294205Y-163605060D01*
X139350060Y-163549205D01*
X139360000Y-163531988D01*
X139360000Y-164334862D01*
X139401690Y-164326569D01*
X139401692Y-164326569D01*
X139583671Y-164251192D01*
X139583684Y-164251185D01*
X139747462Y-164141751D01*
X139747466Y-164141748D01*
X139886748Y-164002466D01*
X139886751Y-164002462D01*
X139996185Y-163838684D01*
X139996186Y-163838682D01*
X140000129Y-163829163D01*
X140043968Y-163774757D01*
X140110261Y-163752689D01*
X140177961Y-163769965D01*
X140183400Y-163773647D01*
X140186634Y-163775514D01*
X140186635Y-163775515D01*
X140263683Y-163819999D01*
X140316510Y-163850499D01*
X140317865Y-163851281D01*
X140464234Y-163890500D01*
X140464236Y-163890500D01*
X140615764Y-163890500D01*
X140615766Y-163890500D01*
X140762135Y-163851281D01*
X140893365Y-163775515D01*
X140966531Y-163702348D01*
X141027850Y-163668866D01*
X141092062Y-163671951D01*
X141104708Y-163676004D01*
X141128216Y-163689577D01*
X141240019Y-163719534D01*
X141280942Y-163730500D01*
X141280943Y-163730500D01*
X145208917Y-163730500D01*
X145208933Y-163730501D01*
X145216529Y-163730501D01*
X145374640Y-163730501D01*
X145374643Y-163730501D01*
X145527371Y-163689577D01*
X145577490Y-163660639D01*
X145664302Y-163610520D01*
X145666879Y-163607942D01*
X145676761Y-163602118D01*
X145703594Y-163595351D01*
X145729404Y-163585372D01*
X145736994Y-163586928D01*
X145744510Y-163585033D01*
X145770741Y-163593847D01*
X145797850Y-163599406D01*
X145803497Y-163604854D01*
X145810741Y-163607289D01*
X145826813Y-163627352D01*
X145847114Y-163646939D01*
X145859482Y-163668361D01*
X145859484Y-163668363D01*
X145859485Y-163668365D01*
X145966635Y-163775515D01*
X146080281Y-163841129D01*
X146096510Y-163850499D01*
X146097865Y-163851281D01*
X146244234Y-163890500D01*
X146244236Y-163890500D01*
X146395764Y-163890500D01*
X146395766Y-163890500D01*
X146542135Y-163851281D01*
X146673365Y-163775515D01*
X146673366Y-163775513D01*
X146680403Y-163771451D01*
X146681676Y-163773656D01*
X146734956Y-163753043D01*
X146803405Y-163767063D01*
X146853407Y-163815864D01*
X146859867Y-163829157D01*
X146863809Y-163838674D01*
X146863814Y-163838684D01*
X146973248Y-164002462D01*
X146973251Y-164002466D01*
X147112533Y-164141748D01*
X147112537Y-164141751D01*
X147276315Y-164251185D01*
X147276328Y-164251192D01*
X147458308Y-164326569D01*
X147500000Y-164334862D01*
X147500000Y-163531988D01*
X147509940Y-163549205D01*
X147565795Y-163605060D01*
X147634204Y-163644556D01*
X147710504Y-163665000D01*
X147789496Y-163665000D01*
X147865796Y-163644556D01*
X147934205Y-163605060D01*
X147990060Y-163549205D01*
X148000000Y-163531988D01*
X148000000Y-164334862D01*
X148041690Y-164326569D01*
X148041692Y-164326569D01*
X148223671Y-164251192D01*
X148223684Y-164251185D01*
X148387462Y-164141751D01*
X148387466Y-164141748D01*
X148526748Y-164002466D01*
X148526751Y-164002462D01*
X148636185Y-163838684D01*
X148636192Y-163838671D01*
X148711569Y-163656693D01*
X148711572Y-163656681D01*
X148749999Y-163463495D01*
X148750000Y-163463492D01*
X148750000Y-163065000D01*
X148050000Y-163065000D01*
X148050000Y-162565000D01*
X148750000Y-162565000D01*
X148750000Y-162166508D01*
X148749999Y-162166504D01*
X148711572Y-161973318D01*
X148711569Y-161973306D01*
X148636192Y-161791328D01*
X148636185Y-161791315D01*
X148526751Y-161627537D01*
X148526748Y-161627533D01*
X148387466Y-161488251D01*
X148387462Y-161488248D01*
X148223684Y-161378814D01*
X148223671Y-161378807D01*
X148041691Y-161303429D01*
X148041683Y-161303427D01*
X148000000Y-161295135D01*
X148000000Y-162098011D01*
X147990060Y-162080795D01*
X147934205Y-162024940D01*
X147865796Y-161985444D01*
X147789496Y-161965000D01*
X147710504Y-161965000D01*
X147634204Y-161985444D01*
X147565795Y-162024940D01*
X147509940Y-162080795D01*
X147500000Y-162098011D01*
X147500000Y-161295136D01*
X147499999Y-161295135D01*
X147458316Y-161303427D01*
X147458308Y-161303429D01*
X147343483Y-161350991D01*
X147274013Y-161358460D01*
X147211534Y-161327184D01*
X147208348Y-161324110D01*
X147181556Y-161297317D01*
X147181552Y-161297314D01*
X147040196Y-161213717D01*
X147040193Y-161213716D01*
X146882494Y-161167900D01*
X146882497Y-161167900D01*
X146880000Y-161167703D01*
X146880000Y-162761757D01*
X146875484Y-162777134D01*
X146875959Y-162793155D01*
X146865842Y-162809970D01*
X146860315Y-162828796D01*
X146848203Y-162839290D01*
X146839941Y-162853025D01*
X146822339Y-162861702D01*
X146807511Y-162874551D01*
X146791648Y-162876831D01*
X146777272Y-162883919D01*
X146757774Y-162881702D01*
X146738353Y-162884495D01*
X146722978Y-162877746D01*
X146707850Y-162876027D01*
X146686793Y-162861864D01*
X146680179Y-162858961D01*
X146679816Y-162859435D01*
X146677886Y-162857954D01*
X146677607Y-162857832D01*
X146674260Y-162855101D01*
X146672140Y-162852008D01*
X146668319Y-162849438D01*
X146667619Y-162848738D01*
X146668972Y-162847384D01*
X146655524Y-162827762D01*
X146635965Y-162800977D01*
X146635672Y-162798795D01*
X146634762Y-162797467D01*
X146634554Y-162790454D01*
X146629036Y-162749292D01*
X146630500Y-162730694D01*
X146630500Y-161749306D01*
X146627598Y-161712431D01*
X146611692Y-161657684D01*
X146581745Y-161554606D01*
X146581744Y-161554603D01*
X146581744Y-161554602D01*
X146498081Y-161413135D01*
X146498079Y-161413133D01*
X146498076Y-161413129D01*
X146416319Y-161331372D01*
X146382834Y-161270049D01*
X146380000Y-161243691D01*
X146380000Y-161167703D01*
X146377504Y-161167900D01*
X146265490Y-161200444D01*
X146249080Y-161200716D01*
X146235359Y-161205288D01*
X146204463Y-161201456D01*
X146200266Y-161201526D01*
X146198287Y-161201021D01*
X146082569Y-161167402D01*
X146059176Y-161165561D01*
X146048871Y-161162934D01*
X146027590Y-161150316D01*
X146004479Y-161141507D01*
X145998066Y-161132811D01*
X145988771Y-161127300D01*
X145977692Y-161105183D01*
X145963010Y-161085275D01*
X145960443Y-161070752D01*
X145957477Y-161064830D01*
X145958201Y-161058066D01*
X145955500Y-161042776D01*
X145955500Y-159864812D01*
X145975185Y-159797773D01*
X146027989Y-159752018D01*
X146097147Y-159742074D01*
X146160703Y-159771099D01*
X146167181Y-159777131D01*
X146170122Y-159780072D01*
X146315604Y-159868019D01*
X146315603Y-159868019D01*
X146477894Y-159918590D01*
X146477893Y-159918590D01*
X146548408Y-159924998D01*
X146548426Y-159924999D01*
X147055000Y-159924999D01*
X147061581Y-159924999D01*
X147132102Y-159918591D01*
X147132107Y-159918590D01*
X147294396Y-159868018D01*
X147439877Y-159780072D01*
X147560072Y-159659877D01*
X147648019Y-159514395D01*
X147698590Y-159352106D01*
X147705000Y-159281572D01*
X147705000Y-159200000D01*
X147055000Y-159200000D01*
X147055000Y-159924999D01*
X146548426Y-159924999D01*
X146554999Y-159924998D01*
X146555000Y-159924998D01*
X146555000Y-158700000D01*
X147055000Y-158700000D01*
X147704999Y-158700000D01*
X147704999Y-158618417D01*
X147698591Y-158547897D01*
X147698590Y-158547892D01*
X147648018Y-158385603D01*
X147560072Y-158240122D01*
X147439877Y-158119927D01*
X147294395Y-158031980D01*
X147294396Y-158031980D01*
X147132105Y-157981409D01*
X147132106Y-157981409D01*
X147061572Y-157975000D01*
X147055000Y-157975000D01*
X147055000Y-158700000D01*
X146555000Y-158700000D01*
X146555000Y-157975000D01*
X146554999Y-157974999D01*
X146548436Y-157975000D01*
X146548417Y-157975001D01*
X146477897Y-157981408D01*
X146477892Y-157981409D01*
X146315603Y-158031981D01*
X146170122Y-158119927D01*
X146170121Y-158119928D01*
X146068035Y-158222015D01*
X146006712Y-158255500D01*
X145937020Y-158250516D01*
X145892673Y-158222015D01*
X145790188Y-158119530D01*
X145644606Y-158031522D01*
X145482196Y-157980914D01*
X145482194Y-157980913D01*
X145482192Y-157980913D01*
X145432778Y-157976423D01*
X145411616Y-157974500D01*
X144898384Y-157974500D01*
X144879145Y-157976248D01*
X144827807Y-157980913D01*
X144665393Y-158031522D01*
X144519811Y-158119530D01*
X144399530Y-158239811D01*
X144311522Y-158385393D01*
X144260913Y-158547807D01*
X144260649Y-158550716D01*
X144254500Y-158618384D01*
X144254500Y-159281616D01*
X144254553Y-159282196D01*
X144260913Y-159352192D01*
X144260913Y-159352194D01*
X144260914Y-159352196D01*
X144311522Y-159514606D01*
X144311523Y-159514607D01*
X144311524Y-159514611D01*
X144336616Y-159556116D01*
X144354500Y-159620267D01*
X144354500Y-161040500D01*
X144334815Y-161107539D01*
X144282011Y-161153294D01*
X144230500Y-161164500D01*
X144067272Y-161164500D01*
X143981478Y-161175796D01*
X143954764Y-161179313D01*
X143954762Y-161179313D01*
X143946708Y-161180374D01*
X143946316Y-161177399D01*
X143913684Y-161177399D01*
X143913292Y-161180374D01*
X143905237Y-161179313D01*
X143905236Y-161179313D01*
X143876271Y-161175499D01*
X143792727Y-161164500D01*
X143792720Y-161164500D01*
X143567280Y-161164500D01*
X143567272Y-161164500D01*
X143481478Y-161175796D01*
X143454764Y-161179313D01*
X143454762Y-161179313D01*
X143446708Y-161180374D01*
X143446316Y-161177399D01*
X143413684Y-161177399D01*
X143413292Y-161180374D01*
X143405237Y-161179313D01*
X143405236Y-161179313D01*
X143376271Y-161175499D01*
X143292727Y-161164500D01*
X143292720Y-161164500D01*
X143080994Y-161164500D01*
X143013955Y-161144815D01*
X142968200Y-161092011D01*
X142968135Y-161091869D01*
X142962180Y-161078785D01*
X142959737Y-161066503D01*
X142899394Y-160920821D01*
X142870810Y-160878043D01*
X142866641Y-160868882D01*
X142863074Y-160843853D01*
X142855520Y-160819726D01*
X142855500Y-160817513D01*
X142855500Y-159550267D01*
X142873384Y-159486116D01*
X142898475Y-159444611D01*
X142898475Y-159444610D01*
X142898478Y-159444606D01*
X142949086Y-159282196D01*
X142955500Y-159211616D01*
X142955500Y-158548384D01*
X142949086Y-158477804D01*
X142898478Y-158315394D01*
X142810472Y-158169815D01*
X142810470Y-158169813D01*
X142810469Y-158169811D01*
X142690188Y-158049530D01*
X142660399Y-158031522D01*
X142544606Y-157961522D01*
X142382196Y-157910914D01*
X142382194Y-157910913D01*
X142382192Y-157910913D01*
X142332778Y-157906423D01*
X142311616Y-157904500D01*
X141798384Y-157904500D01*
X141779145Y-157906248D01*
X141727807Y-157910913D01*
X141565393Y-157961522D01*
X141419811Y-158049530D01*
X141419810Y-158049531D01*
X141317327Y-158152015D01*
X141256004Y-158185500D01*
X141186312Y-158180516D01*
X141141965Y-158152015D01*
X141039877Y-158049927D01*
X140894395Y-157961980D01*
X140894396Y-157961980D01*
X140732105Y-157911409D01*
X140732106Y-157911409D01*
X140661572Y-157905000D01*
X140655000Y-157905000D01*
X140655000Y-158756000D01*
X140635315Y-158823039D01*
X140582511Y-158868794D01*
X140531000Y-158880000D01*
X140279000Y-158880000D01*
X140211961Y-158860315D01*
X140166206Y-158807511D01*
X140155000Y-158756000D01*
X140155000Y-157905000D01*
X140154999Y-157904999D01*
X140148436Y-157905000D01*
X140148417Y-157905001D01*
X140077897Y-157911408D01*
X140077892Y-157911409D01*
X139915603Y-157961981D01*
X139770122Y-158049927D01*
X139649927Y-158170122D01*
X139640617Y-158185524D01*
X139589089Y-158232712D01*
X139520229Y-158244550D01*
X139455901Y-158217281D01*
X139416527Y-158159562D01*
X139410500Y-158121374D01*
X139410500Y-156919986D01*
X140870001Y-156919986D01*
X140880494Y-157022697D01*
X140935641Y-157189119D01*
X140935643Y-157189124D01*
X141027684Y-157338345D01*
X141151654Y-157462315D01*
X141300875Y-157554356D01*
X141300880Y-157554358D01*
X141467302Y-157609505D01*
X141467309Y-157609506D01*
X141570019Y-157619999D01*
X142369999Y-157619999D01*
X142870000Y-157619999D01*
X143669972Y-157619999D01*
X143669986Y-157619998D01*
X143772697Y-157609505D01*
X143939119Y-157554358D01*
X143939124Y-157554356D01*
X144088345Y-157462315D01*
X144212315Y-157338345D01*
X144304356Y-157189124D01*
X144304358Y-157189119D01*
X144359505Y-157022697D01*
X144359506Y-157022690D01*
X144369999Y-156919986D01*
X144370000Y-156919973D01*
X144370000Y-155170000D01*
X142870000Y-155170000D01*
X142870000Y-157619999D01*
X142369999Y-157619999D01*
X142370000Y-157619998D01*
X142370000Y-155170000D01*
X140870001Y-155170000D01*
X140870001Y-156919986D01*
X139410500Y-156919986D01*
X139410500Y-156117205D01*
X139430185Y-156050166D01*
X139446819Y-156029524D01*
X139446820Y-156029523D01*
X139449415Y-156026928D01*
X139449417Y-156026924D01*
X139449420Y-156026922D01*
X139551229Y-155886792D01*
X139551228Y-155886792D01*
X139551232Y-155886788D01*
X139629873Y-155732446D01*
X139683403Y-155567701D01*
X139700958Y-155456858D01*
X139710500Y-155396615D01*
X139710500Y-155223385D01*
X139696982Y-155138036D01*
X139696982Y-155138035D01*
X139683404Y-155052304D01*
X139683403Y-155052302D01*
X139683403Y-155052299D01*
X139629873Y-154887555D01*
X139629871Y-154887552D01*
X139629871Y-154887550D01*
X139551229Y-154733208D01*
X139449420Y-154593078D01*
X137776355Y-152920013D01*
X140870000Y-152920013D01*
X140870000Y-154670000D01*
X142370000Y-154670000D01*
X142870000Y-154670000D01*
X144369999Y-154670000D01*
X144369999Y-152920028D01*
X144369998Y-152920013D01*
X144359505Y-152817302D01*
X144304358Y-152650880D01*
X144304356Y-152650875D01*
X144212315Y-152501654D01*
X144088345Y-152377684D01*
X143939124Y-152285643D01*
X143939119Y-152285641D01*
X143772697Y-152230494D01*
X143772690Y-152230493D01*
X143669986Y-152220000D01*
X142870000Y-152220000D01*
X142870000Y-154670000D01*
X142370000Y-154670000D01*
X142370000Y-152220000D01*
X141570028Y-152220000D01*
X141570012Y-152220001D01*
X141467302Y-152230494D01*
X141300880Y-152285641D01*
X141300875Y-152285643D01*
X141151654Y-152377684D01*
X141027684Y-152501654D01*
X140935643Y-152650875D01*
X140935641Y-152650880D01*
X140880494Y-152817302D01*
X140880493Y-152817309D01*
X140870000Y-152920013D01*
X137776355Y-152920013D01*
X135114023Y-150257681D01*
X135080538Y-150196358D01*
X135085522Y-150126666D01*
X135114023Y-150082319D01*
X137539523Y-147656819D01*
X137600846Y-147623334D01*
X137627204Y-147620500D01*
X140745501Y-147620500D01*
X140812540Y-147640185D01*
X140858295Y-147692989D01*
X140869501Y-147744500D01*
X140869501Y-148520018D01*
X140880000Y-148622796D01*
X140880001Y-148622799D01*
X140935185Y-148789331D01*
X140935186Y-148789334D01*
X141027288Y-148938656D01*
X141151344Y-149062712D01*
X141300666Y-149154814D01*
X141467203Y-149209999D01*
X141569991Y-149220500D01*
X143670008Y-149220499D01*
X143772797Y-149209999D01*
X143939334Y-149154814D01*
X144088656Y-149062712D01*
X144212712Y-148938656D01*
X144304814Y-148789334D01*
X144359999Y-148622797D01*
X144370500Y-148520009D01*
X144370499Y-144519992D01*
X144359999Y-144417203D01*
X144304814Y-144250666D01*
X144212712Y-144101344D01*
X144088656Y-143977288D01*
X143939334Y-143885186D01*
X143772797Y-143830001D01*
X143772795Y-143830000D01*
X143670010Y-143819500D01*
X141569998Y-143819500D01*
X141569980Y-143819501D01*
X141543186Y-143822239D01*
X141474493Y-143809469D01*
X141442904Y-143786562D01*
X137436818Y-139780476D01*
X137422114Y-139753548D01*
X137418849Y-139748468D01*
X137411705Y-139740223D01*
X137410760Y-139735881D01*
X137405522Y-139727730D01*
X137404630Y-139721529D01*
X137403333Y-139719153D01*
X137400499Y-139692795D01*
X137400499Y-139692186D01*
X144665500Y-139692186D01*
X144665500Y-139961813D01*
X144695686Y-140229719D01*
X144695687Y-140229728D01*
X144695688Y-140229732D01*
X144710687Y-140295446D01*
X144755684Y-140492594D01*
X144755687Y-140492602D01*
X144844734Y-140747082D01*
X144961714Y-140989994D01*
X144961716Y-140989997D01*
X145105162Y-141218289D01*
X145208499Y-141347870D01*
X145267329Y-141421641D01*
X145273266Y-141429085D01*
X145463915Y-141619734D01*
X145674711Y-141787838D01*
X145903003Y-141931284D01*
X146145921Y-142048267D01*
X146337049Y-142115145D01*
X146400397Y-142137312D01*
X146400405Y-142137315D01*
X146400408Y-142137315D01*
X146400409Y-142137316D01*
X146663268Y-142197312D01*
X146931187Y-142227499D01*
X146931188Y-142227500D01*
X146931191Y-142227500D01*
X147200812Y-142227500D01*
X147200812Y-142227499D01*
X147468732Y-142197312D01*
X147731591Y-142137316D01*
X147986079Y-142048267D01*
X148228997Y-141931284D01*
X148457289Y-141787838D01*
X148668085Y-141619734D01*
X148858734Y-141429085D01*
X149026838Y-141218289D01*
X149170284Y-140989997D01*
X149287267Y-140747079D01*
X149376316Y-140492591D01*
X149436312Y-140229732D01*
X149466500Y-139961809D01*
X149466500Y-139692191D01*
X149436312Y-139424268D01*
X149376316Y-139161409D01*
X149361651Y-139119500D01*
X149332794Y-139037030D01*
X149287267Y-138906921D01*
X149170284Y-138664003D01*
X149026838Y-138435711D01*
X148858734Y-138224915D01*
X148668085Y-138034266D01*
X148457289Y-137866162D01*
X148228997Y-137722716D01*
X148228994Y-137722714D01*
X147986082Y-137605734D01*
X147731602Y-137516687D01*
X147731594Y-137516684D01*
X147522135Y-137468877D01*
X147468732Y-137456688D01*
X147468728Y-137456687D01*
X147468719Y-137456686D01*
X147200813Y-137426500D01*
X147200809Y-137426500D01*
X146931191Y-137426500D01*
X146931186Y-137426500D01*
X146663280Y-137456686D01*
X146663268Y-137456688D01*
X146400405Y-137516684D01*
X146400397Y-137516687D01*
X146145917Y-137605734D01*
X145903005Y-137722714D01*
X145674712Y-137866161D01*
X145463915Y-138034265D01*
X145273265Y-138224915D01*
X145105161Y-138435712D01*
X144961714Y-138664005D01*
X144844734Y-138906917D01*
X144755687Y-139161397D01*
X144755684Y-139161405D01*
X144695688Y-139424268D01*
X144695686Y-139424280D01*
X144665500Y-139692186D01*
X137400499Y-139692186D01*
X137400499Y-135852129D01*
X137400498Y-135852123D01*
X137400497Y-135852116D01*
X137394091Y-135792517D01*
X137376741Y-135746000D01*
X137343797Y-135657671D01*
X137343793Y-135657664D01*
X137257547Y-135542455D01*
X137257544Y-135542452D01*
X137142335Y-135456206D01*
X137142328Y-135456202D01*
X137007482Y-135405908D01*
X137007483Y-135405908D01*
X136947883Y-135399501D01*
X136947881Y-135399500D01*
X136947873Y-135399500D01*
X136947864Y-135399500D01*
X133952129Y-135399500D01*
X133952123Y-135399501D01*
X133892516Y-135405908D01*
X133757671Y-135456202D01*
X133757664Y-135456206D01*
X133642455Y-135542452D01*
X133642452Y-135542455D01*
X133556206Y-135657664D01*
X133556202Y-135657671D01*
X133505908Y-135792517D01*
X133499695Y-135850315D01*
X133499501Y-135852123D01*
X133499500Y-135852135D01*
X133499500Y-141347870D01*
X133499501Y-141347876D01*
X133505908Y-141407483D01*
X133556202Y-141542328D01*
X133556206Y-141542335D01*
X133642452Y-141657544D01*
X133642455Y-141657547D01*
X133757664Y-141743793D01*
X133757671Y-141743797D01*
X133892517Y-141794091D01*
X133892516Y-141794091D01*
X133899444Y-141794835D01*
X133952127Y-141800500D01*
X136292795Y-141800499D01*
X136359834Y-141820184D01*
X136380476Y-141836818D01*
X139751477Y-145207819D01*
X139784962Y-145269142D01*
X139779978Y-145338834D01*
X139738106Y-145394767D01*
X139672642Y-145419184D01*
X139663796Y-145419500D01*
X137033389Y-145419500D01*
X136993728Y-145425781D01*
X136862302Y-145446597D01*
X136697552Y-145500128D01*
X136543211Y-145578768D01*
X136430601Y-145660585D01*
X136430600Y-145660584D01*
X136403078Y-145680580D01*
X136403070Y-145680587D01*
X132734061Y-149349595D01*
X132672738Y-149383080D01*
X132665779Y-149384387D01*
X132542047Y-149403985D01*
X132332396Y-149472103D01*
X132332393Y-149472104D01*
X132135974Y-149572187D01*
X131957641Y-149701752D01*
X131957636Y-149701756D01*
X131801756Y-149857636D01*
X131801752Y-149857641D01*
X131672187Y-150035974D01*
X131572104Y-150232393D01*
X131572103Y-150232396D01*
X131503985Y-150442047D01*
X131469500Y-150659778D01*
X130870500Y-150659778D01*
X130836015Y-150442049D01*
X130767895Y-150232394D01*
X130767895Y-150232393D01*
X130691427Y-150082319D01*
X130667815Y-150035978D01*
X130651260Y-150013192D01*
X130538247Y-149857641D01*
X130538243Y-149857636D01*
X130382363Y-149701756D01*
X130382358Y-149701752D01*
X130204025Y-149572187D01*
X130204024Y-149572186D01*
X130204022Y-149572185D01*
X130096694Y-149517498D01*
X130007606Y-149472104D01*
X130007603Y-149472103D01*
X129797952Y-149403985D01*
X129689086Y-149386742D01*
X129580222Y-149369500D01*
X129359778Y-149369500D01*
X129305575Y-149378085D01*
X129142047Y-149403985D01*
X128932396Y-149472103D01*
X128932393Y-149472104D01*
X128735974Y-149572187D01*
X128634630Y-149645818D01*
X128568824Y-149669298D01*
X128561745Y-149669500D01*
X124554499Y-149669500D01*
X124487460Y-149649815D01*
X124441705Y-149597011D01*
X124430499Y-149545500D01*
X124430499Y-148862498D01*
X124430498Y-148862481D01*
X124419999Y-148759703D01*
X124419998Y-148759700D01*
X124374633Y-148622799D01*
X124364814Y-148593166D01*
X124272712Y-148443844D01*
X124166818Y-148337950D01*
X124133334Y-148276627D01*
X124130500Y-148250269D01*
X124130500Y-141924499D01*
X124150185Y-141857460D01*
X124202989Y-141811705D01*
X124254495Y-141800499D01*
X127247872Y-141800499D01*
X127307483Y-141794091D01*
X127442331Y-141743796D01*
X127557546Y-141657546D01*
X127643796Y-141542331D01*
X127694091Y-141407483D01*
X127700500Y-141347873D01*
X127700499Y-135852128D01*
X127694091Y-135792517D01*
X127676741Y-135746000D01*
X127643797Y-135657671D01*
X127643793Y-135657664D01*
X127557547Y-135542455D01*
X127557544Y-135542452D01*
X127442335Y-135456206D01*
X127442328Y-135456202D01*
X127307482Y-135405908D01*
X127307483Y-135405908D01*
X127247883Y-135399501D01*
X127247881Y-135399500D01*
X127247873Y-135399500D01*
X127247864Y-135399500D01*
X124252129Y-135399500D01*
X124252123Y-135399501D01*
X124192516Y-135405908D01*
X124057671Y-135456202D01*
X124057664Y-135456206D01*
X123942455Y-135542452D01*
X123942452Y-135542455D01*
X123856206Y-135657664D01*
X123856202Y-135657671D01*
X123805908Y-135792517D01*
X123799695Y-135850315D01*
X123799501Y-135852123D01*
X123799500Y-135852135D01*
X123799500Y-138942795D01*
X123779815Y-139009834D01*
X123763181Y-139030476D01*
X122313072Y-140480586D01*
X122190588Y-140603069D01*
X122190588Y-140603070D01*
X122190586Y-140603072D01*
X122146859Y-140663256D01*
X122088768Y-140743211D01*
X122010128Y-140897552D01*
X121956597Y-141062302D01*
X121929500Y-141233389D01*
X121929500Y-148250269D01*
X121909815Y-148317308D01*
X121893182Y-148337950D01*
X121787287Y-148443845D01*
X121695187Y-148593163D01*
X121695185Y-148593168D01*
X121667349Y-148677170D01*
X121640001Y-148759703D01*
X121640001Y-148759704D01*
X121640000Y-148759704D01*
X121629500Y-148862483D01*
X119170500Y-148862483D01*
X119170500Y-146337204D01*
X119190185Y-146270165D01*
X119206819Y-146249523D01*
X120248523Y-145207819D01*
X121327414Y-144128928D01*
X121429232Y-143988788D01*
X121507873Y-143834446D01*
X121561402Y-143669701D01*
X121588500Y-143498611D01*
X121588500Y-143325390D01*
X121588500Y-135119204D01*
X121608185Y-135052165D01*
X121624819Y-135031523D01*
X123529080Y-133127262D01*
X125439414Y-131216928D01*
X125541232Y-131076788D01*
X125619873Y-130922446D01*
X125642253Y-130853567D01*
X125681689Y-130795894D01*
X125746048Y-130768695D01*
X125814894Y-130780609D01*
X125847864Y-130804206D01*
X129483072Y-134439414D01*
X129623212Y-134541232D01*
X129696131Y-134578386D01*
X129777549Y-134619871D01*
X129777551Y-134619871D01*
X129777554Y-134619873D01*
X129942299Y-134673402D01*
X130113389Y-134700500D01*
X130286610Y-134700500D01*
X136792796Y-134700500D01*
X136859835Y-134720185D01*
X136880477Y-134736819D01*
X137226586Y-135082928D01*
X137349072Y-135205414D01*
X137428186Y-135262894D01*
X137489207Y-135307229D01*
X137489209Y-135307230D01*
X137489212Y-135307232D01*
X137643306Y-135385746D01*
X137643350Y-135385787D01*
X137643398Y-135385807D01*
X137643404Y-135385796D01*
X137643416Y-135385802D01*
X137643555Y-135385873D01*
X137808299Y-135439403D01*
X137955996Y-135462795D01*
X137979389Y-135466500D01*
X166660610Y-135466500D01*
X166660611Y-135466500D01*
X166831701Y-135439402D01*
X166996445Y-135385873D01*
X167150788Y-135307232D01*
X167290928Y-135205414D01*
X169362782Y-133133559D01*
X169424103Y-133100076D01*
X169431040Y-133098773D01*
X169630245Y-133067222D01*
X169630248Y-133067221D01*
X169630249Y-133067221D01*
X169847755Y-132996549D01*
X169847755Y-132996548D01*
X169847758Y-132996548D01*
X170051538Y-132892717D01*
X170236566Y-132758286D01*
X170398286Y-132596566D01*
X170459683Y-132512059D01*
X170515012Y-132469396D01*
X170584625Y-132463417D01*
X170646420Y-132496023D01*
X170660314Y-132512056D01*
X170721714Y-132596566D01*
X170883434Y-132758286D01*
X171068462Y-132892717D01*
X171200599Y-132960044D01*
X171272244Y-132996549D01*
X171489751Y-133067221D01*
X171489752Y-133067221D01*
X171489755Y-133067222D01*
X171715646Y-133103000D01*
X171715647Y-133103000D01*
X171944353Y-133103000D01*
X171944354Y-133103000D01*
X172170245Y-133067222D01*
X172170248Y-133067221D01*
X172170249Y-133067221D01*
X172387755Y-132996549D01*
X172387755Y-132996548D01*
X172387758Y-132996548D01*
X172591538Y-132892717D01*
X172776566Y-132758286D01*
X172938286Y-132596566D01*
X172999991Y-132511635D01*
X173055321Y-132468970D01*
X173124934Y-132462991D01*
X173164290Y-132483756D01*
X173181347Y-132485099D01*
X173780438Y-131886007D01*
X173807271Y-131950785D01*
X173876764Y-132054789D01*
X173965211Y-132143236D01*
X174069215Y-132212729D01*
X174133990Y-132239560D01*
X173534899Y-132838651D01*
X173608725Y-132892288D01*
X173608731Y-132892292D01*
X173812431Y-132996082D01*
X174029875Y-133066734D01*
X174255687Y-133102500D01*
X174484313Y-133102500D01*
X174710124Y-133066734D01*
X174710125Y-133066734D01*
X174927568Y-132996082D01*
X175131276Y-132892288D01*
X175314059Y-132759488D01*
X175379865Y-132736008D01*
X175447919Y-132751833D01*
X175496614Y-132801939D01*
X175503127Y-132816474D01*
X175513701Y-132844826D01*
X175513706Y-132844835D01*
X175599952Y-132960044D01*
X175599955Y-132960047D01*
X175715164Y-133046293D01*
X175715171Y-133046297D01*
X175850017Y-133096591D01*
X175850016Y-133096591D01*
X175856944Y-133097335D01*
X175909627Y-133103000D01*
X177910372Y-133102999D01*
X177969983Y-133096591D01*
X178104831Y-133046296D01*
X178220046Y-132960046D01*
X178306296Y-132844831D01*
X178356591Y-132709983D01*
X178363000Y-132650373D01*
X178362999Y-130649628D01*
X178356591Y-130590017D01*
X178346841Y-130563877D01*
X178306297Y-130455171D01*
X178306293Y-130455164D01*
X178220047Y-130339955D01*
X178220044Y-130339952D01*
X178104835Y-130253706D01*
X178104828Y-130253702D01*
X177969982Y-130203408D01*
X177969983Y-130203408D01*
X177910383Y-130197001D01*
X177910381Y-130197000D01*
X177910373Y-130197000D01*
X177910364Y-130197000D01*
X175909629Y-130197000D01*
X175909623Y-130197001D01*
X175850016Y-130203408D01*
X175715171Y-130253702D01*
X175715164Y-130253706D01*
X175599955Y-130339952D01*
X175599952Y-130339955D01*
X175513706Y-130455164D01*
X175513702Y-130455171D01*
X175503127Y-130483526D01*
X175461256Y-130539460D01*
X175395791Y-130563877D01*
X175327518Y-130549025D01*
X175314060Y-130540511D01*
X175131279Y-130407713D01*
X174927568Y-130303917D01*
X174710124Y-130233265D01*
X174484313Y-130197500D01*
X174255687Y-130197500D01*
X174029875Y-130233265D01*
X174029874Y-130233265D01*
X173812431Y-130303917D01*
X173608719Y-130407713D01*
X173534900Y-130461346D01*
X173534899Y-130461347D01*
X174133991Y-131060439D01*
X174069215Y-131087271D01*
X173965211Y-131156764D01*
X173876764Y-131245211D01*
X173807271Y-131349215D01*
X173780439Y-131413991D01*
X173181347Y-130814899D01*
X173164490Y-130816226D01*
X173145293Y-130831029D01*
X173075679Y-130837007D01*
X173013885Y-130804399D01*
X172999990Y-130788362D01*
X172949934Y-130719466D01*
X172938286Y-130703434D01*
X172776566Y-130541714D01*
X172591538Y-130407283D01*
X172387755Y-130303450D01*
X172170248Y-130232778D01*
X171984812Y-130203408D01*
X171944354Y-130197000D01*
X171715646Y-130197000D01*
X171675188Y-130203408D01*
X171489753Y-130232778D01*
X171489750Y-130232778D01*
X171272244Y-130303450D01*
X171068461Y-130407283D01*
X171002550Y-130455171D01*
X170883434Y-130541714D01*
X170883432Y-130541716D01*
X170883431Y-130541716D01*
X170721715Y-130703432D01*
X170660318Y-130787938D01*
X170604987Y-130830603D01*
X170535374Y-130836582D01*
X170473579Y-130803976D01*
X170459682Y-130787938D01*
X170409934Y-130719466D01*
X170398286Y-130703434D01*
X170236566Y-130541714D01*
X170051538Y-130407283D01*
X169847755Y-130303450D01*
X169630248Y-130232778D01*
X169444812Y-130203408D01*
X169404354Y-130197000D01*
X169175646Y-130197000D01*
X169135188Y-130203408D01*
X168949753Y-130232778D01*
X168949750Y-130232778D01*
X168732244Y-130303450D01*
X168528461Y-130407283D01*
X168462550Y-130455171D01*
X168343434Y-130541714D01*
X168343432Y-130541716D01*
X168343431Y-130541716D01*
X168181715Y-130703432D01*
X168120318Y-130787938D01*
X168064987Y-130830603D01*
X167995374Y-130836582D01*
X167933579Y-130803976D01*
X167919682Y-130787938D01*
X167869934Y-130719466D01*
X167858286Y-130703434D01*
X167696566Y-130541714D01*
X167511538Y-130407283D01*
X167307755Y-130303450D01*
X167090248Y-130232778D01*
X166904812Y-130203408D01*
X166864354Y-130197000D01*
X166635646Y-130197000D01*
X166595188Y-130203408D01*
X166409753Y-130232778D01*
X166409750Y-130232778D01*
X166192244Y-130303450D01*
X165988461Y-130407283D01*
X165922550Y-130455171D01*
X165803434Y-130541714D01*
X165803432Y-130541716D01*
X165803431Y-130541716D01*
X165641715Y-130703432D01*
X165580318Y-130787938D01*
X165524987Y-130830603D01*
X165455374Y-130836582D01*
X165393579Y-130803976D01*
X165379682Y-130787938D01*
X165329934Y-130719466D01*
X165318286Y-130703434D01*
X165156566Y-130541714D01*
X164971538Y-130407283D01*
X164767755Y-130303450D01*
X164550248Y-130232778D01*
X164364812Y-130203408D01*
X164324354Y-130197000D01*
X164095646Y-130197000D01*
X164055188Y-130203408D01*
X163869753Y-130232778D01*
X163869750Y-130232778D01*
X163652244Y-130303450D01*
X163448461Y-130407283D01*
X163382550Y-130455171D01*
X163263434Y-130541714D01*
X163263432Y-130541716D01*
X163263431Y-130541716D01*
X163101715Y-130703432D01*
X163040318Y-130787938D01*
X162984987Y-130830603D01*
X162915374Y-130836582D01*
X162853579Y-130803976D01*
X162839682Y-130787938D01*
X162789934Y-130719466D01*
X162778286Y-130703434D01*
X162616566Y-130541714D01*
X162431538Y-130407283D01*
X162227755Y-130303450D01*
X162010248Y-130232778D01*
X161824812Y-130203408D01*
X161784354Y-130197000D01*
X161555646Y-130197000D01*
X161515188Y-130203408D01*
X161329753Y-130232778D01*
X161329750Y-130232778D01*
X161112244Y-130303450D01*
X160908461Y-130407283D01*
X160842550Y-130455171D01*
X160723434Y-130541714D01*
X160723432Y-130541716D01*
X160723431Y-130541716D01*
X160561715Y-130703432D01*
X160500318Y-130787938D01*
X160444987Y-130830603D01*
X160375374Y-130836582D01*
X160313579Y-130803976D01*
X160299682Y-130787938D01*
X160249934Y-130719466D01*
X160238286Y-130703434D01*
X160076566Y-130541714D01*
X159891538Y-130407283D01*
X159687755Y-130303450D01*
X159470248Y-130232778D01*
X159284812Y-130203408D01*
X159244354Y-130197000D01*
X159015646Y-130197000D01*
X158975188Y-130203408D01*
X158789753Y-130232778D01*
X158789750Y-130232778D01*
X158572244Y-130303450D01*
X158368461Y-130407283D01*
X158302550Y-130455171D01*
X158183434Y-130541714D01*
X158183432Y-130541716D01*
X158183431Y-130541716D01*
X158021715Y-130703432D01*
X157960318Y-130787938D01*
X157904987Y-130830603D01*
X157835374Y-130836582D01*
X157773579Y-130803976D01*
X157759682Y-130787938D01*
X157709934Y-130719466D01*
X157698286Y-130703434D01*
X157536566Y-130541714D01*
X157351538Y-130407283D01*
X157147755Y-130303450D01*
X156930248Y-130232778D01*
X156744812Y-130203408D01*
X156704354Y-130197000D01*
X156475646Y-130197000D01*
X156435188Y-130203408D01*
X156249753Y-130232778D01*
X156249750Y-130232778D01*
X156032244Y-130303450D01*
X155828461Y-130407283D01*
X155762550Y-130455171D01*
X155643434Y-130541714D01*
X155643432Y-130541716D01*
X155643431Y-130541716D01*
X155481715Y-130703432D01*
X155420318Y-130787938D01*
X155364987Y-130830603D01*
X155295374Y-130836582D01*
X155233579Y-130803976D01*
X155219682Y-130787938D01*
X155169934Y-130719466D01*
X155158286Y-130703434D01*
X154996566Y-130541714D01*
X154811538Y-130407283D01*
X154607755Y-130303450D01*
X154390248Y-130232778D01*
X154204812Y-130203408D01*
X154164354Y-130197000D01*
X153935646Y-130197000D01*
X153895188Y-130203408D01*
X153709753Y-130232778D01*
X153709750Y-130232778D01*
X153492244Y-130303450D01*
X153288461Y-130407283D01*
X153222550Y-130455171D01*
X153103434Y-130541714D01*
X153103432Y-130541716D01*
X153103431Y-130541716D01*
X152941715Y-130703432D01*
X152880318Y-130787938D01*
X152824987Y-130830603D01*
X152755374Y-130836582D01*
X152693579Y-130803976D01*
X152679682Y-130787938D01*
X152629934Y-130719466D01*
X152618286Y-130703434D01*
X152456566Y-130541714D01*
X152271538Y-130407283D01*
X152067755Y-130303450D01*
X151850248Y-130232778D01*
X151664812Y-130203408D01*
X151624354Y-130197000D01*
X151395646Y-130197000D01*
X151355188Y-130203408D01*
X151169753Y-130232778D01*
X151169750Y-130232778D01*
X150952244Y-130303450D01*
X150748461Y-130407283D01*
X150682550Y-130455171D01*
X150563434Y-130541714D01*
X150563432Y-130541716D01*
X150563431Y-130541716D01*
X150401715Y-130703432D01*
X150340318Y-130787938D01*
X150284987Y-130830603D01*
X150215374Y-130836582D01*
X150153579Y-130803976D01*
X150139682Y-130787938D01*
X150089934Y-130719466D01*
X150078286Y-130703434D01*
X149916566Y-130541714D01*
X149731538Y-130407283D01*
X149527755Y-130303450D01*
X149310248Y-130232778D01*
X149124812Y-130203408D01*
X149084354Y-130197000D01*
X148855646Y-130197000D01*
X148815188Y-130203408D01*
X148629753Y-130232778D01*
X148629750Y-130232778D01*
X148412244Y-130303450D01*
X148208461Y-130407283D01*
X148142550Y-130455171D01*
X148023434Y-130541714D01*
X148023432Y-130541716D01*
X148023431Y-130541716D01*
X147861715Y-130703432D01*
X147800318Y-130787938D01*
X147744987Y-130830603D01*
X147675374Y-130836582D01*
X147613579Y-130803976D01*
X147599682Y-130787938D01*
X147549934Y-130719466D01*
X147538286Y-130703434D01*
X147376566Y-130541714D01*
X147191538Y-130407283D01*
X146987755Y-130303450D01*
X146770248Y-130232778D01*
X146584812Y-130203408D01*
X146544354Y-130197000D01*
X146315646Y-130197000D01*
X146275188Y-130203408D01*
X146089753Y-130232778D01*
X146089750Y-130232778D01*
X145872244Y-130303450D01*
X145668461Y-130407283D01*
X145602550Y-130455171D01*
X145483434Y-130541714D01*
X145483432Y-130541716D01*
X145483431Y-130541716D01*
X145321715Y-130703432D01*
X145260318Y-130787938D01*
X145238044Y-130805113D01*
X145217867Y-130824722D01*
X145210741Y-130826165D01*
X145204987Y-130830603D01*
X145176963Y-130833009D01*
X145149389Y-130838597D01*
X145142615Y-130835960D01*
X145135374Y-130836582D01*
X145110492Y-130823453D01*
X145084280Y-130813248D01*
X145077047Y-130805806D01*
X145073579Y-130803976D01*
X145059682Y-130787938D01*
X145014182Y-130725313D01*
X144990702Y-130659506D01*
X144990500Y-130652427D01*
X144990500Y-129703389D01*
X144963402Y-129532299D01*
X144909873Y-129367555D01*
X144831232Y-129213212D01*
X144788386Y-129154240D01*
X144788386Y-129154239D01*
X144729418Y-129073075D01*
X144729413Y-129073070D01*
X141279430Y-125623088D01*
X141279428Y-125623086D01*
X141139288Y-125521268D01*
X140984945Y-125442627D01*
X140820201Y-125389098D01*
X140820199Y-125389097D01*
X140820198Y-125389097D01*
X140688771Y-125368281D01*
X140649111Y-125362000D01*
X140649110Y-125362000D01*
X135567585Y-125362000D01*
X135512131Y-125348909D01*
X133405131Y-124295409D01*
X133353972Y-124247822D01*
X133336662Y-124180130D01*
X133358697Y-124113826D01*
X133413081Y-124069960D01*
X133460585Y-124060500D01*
X133826610Y-124060500D01*
X133826611Y-124060500D01*
X133997701Y-124033402D01*
X134162445Y-123979873D01*
X134316788Y-123901232D01*
X134456928Y-123799414D01*
X134739414Y-123516928D01*
X134841232Y-123376788D01*
X134919873Y-123222446D01*
X134973402Y-123057701D01*
X135000500Y-122886611D01*
X135000500Y-122713389D01*
X134973402Y-122542299D01*
X134919873Y-122377555D01*
X134841232Y-122223212D01*
X134739414Y-122083072D01*
X134616928Y-121960586D01*
X134476788Y-121858768D01*
X134322445Y-121780127D01*
X134157701Y-121726598D01*
X134157699Y-121726597D01*
X134157698Y-121726597D01*
X134026271Y-121705781D01*
X133986611Y-121699500D01*
X133813389Y-121699500D01*
X133727844Y-121713049D01*
X133642298Y-121726598D01*
X133477549Y-121780128D01*
X133388708Y-121825396D01*
X133348299Y-121845985D01*
X133292006Y-121859500D01*
X131748389Y-121859500D01*
X131708728Y-121865781D01*
X131577302Y-121886597D01*
X131412552Y-121940128D01*
X131258211Y-122018768D01*
X131118073Y-122120585D01*
X130995600Y-122243058D01*
X130971043Y-122262107D01*
X130920630Y-122291922D01*
X130804423Y-122408129D01*
X130804413Y-122408142D01*
X130803934Y-122408953D01*
X130803393Y-122409457D01*
X130799639Y-122414298D01*
X130798857Y-122413691D01*
X130752860Y-122456631D01*
X130684117Y-122469127D01*
X130619530Y-122442474D01*
X130595216Y-122414410D01*
X130594963Y-122414607D01*
X130591341Y-122409937D01*
X130590476Y-122408939D01*
X130590185Y-122408447D01*
X130590178Y-122408438D01*
X130474061Y-122292321D01*
X130474052Y-122292314D01*
X130332696Y-122208717D01*
X130332693Y-122208716D01*
X130235659Y-122180525D01*
X130176773Y-122142919D01*
X130147567Y-122079447D01*
X130157313Y-122010260D01*
X130182570Y-121973771D01*
X131639414Y-120516928D01*
X131741232Y-120376788D01*
X131819873Y-120222446D01*
X131873402Y-120057701D01*
X131900500Y-119886611D01*
X131900500Y-119713390D01*
X131900500Y-119713384D01*
X131873402Y-119542302D01*
X131873402Y-119542299D01*
X131819873Y-119377555D01*
X131741232Y-119223213D01*
X131719597Y-119193435D01*
X131696682Y-119161894D01*
X131689529Y-119141849D01*
X131678023Y-119123944D01*
X131674568Y-119099917D01*
X131673202Y-119096088D01*
X131673000Y-119089009D01*
X131673000Y-118930267D01*
X131690884Y-118866116D01*
X131715975Y-118824611D01*
X131715975Y-118824610D01*
X131715978Y-118824606D01*
X131766586Y-118662196D01*
X131773000Y-118591616D01*
X131773000Y-117928384D01*
X131766586Y-117857804D01*
X131715978Y-117695394D01*
X131697500Y-117664827D01*
X131690883Y-117653881D01*
X131673000Y-117589732D01*
X131673000Y-117328730D01*
X131692685Y-117261691D01*
X131745489Y-117215936D01*
X131764187Y-117210062D01*
X131763985Y-117209366D01*
X131842654Y-117186509D01*
X131927898Y-117161744D01*
X132069365Y-117078081D01*
X132185581Y-116961865D01*
X132269244Y-116820398D01*
X132303005Y-116704191D01*
X132315097Y-116662573D01*
X132315098Y-116662567D01*
X132317999Y-116625701D01*
X132318000Y-116625694D01*
X132318000Y-116194306D01*
X132315098Y-116157431D01*
X132308933Y-116136212D01*
X132269505Y-116000500D01*
X132269244Y-115999602D01*
X132185581Y-115858135D01*
X132185579Y-115858133D01*
X132185576Y-115858129D01*
X132069370Y-115741923D01*
X132069362Y-115741917D01*
X131973965Y-115685500D01*
X131927898Y-115658256D01*
X131927897Y-115658255D01*
X131927896Y-115658255D01*
X131927893Y-115658254D01*
X131770073Y-115612402D01*
X131770061Y-115612400D01*
X131768619Y-115612287D01*
X131767864Y-115611999D01*
X131763833Y-115611263D01*
X131763969Y-115610514D01*
X131742428Y-115602301D01*
X131715257Y-115595413D01*
X131710223Y-115590024D01*
X131703333Y-115587397D01*
X131686695Y-115564833D01*
X131667565Y-115544351D01*
X131666244Y-115537097D01*
X131661868Y-115531162D01*
X131660070Y-115503187D01*
X131655050Y-115475612D01*
X131657860Y-115468795D01*
X131657388Y-115461436D01*
X131671000Y-115436928D01*
X131681685Y-115411018D01*
X131688447Y-115405520D01*
X131691315Y-115400357D01*
X131707478Y-115386927D01*
X131714469Y-115382056D01*
X131731788Y-115373232D01*
X131840275Y-115294409D01*
X131841306Y-115293692D01*
X131844160Y-115292736D01*
X131877593Y-115276358D01*
X131927898Y-115261744D01*
X132069365Y-115178081D01*
X132185581Y-115061865D01*
X132269244Y-114920398D01*
X132315098Y-114762569D01*
X132318000Y-114725694D01*
X132318000Y-114294306D01*
X132315098Y-114257431D01*
X132309401Y-114237822D01*
X132309438Y-114224528D01*
X132304793Y-114212072D01*
X132309536Y-114190266D01*
X132309600Y-114167955D01*
X132317149Y-114155272D01*
X132319645Y-114143799D01*
X132340796Y-114115545D01*
X132379980Y-114076362D01*
X132419524Y-114036818D01*
X132480848Y-114003334D01*
X132507205Y-114000500D01*
X132586610Y-114000500D01*
X132586611Y-114000500D01*
X132757701Y-113973402D01*
X132922445Y-113919873D01*
X133076788Y-113841232D01*
X133216928Y-113739414D01*
X133339414Y-113616928D01*
X133441232Y-113476788D01*
X133519873Y-113322445D01*
X133573402Y-113157701D01*
X133600500Y-112986611D01*
X133600500Y-112813389D01*
X133573402Y-112642299D01*
X133519873Y-112477555D01*
X133519870Y-112477549D01*
X133490953Y-112420794D01*
X133478057Y-112352125D01*
X133504334Y-112287385D01*
X133561441Y-112247128D01*
X133601438Y-112240500D01*
X137852796Y-112240500D01*
X137919835Y-112260185D01*
X137940477Y-112276819D01*
X140703381Y-115039723D01*
X140736866Y-115101046D01*
X140739700Y-115127404D01*
X140739700Y-116266570D01*
X140739701Y-116266576D01*
X140746108Y-116326183D01*
X140796402Y-116461028D01*
X140796403Y-116461029D01*
X140796404Y-116461031D01*
X140861335Y-116547768D01*
X140882656Y-116576249D01*
X140888925Y-116582518D01*
X140888104Y-116583338D01*
X140922761Y-116627952D01*
X140946377Y-116684963D01*
X140946383Y-116684975D01*
X141020304Y-116795605D01*
X141020307Y-116795609D01*
X141345305Y-117120606D01*
X141439394Y-117214695D01*
X141439397Y-117214697D01*
X141439398Y-117214698D01*
X141550020Y-117288613D01*
X141550023Y-117288614D01*
X141550031Y-117288620D01*
X141550037Y-117288622D01*
X141550038Y-117288623D01*
X141646866Y-117328730D01*
X141672964Y-117339540D01*
X141672968Y-117339540D01*
X141672969Y-117339541D01*
X141803466Y-117365500D01*
X141803469Y-117365500D01*
X141936531Y-117365500D01*
X142006205Y-117365500D01*
X142073244Y-117385185D01*
X142118999Y-117437989D01*
X142128943Y-117507147D01*
X142116690Y-117545794D01*
X142080129Y-117617549D01*
X142080127Y-117617554D01*
X142080127Y-117617555D01*
X142070397Y-117647500D01*
X142026597Y-117782302D01*
X142002514Y-117934358D01*
X141999500Y-117953389D01*
X141999500Y-118126611D01*
X142026598Y-118297701D01*
X142080127Y-118462445D01*
X142125985Y-118552448D01*
X142129106Y-118565449D01*
X142134477Y-118573806D01*
X142139500Y-118608741D01*
X142139500Y-118636578D01*
X142119815Y-118703617D01*
X142067011Y-118749372D01*
X141997853Y-118759316D01*
X141972168Y-118752760D01*
X141957288Y-118747210D01*
X141957284Y-118747209D01*
X141957283Y-118747209D01*
X141897673Y-118740800D01*
X141897663Y-118740800D01*
X141192329Y-118740800D01*
X141192323Y-118740801D01*
X141132716Y-118747208D01*
X140997871Y-118797502D01*
X140997864Y-118797506D01*
X140882655Y-118883752D01*
X140882652Y-118883755D01*
X140796406Y-118998964D01*
X140796402Y-118998971D01*
X140746108Y-119133817D01*
X140739701Y-119193416D01*
X140739700Y-119193435D01*
X140739700Y-121498970D01*
X140739701Y-121498976D01*
X140746108Y-121558583D01*
X140796759Y-121694384D01*
X140801743Y-121764076D01*
X140768260Y-121825396D01*
X140730589Y-121863067D01*
X140730588Y-121863069D01*
X140730586Y-121863072D01*
X140686859Y-121923256D01*
X140628768Y-122003211D01*
X140550128Y-122157552D01*
X140496597Y-122322302D01*
X140469500Y-122493389D01*
X140469500Y-122666610D01*
X140495302Y-122829523D01*
X140496598Y-122837701D01*
X140550127Y-123002445D01*
X140628768Y-123156788D01*
X140730586Y-123296928D01*
X140853072Y-123419414D01*
X140993212Y-123521232D01*
X141147555Y-123599873D01*
X141312299Y-123653402D01*
X141483389Y-123680500D01*
X141483390Y-123680500D01*
X146073510Y-123680500D01*
X146073511Y-123680500D01*
X146244601Y-123653402D01*
X146409345Y-123599873D01*
X146563688Y-123521232D01*
X146703828Y-123419414D01*
X159969414Y-110153828D01*
X160071232Y-110013688D01*
X160149873Y-109859346D01*
X160203402Y-109694601D01*
X160230500Y-109523511D01*
X160230500Y-109350290D01*
X160230500Y-107247572D01*
X160236495Y-107227152D01*
X160237711Y-107205902D01*
X160249040Y-107184429D01*
X160250185Y-107180533D01*
X160254169Y-107174704D01*
X160299683Y-107112059D01*
X160355012Y-107069396D01*
X160424626Y-107063417D01*
X160486421Y-107096023D01*
X160500314Y-107112056D01*
X160561714Y-107196566D01*
X160723434Y-107358286D01*
X160908462Y-107492717D01*
X161040599Y-107560044D01*
X161112244Y-107596549D01*
X161329751Y-107667221D01*
X161329752Y-107667221D01*
X161329755Y-107667222D01*
X161555646Y-107703000D01*
X161555647Y-107703000D01*
X161784353Y-107703000D01*
X161784354Y-107703000D01*
X162010245Y-107667222D01*
X162010248Y-107667221D01*
X162010249Y-107667221D01*
X162227755Y-107596549D01*
X162227755Y-107596548D01*
X162227758Y-107596548D01*
X162431538Y-107492717D01*
X162616566Y-107358286D01*
X162778286Y-107196566D01*
X162839683Y-107112059D01*
X162895012Y-107069396D01*
X162964625Y-107063417D01*
X163026420Y-107096023D01*
X163040314Y-107112056D01*
X163101714Y-107196566D01*
X163263434Y-107358286D01*
X163448462Y-107492717D01*
X163580599Y-107560044D01*
X163652244Y-107596549D01*
X163869751Y-107667221D01*
X163869752Y-107667221D01*
X163869755Y-107667222D01*
X164095646Y-107703000D01*
X164095647Y-107703000D01*
X164324353Y-107703000D01*
X164324354Y-107703000D01*
X164550245Y-107667222D01*
X164550248Y-107667221D01*
X164550249Y-107667221D01*
X164767755Y-107596549D01*
X164767755Y-107596548D01*
X164767758Y-107596548D01*
X164971538Y-107492717D01*
X165156566Y-107358286D01*
X165318286Y-107196566D01*
X165379683Y-107112059D01*
X165435012Y-107069396D01*
X165504625Y-107063417D01*
X165566420Y-107096023D01*
X165580314Y-107112056D01*
X165641714Y-107196566D01*
X165803434Y-107358286D01*
X165988462Y-107492717D01*
X166120599Y-107560044D01*
X166192244Y-107596549D01*
X166409751Y-107667221D01*
X166409752Y-107667221D01*
X166409755Y-107667222D01*
X166635646Y-107703000D01*
X166635647Y-107703000D01*
X166864353Y-107703000D01*
X166864354Y-107703000D01*
X167090245Y-107667222D01*
X167090248Y-107667221D01*
X167090249Y-107667221D01*
X167307755Y-107596549D01*
X167307755Y-107596548D01*
X167307758Y-107596548D01*
X167511538Y-107492717D01*
X167696566Y-107358286D01*
X167858286Y-107196566D01*
X167919683Y-107112059D01*
X167975012Y-107069396D01*
X168044625Y-107063417D01*
X168106420Y-107096023D01*
X168120314Y-107112056D01*
X168181714Y-107196566D01*
X168343434Y-107358286D01*
X168528462Y-107492717D01*
X168660599Y-107560044D01*
X168732244Y-107596549D01*
X168949751Y-107667221D01*
X168949752Y-107667221D01*
X168949755Y-107667222D01*
X169175646Y-107703000D01*
X169175647Y-107703000D01*
X169404353Y-107703000D01*
X169404354Y-107703000D01*
X169630245Y-107667222D01*
X169630248Y-107667221D01*
X169630249Y-107667221D01*
X169847755Y-107596549D01*
X169847755Y-107596548D01*
X169847758Y-107596548D01*
X170051538Y-107492717D01*
X170236566Y-107358286D01*
X170398286Y-107196566D01*
X170459683Y-107112059D01*
X170515012Y-107069396D01*
X170584625Y-107063417D01*
X170646420Y-107096023D01*
X170660314Y-107112056D01*
X170721714Y-107196566D01*
X170883434Y-107358286D01*
X171068462Y-107492717D01*
X171200599Y-107560044D01*
X171272244Y-107596549D01*
X171489751Y-107667221D01*
X171489752Y-107667221D01*
X171489755Y-107667222D01*
X171715646Y-107703000D01*
X171715647Y-107703000D01*
X171944353Y-107703000D01*
X171944354Y-107703000D01*
X172170245Y-107667222D01*
X172170248Y-107667221D01*
X172170249Y-107667221D01*
X172387755Y-107596549D01*
X172387755Y-107596548D01*
X172387758Y-107596548D01*
X172591538Y-107492717D01*
X172776566Y-107358286D01*
X172938286Y-107196566D01*
X172999991Y-107111635D01*
X173055321Y-107068970D01*
X173124934Y-107062991D01*
X173164290Y-107083756D01*
X173181347Y-107085099D01*
X173780438Y-106486007D01*
X173807271Y-106550785D01*
X173876764Y-106654789D01*
X173965211Y-106743236D01*
X174069215Y-106812729D01*
X174133990Y-106839560D01*
X173534899Y-107438651D01*
X173608725Y-107492288D01*
X173608731Y-107492292D01*
X173812431Y-107596082D01*
X174029875Y-107666734D01*
X174255687Y-107702500D01*
X174484313Y-107702500D01*
X174710124Y-107666734D01*
X174710125Y-107666734D01*
X174927568Y-107596082D01*
X175131276Y-107492288D01*
X175314059Y-107359488D01*
X175379865Y-107336008D01*
X175447919Y-107351833D01*
X175496614Y-107401939D01*
X175503127Y-107416474D01*
X175513701Y-107444826D01*
X175513706Y-107444835D01*
X175599952Y-107560044D01*
X175599955Y-107560047D01*
X175715164Y-107646293D01*
X175715171Y-107646297D01*
X175850017Y-107696591D01*
X175850016Y-107696591D01*
X175856944Y-107697335D01*
X175909627Y-107703000D01*
X177910372Y-107702999D01*
X177969983Y-107696591D01*
X178104831Y-107646296D01*
X178220046Y-107560046D01*
X178306296Y-107444831D01*
X178356591Y-107309983D01*
X178363000Y-107250373D01*
X178362999Y-105249628D01*
X178356591Y-105190017D01*
X178346841Y-105163877D01*
X178306297Y-105055171D01*
X178306293Y-105055164D01*
X178220047Y-104939955D01*
X178220044Y-104939952D01*
X178104835Y-104853706D01*
X178104828Y-104853702D01*
X177969982Y-104803408D01*
X177969983Y-104803408D01*
X177910383Y-104797001D01*
X177910381Y-104797000D01*
X177910373Y-104797000D01*
X177910364Y-104797000D01*
X175909629Y-104797000D01*
X175909623Y-104797001D01*
X175850016Y-104803408D01*
X175715171Y-104853702D01*
X175715164Y-104853706D01*
X175599955Y-104939952D01*
X175599952Y-104939955D01*
X175513706Y-105055164D01*
X175513702Y-105055171D01*
X175503127Y-105083526D01*
X175461256Y-105139460D01*
X175395791Y-105163877D01*
X175327518Y-105149025D01*
X175314060Y-105140511D01*
X175131279Y-105007713D01*
X174927568Y-104903917D01*
X174710124Y-104833265D01*
X174484313Y-104797500D01*
X174255687Y-104797500D01*
X174029875Y-104833265D01*
X174029874Y-104833265D01*
X173812431Y-104903917D01*
X173608719Y-105007713D01*
X173534900Y-105061346D01*
X173534899Y-105061347D01*
X174133991Y-105660439D01*
X174069215Y-105687271D01*
X173965211Y-105756764D01*
X173876764Y-105845211D01*
X173807271Y-105949215D01*
X173780439Y-106013991D01*
X173181347Y-105414899D01*
X173164490Y-105416226D01*
X173145293Y-105431029D01*
X173075679Y-105437007D01*
X173013885Y-105404399D01*
X172999990Y-105388362D01*
X172938288Y-105303437D01*
X172938283Y-105303431D01*
X172776568Y-105141716D01*
X172776566Y-105141714D01*
X172591538Y-105007283D01*
X172524570Y-104973161D01*
X172387755Y-104903450D01*
X172170248Y-104832778D01*
X171984812Y-104803408D01*
X171944354Y-104797000D01*
X171715646Y-104797000D01*
X171675188Y-104803408D01*
X171489753Y-104832778D01*
X171489750Y-104832778D01*
X171272244Y-104903450D01*
X171068461Y-105007283D01*
X170994051Y-105061346D01*
X170883434Y-105141714D01*
X170883432Y-105141716D01*
X170883431Y-105141716D01*
X170721715Y-105303432D01*
X170660318Y-105387938D01*
X170604987Y-105430603D01*
X170535374Y-105436582D01*
X170473579Y-105403976D01*
X170459682Y-105387938D01*
X170448773Y-105372923D01*
X170398286Y-105303434D01*
X170236566Y-105141714D01*
X170051538Y-105007283D01*
X169984570Y-104973161D01*
X169847755Y-104903450D01*
X169630248Y-104832778D01*
X169444812Y-104803408D01*
X169404354Y-104797000D01*
X169175646Y-104797000D01*
X169135188Y-104803408D01*
X168949753Y-104832778D01*
X168949750Y-104832778D01*
X168732244Y-104903450D01*
X168528461Y-105007283D01*
X168454051Y-105061346D01*
X168343434Y-105141714D01*
X168343432Y-105141716D01*
X168343431Y-105141716D01*
X168181715Y-105303432D01*
X168120318Y-105387938D01*
X168064987Y-105430603D01*
X167995374Y-105436582D01*
X167933579Y-105403976D01*
X167919682Y-105387938D01*
X167908773Y-105372923D01*
X167858286Y-105303434D01*
X167696566Y-105141714D01*
X167511538Y-105007283D01*
X167444570Y-104973161D01*
X167307755Y-104903450D01*
X167090248Y-104832778D01*
X166904812Y-104803408D01*
X166864354Y-104797000D01*
X166635646Y-104797000D01*
X166595188Y-104803408D01*
X166409753Y-104832778D01*
X166409750Y-104832778D01*
X166192244Y-104903450D01*
X165988461Y-105007283D01*
X165914051Y-105061346D01*
X165803434Y-105141714D01*
X165803432Y-105141716D01*
X165803431Y-105141716D01*
X165641715Y-105303432D01*
X165580318Y-105387938D01*
X165524987Y-105430603D01*
X165455374Y-105436582D01*
X165393579Y-105403976D01*
X165379682Y-105387938D01*
X165368773Y-105372923D01*
X165318286Y-105303434D01*
X165156566Y-105141714D01*
X164971538Y-105007283D01*
X164904570Y-104973161D01*
X164767755Y-104903450D01*
X164550248Y-104832778D01*
X164364812Y-104803408D01*
X164324354Y-104797000D01*
X164095646Y-104797000D01*
X164055188Y-104803408D01*
X163869753Y-104832778D01*
X163869750Y-104832778D01*
X163652244Y-104903450D01*
X163448461Y-105007283D01*
X163374051Y-105061346D01*
X163263434Y-105141714D01*
X163263432Y-105141716D01*
X163263431Y-105141716D01*
X163101715Y-105303432D01*
X163040318Y-105387938D01*
X162984987Y-105430603D01*
X162915374Y-105436582D01*
X162853579Y-105403976D01*
X162839682Y-105387938D01*
X162828773Y-105372923D01*
X162778286Y-105303434D01*
X162616566Y-105141714D01*
X162431538Y-105007283D01*
X162364570Y-104973161D01*
X162227755Y-104903450D01*
X162010248Y-104832778D01*
X161824812Y-104803408D01*
X161784354Y-104797000D01*
X161555646Y-104797000D01*
X161515188Y-104803408D01*
X161329753Y-104832778D01*
X161329750Y-104832778D01*
X161112244Y-104903450D01*
X160908461Y-105007283D01*
X160834051Y-105061346D01*
X160723434Y-105141714D01*
X160723432Y-105141716D01*
X160723431Y-105141716D01*
X160561715Y-105303432D01*
X160500318Y-105387938D01*
X160444987Y-105430603D01*
X160375374Y-105436582D01*
X160313579Y-105403976D01*
X160299682Y-105387938D01*
X160288773Y-105372923D01*
X160238286Y-105303434D01*
X160076566Y-105141714D01*
X159891538Y-105007283D01*
X159824570Y-104973161D01*
X159687755Y-104903450D01*
X159470248Y-104832778D01*
X159284812Y-104803408D01*
X159244354Y-104797000D01*
X159015646Y-104797000D01*
X158975188Y-104803408D01*
X158789753Y-104832778D01*
X158789750Y-104832778D01*
X158572244Y-104903450D01*
X158368461Y-105007283D01*
X158294051Y-105061346D01*
X158183434Y-105141714D01*
X158183432Y-105141716D01*
X158183431Y-105141716D01*
X158021715Y-105303432D01*
X157960318Y-105387938D01*
X157904987Y-105430603D01*
X157835374Y-105436582D01*
X157773579Y-105403976D01*
X157759682Y-105387938D01*
X157748773Y-105372923D01*
X157698286Y-105303434D01*
X157536566Y-105141714D01*
X157351538Y-105007283D01*
X157284570Y-104973161D01*
X157147755Y-104903450D01*
X156930248Y-104832778D01*
X156744812Y-104803408D01*
X156704354Y-104797000D01*
X156475646Y-104797000D01*
X156435188Y-104803408D01*
X156249753Y-104832778D01*
X156249750Y-104832778D01*
X156032244Y-104903450D01*
X155828461Y-105007283D01*
X155754051Y-105061346D01*
X155643434Y-105141714D01*
X155643432Y-105141716D01*
X155643431Y-105141716D01*
X155481715Y-105303432D01*
X155420318Y-105387938D01*
X155364987Y-105430603D01*
X155295374Y-105436582D01*
X155233579Y-105403976D01*
X155219682Y-105387938D01*
X155208773Y-105372923D01*
X155158286Y-105303434D01*
X154996566Y-105141714D01*
X154811538Y-105007283D01*
X154744570Y-104973161D01*
X154607755Y-104903450D01*
X154390248Y-104832778D01*
X154204812Y-104803408D01*
X154164354Y-104797000D01*
X153935646Y-104797000D01*
X153895188Y-104803408D01*
X153709753Y-104832778D01*
X153709750Y-104832778D01*
X153492244Y-104903450D01*
X153288461Y-105007283D01*
X153214051Y-105061346D01*
X153103434Y-105141714D01*
X153103432Y-105141716D01*
X153103431Y-105141716D01*
X152941715Y-105303432D01*
X152880318Y-105387938D01*
X152824987Y-105430603D01*
X152755374Y-105436582D01*
X152693579Y-105403976D01*
X152679682Y-105387938D01*
X152668773Y-105372923D01*
X152618286Y-105303434D01*
X152456566Y-105141714D01*
X152271538Y-105007283D01*
X152204570Y-104973161D01*
X152067755Y-104903450D01*
X151850248Y-104832778D01*
X151664812Y-104803408D01*
X151624354Y-104797000D01*
X151395646Y-104797000D01*
X151355188Y-104803408D01*
X151169753Y-104832778D01*
X151169750Y-104832778D01*
X150952244Y-104903450D01*
X150748461Y-105007283D01*
X150674051Y-105061346D01*
X150563434Y-105141714D01*
X150563432Y-105141716D01*
X150563431Y-105141716D01*
X150401715Y-105303432D01*
X150340318Y-105387938D01*
X150284987Y-105430603D01*
X150215374Y-105436582D01*
X150153579Y-105403976D01*
X150139682Y-105387938D01*
X150128773Y-105372923D01*
X150078286Y-105303434D01*
X149916566Y-105141714D01*
X149731538Y-105007283D01*
X149664570Y-104973161D01*
X149527755Y-104903450D01*
X149310248Y-104832778D01*
X149124812Y-104803408D01*
X149084354Y-104797000D01*
X148855646Y-104797000D01*
X148815188Y-104803408D01*
X148629753Y-104832778D01*
X148629750Y-104832778D01*
X148412244Y-104903450D01*
X148208461Y-105007283D01*
X148134051Y-105061346D01*
X148023434Y-105141714D01*
X148023432Y-105141716D01*
X148023431Y-105141716D01*
X147861715Y-105303432D01*
X147800318Y-105387938D01*
X147744987Y-105430603D01*
X147675374Y-105436582D01*
X147613579Y-105403976D01*
X147599682Y-105387938D01*
X147588773Y-105372923D01*
X147538286Y-105303434D01*
X147376566Y-105141714D01*
X147191538Y-105007283D01*
X147124570Y-104973161D01*
X146987755Y-104903450D01*
X146770248Y-104832778D01*
X146584812Y-104803408D01*
X146544354Y-104797000D01*
X146315646Y-104797000D01*
X146275188Y-104803408D01*
X146089753Y-104832778D01*
X146089750Y-104832778D01*
X145872244Y-104903450D01*
X145668461Y-105007283D01*
X145594051Y-105061346D01*
X145483434Y-105141714D01*
X145483432Y-105141716D01*
X145483431Y-105141716D01*
X145321715Y-105303432D01*
X145260318Y-105387938D01*
X145204987Y-105430603D01*
X145135374Y-105436582D01*
X145073579Y-105403976D01*
X145059682Y-105387938D01*
X145048773Y-105372923D01*
X144998286Y-105303434D01*
X144836566Y-105141714D01*
X144651538Y-105007283D01*
X144584570Y-104973161D01*
X144447755Y-104903450D01*
X144230248Y-104832778D01*
X144044812Y-104803408D01*
X144004354Y-104797000D01*
X143775646Y-104797000D01*
X143735188Y-104803408D01*
X143549753Y-104832778D01*
X143549750Y-104832778D01*
X143332244Y-104903450D01*
X143128461Y-105007283D01*
X143054051Y-105061346D01*
X142943434Y-105141714D01*
X142943432Y-105141716D01*
X142943431Y-105141716D01*
X142781715Y-105303432D01*
X142720318Y-105387938D01*
X142664987Y-105430603D01*
X142595374Y-105436582D01*
X142533579Y-105403976D01*
X142519682Y-105387938D01*
X142508773Y-105372923D01*
X142458286Y-105303434D01*
X142296566Y-105141714D01*
X142111538Y-105007283D01*
X142044570Y-104973161D01*
X141907755Y-104903450D01*
X141690248Y-104832778D01*
X141504812Y-104803408D01*
X141464354Y-104797000D01*
X141235646Y-104797000D01*
X141195188Y-104803408D01*
X141009753Y-104832778D01*
X141009750Y-104832778D01*
X140792244Y-104903450D01*
X140588461Y-105007283D01*
X140514051Y-105061346D01*
X140403434Y-105141714D01*
X140403432Y-105141716D01*
X140403431Y-105141716D01*
X140241716Y-105303431D01*
X140241716Y-105303432D01*
X140241714Y-105303434D01*
X140183980Y-105382896D01*
X140107283Y-105488461D01*
X140003450Y-105692244D01*
X139932778Y-105909750D01*
X139932778Y-105909753D01*
X139897000Y-106135646D01*
X139897000Y-106364353D01*
X139932778Y-106590246D01*
X139932778Y-106590249D01*
X140003450Y-106807755D01*
X140080000Y-106957992D01*
X140107283Y-107011538D01*
X140225818Y-107174688D01*
X140249298Y-107240492D01*
X140249500Y-107247572D01*
X140249500Y-107783389D01*
X140249500Y-107956611D01*
X140276598Y-108127701D01*
X140330127Y-108292445D01*
X140408768Y-108446788D01*
X140510586Y-108586928D01*
X140510588Y-108586930D01*
X143792663Y-111869005D01*
X143826148Y-111930328D01*
X143821164Y-112000020D01*
X143779292Y-112055953D01*
X143752436Y-112071247D01*
X143712769Y-112087678D01*
X143712762Y-112087681D01*
X143557092Y-112191697D01*
X143557088Y-112191700D01*
X143424700Y-112324088D01*
X143424700Y-112324089D01*
X143320681Y-112479762D01*
X143320676Y-112479771D01*
X143249027Y-112652748D01*
X143249025Y-112652756D01*
X143212500Y-112836379D01*
X143212500Y-113023620D01*
X143249025Y-113207243D01*
X143249028Y-113207255D01*
X143303395Y-113338509D01*
X143310864Y-113407978D01*
X143279589Y-113470457D01*
X143219500Y-113506109D01*
X143175579Y-113509250D01*
X143167673Y-113508400D01*
X143167663Y-113508400D01*
X142462329Y-113508400D01*
X142462323Y-113508401D01*
X142402715Y-113514809D01*
X142402714Y-113514809D01*
X142396119Y-113517269D01*
X142326427Y-113522251D01*
X142265109Y-113488767D01*
X139076930Y-110300588D01*
X139076928Y-110300586D01*
X138936788Y-110198768D01*
X138782445Y-110120127D01*
X138617701Y-110066598D01*
X138617699Y-110066597D01*
X138617698Y-110066597D01*
X138486271Y-110045781D01*
X138446611Y-110039500D01*
X123671611Y-110039500D01*
X123498389Y-110039500D01*
X123412844Y-110053049D01*
X123327298Y-110066598D01*
X123162549Y-110120128D01*
X123008211Y-110198768D01*
X122928256Y-110256859D01*
X122868072Y-110300586D01*
X122868070Y-110300588D01*
X122868069Y-110300588D01*
X121305477Y-111863181D01*
X121244154Y-111896666D01*
X121217796Y-111899500D01*
X118613389Y-111899500D01*
X118573728Y-111905781D01*
X118442302Y-111926597D01*
X118277552Y-111980128D01*
X118123211Y-112058768D01*
X117983073Y-112160585D01*
X117860600Y-112283058D01*
X117836043Y-112302107D01*
X117785630Y-112331922D01*
X117669423Y-112448129D01*
X117669414Y-112448140D01*
X117669229Y-112448455D01*
X117669019Y-112448650D01*
X117664639Y-112454298D01*
X117663727Y-112453591D01*
X117618157Y-112496136D01*
X117549415Y-112508637D01*
X117484827Y-112481988D01*
X117460643Y-112454078D01*
X117460361Y-112454298D01*
X117456323Y-112449092D01*
X117455771Y-112448455D01*
X117455585Y-112448140D01*
X117455576Y-112448129D01*
X117339370Y-112331923D01*
X117339362Y-112331917D01*
X117197896Y-112248255D01*
X117197893Y-112248254D01*
X117040073Y-112202402D01*
X117040067Y-112202401D01*
X117003201Y-112199500D01*
X117003194Y-112199500D01*
X115846806Y-112199500D01*
X115846798Y-112199500D01*
X115809932Y-112202401D01*
X115809926Y-112202402D01*
X115652106Y-112248254D01*
X115652101Y-112248256D01*
X115633119Y-112259482D01*
X115565395Y-112276663D01*
X115499133Y-112254503D01*
X115455371Y-112200036D01*
X115454218Y-112194218D01*
X115446000Y-112186000D01*
X112646001Y-112186000D01*
X112641636Y-112190364D01*
X112626316Y-112242539D01*
X112573512Y-112288294D01*
X112522001Y-112299500D01*
X112439645Y-112299500D01*
X112304317Y-112326418D01*
X112304307Y-112326421D01*
X112176835Y-112379221D01*
X112176822Y-112379228D01*
X112062098Y-112455885D01*
X112062094Y-112455888D01*
X111964528Y-112553454D01*
X111900116Y-112649853D01*
X111884695Y-112668642D01*
X111540616Y-113012721D01*
X111479293Y-113046206D01*
X111452935Y-113049040D01*
X111073030Y-113049040D01*
X111073023Y-113049041D01*
X111013416Y-113055448D01*
X110878571Y-113105742D01*
X110878562Y-113105747D01*
X110865956Y-113115184D01*
X110800491Y-113139599D01*
X110748316Y-113132097D01*
X110707579Y-113116903D01*
X110707572Y-113116901D01*
X110648044Y-113110500D01*
X109885000Y-113110500D01*
X109885000Y-116269500D01*
X110648028Y-116269500D01*
X110648044Y-116269499D01*
X110707572Y-116263098D01*
X110748314Y-116247902D01*
X110818006Y-116242916D01*
X110865959Y-116264816D01*
X110878569Y-116274256D01*
X111013417Y-116324551D01*
X111073027Y-116330960D01*
X111677469Y-116330959D01*
X111744508Y-116350643D01*
X111790263Y-116403447D01*
X111792030Y-116407505D01*
X111811827Y-116455299D01*
X111812606Y-116457178D01*
X111812609Y-116457185D01*
X111900210Y-116588288D01*
X111900213Y-116588292D01*
X112011707Y-116699786D01*
X112011711Y-116699789D01*
X112142814Y-116787390D01*
X112142827Y-116787397D01*
X112288498Y-116847735D01*
X112288503Y-116847737D01*
X112416654Y-116873228D01*
X112443153Y-116878499D01*
X112443156Y-116878500D01*
X112443158Y-116878500D01*
X114715060Y-116878500D01*
X114744500Y-116887144D01*
X114774487Y-116893668D01*
X114779502Y-116897422D01*
X114782099Y-116898185D01*
X114802741Y-116914819D01*
X114933181Y-117045259D01*
X114966666Y-117106582D01*
X114969500Y-117132940D01*
X114969500Y-119897794D01*
X114949815Y-119964833D01*
X114933181Y-119985475D01*
X114886304Y-120032352D01*
X114824981Y-120065837D01*
X114780335Y-120065439D01*
X114780196Y-120066738D01*
X114712883Y-120059501D01*
X114712881Y-120059500D01*
X114712873Y-120059500D01*
X114712864Y-120059500D01*
X111717129Y-120059500D01*
X111717123Y-120059501D01*
X111657516Y-120065908D01*
X111522671Y-120116202D01*
X111522664Y-120116206D01*
X111407455Y-120202452D01*
X111407452Y-120202455D01*
X111321206Y-120317664D01*
X111321202Y-120317671D01*
X111270908Y-120452517D01*
X111264501Y-120512116D01*
X111264501Y-120512123D01*
X111264500Y-120512135D01*
X111264500Y-126007870D01*
X111264501Y-126007876D01*
X111270908Y-126067483D01*
X111321202Y-126202328D01*
X111321206Y-126202335D01*
X111407452Y-126317544D01*
X111407455Y-126317547D01*
X111522664Y-126403793D01*
X111522671Y-126403797D01*
X111657517Y-126454091D01*
X111657516Y-126454091D01*
X111664444Y-126454835D01*
X111717127Y-126460500D01*
X114712872Y-126460499D01*
X114772483Y-126454091D01*
X114907331Y-126403796D01*
X115022546Y-126317546D01*
X115108796Y-126202331D01*
X115159091Y-126067483D01*
X115165500Y-126007873D01*
X115165499Y-122917203D01*
X115185184Y-122850165D01*
X115201818Y-122829523D01*
X116909414Y-121121928D01*
X118022523Y-120008819D01*
X118083846Y-119975334D01*
X118110204Y-119972500D01*
X118871796Y-119972500D01*
X118938835Y-119992185D01*
X118984590Y-120044989D01*
X118994534Y-120114147D01*
X118965509Y-120177703D01*
X118959477Y-120184181D01*
X118860588Y-120283069D01*
X118860588Y-120283070D01*
X118860586Y-120283072D01*
X118816859Y-120343256D01*
X118758768Y-120423211D01*
X118680128Y-120577552D01*
X118626597Y-120742302D01*
X118599500Y-120913389D01*
X118599500Y-123186610D01*
X118622637Y-123332697D01*
X118626598Y-123357701D01*
X118680127Y-123522445D01*
X118758768Y-123676788D01*
X118860586Y-123816928D01*
X118860588Y-123816930D01*
X124295793Y-129252135D01*
X124329278Y-129313458D01*
X124324294Y-129383150D01*
X124282422Y-129439083D01*
X124246432Y-129457746D01*
X124177553Y-129480126D01*
X124023211Y-129558768D01*
X123943256Y-129616859D01*
X123883072Y-129660586D01*
X123883070Y-129660588D01*
X123883069Y-129660588D01*
X119771074Y-133772583D01*
X119771073Y-133772585D01*
X119771072Y-133772586D01*
X119712039Y-133831619D01*
X119693931Y-133849727D01*
X119632607Y-133883211D01*
X119562916Y-133878226D01*
X119518569Y-133849726D01*
X118086818Y-132417975D01*
X118053333Y-132356652D01*
X118050499Y-132330294D01*
X118050499Y-132162498D01*
X118050498Y-132162481D01*
X118039999Y-132059703D01*
X118039998Y-132059700D01*
X118016572Y-131989005D01*
X117984814Y-131893166D01*
X117892712Y-131743844D01*
X117768656Y-131619788D01*
X117673189Y-131560904D01*
X117619336Y-131527687D01*
X117619331Y-131527685D01*
X117585746Y-131516556D01*
X117452797Y-131472501D01*
X117452795Y-131472500D01*
X117350010Y-131462000D01*
X116599998Y-131462000D01*
X116599980Y-131462001D01*
X116497203Y-131472500D01*
X116497200Y-131472501D01*
X116330668Y-131527685D01*
X116330663Y-131527687D01*
X116181342Y-131619789D01*
X116057289Y-131743842D01*
X115965187Y-131893163D01*
X115965185Y-131893168D01*
X115958131Y-131914457D01*
X115910001Y-132059703D01*
X115910001Y-132059704D01*
X115910000Y-132059704D01*
X115899500Y-132162483D01*
X115899500Y-132608285D01*
X115897973Y-132627683D01*
X115874500Y-132775883D01*
X115874500Y-132949116D01*
X115897973Y-133097317D01*
X115899500Y-133116715D01*
X115899500Y-133562501D01*
X115899501Y-133562519D01*
X115910000Y-133665296D01*
X115910001Y-133665299D01*
X115945552Y-133772583D01*
X115965186Y-133831834D01*
X116057288Y-133981156D01*
X116181344Y-134105212D01*
X116330666Y-134197314D01*
X116497203Y-134252499D01*
X116599991Y-134263000D01*
X116767794Y-134262999D01*
X116834834Y-134282683D01*
X116855476Y-134299318D01*
X117623181Y-135067023D01*
X117656666Y-135128346D01*
X117659500Y-135154704D01*
X117659500Y-135659812D01*
X117639815Y-135726851D01*
X117613861Y-135755913D01*
X117548893Y-135808887D01*
X117420304Y-135966590D01*
X117326089Y-136146954D01*
X117270114Y-136342583D01*
X117270113Y-136342586D01*
X117259500Y-136461966D01*
X117259500Y-136695500D01*
X117239815Y-136762539D01*
X117187011Y-136808294D01*
X117135500Y-136819500D01*
X113803656Y-136819500D01*
X113736617Y-136799815D01*
X113690862Y-136747011D01*
X113680918Y-136677853D01*
X113707009Y-136617813D01*
X113826607Y-136469025D01*
X113826609Y-136469022D01*
X113911168Y-136298523D01*
X113957102Y-136113824D01*
X113960000Y-136071096D01*
X113960000Y-135870000D01*
X112584000Y-135870000D01*
X112516961Y-135850315D01*
X112471206Y-135797511D01*
X112460000Y-135746000D01*
X112460000Y-135620000D01*
X112334000Y-135620000D01*
X112266961Y-135600315D01*
X112221206Y-135547511D01*
X112210000Y-135496000D01*
X112210000Y-134370000D01*
X112710000Y-134370000D01*
X112710000Y-135370000D01*
X113960000Y-135370000D01*
X113960000Y-135168903D01*
X113957102Y-135126175D01*
X113911168Y-134941476D01*
X113826609Y-134770977D01*
X113826607Y-134770974D01*
X113707367Y-134622633D01*
X113707366Y-134622632D01*
X113559025Y-134503392D01*
X113559021Y-134503390D01*
X113536609Y-134492274D01*
X113485297Y-134444852D01*
X113467769Y-134377217D01*
X113489589Y-134310842D01*
X113543831Y-134266801D01*
X113604310Y-134257829D01*
X113650022Y-134262499D01*
X113774999Y-134262499D01*
X114275000Y-134262499D01*
X114399972Y-134262499D01*
X114399986Y-134262498D01*
X114502697Y-134252005D01*
X114669119Y-134196858D01*
X114669124Y-134196856D01*
X114818345Y-134104815D01*
X114942315Y-133980845D01*
X115034356Y-133831624D01*
X115034358Y-133831619D01*
X115089505Y-133665197D01*
X115089506Y-133665190D01*
X115099999Y-133562486D01*
X115100000Y-133562473D01*
X115100000Y-133112500D01*
X114275000Y-133112500D01*
X114275000Y-134262499D01*
X113774999Y-134262499D01*
X113775000Y-134262498D01*
X113775000Y-133112500D01*
X112950001Y-133112500D01*
X112950001Y-133562486D01*
X112960494Y-133665197D01*
X113015641Y-133831619D01*
X113015643Y-133831624D01*
X113107684Y-133980845D01*
X113231654Y-134104815D01*
X113300919Y-134147538D01*
X113347643Y-134199486D01*
X113358866Y-134268448D01*
X113331022Y-134332531D01*
X113272954Y-134371387D01*
X113209296Y-134373311D01*
X113209228Y-134373745D01*
X113206922Y-134373383D01*
X113205905Y-134373414D01*
X113203829Y-134372898D01*
X113161097Y-134370000D01*
X112710000Y-134370000D01*
X112210000Y-134370000D01*
X111758903Y-134370000D01*
X111716175Y-134372897D01*
X111531476Y-134418831D01*
X111360977Y-134503390D01*
X111360974Y-134503392D01*
X111212633Y-134622632D01*
X111212632Y-134622633D01*
X111093392Y-134770974D01*
X111093390Y-134770977D01*
X111008831Y-134941476D01*
X111008828Y-134941484D01*
X110968860Y-135102195D01*
X110933578Y-135162502D01*
X110871292Y-135194160D01*
X110801778Y-135187119D01*
X110783430Y-135177807D01*
X110719128Y-135138145D01*
X110719119Y-135138141D01*
X110552697Y-135082994D01*
X110552690Y-135082993D01*
X110449986Y-135072500D01*
X110000000Y-135072500D01*
X110000000Y-137222499D01*
X110449972Y-137222499D01*
X110449986Y-137222498D01*
X110552697Y-137212005D01*
X110719119Y-137156858D01*
X110719130Y-137156853D01*
X110828107Y-137089635D01*
X110895499Y-137071194D01*
X110962163Y-137092116D01*
X111006932Y-137145758D01*
X111015594Y-137215088D01*
X111009601Y-137237926D01*
X111008361Y-137241301D01*
X111008360Y-137241304D01*
X111008359Y-137241307D01*
X110992827Y-137303761D01*
X110962400Y-137426107D01*
X110959500Y-137468879D01*
X110959500Y-138013646D01*
X110939815Y-138080685D01*
X110887011Y-138126440D01*
X110817853Y-138136384D01*
X110770405Y-138119186D01*
X110719338Y-138087688D01*
X110719335Y-138087686D01*
X110719334Y-138087686D01*
X110552797Y-138032501D01*
X110552795Y-138032500D01*
X110450016Y-138022000D01*
X110450009Y-138022000D01*
X110004213Y-138022000D01*
X109984815Y-138020473D01*
X109836616Y-137997000D01*
X109836611Y-137997000D01*
X108704704Y-137997000D01*
X108637665Y-137977315D01*
X108617023Y-137960681D01*
X107178828Y-136522486D01*
X108350001Y-136522486D01*
X108360494Y-136625197D01*
X108415641Y-136791619D01*
X108415643Y-136791624D01*
X108507684Y-136940845D01*
X108631654Y-137064815D01*
X108780875Y-137156856D01*
X108780880Y-137156858D01*
X108947302Y-137212005D01*
X108947309Y-137212006D01*
X109050019Y-137222499D01*
X109499999Y-137222499D01*
X109500000Y-137222498D01*
X109500000Y-136397500D01*
X108350001Y-136397500D01*
X108350001Y-136522486D01*
X107178828Y-136522486D01*
X106428855Y-135772513D01*
X108350000Y-135772513D01*
X108350000Y-135897500D01*
X109500000Y-135897500D01*
X109500000Y-135072500D01*
X109050028Y-135072500D01*
X109050012Y-135072501D01*
X108947302Y-135082994D01*
X108780880Y-135138141D01*
X108780875Y-135138143D01*
X108631654Y-135230184D01*
X108507684Y-135354154D01*
X108415643Y-135503375D01*
X108415641Y-135503380D01*
X108360494Y-135669802D01*
X108360493Y-135669809D01*
X108350000Y-135772513D01*
X106428855Y-135772513D01*
X102818855Y-132162513D01*
X112950000Y-132162513D01*
X112950000Y-132612500D01*
X113775000Y-132612500D01*
X114275000Y-132612500D01*
X115099999Y-132612500D01*
X115099999Y-132162528D01*
X115099998Y-132162513D01*
X115089505Y-132059802D01*
X115034358Y-131893380D01*
X115034356Y-131893375D01*
X114942315Y-131744154D01*
X114818345Y-131620184D01*
X114669124Y-131528143D01*
X114669119Y-131528141D01*
X114502697Y-131472994D01*
X114502690Y-131472993D01*
X114399986Y-131462500D01*
X114275000Y-131462500D01*
X114275000Y-132612500D01*
X113775000Y-132612500D01*
X113775000Y-131462500D01*
X113650027Y-131462500D01*
X113650012Y-131462501D01*
X113547302Y-131472994D01*
X113380880Y-131528141D01*
X113380875Y-131528143D01*
X113231654Y-131620184D01*
X113107684Y-131744154D01*
X113015643Y-131893375D01*
X113015641Y-131893380D01*
X112960494Y-132059802D01*
X112960493Y-132059809D01*
X112950000Y-132162513D01*
X102818855Y-132162513D01*
X98116930Y-127460588D01*
X98116928Y-127460586D01*
X97990443Y-127368689D01*
X97947779Y-127313360D01*
X97941800Y-127243746D01*
X97974406Y-127181951D01*
X97975573Y-127180767D01*
X100939414Y-124216928D01*
X101041232Y-124076788D01*
X101119873Y-123922445D01*
X101173402Y-123757701D01*
X101200500Y-123586611D01*
X101200500Y-123413389D01*
X101200500Y-118813389D01*
X101173402Y-118642299D01*
X101119873Y-118477555D01*
X101041232Y-118323212D01*
X100939414Y-118183072D01*
X100816928Y-118060586D01*
X100734224Y-118000498D01*
X100676786Y-117958766D01*
X100582027Y-117910485D01*
X100531230Y-117862511D01*
X100514435Y-117794690D01*
X100536972Y-117728555D01*
X100582027Y-117689515D01*
X100676786Y-117641233D01*
X100676785Y-117641233D01*
X100676788Y-117641232D01*
X100816928Y-117539414D01*
X100939414Y-117416928D01*
X101041232Y-117276788D01*
X101119873Y-117122445D01*
X101173402Y-116957701D01*
X101200500Y-116786611D01*
X101200500Y-116613389D01*
X101200500Y-115418204D01*
X101220185Y-115351165D01*
X101236819Y-115330523D01*
X102019523Y-114547819D01*
X102080846Y-114514334D01*
X102107204Y-114511500D01*
X103469483Y-114511500D01*
X103469483Y-114513298D01*
X103530300Y-114526067D01*
X103559346Y-114547647D01*
X104632686Y-115620987D01*
X104669953Y-115658254D01*
X104701497Y-115689798D01*
X104734981Y-115751122D01*
X104729996Y-115820813D01*
X104701496Y-115865160D01*
X102798072Y-117768586D01*
X102675588Y-117891069D01*
X102675588Y-117891070D01*
X102675586Y-117891072D01*
X102631859Y-117951256D01*
X102573768Y-118031211D01*
X102495128Y-118185552D01*
X102441597Y-118350302D01*
X102414500Y-118521389D01*
X102414500Y-119935500D01*
X102394815Y-120002539D01*
X102342011Y-120048294D01*
X102290500Y-120059500D01*
X102017130Y-120059500D01*
X102017123Y-120059501D01*
X101957516Y-120065908D01*
X101822671Y-120116202D01*
X101822664Y-120116206D01*
X101707455Y-120202452D01*
X101707452Y-120202455D01*
X101621206Y-120317664D01*
X101621202Y-120317671D01*
X101570908Y-120452517D01*
X101564501Y-120512116D01*
X101564501Y-120512123D01*
X101564500Y-120512135D01*
X101564500Y-126007870D01*
X101564501Y-126007876D01*
X101570908Y-126067483D01*
X101621202Y-126202328D01*
X101621206Y-126202335D01*
X101707452Y-126317544D01*
X101707455Y-126317547D01*
X101822664Y-126403793D01*
X101822671Y-126403797D01*
X101957517Y-126454091D01*
X101957516Y-126454091D01*
X101964444Y-126454835D01*
X102017127Y-126460500D01*
X105012872Y-126460499D01*
X105072483Y-126454091D01*
X105207331Y-126403796D01*
X105322546Y-126317546D01*
X105408796Y-126202331D01*
X105459091Y-126067483D01*
X105465500Y-126007873D01*
X105465499Y-120512128D01*
X105459091Y-120452517D01*
X105408796Y-120317669D01*
X105408795Y-120317668D01*
X105408793Y-120317664D01*
X105322547Y-120202455D01*
X105322544Y-120202452D01*
X105207335Y-120116206D01*
X105207328Y-120116202D01*
X105072482Y-120065908D01*
X105072483Y-120065908D01*
X105012883Y-120059501D01*
X105012881Y-120059500D01*
X105012873Y-120059500D01*
X105012865Y-120059500D01*
X104739500Y-120059500D01*
X104672461Y-120039815D01*
X104626706Y-119987011D01*
X104615500Y-119935500D01*
X104615500Y-119115204D01*
X104635185Y-119048165D01*
X104651819Y-119027523D01*
X106401023Y-117278319D01*
X106462346Y-117244834D01*
X106488704Y-117242000D01*
X106703110Y-117242000D01*
X106703111Y-117242000D01*
X106874201Y-117214902D01*
X107038945Y-117161373D01*
X107193288Y-117082732D01*
X107333428Y-116980914D01*
X107455914Y-116858428D01*
X107557732Y-116718288D01*
X107636373Y-116563945D01*
X107684236Y-116416640D01*
X107723674Y-116358965D01*
X107788033Y-116331767D01*
X107802167Y-116330959D01*
X108196971Y-116330959D01*
X108196972Y-116330959D01*
X108256583Y-116324551D01*
X108391431Y-116274256D01*
X108404037Y-116264818D01*
X108469498Y-116240400D01*
X108521684Y-116247903D01*
X108562421Y-116263097D01*
X108621955Y-116269499D01*
X108621972Y-116269500D01*
X109385000Y-116269500D01*
X109385000Y-113070469D01*
X109404685Y-113003430D01*
X109440110Y-112967367D01*
X109532571Y-112905586D01*
X109571908Y-112879302D01*
X109704302Y-112746908D01*
X109808322Y-112591231D01*
X109879973Y-112418251D01*
X109916500Y-112234616D01*
X109916500Y-112047384D01*
X109879973Y-111863749D01*
X109808322Y-111690769D01*
X109808321Y-111690768D01*
X109808318Y-111690762D01*
X109704302Y-111535092D01*
X109704299Y-111535088D01*
X109590392Y-111421181D01*
X109556907Y-111359858D01*
X109561891Y-111290166D01*
X109603763Y-111234233D01*
X109669227Y-111209816D01*
X109678073Y-111209500D01*
X112567220Y-111209500D01*
X112634259Y-111229185D01*
X112680014Y-111281989D01*
X112689958Y-111351147D01*
X112684926Y-111372504D01*
X112656494Y-111458302D01*
X112656493Y-111458309D01*
X112646000Y-111561013D01*
X112646000Y-111686000D01*
X115445999Y-111686000D01*
X115445999Y-111561028D01*
X115445998Y-111561013D01*
X115435505Y-111458302D01*
X115380358Y-111291880D01*
X115380356Y-111291875D01*
X115288317Y-111142657D01*
X115206682Y-111061021D01*
X115173198Y-110999697D01*
X115178182Y-110930006D01*
X115206683Y-110885659D01*
X117625523Y-108466818D01*
X117686846Y-108433333D01*
X117713204Y-108430499D01*
X118569208Y-108430499D01*
X118569216Y-108430499D01*
X118701412Y-108420096D01*
X118919683Y-108365096D01*
X119124626Y-108272007D01*
X119309654Y-108143819D01*
X119468819Y-107984654D01*
X119597007Y-107799626D01*
X119690096Y-107594683D01*
X119745096Y-107376412D01*
X119755500Y-107244217D01*
X119755499Y-105615784D01*
X119745096Y-105483588D01*
X119733251Y-105436582D01*
X119690097Y-105265321D01*
X119690096Y-105265318D01*
X119682969Y-105249628D01*
X119597007Y-105060374D01*
X119536586Y-104973161D01*
X119468825Y-104875354D01*
X119468822Y-104875350D01*
X119468819Y-104875346D01*
X119309654Y-104716181D01*
X119309650Y-104716178D01*
X119309645Y-104716174D01*
X119124632Y-104587997D01*
X119124630Y-104587995D01*
X119124626Y-104587993D01*
X119071112Y-104563686D01*
X118919681Y-104494903D01*
X118919678Y-104494902D01*
X118701420Y-104439905D01*
X118701413Y-104439904D01*
X118657347Y-104436436D01*
X118569217Y-104429500D01*
X118569215Y-104429500D01*
X116940791Y-104429500D01*
X116940776Y-104429501D01*
X116808586Y-104439904D01*
X116808579Y-104439905D01*
X116590321Y-104494902D01*
X116590318Y-104494903D01*
X116385377Y-104587991D01*
X116385367Y-104587997D01*
X116200354Y-104716174D01*
X116200342Y-104716184D01*
X116041184Y-104875342D01*
X116041174Y-104875354D01*
X115912997Y-105060367D01*
X115912991Y-105060377D01*
X115819903Y-105265318D01*
X115819902Y-105265321D01*
X115764905Y-105483579D01*
X115764904Y-105483586D01*
X115754500Y-105615777D01*
X115754500Y-107173795D01*
X115734815Y-107240834D01*
X115718181Y-107261476D01*
X114007477Y-108972181D01*
X113946154Y-109005666D01*
X113919796Y-109008500D01*
X108798611Y-109008500D01*
X108625389Y-109008500D01*
X108585728Y-109014781D01*
X108454302Y-109035597D01*
X108289552Y-109089128D01*
X108135211Y-109167768D01*
X108055256Y-109225859D01*
X107995072Y-109269586D01*
X107995070Y-109269588D01*
X107995069Y-109269588D01*
X105967588Y-111297069D01*
X105967588Y-111297070D01*
X105967586Y-111297072D01*
X105928298Y-111351147D01*
X105865768Y-111437211D01*
X105787128Y-111591552D01*
X105733597Y-111756302D01*
X105706500Y-111927389D01*
X105706500Y-112105483D01*
X105704712Y-112105483D01*
X105691907Y-112166345D01*
X105670353Y-112195345D01*
X105520303Y-112345395D01*
X105478116Y-112408533D01*
X105424503Y-112453338D01*
X105355178Y-112462045D01*
X105336012Y-112457348D01*
X105300711Y-112445651D01*
X105300714Y-112445651D01*
X105201346Y-112435500D01*
X104654662Y-112435500D01*
X104654644Y-112435501D01*
X104555292Y-112445650D01*
X104555289Y-112445651D01*
X104394305Y-112498996D01*
X104394300Y-112498998D01*
X104247691Y-112589429D01*
X104180299Y-112607869D01*
X104113635Y-112586947D01*
X104098694Y-112574676D01*
X104098632Y-112574750D01*
X104094935Y-112571593D01*
X104094928Y-112571586D01*
X103954788Y-112469768D01*
X103853664Y-112418243D01*
X103800447Y-112391128D01*
X103800446Y-112391127D01*
X103800445Y-112391127D01*
X103635701Y-112337598D01*
X103635699Y-112337597D01*
X103635698Y-112337597D01*
X103504271Y-112316781D01*
X103464611Y-112310500D01*
X101686610Y-112310500D01*
X101513389Y-112310500D01*
X101433129Y-112323212D01*
X101342298Y-112337598D01*
X101177549Y-112391128D01*
X101023211Y-112469768D01*
X100943256Y-112527859D01*
X100883072Y-112571586D01*
X100883070Y-112571588D01*
X100883069Y-112571588D01*
X99260588Y-114194069D01*
X99260588Y-114194070D01*
X99260586Y-114194072D01*
X99228798Y-114237824D01*
X99158768Y-114334211D01*
X99080128Y-114488552D01*
X99026597Y-114653302D01*
X98999500Y-114824389D01*
X98999500Y-115025500D01*
X98979815Y-115092539D01*
X98927011Y-115138294D01*
X98875500Y-115149500D01*
X98624370Y-115149500D01*
X98557331Y-115129815D01*
X98511576Y-115077011D01*
X98506664Y-115064505D01*
X98486613Y-115003996D01*
X98462314Y-114930666D01*
X98370212Y-114781344D01*
X98246156Y-114657288D01*
X98096834Y-114565186D01*
X97930297Y-114510001D01*
X97930295Y-114510000D01*
X97827510Y-114499500D01*
X93827498Y-114499500D01*
X93827481Y-114499501D01*
X93724703Y-114510000D01*
X93724700Y-114510001D01*
X93558168Y-114565185D01*
X93558163Y-114565187D01*
X93408842Y-114657289D01*
X93284789Y-114781342D01*
X93192687Y-114930663D01*
X93192685Y-114930668D01*
X93192615Y-114930880D01*
X93137501Y-115097203D01*
X93137501Y-115097204D01*
X93137500Y-115097204D01*
X93127000Y-115199983D01*
X93127000Y-115199996D01*
X93127001Y-117300000D01*
X93127001Y-117300018D01*
X93137500Y-117402796D01*
X93137501Y-117402799D01*
X93192685Y-117569331D01*
X93192687Y-117569336D01*
X93218832Y-117611724D01*
X93284788Y-117718656D01*
X93408844Y-117842712D01*
X93558166Y-117934814D01*
X93724703Y-117989999D01*
X93827491Y-118000500D01*
X97827508Y-118000499D01*
X97930297Y-117989999D01*
X98096834Y-117934814D01*
X98246156Y-117842712D01*
X98370212Y-117718656D01*
X98462314Y-117569334D01*
X98506664Y-117435494D01*
X98546436Y-117378051D01*
X98610951Y-117351228D01*
X98624369Y-117350500D01*
X99142796Y-117350500D01*
X99209835Y-117370185D01*
X99230477Y-117386819D01*
X99383072Y-117539414D01*
X99523212Y-117641232D01*
X99558498Y-117659211D01*
X99617973Y-117689515D01*
X99668769Y-117737490D01*
X99685564Y-117805311D01*
X99663027Y-117871445D01*
X99617973Y-117910485D01*
X99523211Y-117958768D01*
X99465774Y-118000499D01*
X99383072Y-118060586D01*
X99383070Y-118060588D01*
X99383069Y-118060588D01*
X99260588Y-118183069D01*
X99260588Y-118183070D01*
X99260586Y-118183072D01*
X99216859Y-118243256D01*
X99158768Y-118323211D01*
X99080128Y-118477552D01*
X99026597Y-118642302D01*
X98999500Y-118813389D01*
X98999500Y-122992795D01*
X98979815Y-123059834D01*
X98963181Y-123080476D01*
X95750978Y-126292678D01*
X95689655Y-126326163D01*
X95647112Y-126327936D01*
X95431129Y-126299501D01*
X95431126Y-126299500D01*
X95431120Y-126299500D01*
X95168880Y-126299500D01*
X95168872Y-126299500D01*
X94937772Y-126329926D01*
X94908884Y-126333730D01*
X94655581Y-126401602D01*
X94655571Y-126401605D01*
X94413309Y-126501953D01*
X94413299Y-126501958D01*
X94186196Y-126633075D01*
X93978148Y-126792718D01*
X93792718Y-126978148D01*
X93633075Y-127186196D01*
X93501958Y-127413299D01*
X93501953Y-127413309D01*
X93401605Y-127655571D01*
X93401602Y-127655581D01*
X93333730Y-127908885D01*
X93299500Y-128168872D01*
X93299500Y-128431127D01*
X93326123Y-128633339D01*
X93333730Y-128691116D01*
X93382658Y-128873717D01*
X93401602Y-128944418D01*
X93401605Y-128944428D01*
X93501953Y-129186690D01*
X93501958Y-129186700D01*
X93633075Y-129413803D01*
X93792718Y-129621851D01*
X93792726Y-129621860D01*
X93978140Y-129807274D01*
X93978148Y-129807281D01*
X94186196Y-129966924D01*
X94413299Y-130098041D01*
X94413309Y-130098046D01*
X94590163Y-130171301D01*
X94655581Y-130198398D01*
X94908884Y-130266270D01*
X95143845Y-130297204D01*
X95165074Y-130299999D01*
X95168880Y-130300500D01*
X95168887Y-130300500D01*
X95431113Y-130300500D01*
X95431120Y-130300500D01*
X95691116Y-130266270D01*
X95944419Y-130198398D01*
X96186697Y-130098043D01*
X96413803Y-129966924D01*
X96621851Y-129807282D01*
X96621855Y-129807277D01*
X96621860Y-129807274D01*
X96807277Y-129621856D01*
X96807282Y-129621851D01*
X96876739Y-129531332D01*
X96933167Y-129490130D01*
X97002913Y-129485975D01*
X97062796Y-129519138D01*
X103701477Y-136157819D01*
X103734962Y-136219142D01*
X103729978Y-136288834D01*
X103688106Y-136344767D01*
X103622642Y-136369184D01*
X103613796Y-136369500D01*
X101652129Y-136369500D01*
X101652123Y-136369501D01*
X101592516Y-136375908D01*
X101457671Y-136426202D01*
X101457664Y-136426206D01*
X101342455Y-136512452D01*
X101342452Y-136512455D01*
X101256206Y-136627664D01*
X101256202Y-136627671D01*
X101205908Y-136762517D01*
X101200987Y-136808294D01*
X101199501Y-136822123D01*
X101199500Y-136822135D01*
X101199500Y-142317870D01*
X101199501Y-142317876D01*
X101205908Y-142377483D01*
X101256202Y-142512328D01*
X101256206Y-142512335D01*
X101342452Y-142627544D01*
X101342455Y-142627547D01*
X101457664Y-142713793D01*
X101457671Y-142713797D01*
X101592517Y-142764091D01*
X101592516Y-142764091D01*
X101596879Y-142764560D01*
X101652127Y-142770500D01*
X104647872Y-142770499D01*
X104707483Y-142764091D01*
X104707482Y-142764091D01*
X104715196Y-142763262D01*
X104715405Y-142765208D01*
X104774853Y-142768383D01*
X104821305Y-142797647D01*
X107538977Y-145515319D01*
X107572462Y-145576642D01*
X107567478Y-145646334D01*
X107525606Y-145702267D01*
X107460142Y-145726684D01*
X107451296Y-145727000D01*
X104509111Y-145727000D01*
X104335889Y-145727000D01*
X104296228Y-145733281D01*
X104164802Y-145754097D01*
X104000052Y-145807628D01*
X103845711Y-145886268D01*
X103765756Y-145944359D01*
X103705572Y-145988086D01*
X103705570Y-145988088D01*
X103705569Y-145988088D01*
X99534061Y-150159595D01*
X99472738Y-150193080D01*
X99465779Y-150194387D01*
X99342047Y-150213985D01*
X99132396Y-150282103D01*
X99132393Y-150282104D01*
X98935974Y-150382187D01*
X98757641Y-150511752D01*
X98757636Y-150511756D01*
X98601756Y-150667636D01*
X98601752Y-150667641D01*
X98472187Y-150845974D01*
X98372104Y-151042393D01*
X98372103Y-151042396D01*
X98303985Y-151252047D01*
X98286062Y-151365210D01*
X98269500Y-151469778D01*
X98269500Y-151690222D01*
X98278085Y-151744427D01*
X98303985Y-151907952D01*
X98372103Y-152117603D01*
X98372104Y-152117606D01*
X98472187Y-152314025D01*
X98601752Y-152492358D01*
X98601756Y-152492363D01*
X98757636Y-152648243D01*
X98757641Y-152648247D01*
X98834630Y-152704182D01*
X98935978Y-152777815D01*
X99013489Y-152817309D01*
X99132393Y-152877895D01*
X99132396Y-152877896D01*
X99237221Y-152911955D01*
X99342049Y-152946015D01*
X99559778Y-152980500D01*
X99559779Y-152980500D01*
X99780221Y-152980500D01*
X99780222Y-152980500D01*
X99997951Y-152946015D01*
X100207606Y-152877895D01*
X100404022Y-152777815D01*
X100582365Y-152648242D01*
X100738242Y-152492365D01*
X100867815Y-152314022D01*
X100967895Y-152117606D01*
X101036015Y-151907951D01*
X101055612Y-151784216D01*
X101085539Y-151721086D01*
X101090385Y-151715955D01*
X104842023Y-147964319D01*
X104903346Y-147930834D01*
X104929704Y-147928000D01*
X108205501Y-147928000D01*
X108272540Y-147947685D01*
X108318295Y-148000489D01*
X108329501Y-148052000D01*
X108329501Y-148827518D01*
X108340000Y-148930296D01*
X108340001Y-148930299D01*
X108342771Y-148938657D01*
X108395186Y-149096834D01*
X108487288Y-149246156D01*
X108611344Y-149370212D01*
X108760666Y-149462314D01*
X108927203Y-149517499D01*
X109029991Y-149528000D01*
X111130008Y-149527999D01*
X111232797Y-149517499D01*
X111399334Y-149462314D01*
X111548656Y-149370212D01*
X111672712Y-149246156D01*
X111764814Y-149096834D01*
X111819999Y-148930297D01*
X111830500Y-148827509D01*
X111830499Y-144827492D01*
X111819999Y-144724703D01*
X111764814Y-144558166D01*
X111672712Y-144408844D01*
X111548656Y-144284788D01*
X111399334Y-144192686D01*
X111232797Y-144137501D01*
X111232795Y-144137500D01*
X111130016Y-144127000D01*
X111130009Y-144127000D01*
X109314704Y-144127000D01*
X109247665Y-144107315D01*
X109227023Y-144090681D01*
X105136818Y-140000476D01*
X105103333Y-139939153D01*
X105100499Y-139912795D01*
X105100499Y-137856203D01*
X105120184Y-137789164D01*
X105172988Y-137743409D01*
X105242146Y-137733465D01*
X105305702Y-137762490D01*
X105312180Y-137768522D01*
X107358086Y-139814428D01*
X107480572Y-139936914D01*
X107620712Y-140038732D01*
X107775055Y-140117373D01*
X107939799Y-140170902D01*
X108110889Y-140198000D01*
X109242796Y-140198000D01*
X109309835Y-140217685D01*
X109330477Y-140234319D01*
X110033086Y-140936928D01*
X110155572Y-141059414D01*
X110295712Y-141161232D01*
X110450055Y-141239873D01*
X110614799Y-141293402D01*
X110785889Y-141320500D01*
X110785890Y-141320500D01*
X110959111Y-141320500D01*
X111298599Y-141320500D01*
X111353444Y-141336533D01*
X111354680Y-141334043D01*
X111531302Y-141421639D01*
X111531303Y-141421639D01*
X111531307Y-141421641D01*
X111716111Y-141467600D01*
X111758877Y-141470500D01*
X112102795Y-141470499D01*
X112169834Y-141490183D01*
X112190476Y-141506818D01*
X116933181Y-146249523D01*
X116966666Y-146310846D01*
X116969500Y-146337204D01*
X116969500Y-156643389D01*
X116969500Y-156816611D01*
X116996598Y-156987701D01*
X117050127Y-157152445D01*
X117128768Y-157306788D01*
X117230586Y-157446928D01*
X122580586Y-162796928D01*
X122703072Y-162919414D01*
X122808177Y-162995777D01*
X122843213Y-163021233D01*
X122972078Y-163086892D01*
X122972080Y-163086893D01*
X122997548Y-163099870D01*
X122997551Y-163099870D01*
X122997555Y-163099873D01*
X123162299Y-163153403D01*
X123309996Y-163176795D01*
X123333389Y-163180500D01*
X123333390Y-163180500D01*
X123506611Y-163180500D01*
X123753795Y-163180500D01*
X123820834Y-163200185D01*
X123866589Y-163252989D01*
X123876533Y-163322147D01*
X123847508Y-163385703D01*
X123841476Y-163392181D01*
X123043477Y-164190181D01*
X122982154Y-164223666D01*
X122955796Y-164226500D01*
X115742077Y-164226500D01*
X115675038Y-164206815D01*
X115629283Y-164154011D01*
X115619339Y-164084853D01*
X115648364Y-164021297D01*
X115654396Y-164014819D01*
X115706748Y-163962466D01*
X115706751Y-163962462D01*
X115816185Y-163798684D01*
X115816192Y-163798671D01*
X115891569Y-163616693D01*
X115891572Y-163616681D01*
X115929999Y-163423495D01*
X115930000Y-163423492D01*
X115930000Y-163025000D01*
X115230000Y-163025000D01*
X115230000Y-162525000D01*
X115930000Y-162525000D01*
X115930000Y-162126508D01*
X115929999Y-162126504D01*
X115891572Y-161933318D01*
X115891569Y-161933306D01*
X115816192Y-161751328D01*
X115816185Y-161751315D01*
X115706751Y-161587537D01*
X115706748Y-161587533D01*
X115567466Y-161448251D01*
X115567462Y-161448248D01*
X115403684Y-161338814D01*
X115403671Y-161338807D01*
X115221691Y-161263429D01*
X115221683Y-161263427D01*
X115180000Y-161255135D01*
X115180000Y-162058011D01*
X115170060Y-162040795D01*
X115114205Y-161984940D01*
X115045796Y-161945444D01*
X114969496Y-161925000D01*
X114890504Y-161925000D01*
X114814204Y-161945444D01*
X114745795Y-161984940D01*
X114689940Y-162040795D01*
X114680000Y-162058011D01*
X114680000Y-161255136D01*
X114667830Y-161245148D01*
X114643793Y-161260749D01*
X114643938Y-161261098D01*
X114642054Y-161261878D01*
X114640853Y-161262658D01*
X114638306Y-161263430D01*
X114523483Y-161310991D01*
X114454013Y-161318460D01*
X114391534Y-161287184D01*
X114388348Y-161284110D01*
X114361556Y-161257317D01*
X114361552Y-161257314D01*
X114220196Y-161173717D01*
X114220192Y-161173715D01*
X114219392Y-161173483D01*
X114218839Y-161173130D01*
X114213035Y-161170618D01*
X114213440Y-161169681D01*
X114160510Y-161135870D01*
X114131311Y-161072394D01*
X114130000Y-161054410D01*
X114130000Y-161019999D01*
X114630000Y-161019999D01*
X114640454Y-161030453D01*
X114660944Y-161036469D01*
X114701037Y-161016178D01*
X114700840Y-161015544D01*
X114704619Y-161014366D01*
X114705535Y-161013903D01*
X114707112Y-161013589D01*
X114869396Y-160963018D01*
X115014877Y-160875072D01*
X115135072Y-160754877D01*
X115223019Y-160609395D01*
X115273590Y-160447106D01*
X115280000Y-160376572D01*
X115280000Y-160295000D01*
X114630000Y-160295000D01*
X114630000Y-161019999D01*
X114130000Y-161019999D01*
X114130000Y-159795000D01*
X114630000Y-159795000D01*
X115279999Y-159795000D01*
X115279999Y-159713417D01*
X115273591Y-159642897D01*
X115273590Y-159642892D01*
X115223018Y-159480603D01*
X115135072Y-159335122D01*
X115014877Y-159214927D01*
X114869395Y-159126980D01*
X114869396Y-159126980D01*
X114707105Y-159076409D01*
X114707106Y-159076409D01*
X114636572Y-159070000D01*
X114630000Y-159070000D01*
X114630000Y-159795000D01*
X114130000Y-159795000D01*
X114130000Y-159070000D01*
X114129999Y-159069999D01*
X114123436Y-159070000D01*
X114123417Y-159070001D01*
X114052897Y-159076408D01*
X114052892Y-159076409D01*
X113890603Y-159126981D01*
X113745122Y-159214927D01*
X113745121Y-159214928D01*
X113643035Y-159317015D01*
X113581712Y-159350500D01*
X113512020Y-159345516D01*
X113467673Y-159317015D01*
X113365188Y-159214530D01*
X113219606Y-159126522D01*
X113199600Y-159120288D01*
X113057196Y-159075914D01*
X113057194Y-159075913D01*
X113057192Y-159075913D01*
X113007778Y-159071423D01*
X112986616Y-159069500D01*
X112473384Y-159069500D01*
X112454145Y-159071248D01*
X112402807Y-159075913D01*
X112240393Y-159126522D01*
X112094811Y-159214530D01*
X111974530Y-159334811D01*
X111886522Y-159480393D01*
X111835913Y-159642807D01*
X111829500Y-159713386D01*
X111829500Y-160154966D01*
X111825275Y-160187059D01*
X111784500Y-160339234D01*
X111784500Y-161010855D01*
X111784308Y-161011506D01*
X111784493Y-161012160D01*
X111774475Y-161044995D01*
X111764815Y-161077894D01*
X111764302Y-161078337D01*
X111764104Y-161078989D01*
X111737906Y-161101210D01*
X111712011Y-161123649D01*
X111711166Y-161123892D01*
X111710821Y-161124185D01*
X111680783Y-161132640D01*
X111676855Y-161133771D01*
X111634764Y-161139313D01*
X111634553Y-161139400D01*
X111626354Y-161140491D01*
X111606346Y-161137399D01*
X111593684Y-161137399D01*
X111593292Y-161140374D01*
X111585237Y-161139313D01*
X111585236Y-161139313D01*
X111556271Y-161135499D01*
X111472727Y-161124500D01*
X111472720Y-161124500D01*
X111247280Y-161124500D01*
X111247272Y-161124500D01*
X111160916Y-161135870D01*
X111134764Y-161139313D01*
X111134762Y-161139313D01*
X111126708Y-161140374D01*
X111126316Y-161137399D01*
X111093684Y-161137399D01*
X111093292Y-161140374D01*
X111085237Y-161139313D01*
X111085236Y-161139313D01*
X111056271Y-161135499D01*
X110972727Y-161124500D01*
X110972720Y-161124500D01*
X110747280Y-161124500D01*
X110747272Y-161124500D01*
X110660916Y-161135870D01*
X110634764Y-161139313D01*
X110634762Y-161139313D01*
X110626708Y-161140374D01*
X110626316Y-161137399D01*
X110593684Y-161137399D01*
X110593292Y-161140374D01*
X110585237Y-161139313D01*
X110585236Y-161139313D01*
X110556271Y-161135499D01*
X110472727Y-161124500D01*
X110472720Y-161124500D01*
X110247280Y-161124500D01*
X110247274Y-161124500D01*
X110247269Y-161124501D01*
X110130234Y-161139909D01*
X110061199Y-161129143D01*
X110008943Y-161082763D01*
X109990058Y-161015494D01*
X110010539Y-160948694D01*
X110026364Y-160929292D01*
X110050472Y-160905185D01*
X110138478Y-160759606D01*
X110189086Y-160597196D01*
X110195500Y-160526616D01*
X110195500Y-159863384D01*
X110189086Y-159792804D01*
X110138478Y-159630394D01*
X110050472Y-159484815D01*
X110050470Y-159484813D01*
X110050469Y-159484811D01*
X109930188Y-159364530D01*
X109909636Y-159352106D01*
X109784606Y-159276522D01*
X109622196Y-159225914D01*
X109622194Y-159225913D01*
X109622192Y-159225913D01*
X109572778Y-159221423D01*
X109551616Y-159219500D01*
X109038384Y-159219500D01*
X109020139Y-159221158D01*
X108967807Y-159225913D01*
X108805393Y-159276522D01*
X108659811Y-159364530D01*
X108659810Y-159364531D01*
X108557327Y-159467015D01*
X108496004Y-159500500D01*
X108426312Y-159495516D01*
X108381965Y-159467015D01*
X108279877Y-159364927D01*
X108134395Y-159276980D01*
X108134396Y-159276980D01*
X107972105Y-159226409D01*
X107972106Y-159226409D01*
X107901572Y-159220000D01*
X107895000Y-159220000D01*
X107895000Y-160314666D01*
X107875315Y-160381705D01*
X107822511Y-160427460D01*
X107818454Y-160429227D01*
X107749769Y-160457678D01*
X107749762Y-160457681D01*
X107589027Y-160565082D01*
X107587650Y-160563022D01*
X107533336Y-160586081D01*
X107464470Y-160574279D01*
X107412917Y-160527118D01*
X107395000Y-160462912D01*
X107395000Y-160445000D01*
X106745001Y-160445000D01*
X106745001Y-160526582D01*
X106751408Y-160597102D01*
X106751409Y-160597107D01*
X106801981Y-160759396D01*
X106889927Y-160904877D01*
X106986654Y-161001604D01*
X106996294Y-161019258D01*
X107009972Y-161034011D01*
X107012697Y-161049298D01*
X107020139Y-161062927D01*
X107018704Y-161082991D01*
X107022235Y-161102797D01*
X107016262Y-161117130D01*
X107015155Y-161132619D01*
X107003098Y-161148723D01*
X106995362Y-161167292D01*
X106977932Y-161182341D01*
X106973283Y-161188552D01*
X106969481Y-161191288D01*
X106814475Y-161298433D01*
X106791530Y-161306016D01*
X106770321Y-161317597D01*
X106758955Y-161316783D01*
X106748135Y-161320360D01*
X106724731Y-161314334D01*
X106700630Y-161312610D01*
X106696514Y-161310991D01*
X106581687Y-161263428D01*
X106581683Y-161263427D01*
X106540000Y-161255135D01*
X106540000Y-161950000D01*
X107160000Y-161950000D01*
X107160000Y-161863158D01*
X107169542Y-161830659D01*
X107178506Y-161797989D01*
X107179361Y-161797220D01*
X107179685Y-161796119D01*
X107205265Y-161773953D01*
X107230486Y-161751300D01*
X107231621Y-161751116D01*
X107232489Y-161750364D01*
X107266011Y-161745543D01*
X107299456Y-161740125D01*
X107300509Y-161740583D01*
X107301647Y-161740420D01*
X107332461Y-161754492D01*
X107363519Y-161768012D01*
X107364530Y-161769137D01*
X107365203Y-161769445D01*
X107387101Y-161794265D01*
X107388604Y-161796515D01*
X107409480Y-161863192D01*
X107409500Y-161865403D01*
X107409500Y-162690701D01*
X107410964Y-162709298D01*
X107409550Y-162716027D01*
X107411292Y-162722678D01*
X107402459Y-162749780D01*
X107396599Y-162777675D01*
X107391256Y-162784155D01*
X107389642Y-162789109D01*
X107371695Y-162808052D01*
X107372381Y-162808738D01*
X107371681Y-162809438D01*
X107369374Y-162810697D01*
X107365753Y-162815090D01*
X107362407Y-162817821D01*
X107362139Y-162817933D01*
X107360202Y-162819421D01*
X107359813Y-162818914D01*
X107335749Y-162829058D01*
X107310358Y-162842923D01*
X107303946Y-162842464D01*
X107298024Y-162844961D01*
X107269526Y-162840002D01*
X107240666Y-162837939D01*
X107235519Y-162834086D01*
X107229189Y-162832985D01*
X107207893Y-162813404D01*
X107184733Y-162796067D01*
X107182487Y-162790045D01*
X107177755Y-162785695D01*
X107170425Y-162757706D01*
X107160316Y-162730603D01*
X107160000Y-162721757D01*
X107160000Y-162450000D01*
X106590000Y-162450000D01*
X106590000Y-162185504D01*
X106569556Y-162109204D01*
X106530060Y-162040795D01*
X106474205Y-161984940D01*
X106405796Y-161945444D01*
X106329496Y-161925000D01*
X106250504Y-161925000D01*
X106174204Y-161945444D01*
X106105795Y-161984940D01*
X106049940Y-162040795D01*
X106040000Y-162058011D01*
X106040000Y-161255136D01*
X106039999Y-161255135D01*
X105998316Y-161263427D01*
X105998308Y-161263429D01*
X105816328Y-161338807D01*
X105816315Y-161338814D01*
X105652537Y-161448248D01*
X105652533Y-161448251D01*
X105513251Y-161587533D01*
X105513248Y-161587537D01*
X105403814Y-161751315D01*
X105403807Y-161751328D01*
X105328430Y-161933306D01*
X105328427Y-161933318D01*
X105290000Y-162126504D01*
X105290000Y-162525000D01*
X105990000Y-162525000D01*
X105990000Y-163025000D01*
X105290000Y-163025000D01*
X105290000Y-163423495D01*
X105328427Y-163616681D01*
X105328430Y-163616693D01*
X105403807Y-163798671D01*
X105403814Y-163798684D01*
X105513248Y-163962462D01*
X105513251Y-163962466D01*
X105565604Y-164014819D01*
X105599089Y-164076142D01*
X105594105Y-164145834D01*
X105552233Y-164201767D01*
X105486769Y-164226184D01*
X105477923Y-164226500D01*
X104651500Y-164226500D01*
X104584461Y-164206815D01*
X104538706Y-164154011D01*
X104527500Y-164102500D01*
X104527500Y-163500000D01*
X99127501Y-163500000D01*
X99127501Y-164102500D01*
X99107816Y-164169539D01*
X99055012Y-164215294D01*
X99003501Y-164226500D01*
X96252000Y-164226500D01*
X96184961Y-164206815D01*
X96139206Y-164154011D01*
X96128000Y-164102500D01*
X96127999Y-162200013D01*
X99127500Y-162200013D01*
X99127500Y-163000000D01*
X101577500Y-163000000D01*
X102077500Y-163000000D01*
X104527499Y-163000000D01*
X104527499Y-162200028D01*
X104527498Y-162200013D01*
X104520654Y-162133019D01*
X104520654Y-162133017D01*
X104517006Y-162097303D01*
X104461858Y-161930880D01*
X104461856Y-161930875D01*
X104369815Y-161781654D01*
X104245845Y-161657684D01*
X104096624Y-161565643D01*
X104096619Y-161565641D01*
X103930197Y-161510494D01*
X103930190Y-161510493D01*
X103827486Y-161500000D01*
X102077500Y-161500000D01*
X102077500Y-163000000D01*
X101577500Y-163000000D01*
X101577500Y-161500000D01*
X99827528Y-161500000D01*
X99827512Y-161500001D01*
X99724802Y-161510494D01*
X99558380Y-161565641D01*
X99558375Y-161565643D01*
X99409154Y-161657684D01*
X99285184Y-161781654D01*
X99193143Y-161930875D01*
X99193141Y-161930880D01*
X99137994Y-162097302D01*
X99137993Y-162097309D01*
X99127500Y-162200013D01*
X96127999Y-162200013D01*
X96127999Y-162199998D01*
X96127998Y-162199981D01*
X96117499Y-162097203D01*
X96117498Y-162097200D01*
X96081975Y-161990000D01*
X96062314Y-161930666D01*
X95970212Y-161781344D01*
X95846156Y-161657288D01*
X95733071Y-161587537D01*
X95696836Y-161565187D01*
X95696831Y-161565185D01*
X95695362Y-161564698D01*
X95530297Y-161510001D01*
X95530295Y-161510000D01*
X95427516Y-161499500D01*
X95427509Y-161499500D01*
X94652000Y-161499500D01*
X94584961Y-161479815D01*
X94539206Y-161427011D01*
X94528000Y-161375500D01*
X94528000Y-159863427D01*
X106745000Y-159863427D01*
X106745000Y-159945000D01*
X107395000Y-159945000D01*
X107395000Y-159220000D01*
X107394999Y-159219999D01*
X107388436Y-159220000D01*
X107388417Y-159220001D01*
X107317897Y-159226408D01*
X107317892Y-159226409D01*
X107155603Y-159276981D01*
X107010122Y-159364927D01*
X106889927Y-159485122D01*
X106801980Y-159630604D01*
X106751409Y-159792893D01*
X106745000Y-159863427D01*
X94528000Y-159863427D01*
X94528000Y-157227486D01*
X108330001Y-157227486D01*
X108340494Y-157330197D01*
X108395641Y-157496619D01*
X108395643Y-157496624D01*
X108487684Y-157645845D01*
X108611654Y-157769815D01*
X108760875Y-157861856D01*
X108760880Y-157861858D01*
X108927302Y-157917005D01*
X108927309Y-157917006D01*
X109030019Y-157927499D01*
X109829999Y-157927499D01*
X110330000Y-157927499D01*
X111129972Y-157927499D01*
X111129986Y-157927498D01*
X111232697Y-157917005D01*
X111399119Y-157861858D01*
X111399124Y-157861856D01*
X111548345Y-157769815D01*
X111672315Y-157645845D01*
X111764356Y-157496624D01*
X111764358Y-157496619D01*
X111819505Y-157330197D01*
X111819506Y-157330190D01*
X111829999Y-157227486D01*
X111830000Y-157227473D01*
X111830000Y-155477500D01*
X110330000Y-155477500D01*
X110330000Y-157927499D01*
X109829999Y-157927499D01*
X109830000Y-157927498D01*
X109830000Y-155477500D01*
X108330001Y-155477500D01*
X108330001Y-157227486D01*
X94528000Y-157227486D01*
X94528000Y-156929703D01*
X94536644Y-156900262D01*
X94543168Y-156870276D01*
X94546922Y-156865260D01*
X94547685Y-156862664D01*
X94564315Y-156842026D01*
X94689523Y-156716817D01*
X94750846Y-156683333D01*
X94777204Y-156680499D01*
X95517871Y-156680499D01*
X95517872Y-156680499D01*
X95577483Y-156674091D01*
X95712331Y-156623796D01*
X95827546Y-156537546D01*
X95913796Y-156422331D01*
X95964091Y-156287483D01*
X95970500Y-156227873D01*
X95970499Y-155169818D01*
X96570000Y-155169818D01*
X96570000Y-155390181D01*
X96604473Y-155607835D01*
X96672567Y-155817410D01*
X96772611Y-156013756D01*
X96818932Y-156077513D01*
X97446212Y-155450233D01*
X97457482Y-155492292D01*
X97529890Y-155617708D01*
X97632292Y-155720110D01*
X97757708Y-155792518D01*
X97799765Y-155803787D01*
X97172485Y-156431065D01*
X97172485Y-156431066D01*
X97236243Y-156477388D01*
X97432589Y-156577432D01*
X97642164Y-156645526D01*
X97859819Y-156680000D01*
X98080181Y-156680000D01*
X98297835Y-156645526D01*
X98507410Y-156577432D01*
X98703760Y-156477386D01*
X98767513Y-156431066D01*
X98767514Y-156431066D01*
X98140234Y-155803787D01*
X98182292Y-155792518D01*
X98307708Y-155720110D01*
X98410110Y-155617708D01*
X98482518Y-155492292D01*
X98493787Y-155450235D01*
X99121066Y-156077514D01*
X99121066Y-156077513D01*
X99167386Y-156013760D01*
X99267432Y-155817410D01*
X99335526Y-155607835D01*
X99370000Y-155390181D01*
X99370000Y-155169818D01*
X99970000Y-155169818D01*
X99970000Y-155390181D01*
X100004473Y-155607835D01*
X100072567Y-155817410D01*
X100172611Y-156013756D01*
X100218932Y-156077513D01*
X100846212Y-155450233D01*
X100857482Y-155492292D01*
X100929890Y-155617708D01*
X101032292Y-155720110D01*
X101157708Y-155792518D01*
X101199765Y-155803787D01*
X100572485Y-156431065D01*
X100572485Y-156431066D01*
X100636243Y-156477388D01*
X100832589Y-156577432D01*
X101042164Y-156645526D01*
X101259819Y-156680000D01*
X101480181Y-156680000D01*
X101697835Y-156645526D01*
X101907410Y-156577432D01*
X102103760Y-156477386D01*
X102167513Y-156431066D01*
X102167514Y-156431066D01*
X101540234Y-155803787D01*
X101582292Y-155792518D01*
X101707708Y-155720110D01*
X101810110Y-155617708D01*
X101882518Y-155492292D01*
X101893787Y-155450235D01*
X102521066Y-156077514D01*
X102521066Y-156077513D01*
X102567386Y-156013760D01*
X102667432Y-155817410D01*
X102735526Y-155607835D01*
X102767377Y-155406740D01*
X102767377Y-155406738D01*
X102770000Y-155390178D01*
X102770000Y-155169818D01*
X102735526Y-154952164D01*
X102667432Y-154742589D01*
X102567388Y-154546243D01*
X102521066Y-154482485D01*
X102521065Y-154482485D01*
X101893787Y-155109764D01*
X101882518Y-155067708D01*
X101810110Y-154942292D01*
X101707708Y-154839890D01*
X101582292Y-154767482D01*
X101540232Y-154756212D01*
X102167513Y-154128932D01*
X102103756Y-154082611D01*
X101907410Y-153982567D01*
X101697835Y-153914473D01*
X101480181Y-153880000D01*
X101259819Y-153880000D01*
X101042164Y-153914473D01*
X100832589Y-153982567D01*
X100636233Y-154082616D01*
X100572485Y-154128931D01*
X100572485Y-154128932D01*
X101199765Y-154756212D01*
X101157708Y-154767482D01*
X101032292Y-154839890D01*
X100929890Y-154942292D01*
X100857482Y-155067708D01*
X100846212Y-155109765D01*
X100218932Y-154482485D01*
X100218931Y-154482485D01*
X100172616Y-154546233D01*
X100072567Y-154742589D01*
X100004473Y-154952164D01*
X99970000Y-155169818D01*
X99370000Y-155169818D01*
X99335526Y-154952164D01*
X99267432Y-154742589D01*
X99167388Y-154546243D01*
X99121066Y-154482485D01*
X99121065Y-154482485D01*
X98493787Y-155109764D01*
X98482518Y-155067708D01*
X98410110Y-154942292D01*
X98307708Y-154839890D01*
X98182292Y-154767482D01*
X98140232Y-154756212D01*
X98767513Y-154128932D01*
X98703756Y-154082611D01*
X98507410Y-153982567D01*
X98297835Y-153914473D01*
X98080181Y-153880000D01*
X97859819Y-153880000D01*
X97642164Y-153914473D01*
X97432589Y-153982567D01*
X97236233Y-154082616D01*
X97172485Y-154128931D01*
X97172485Y-154128932D01*
X97799765Y-154756212D01*
X97757708Y-154767482D01*
X97632292Y-154839890D01*
X97529890Y-154942292D01*
X97457482Y-155067708D01*
X97446212Y-155109765D01*
X96818932Y-154482485D01*
X96818931Y-154482485D01*
X96772616Y-154546233D01*
X96672567Y-154742589D01*
X96604473Y-154952164D01*
X96570000Y-155169818D01*
X95970499Y-155169818D01*
X95970499Y-154332128D01*
X95964091Y-154272517D01*
X95944326Y-154219524D01*
X95913797Y-154137671D01*
X95913793Y-154137664D01*
X95827547Y-154022455D01*
X95827544Y-154022452D01*
X95712335Y-153936206D01*
X95712328Y-153936202D01*
X95577482Y-153885908D01*
X95577483Y-153885908D01*
X95517883Y-153879501D01*
X95517881Y-153879500D01*
X95517873Y-153879500D01*
X95517864Y-153879500D01*
X93622129Y-153879500D01*
X93622123Y-153879501D01*
X93562516Y-153885908D01*
X93427671Y-153936202D01*
X93427664Y-153936206D01*
X93312455Y-154022452D01*
X93312452Y-154022455D01*
X93226206Y-154137664D01*
X93226202Y-154137671D01*
X93175908Y-154272517D01*
X93169501Y-154332116D01*
X93169501Y-154332123D01*
X93169500Y-154332135D01*
X93169500Y-155072795D01*
X93149815Y-155139834D01*
X93133181Y-155160476D01*
X92710572Y-155583086D01*
X92588088Y-155705569D01*
X92588088Y-155705570D01*
X92588086Y-155705572D01*
X92568561Y-155732446D01*
X92486268Y-155845711D01*
X92407628Y-156000052D01*
X92407627Y-156000054D01*
X92407627Y-156000055D01*
X92403175Y-156013756D01*
X92354097Y-156164802D01*
X92327000Y-156335889D01*
X92327000Y-161375500D01*
X92307315Y-161442539D01*
X92254511Y-161488294D01*
X92203000Y-161499500D01*
X91427498Y-161499500D01*
X91427480Y-161499501D01*
X91324703Y-161510000D01*
X91324700Y-161510001D01*
X91158168Y-161565185D01*
X91158163Y-161565187D01*
X91008842Y-161657289D01*
X90884789Y-161781342D01*
X90792687Y-161930663D01*
X90792685Y-161930668D01*
X90777993Y-161975006D01*
X90737501Y-162097203D01*
X90737501Y-162097204D01*
X90737500Y-162097204D01*
X90727000Y-162199983D01*
X88198272Y-162199983D01*
X88262437Y-162119522D01*
X88262437Y-162119521D01*
X88266840Y-162114000D01*
X88320838Y-162046289D01*
X88464284Y-161817997D01*
X88581267Y-161575079D01*
X88670316Y-161320591D01*
X88730312Y-161057732D01*
X88760500Y-160789809D01*
X88760500Y-160520191D01*
X88730312Y-160252268D01*
X88670316Y-159989409D01*
X88666618Y-159978842D01*
X88627840Y-159868019D01*
X88581267Y-159734921D01*
X88475171Y-159514611D01*
X88464285Y-159492005D01*
X88457121Y-159480603D01*
X88320838Y-159263711D01*
X88152734Y-159052915D01*
X87962085Y-158862266D01*
X87938554Y-158843501D01*
X87828831Y-158756000D01*
X87751289Y-158694162D01*
X87522997Y-158550716D01*
X87522994Y-158550714D01*
X87280082Y-158433734D01*
X87025602Y-158344687D01*
X87025594Y-158344684D01*
X86828446Y-158299687D01*
X86762732Y-158284688D01*
X86762728Y-158284687D01*
X86762719Y-158284686D01*
X86494813Y-158254500D01*
X86494809Y-158254500D01*
X86225191Y-158254500D01*
X86225186Y-158254500D01*
X85957280Y-158284686D01*
X85957268Y-158284688D01*
X85694405Y-158344684D01*
X85694397Y-158344687D01*
X85439917Y-158433734D01*
X85197005Y-158550714D01*
X84968712Y-158694161D01*
X84757915Y-158862265D01*
X84567265Y-159052915D01*
X84399161Y-159263712D01*
X84255714Y-159492005D01*
X84138734Y-159734917D01*
X84049687Y-159989397D01*
X84049684Y-159989405D01*
X83989688Y-160252268D01*
X83989686Y-160252280D01*
X83959500Y-160520186D01*
X82161500Y-160520186D01*
X82161500Y-154822486D01*
X88180001Y-154822486D01*
X88190494Y-154925197D01*
X88245641Y-155091619D01*
X88245643Y-155091624D01*
X88337684Y-155240845D01*
X88461654Y-155364815D01*
X88610875Y-155456856D01*
X88610880Y-155456858D01*
X88777302Y-155512005D01*
X88777309Y-155512006D01*
X88880019Y-155522499D01*
X89329999Y-155522499D01*
X89830000Y-155522499D01*
X90279972Y-155522499D01*
X90279986Y-155522498D01*
X90382697Y-155512005D01*
X90549119Y-155456858D01*
X90549124Y-155456856D01*
X90698345Y-155364815D01*
X90822315Y-155240845D01*
X90914356Y-155091624D01*
X90914358Y-155091619D01*
X90969505Y-154925197D01*
X90969506Y-154925190D01*
X90979999Y-154822486D01*
X90980000Y-154822473D01*
X90980000Y-154022500D01*
X89830000Y-154022500D01*
X89830000Y-155522499D01*
X89329999Y-155522499D01*
X89330000Y-155522498D01*
X89330000Y-154022500D01*
X88180001Y-154022500D01*
X88180001Y-154822486D01*
X82161500Y-154822486D01*
X82161500Y-152722513D01*
X88180000Y-152722513D01*
X88180000Y-153522500D01*
X89330000Y-153522500D01*
X89330000Y-152022500D01*
X88880028Y-152022500D01*
X88880012Y-152022501D01*
X88777302Y-152032994D01*
X88610880Y-152088141D01*
X88610875Y-152088143D01*
X88461654Y-152180184D01*
X88337684Y-152304154D01*
X88245643Y-152453375D01*
X88245641Y-152453380D01*
X88190494Y-152619802D01*
X88190493Y-152619809D01*
X88180000Y-152722513D01*
X82161500Y-152722513D01*
X82161500Y-148722483D01*
X88179500Y-148722483D01*
X88179500Y-150822501D01*
X88179501Y-150822518D01*
X88190000Y-150925296D01*
X88190001Y-150925299D01*
X88245185Y-151091831D01*
X88245187Y-151091836D01*
X88280069Y-151148388D01*
X88337288Y-151241156D01*
X88461344Y-151365212D01*
X88610666Y-151457314D01*
X88777203Y-151512499D01*
X88879991Y-151523000D01*
X89722795Y-151522999D01*
X89789834Y-151542683D01*
X89810476Y-151559318D01*
X90061977Y-151810819D01*
X90095462Y-151872142D01*
X90090478Y-151941834D01*
X90048606Y-151997767D01*
X89983142Y-152022184D01*
X89974296Y-152022500D01*
X89830000Y-152022500D01*
X89830000Y-153522500D01*
X90979999Y-153522500D01*
X90979999Y-153227513D01*
X108330000Y-153227513D01*
X108330000Y-154977500D01*
X109830000Y-154977500D01*
X110330000Y-154977500D01*
X111829999Y-154977500D01*
X111829999Y-153227528D01*
X111829998Y-153227513D01*
X111819505Y-153124802D01*
X111764358Y-152958380D01*
X111764356Y-152958375D01*
X111672315Y-152809154D01*
X111548345Y-152685184D01*
X111399124Y-152593143D01*
X111399119Y-152593141D01*
X111232697Y-152537994D01*
X111232690Y-152537993D01*
X111129986Y-152527500D01*
X110330000Y-152527500D01*
X110330000Y-154977500D01*
X109830000Y-154977500D01*
X109830000Y-152527500D01*
X109030028Y-152527500D01*
X109030012Y-152527501D01*
X108927302Y-152537994D01*
X108760880Y-152593141D01*
X108760875Y-152593143D01*
X108611654Y-152685184D01*
X108487684Y-152809154D01*
X108395643Y-152958375D01*
X108395641Y-152958380D01*
X108340494Y-153124802D01*
X108340493Y-153124809D01*
X108330000Y-153227513D01*
X90979999Y-153227513D01*
X90979999Y-152774731D01*
X90999684Y-152707692D01*
X91052488Y-152661937D01*
X91121646Y-152651993D01*
X91125192Y-152652672D01*
X91129797Y-152653401D01*
X91129799Y-152653402D01*
X91300889Y-152680500D01*
X91474111Y-152680500D01*
X95361745Y-152680500D01*
X95428784Y-152700185D01*
X95434630Y-152704182D01*
X95459861Y-152722513D01*
X95535978Y-152777815D01*
X95613489Y-152817309D01*
X95732393Y-152877895D01*
X95732396Y-152877896D01*
X95837221Y-152911955D01*
X95942049Y-152946015D01*
X96159778Y-152980500D01*
X96159779Y-152980500D01*
X96380221Y-152980500D01*
X96380222Y-152980500D01*
X96597951Y-152946015D01*
X96807606Y-152877895D01*
X97004022Y-152777815D01*
X97182365Y-152648242D01*
X97338242Y-152492365D01*
X97467815Y-152314022D01*
X97567895Y-152117606D01*
X97636015Y-151907951D01*
X97670500Y-151690222D01*
X97670500Y-151469778D01*
X97636015Y-151252049D01*
X97585946Y-151097951D01*
X97567896Y-151042396D01*
X97567895Y-151042393D01*
X97485263Y-150880222D01*
X97467815Y-150845978D01*
X97450758Y-150822501D01*
X97338247Y-150667641D01*
X97338243Y-150667636D01*
X97182363Y-150511756D01*
X97182358Y-150511752D01*
X97004025Y-150382187D01*
X97004024Y-150382186D01*
X97004022Y-150382185D01*
X96941096Y-150350122D01*
X96807606Y-150282104D01*
X96807603Y-150282103D01*
X96597952Y-150213985D01*
X96486659Y-150196358D01*
X96380222Y-150179500D01*
X96159778Y-150179500D01*
X96105575Y-150188085D01*
X95942047Y-150213985D01*
X95732396Y-150282103D01*
X95732393Y-150282104D01*
X95535974Y-150382187D01*
X95434630Y-150455818D01*
X95368824Y-150479298D01*
X95361745Y-150479500D01*
X91894704Y-150479500D01*
X91827665Y-150459815D01*
X91807023Y-150443181D01*
X91016818Y-149652976D01*
X90983333Y-149591653D01*
X90980499Y-149565295D01*
X90980499Y-148722498D01*
X90980498Y-148722481D01*
X90969999Y-148619703D01*
X90969998Y-148619700D01*
X90961204Y-148593163D01*
X90914814Y-148453166D01*
X90822712Y-148303844D01*
X90716818Y-148197950D01*
X90683334Y-148136627D01*
X90680500Y-148110269D01*
X90680500Y-143947203D01*
X90700185Y-143880164D01*
X90716814Y-143859526D01*
X91778695Y-142797645D01*
X91840016Y-142764162D01*
X91884664Y-142764560D01*
X91884804Y-142763262D01*
X91901387Y-142765044D01*
X91952127Y-142770500D01*
X94947872Y-142770499D01*
X95007483Y-142764091D01*
X95142331Y-142713796D01*
X95257546Y-142627546D01*
X95343796Y-142512331D01*
X95394091Y-142377483D01*
X95400500Y-142317873D01*
X95400499Y-136822128D01*
X95394091Y-136762517D01*
X95369095Y-136695500D01*
X95343797Y-136627671D01*
X95343793Y-136627664D01*
X95257547Y-136512455D01*
X95257544Y-136512452D01*
X95142335Y-136426206D01*
X95142328Y-136426202D01*
X95007482Y-136375908D01*
X95007483Y-136375908D01*
X94947883Y-136369501D01*
X94947881Y-136369500D01*
X94947873Y-136369500D01*
X94947864Y-136369500D01*
X91952129Y-136369500D01*
X91952123Y-136369501D01*
X91892516Y-136375908D01*
X91757671Y-136426202D01*
X91757664Y-136426206D01*
X91642455Y-136512452D01*
X91642452Y-136512455D01*
X91556206Y-136627664D01*
X91556202Y-136627671D01*
X91505908Y-136762517D01*
X91500987Y-136808294D01*
X91499501Y-136822123D01*
X91499500Y-136822135D01*
X91499500Y-139912795D01*
X91479815Y-139979834D01*
X91463181Y-140000476D01*
X88863072Y-142600586D01*
X88740588Y-142723069D01*
X88740588Y-142723070D01*
X88740586Y-142723072D01*
X88696859Y-142783256D01*
X88638768Y-142863211D01*
X88560128Y-143017552D01*
X88506597Y-143182302D01*
X88479500Y-143353389D01*
X88479500Y-148110269D01*
X88459815Y-148177308D01*
X88443182Y-148197950D01*
X88337287Y-148303845D01*
X88245187Y-148453163D01*
X88245186Y-148453166D01*
X88190001Y-148619703D01*
X88190001Y-148619704D01*
X88190000Y-148619704D01*
X88179500Y-148722483D01*
X82161500Y-148722483D01*
X82161500Y-127485803D01*
X88300000Y-127485803D01*
X88300000Y-128050000D01*
X89432096Y-128050000D01*
X89400000Y-128211358D01*
X89400000Y-128388642D01*
X89432096Y-128550000D01*
X88300001Y-128550000D01*
X88300001Y-129114197D01*
X88310400Y-129246332D01*
X88365377Y-129464519D01*
X88458428Y-129669374D01*
X88458431Y-129669380D01*
X88586559Y-129854323D01*
X88586569Y-129854335D01*
X88745664Y-130013430D01*
X88745676Y-130013440D01*
X88930619Y-130141568D01*
X88930625Y-130141571D01*
X89135480Y-130234622D01*
X89353667Y-130289599D01*
X89485810Y-130299999D01*
X90049999Y-130299999D01*
X90050000Y-130299998D01*
X90050000Y-129167904D01*
X90211358Y-129200000D01*
X90388642Y-129200000D01*
X90550000Y-129167904D01*
X90550000Y-130299999D01*
X91114182Y-130299999D01*
X91114197Y-130299998D01*
X91246332Y-130289599D01*
X91464519Y-130234622D01*
X91669374Y-130141571D01*
X91669380Y-130141568D01*
X91854323Y-130013440D01*
X91854335Y-130013430D01*
X92013430Y-129854335D01*
X92013440Y-129854323D01*
X92141568Y-129669380D01*
X92141571Y-129669374D01*
X92234622Y-129464519D01*
X92289599Y-129246332D01*
X92299999Y-129114196D01*
X92300000Y-129114184D01*
X92300000Y-128550000D01*
X91167904Y-128550000D01*
X91200000Y-128388642D01*
X91200000Y-128211358D01*
X91167904Y-128050000D01*
X92299999Y-128050000D01*
X92299999Y-127485817D01*
X92299998Y-127485802D01*
X92289599Y-127353667D01*
X92234622Y-127135480D01*
X92141571Y-126930625D01*
X92141568Y-126930619D01*
X92013440Y-126745676D01*
X92013430Y-126745664D01*
X91854335Y-126586569D01*
X91854323Y-126586559D01*
X91669380Y-126458431D01*
X91669374Y-126458428D01*
X91464519Y-126365377D01*
X91246332Y-126310400D01*
X91114196Y-126300000D01*
X90550000Y-126300000D01*
X90550000Y-127432095D01*
X90388642Y-127400000D01*
X90211358Y-127400000D01*
X90050000Y-127432095D01*
X90050000Y-126300000D01*
X89485817Y-126300000D01*
X89485802Y-126300001D01*
X89353667Y-126310400D01*
X89135480Y-126365377D01*
X88930625Y-126458428D01*
X88930619Y-126458431D01*
X88745676Y-126586559D01*
X88745664Y-126586569D01*
X88586569Y-126745664D01*
X88586559Y-126745676D01*
X88458431Y-126930619D01*
X88458428Y-126930625D01*
X88365377Y-127135480D01*
X88310400Y-127353667D01*
X88300000Y-127485803D01*
X82161500Y-127485803D01*
X82161500Y-117299986D01*
X84727501Y-117299986D01*
X84737994Y-117402697D01*
X84793141Y-117569119D01*
X84793143Y-117569124D01*
X84885184Y-117718345D01*
X85009154Y-117842315D01*
X85158375Y-117934356D01*
X85158380Y-117934358D01*
X85324802Y-117989505D01*
X85324809Y-117989506D01*
X85427519Y-117999999D01*
X87177499Y-117999999D01*
X87677500Y-117999999D01*
X89427472Y-117999999D01*
X89427486Y-117999998D01*
X89530197Y-117989505D01*
X89696619Y-117934358D01*
X89696624Y-117934356D01*
X89845845Y-117842315D01*
X89969815Y-117718345D01*
X90061856Y-117569124D01*
X90061858Y-117569119D01*
X90117005Y-117402697D01*
X90117006Y-117402690D01*
X90127499Y-117299986D01*
X90127500Y-117299973D01*
X90127500Y-116500000D01*
X87677500Y-116500000D01*
X87677500Y-117999999D01*
X87177499Y-117999999D01*
X87177500Y-117999998D01*
X87177500Y-116500000D01*
X84727501Y-116500000D01*
X84727501Y-117299986D01*
X82161500Y-117299986D01*
X82161500Y-115200013D01*
X84727500Y-115200013D01*
X84727500Y-116000000D01*
X87177500Y-116000000D01*
X87677500Y-116000000D01*
X90127499Y-116000000D01*
X90127499Y-115200028D01*
X90127498Y-115200013D01*
X90117005Y-115097302D01*
X90061858Y-114930880D01*
X90061856Y-114930875D01*
X89969815Y-114781654D01*
X89845845Y-114657684D01*
X89696624Y-114565643D01*
X89696619Y-114565641D01*
X89530197Y-114510494D01*
X89530190Y-114510493D01*
X89427486Y-114500000D01*
X87677500Y-114500000D01*
X87677500Y-116000000D01*
X87177500Y-116000000D01*
X87177500Y-114500000D01*
X85427528Y-114500000D01*
X85427512Y-114500001D01*
X85324802Y-114510494D01*
X85158380Y-114565641D01*
X85158375Y-114565643D01*
X85009154Y-114657684D01*
X84885184Y-114781654D01*
X84793143Y-114930875D01*
X84793141Y-114930880D01*
X84737994Y-115097302D01*
X84737993Y-115097309D01*
X84727500Y-115200013D01*
X82161500Y-115200013D01*
X82161500Y-109017676D01*
X82181185Y-108950637D01*
X82197819Y-108929995D01*
X84328628Y-106799186D01*
X98183500Y-106799186D01*
X98183500Y-107068813D01*
X98213686Y-107336719D01*
X98213688Y-107336731D01*
X98273684Y-107599594D01*
X98273687Y-107599602D01*
X98362734Y-107854082D01*
X98479714Y-108096994D01*
X98479716Y-108096997D01*
X98623162Y-108325289D01*
X98791266Y-108536085D01*
X98981915Y-108726734D01*
X99192711Y-108894838D01*
X99421003Y-109038284D01*
X99663921Y-109155267D01*
X99769893Y-109192348D01*
X99918397Y-109244312D01*
X99918405Y-109244315D01*
X99918408Y-109244315D01*
X99918409Y-109244316D01*
X100181268Y-109304312D01*
X100449187Y-109334499D01*
X100449188Y-109334500D01*
X100449191Y-109334500D01*
X100718812Y-109334500D01*
X100718812Y-109334499D01*
X100986732Y-109304312D01*
X101249591Y-109244316D01*
X101504079Y-109155267D01*
X101746997Y-109038284D01*
X101975289Y-108894838D01*
X102186085Y-108726734D01*
X102376734Y-108536085D01*
X102544838Y-108325289D01*
X102688284Y-108096997D01*
X102805267Y-107854079D01*
X102894316Y-107599591D01*
X102954312Y-107336732D01*
X102984500Y-107068809D01*
X102984500Y-106799191D01*
X102954312Y-106531268D01*
X102901269Y-106298872D01*
X110754500Y-106298872D01*
X110754500Y-106561127D01*
X110766832Y-106654789D01*
X110788730Y-106821116D01*
X110855100Y-107068813D01*
X110856602Y-107074418D01*
X110856605Y-107074428D01*
X110956953Y-107316690D01*
X110956958Y-107316700D01*
X111088075Y-107543803D01*
X111247718Y-107751851D01*
X111247726Y-107751860D01*
X111433140Y-107937274D01*
X111433148Y-107937281D01*
X111641196Y-108096924D01*
X111868299Y-108228041D01*
X111868309Y-108228046D01*
X112103070Y-108325287D01*
X112110581Y-108328398D01*
X112363884Y-108396270D01*
X112612188Y-108428960D01*
X112623864Y-108430498D01*
X112623880Y-108430500D01*
X112623887Y-108430500D01*
X112886113Y-108430500D01*
X112886120Y-108430500D01*
X113146116Y-108396270D01*
X113399419Y-108328398D01*
X113641697Y-108228043D01*
X113868803Y-108096924D01*
X114076851Y-107937282D01*
X114076855Y-107937277D01*
X114076860Y-107937274D01*
X114262274Y-107751860D01*
X114262277Y-107751855D01*
X114262282Y-107751851D01*
X114421924Y-107543803D01*
X114553043Y-107316697D01*
X114555825Y-107309982D01*
X114653394Y-107074428D01*
X114653398Y-107074419D01*
X114721270Y-106821116D01*
X114755500Y-106561120D01*
X114755500Y-106298880D01*
X114721270Y-106038884D01*
X114653398Y-105785581D01*
X114653394Y-105785571D01*
X114553046Y-105543309D01*
X114553041Y-105543299D01*
X114421924Y-105316196D01*
X114288039Y-105141716D01*
X114262282Y-105108149D01*
X114262281Y-105108148D01*
X114262274Y-105108140D01*
X114076860Y-104922726D01*
X114076851Y-104922718D01*
X113868803Y-104763075D01*
X113641700Y-104631958D01*
X113641690Y-104631953D01*
X113399428Y-104531605D01*
X113399421Y-104531603D01*
X113399419Y-104531602D01*
X113146116Y-104463730D01*
X113088339Y-104456123D01*
X112886127Y-104429500D01*
X112886120Y-104429500D01*
X112623880Y-104429500D01*
X112623872Y-104429500D01*
X112392772Y-104459926D01*
X112363884Y-104463730D01*
X112110581Y-104531602D01*
X112110571Y-104531605D01*
X111868309Y-104631953D01*
X111868299Y-104631958D01*
X111641196Y-104763075D01*
X111433148Y-104922718D01*
X111247718Y-105108148D01*
X111088075Y-105316196D01*
X110956958Y-105543299D01*
X110956953Y-105543309D01*
X110856605Y-105785571D01*
X110856602Y-105785581D01*
X110823331Y-105909753D01*
X110788730Y-106038885D01*
X110754500Y-106298872D01*
X102901269Y-106298872D01*
X102894316Y-106268409D01*
X102887874Y-106250000D01*
X102823062Y-106064777D01*
X102805267Y-106013921D01*
X102688284Y-105771003D01*
X102544838Y-105542711D01*
X102376734Y-105331915D01*
X102186085Y-105141266D01*
X102185138Y-105140511D01*
X102113681Y-105083526D01*
X101975289Y-104973162D01*
X101746997Y-104829716D01*
X101746994Y-104829714D01*
X101504082Y-104712734D01*
X101249602Y-104623687D01*
X101249594Y-104623684D01*
X101052446Y-104578687D01*
X100986732Y-104563688D01*
X100986728Y-104563687D01*
X100986719Y-104563686D01*
X100718813Y-104533500D01*
X100718809Y-104533500D01*
X100449191Y-104533500D01*
X100449186Y-104533500D01*
X100181280Y-104563686D01*
X100181268Y-104563688D01*
X99918405Y-104623684D01*
X99918397Y-104623687D01*
X99663917Y-104712734D01*
X99421005Y-104829714D01*
X99192712Y-104973161D01*
X98981915Y-105141265D01*
X98791265Y-105331915D01*
X98623161Y-105542712D01*
X98479714Y-105771005D01*
X98362734Y-106013917D01*
X98273687Y-106268397D01*
X98273684Y-106268405D01*
X98213688Y-106531268D01*
X98213686Y-106531280D01*
X98183500Y-106799186D01*
X84328628Y-106799186D01*
X88990995Y-102136819D01*
X89052318Y-102103334D01*
X89078676Y-102100500D01*
X179715500Y-102100500D01*
X179782539Y-102120185D01*
G37*
%TD.AperFunction*%
%TD*%
M02*
