%TF.GenerationSoftware,KiCad,Pcbnew,9.0.3*%
%TF.CreationDate,2026-03-27T19:58:28-05:00*%
%TF.ProjectId,PiezoProjectEngineering,5069657a-6f50-4726-9f6a-656374456e67,rev?*%
%TF.SameCoordinates,Original*%
%TF.FileFunction,Legend,Top*%
%TF.FilePolarity,Positive*%
%FSLAX46Y46*%
G04 Gerber Fmt 4.6, Leading zero omitted, Abs format (unit mm)*
G04 Created by KiCad (PCBNEW 9.0.3) date 2026-03-27 19:58:28*
%MOMM*%
%LPD*%
G01*
G04 APERTURE LIST*
G04 Aperture macros list*
%AMRoundRect*
0 Rectangle with rounded corners*
0 $1 Rounding radius*
0 $2 $3 $4 $5 $6 $7 $8 $9 X,Y pos of 4 corners*
0 Add a 4 corners polygon primitive as box body*
4,1,4,$2,$3,$4,$5,$6,$7,$8,$9,$2,$3,0*
0 Add four circle primitives for the rounded corners*
1,1,$1+$1,$2,$3*
1,1,$1+$1,$4,$5*
1,1,$1+$1,$6,$7*
1,1,$1+$1,$8,$9*
0 Add four rect primitives between the rounded corners*
20,1,$1+$1,$2,$3,$4,$5,0*
20,1,$1+$1,$4,$5,$6,$7,0*
20,1,$1+$1,$6,$7,$8,$9,0*
20,1,$1+$1,$8,$9,$2,$3,0*%
G04 Aperture macros list end*
%ADD10C,0.150000*%
%ADD11C,0.080000*%
%ADD12C,0.120000*%
%ADD13C,0.127000*%
%ADD14C,0.200000*%
%ADD15C,0.152400*%
%ADD16C,0.025400*%
%ADD17C,0.203200*%
%ADD18RoundRect,0.250000X-1.950000X-1.000000X1.950000X-1.000000X1.950000X1.000000X-1.950000X1.000000X0*%
%ADD19RoundRect,0.125000X-0.125000X0.125000X-0.125000X-0.125000X0.125000X-0.125000X0.125000X0.125000X0*%
%ADD20RoundRect,0.200000X-0.200000X-0.275000X0.200000X-0.275000X0.200000X0.275000X-0.200000X0.275000X0*%
%ADD21R,2.900000X5.400000*%
%ADD22R,1.800000X1.800000*%
%ADD23C,1.800000*%
%ADD24RoundRect,0.150000X-0.512500X-0.150000X0.512500X-0.150000X0.512500X0.150000X-0.512500X0.150000X0*%
%ADD25RoundRect,0.200000X0.275000X-0.200000X0.275000X0.200000X-0.275000X0.200000X-0.275000X-0.200000X0*%
%ADD26RoundRect,0.200000X-0.275000X0.200000X-0.275000X-0.200000X0.275000X-0.200000X0.275000X0.200000X0*%
%ADD27RoundRect,0.250000X-1.000000X1.950000X-1.000000X-1.950000X1.000000X-1.950000X1.000000X1.950000X0*%
%ADD28RoundRect,0.250000X0.650000X-0.325000X0.650000X0.325000X-0.650000X0.325000X-0.650000X-0.325000X0*%
%ADD29RoundRect,0.102000X0.952500X0.952500X-0.952500X0.952500X-0.952500X-0.952500X0.952500X-0.952500X0*%
%ADD30C,2.109000*%
%ADD31RoundRect,0.200000X0.200000X0.275000X-0.200000X0.275000X-0.200000X-0.275000X0.200000X-0.275000X0*%
%ADD32C,4.300000*%
%ADD33RoundRect,0.750000X0.750000X0.750000X-0.750000X0.750000X-0.750000X-0.750000X0.750000X-0.750000X0*%
%ADD34C,3.000000*%
%ADD35RoundRect,0.250000X-0.325000X-0.650000X0.325000X-0.650000X0.325000X0.650000X-0.325000X0.650000X0*%
%ADD36RoundRect,0.250000X0.325000X0.650000X-0.325000X0.650000X-0.325000X-0.650000X0.325000X-0.650000X0*%
%ADD37RoundRect,0.750000X-0.750000X-0.750000X0.750000X-0.750000X0.750000X0.750000X-0.750000X0.750000X0*%
%ADD38RoundRect,0.375000X-0.625000X-0.375000X0.625000X-0.375000X0.625000X0.375000X-0.625000X0.375000X0*%
%ADD39RoundRect,0.500000X-0.500000X-1.400000X0.500000X-1.400000X0.500000X1.400000X-0.500000X1.400000X0*%
%ADD40RoundRect,0.225000X-0.225000X-0.250000X0.225000X-0.250000X0.225000X0.250000X-0.225000X0.250000X0*%
%ADD41RoundRect,0.250000X-0.650000X1.000000X-0.650000X-1.000000X0.650000X-1.000000X0.650000X1.000000X0*%
%ADD42C,0.650000*%
%ADD43RoundRect,0.150000X-0.150000X-0.425000X0.150000X-0.425000X0.150000X0.425000X-0.150000X0.425000X0*%
%ADD44RoundRect,0.075000X-0.075000X-0.500000X0.075000X-0.500000X0.075000X0.500000X-0.075000X0.500000X0*%
%ADD45O,1.000000X2.100000*%
%ADD46O,1.000000X1.800000*%
%ADD47RoundRect,0.102000X-0.698500X-0.139700X0.698500X-0.139700X0.698500X0.139700X-0.698500X0.139700X0*%
%ADD48RoundRect,0.102000X-0.965200X-1.079500X0.965200X-1.079500X0.965200X1.079500X-0.965200X1.079500X0*%
%ADD49RoundRect,0.102000X-0.304800X-1.104900X0.304800X-1.104900X0.304800X1.104900X-0.304800X1.104900X0*%
%ADD50RoundRect,0.250000X1.950000X1.000000X-1.950000X1.000000X-1.950000X-1.000000X1.950000X-1.000000X0*%
G04 APERTURE END LIST*
D10*
X130897333Y-168888580D02*
X130849714Y-168936200D01*
X130849714Y-168936200D02*
X130706857Y-168983819D01*
X130706857Y-168983819D02*
X130611619Y-168983819D01*
X130611619Y-168983819D02*
X130468762Y-168936200D01*
X130468762Y-168936200D02*
X130373524Y-168840961D01*
X130373524Y-168840961D02*
X130325905Y-168745723D01*
X130325905Y-168745723D02*
X130278286Y-168555247D01*
X130278286Y-168555247D02*
X130278286Y-168412390D01*
X130278286Y-168412390D02*
X130325905Y-168221914D01*
X130325905Y-168221914D02*
X130373524Y-168126676D01*
X130373524Y-168126676D02*
X130468762Y-168031438D01*
X130468762Y-168031438D02*
X130611619Y-167983819D01*
X130611619Y-167983819D02*
X130706857Y-167983819D01*
X130706857Y-167983819D02*
X130849714Y-168031438D01*
X130849714Y-168031438D02*
X130897333Y-168079057D01*
X131754476Y-167983819D02*
X131564000Y-167983819D01*
X131564000Y-167983819D02*
X131468762Y-168031438D01*
X131468762Y-168031438D02*
X131421143Y-168079057D01*
X131421143Y-168079057D02*
X131325905Y-168221914D01*
X131325905Y-168221914D02*
X131278286Y-168412390D01*
X131278286Y-168412390D02*
X131278286Y-168793342D01*
X131278286Y-168793342D02*
X131325905Y-168888580D01*
X131325905Y-168888580D02*
X131373524Y-168936200D01*
X131373524Y-168936200D02*
X131468762Y-168983819D01*
X131468762Y-168983819D02*
X131659238Y-168983819D01*
X131659238Y-168983819D02*
X131754476Y-168936200D01*
X131754476Y-168936200D02*
X131802095Y-168888580D01*
X131802095Y-168888580D02*
X131849714Y-168793342D01*
X131849714Y-168793342D02*
X131849714Y-168555247D01*
X131849714Y-168555247D02*
X131802095Y-168460009D01*
X131802095Y-168460009D02*
X131754476Y-168412390D01*
X131754476Y-168412390D02*
X131659238Y-168364771D01*
X131659238Y-168364771D02*
X131468762Y-168364771D01*
X131468762Y-168364771D02*
X131373524Y-168412390D01*
X131373524Y-168412390D02*
X131325905Y-168460009D01*
X131325905Y-168460009D02*
X131278286Y-168555247D01*
X102404819Y-116435094D02*
X101404819Y-116435094D01*
X101404819Y-116435094D02*
X101404819Y-116196999D01*
X101404819Y-116196999D02*
X101452438Y-116054142D01*
X101452438Y-116054142D02*
X101547676Y-115958904D01*
X101547676Y-115958904D02*
X101642914Y-115911285D01*
X101642914Y-115911285D02*
X101833390Y-115863666D01*
X101833390Y-115863666D02*
X101976247Y-115863666D01*
X101976247Y-115863666D02*
X102166723Y-115911285D01*
X102166723Y-115911285D02*
X102261961Y-115958904D01*
X102261961Y-115958904D02*
X102357200Y-116054142D01*
X102357200Y-116054142D02*
X102404819Y-116196999D01*
X102404819Y-116196999D02*
X102404819Y-116435094D01*
X102404819Y-114911285D02*
X102404819Y-115482713D01*
X102404819Y-115196999D02*
X101404819Y-115196999D01*
X101404819Y-115196999D02*
X101547676Y-115292237D01*
X101547676Y-115292237D02*
X101642914Y-115387475D01*
X101642914Y-115387475D02*
X101690533Y-115482713D01*
X108303333Y-159219819D02*
X107970000Y-158743628D01*
X107731905Y-159219819D02*
X107731905Y-158219819D01*
X107731905Y-158219819D02*
X108112857Y-158219819D01*
X108112857Y-158219819D02*
X108208095Y-158267438D01*
X108208095Y-158267438D02*
X108255714Y-158315057D01*
X108255714Y-158315057D02*
X108303333Y-158410295D01*
X108303333Y-158410295D02*
X108303333Y-158553152D01*
X108303333Y-158553152D02*
X108255714Y-158648390D01*
X108255714Y-158648390D02*
X108208095Y-158696009D01*
X108208095Y-158696009D02*
X108112857Y-158743628D01*
X108112857Y-158743628D02*
X107731905Y-158743628D01*
X109208095Y-158219819D02*
X108731905Y-158219819D01*
X108731905Y-158219819D02*
X108684286Y-158696009D01*
X108684286Y-158696009D02*
X108731905Y-158648390D01*
X108731905Y-158648390D02*
X108827143Y-158600771D01*
X108827143Y-158600771D02*
X109065238Y-158600771D01*
X109065238Y-158600771D02*
X109160476Y-158648390D01*
X109160476Y-158648390D02*
X109208095Y-158696009D01*
X109208095Y-158696009D02*
X109255714Y-158791247D01*
X109255714Y-158791247D02*
X109255714Y-159029342D01*
X109255714Y-159029342D02*
X109208095Y-159124580D01*
X109208095Y-159124580D02*
X109160476Y-159172200D01*
X109160476Y-159172200D02*
X109065238Y-159219819D01*
X109065238Y-159219819D02*
X108827143Y-159219819D01*
X108827143Y-159219819D02*
X108731905Y-159172200D01*
X108731905Y-159172200D02*
X108684286Y-159124580D01*
X97460833Y-157309580D02*
X97413214Y-157357200D01*
X97413214Y-157357200D02*
X97270357Y-157404819D01*
X97270357Y-157404819D02*
X97175119Y-157404819D01*
X97175119Y-157404819D02*
X97032262Y-157357200D01*
X97032262Y-157357200D02*
X96937024Y-157261961D01*
X96937024Y-157261961D02*
X96889405Y-157166723D01*
X96889405Y-157166723D02*
X96841786Y-156976247D01*
X96841786Y-156976247D02*
X96841786Y-156833390D01*
X96841786Y-156833390D02*
X96889405Y-156642914D01*
X96889405Y-156642914D02*
X96937024Y-156547676D01*
X96937024Y-156547676D02*
X97032262Y-156452438D01*
X97032262Y-156452438D02*
X97175119Y-156404819D01*
X97175119Y-156404819D02*
X97270357Y-156404819D01*
X97270357Y-156404819D02*
X97413214Y-156452438D01*
X97413214Y-156452438D02*
X97460833Y-156500057D01*
X98317976Y-156738152D02*
X98317976Y-157404819D01*
X98079881Y-156357200D02*
X97841786Y-157071485D01*
X97841786Y-157071485D02*
X98460833Y-157071485D01*
X98133333Y-132774819D02*
X97657143Y-132774819D01*
X97657143Y-132774819D02*
X97657143Y-131774819D01*
X98419048Y-131870057D02*
X98466667Y-131822438D01*
X98466667Y-131822438D02*
X98561905Y-131774819D01*
X98561905Y-131774819D02*
X98800000Y-131774819D01*
X98800000Y-131774819D02*
X98895238Y-131822438D01*
X98895238Y-131822438D02*
X98942857Y-131870057D01*
X98942857Y-131870057D02*
X98990476Y-131965295D01*
X98990476Y-131965295D02*
X98990476Y-132060533D01*
X98990476Y-132060533D02*
X98942857Y-132203390D01*
X98942857Y-132203390D02*
X98371429Y-132774819D01*
X98371429Y-132774819D02*
X98990476Y-132774819D01*
X123825095Y-146266819D02*
X123825095Y-147076342D01*
X123825095Y-147076342D02*
X123872714Y-147171580D01*
X123872714Y-147171580D02*
X123920333Y-147219200D01*
X123920333Y-147219200D02*
X124015571Y-147266819D01*
X124015571Y-147266819D02*
X124206047Y-147266819D01*
X124206047Y-147266819D02*
X124301285Y-147219200D01*
X124301285Y-147219200D02*
X124348904Y-147171580D01*
X124348904Y-147171580D02*
X124396523Y-147076342D01*
X124396523Y-147076342D02*
X124396523Y-146266819D01*
X124920333Y-147266819D02*
X125110809Y-147266819D01*
X125110809Y-147266819D02*
X125206047Y-147219200D01*
X125206047Y-147219200D02*
X125253666Y-147171580D01*
X125253666Y-147171580D02*
X125348904Y-147028723D01*
X125348904Y-147028723D02*
X125396523Y-146838247D01*
X125396523Y-146838247D02*
X125396523Y-146457295D01*
X125396523Y-146457295D02*
X125348904Y-146362057D01*
X125348904Y-146362057D02*
X125301285Y-146314438D01*
X125301285Y-146314438D02*
X125206047Y-146266819D01*
X125206047Y-146266819D02*
X125015571Y-146266819D01*
X125015571Y-146266819D02*
X124920333Y-146314438D01*
X124920333Y-146314438D02*
X124872714Y-146362057D01*
X124872714Y-146362057D02*
X124825095Y-146457295D01*
X124825095Y-146457295D02*
X124825095Y-146695390D01*
X124825095Y-146695390D02*
X124872714Y-146790628D01*
X124872714Y-146790628D02*
X124920333Y-146838247D01*
X124920333Y-146838247D02*
X125015571Y-146885866D01*
X125015571Y-146885866D02*
X125206047Y-146885866D01*
X125206047Y-146885866D02*
X125301285Y-146838247D01*
X125301285Y-146838247D02*
X125348904Y-146790628D01*
X125348904Y-146790628D02*
X125396523Y-146695390D01*
X129255595Y-112514819D02*
X129255595Y-113324342D01*
X129255595Y-113324342D02*
X129303214Y-113419580D01*
X129303214Y-113419580D02*
X129350833Y-113467200D01*
X129350833Y-113467200D02*
X129446071Y-113514819D01*
X129446071Y-113514819D02*
X129636547Y-113514819D01*
X129636547Y-113514819D02*
X129731785Y-113467200D01*
X129731785Y-113467200D02*
X129779404Y-113419580D01*
X129779404Y-113419580D02*
X129827023Y-113324342D01*
X129827023Y-113324342D02*
X129827023Y-112514819D01*
X130446071Y-112943390D02*
X130350833Y-112895771D01*
X130350833Y-112895771D02*
X130303214Y-112848152D01*
X130303214Y-112848152D02*
X130255595Y-112752914D01*
X130255595Y-112752914D02*
X130255595Y-112705295D01*
X130255595Y-112705295D02*
X130303214Y-112610057D01*
X130303214Y-112610057D02*
X130350833Y-112562438D01*
X130350833Y-112562438D02*
X130446071Y-112514819D01*
X130446071Y-112514819D02*
X130636547Y-112514819D01*
X130636547Y-112514819D02*
X130731785Y-112562438D01*
X130731785Y-112562438D02*
X130779404Y-112610057D01*
X130779404Y-112610057D02*
X130827023Y-112705295D01*
X130827023Y-112705295D02*
X130827023Y-112752914D01*
X130827023Y-112752914D02*
X130779404Y-112848152D01*
X130779404Y-112848152D02*
X130731785Y-112895771D01*
X130731785Y-112895771D02*
X130636547Y-112943390D01*
X130636547Y-112943390D02*
X130446071Y-112943390D01*
X130446071Y-112943390D02*
X130350833Y-112991009D01*
X130350833Y-112991009D02*
X130303214Y-113038628D01*
X130303214Y-113038628D02*
X130255595Y-113133866D01*
X130255595Y-113133866D02*
X130255595Y-113324342D01*
X130255595Y-113324342D02*
X130303214Y-113419580D01*
X130303214Y-113419580D02*
X130350833Y-113467200D01*
X130350833Y-113467200D02*
X130446071Y-113514819D01*
X130446071Y-113514819D02*
X130636547Y-113514819D01*
X130636547Y-113514819D02*
X130731785Y-113467200D01*
X130731785Y-113467200D02*
X130779404Y-113419580D01*
X130779404Y-113419580D02*
X130827023Y-113324342D01*
X130827023Y-113324342D02*
X130827023Y-113133866D01*
X130827023Y-113133866D02*
X130779404Y-113038628D01*
X130779404Y-113038628D02*
X130731785Y-112991009D01*
X130731785Y-112991009D02*
X130636547Y-112943390D01*
X90551095Y-146901819D02*
X90551095Y-147711342D01*
X90551095Y-147711342D02*
X90598714Y-147806580D01*
X90598714Y-147806580D02*
X90646333Y-147854200D01*
X90646333Y-147854200D02*
X90741571Y-147901819D01*
X90741571Y-147901819D02*
X90932047Y-147901819D01*
X90932047Y-147901819D02*
X91027285Y-147854200D01*
X91027285Y-147854200D02*
X91074904Y-147806580D01*
X91074904Y-147806580D02*
X91122523Y-147711342D01*
X91122523Y-147711342D02*
X91122523Y-146901819D01*
X91503476Y-146901819D02*
X92122523Y-146901819D01*
X92122523Y-146901819D02*
X91789190Y-147282771D01*
X91789190Y-147282771D02*
X91932047Y-147282771D01*
X91932047Y-147282771D02*
X92027285Y-147330390D01*
X92027285Y-147330390D02*
X92074904Y-147378009D01*
X92074904Y-147378009D02*
X92122523Y-147473247D01*
X92122523Y-147473247D02*
X92122523Y-147711342D01*
X92122523Y-147711342D02*
X92074904Y-147806580D01*
X92074904Y-147806580D02*
X92027285Y-147854200D01*
X92027285Y-147854200D02*
X91932047Y-147901819D01*
X91932047Y-147901819D02*
X91646333Y-147901819D01*
X91646333Y-147901819D02*
X91551095Y-147854200D01*
X91551095Y-147854200D02*
X91503476Y-147806580D01*
X126612319Y-124066666D02*
X126136128Y-124399999D01*
X126612319Y-124638094D02*
X125612319Y-124638094D01*
X125612319Y-124638094D02*
X125612319Y-124257142D01*
X125612319Y-124257142D02*
X125659938Y-124161904D01*
X125659938Y-124161904D02*
X125707557Y-124114285D01*
X125707557Y-124114285D02*
X125802795Y-124066666D01*
X125802795Y-124066666D02*
X125945652Y-124066666D01*
X125945652Y-124066666D02*
X126040890Y-124114285D01*
X126040890Y-124114285D02*
X126088509Y-124161904D01*
X126088509Y-124161904D02*
X126136128Y-124257142D01*
X126136128Y-124257142D02*
X126136128Y-124638094D01*
X126612319Y-123114285D02*
X126612319Y-123685713D01*
X126612319Y-123399999D02*
X125612319Y-123399999D01*
X125612319Y-123399999D02*
X125755176Y-123495237D01*
X125755176Y-123495237D02*
X125850414Y-123590475D01*
X125850414Y-123590475D02*
X125898033Y-123685713D01*
X128884819Y-117577666D02*
X128408628Y-117910999D01*
X128884819Y-118149094D02*
X127884819Y-118149094D01*
X127884819Y-118149094D02*
X127884819Y-117768142D01*
X127884819Y-117768142D02*
X127932438Y-117672904D01*
X127932438Y-117672904D02*
X127980057Y-117625285D01*
X127980057Y-117625285D02*
X128075295Y-117577666D01*
X128075295Y-117577666D02*
X128218152Y-117577666D01*
X128218152Y-117577666D02*
X128313390Y-117625285D01*
X128313390Y-117625285D02*
X128361009Y-117672904D01*
X128361009Y-117672904D02*
X128408628Y-117768142D01*
X128408628Y-117768142D02*
X128408628Y-118149094D01*
X128218152Y-116720523D02*
X128884819Y-116720523D01*
X127837200Y-116958618D02*
X128551485Y-117196713D01*
X128551485Y-117196713D02*
X128551485Y-116577666D01*
X142073333Y-143107580D02*
X142025714Y-143155200D01*
X142025714Y-143155200D02*
X141882857Y-143202819D01*
X141882857Y-143202819D02*
X141787619Y-143202819D01*
X141787619Y-143202819D02*
X141644762Y-143155200D01*
X141644762Y-143155200D02*
X141549524Y-143059961D01*
X141549524Y-143059961D02*
X141501905Y-142964723D01*
X141501905Y-142964723D02*
X141454286Y-142774247D01*
X141454286Y-142774247D02*
X141454286Y-142631390D01*
X141454286Y-142631390D02*
X141501905Y-142440914D01*
X141501905Y-142440914D02*
X141549524Y-142345676D01*
X141549524Y-142345676D02*
X141644762Y-142250438D01*
X141644762Y-142250438D02*
X141787619Y-142202819D01*
X141787619Y-142202819D02*
X141882857Y-142202819D01*
X141882857Y-142202819D02*
X142025714Y-142250438D01*
X142025714Y-142250438D02*
X142073333Y-142298057D01*
X142406667Y-142202819D02*
X143073333Y-142202819D01*
X143073333Y-142202819D02*
X142644762Y-143202819D01*
X113233142Y-110660580D02*
X113185523Y-110708200D01*
X113185523Y-110708200D02*
X113042666Y-110755819D01*
X113042666Y-110755819D02*
X112947428Y-110755819D01*
X112947428Y-110755819D02*
X112804571Y-110708200D01*
X112804571Y-110708200D02*
X112709333Y-110612961D01*
X112709333Y-110612961D02*
X112661714Y-110517723D01*
X112661714Y-110517723D02*
X112614095Y-110327247D01*
X112614095Y-110327247D02*
X112614095Y-110184390D01*
X112614095Y-110184390D02*
X112661714Y-109993914D01*
X112661714Y-109993914D02*
X112709333Y-109898676D01*
X112709333Y-109898676D02*
X112804571Y-109803438D01*
X112804571Y-109803438D02*
X112947428Y-109755819D01*
X112947428Y-109755819D02*
X113042666Y-109755819D01*
X113042666Y-109755819D02*
X113185523Y-109803438D01*
X113185523Y-109803438D02*
X113233142Y-109851057D01*
X114185523Y-110755819D02*
X113614095Y-110755819D01*
X113899809Y-110755819D02*
X113899809Y-109755819D01*
X113899809Y-109755819D02*
X113804571Y-109898676D01*
X113804571Y-109898676D02*
X113709333Y-109993914D01*
X113709333Y-109993914D02*
X113614095Y-110041533D01*
X114566476Y-109851057D02*
X114614095Y-109803438D01*
X114614095Y-109803438D02*
X114709333Y-109755819D01*
X114709333Y-109755819D02*
X114947428Y-109755819D01*
X114947428Y-109755819D02*
X115042666Y-109803438D01*
X115042666Y-109803438D02*
X115090285Y-109851057D01*
X115090285Y-109851057D02*
X115137904Y-109946295D01*
X115137904Y-109946295D02*
X115137904Y-110041533D01*
X115137904Y-110041533D02*
X115090285Y-110184390D01*
X115090285Y-110184390D02*
X114518857Y-110755819D01*
X114518857Y-110755819D02*
X115137904Y-110755819D01*
X173268333Y-134953866D02*
X173268333Y-135953866D01*
X173268333Y-135953866D02*
X173201666Y-136153866D01*
X173201666Y-136153866D02*
X173068333Y-136287200D01*
X173068333Y-136287200D02*
X172868333Y-136353866D01*
X172868333Y-136353866D02*
X172735000Y-136353866D01*
X173868333Y-135087200D02*
X173935000Y-135020533D01*
X173935000Y-135020533D02*
X174068333Y-134953866D01*
X174068333Y-134953866D02*
X174401667Y-134953866D01*
X174401667Y-134953866D02*
X174535000Y-135020533D01*
X174535000Y-135020533D02*
X174601667Y-135087200D01*
X174601667Y-135087200D02*
X174668333Y-135220533D01*
X174668333Y-135220533D02*
X174668333Y-135353866D01*
X174668333Y-135353866D02*
X174601667Y-135553866D01*
X174601667Y-135553866D02*
X173801667Y-136353866D01*
X173801667Y-136353866D02*
X174668333Y-136353866D01*
X145813333Y-160834819D02*
X145480000Y-160358628D01*
X145241905Y-160834819D02*
X145241905Y-159834819D01*
X145241905Y-159834819D02*
X145622857Y-159834819D01*
X145622857Y-159834819D02*
X145718095Y-159882438D01*
X145718095Y-159882438D02*
X145765714Y-159930057D01*
X145765714Y-159930057D02*
X145813333Y-160025295D01*
X145813333Y-160025295D02*
X145813333Y-160168152D01*
X145813333Y-160168152D02*
X145765714Y-160263390D01*
X145765714Y-160263390D02*
X145718095Y-160311009D01*
X145718095Y-160311009D02*
X145622857Y-160358628D01*
X145622857Y-160358628D02*
X145241905Y-160358628D01*
X146384762Y-160263390D02*
X146289524Y-160215771D01*
X146289524Y-160215771D02*
X146241905Y-160168152D01*
X146241905Y-160168152D02*
X146194286Y-160072914D01*
X146194286Y-160072914D02*
X146194286Y-160025295D01*
X146194286Y-160025295D02*
X146241905Y-159930057D01*
X146241905Y-159930057D02*
X146289524Y-159882438D01*
X146289524Y-159882438D02*
X146384762Y-159834819D01*
X146384762Y-159834819D02*
X146575238Y-159834819D01*
X146575238Y-159834819D02*
X146670476Y-159882438D01*
X146670476Y-159882438D02*
X146718095Y-159930057D01*
X146718095Y-159930057D02*
X146765714Y-160025295D01*
X146765714Y-160025295D02*
X146765714Y-160072914D01*
X146765714Y-160072914D02*
X146718095Y-160168152D01*
X146718095Y-160168152D02*
X146670476Y-160215771D01*
X146670476Y-160215771D02*
X146575238Y-160263390D01*
X146575238Y-160263390D02*
X146384762Y-160263390D01*
X146384762Y-160263390D02*
X146289524Y-160311009D01*
X146289524Y-160311009D02*
X146241905Y-160358628D01*
X146241905Y-160358628D02*
X146194286Y-160453866D01*
X146194286Y-160453866D02*
X146194286Y-160644342D01*
X146194286Y-160644342D02*
X146241905Y-160739580D01*
X146241905Y-160739580D02*
X146289524Y-160787200D01*
X146289524Y-160787200D02*
X146384762Y-160834819D01*
X146384762Y-160834819D02*
X146575238Y-160834819D01*
X146575238Y-160834819D02*
X146670476Y-160787200D01*
X146670476Y-160787200D02*
X146718095Y-160739580D01*
X146718095Y-160739580D02*
X146765714Y-160644342D01*
X146765714Y-160644342D02*
X146765714Y-160453866D01*
X146765714Y-160453866D02*
X146718095Y-160358628D01*
X146718095Y-160358628D02*
X146670476Y-160311009D01*
X146670476Y-160311009D02*
X146575238Y-160263390D01*
X120452047Y-103324819D02*
X120452047Y-102658152D01*
X120452047Y-102848628D02*
X120499666Y-102753390D01*
X120499666Y-102753390D02*
X120547285Y-102705771D01*
X120547285Y-102705771D02*
X120642523Y-102658152D01*
X120642523Y-102658152D02*
X120737761Y-102658152D01*
X121452047Y-103277200D02*
X121356809Y-103324819D01*
X121356809Y-103324819D02*
X121166333Y-103324819D01*
X121166333Y-103324819D02*
X121071095Y-103277200D01*
X121071095Y-103277200D02*
X121023476Y-103181961D01*
X121023476Y-103181961D02*
X121023476Y-102801009D01*
X121023476Y-102801009D02*
X121071095Y-102705771D01*
X121071095Y-102705771D02*
X121166333Y-102658152D01*
X121166333Y-102658152D02*
X121356809Y-102658152D01*
X121356809Y-102658152D02*
X121452047Y-102705771D01*
X121452047Y-102705771D02*
X121499666Y-102801009D01*
X121499666Y-102801009D02*
X121499666Y-102896247D01*
X121499666Y-102896247D02*
X121023476Y-102991485D01*
X122356809Y-103277200D02*
X122261571Y-103324819D01*
X122261571Y-103324819D02*
X122071095Y-103324819D01*
X122071095Y-103324819D02*
X121975857Y-103277200D01*
X121975857Y-103277200D02*
X121928238Y-103229580D01*
X121928238Y-103229580D02*
X121880619Y-103134342D01*
X121880619Y-103134342D02*
X121880619Y-102848628D01*
X121880619Y-102848628D02*
X121928238Y-102753390D01*
X121928238Y-102753390D02*
X121975857Y-102705771D01*
X121975857Y-102705771D02*
X122071095Y-102658152D01*
X122071095Y-102658152D02*
X122261571Y-102658152D01*
X122261571Y-102658152D02*
X122356809Y-102705771D01*
X122547286Y-103420057D02*
X123309190Y-103420057D01*
X123499667Y-103277200D02*
X123594905Y-103324819D01*
X123594905Y-103324819D02*
X123785381Y-103324819D01*
X123785381Y-103324819D02*
X123880619Y-103277200D01*
X123880619Y-103277200D02*
X123928238Y-103181961D01*
X123928238Y-103181961D02*
X123928238Y-103134342D01*
X123928238Y-103134342D02*
X123880619Y-103039104D01*
X123880619Y-103039104D02*
X123785381Y-102991485D01*
X123785381Y-102991485D02*
X123642524Y-102991485D01*
X123642524Y-102991485D02*
X123547286Y-102943866D01*
X123547286Y-102943866D02*
X123499667Y-102848628D01*
X123499667Y-102848628D02*
X123499667Y-102801009D01*
X123499667Y-102801009D02*
X123547286Y-102705771D01*
X123547286Y-102705771D02*
X123642524Y-102658152D01*
X123642524Y-102658152D02*
X123785381Y-102658152D01*
X123785381Y-102658152D02*
X123880619Y-102705771D01*
X124785381Y-103277200D02*
X124690143Y-103324819D01*
X124690143Y-103324819D02*
X124499667Y-103324819D01*
X124499667Y-103324819D02*
X124404429Y-103277200D01*
X124404429Y-103277200D02*
X124356810Y-103229580D01*
X124356810Y-103229580D02*
X124309191Y-103134342D01*
X124309191Y-103134342D02*
X124309191Y-102848628D01*
X124309191Y-102848628D02*
X124356810Y-102753390D01*
X124356810Y-102753390D02*
X124404429Y-102705771D01*
X124404429Y-102705771D02*
X124499667Y-102658152D01*
X124499667Y-102658152D02*
X124690143Y-102658152D01*
X124690143Y-102658152D02*
X124785381Y-102705771D01*
X125213953Y-103324819D02*
X125213953Y-102658152D01*
X125213953Y-102848628D02*
X125261572Y-102753390D01*
X125261572Y-102753390D02*
X125309191Y-102705771D01*
X125309191Y-102705771D02*
X125404429Y-102658152D01*
X125404429Y-102658152D02*
X125499667Y-102658152D01*
X126213953Y-103277200D02*
X126118715Y-103324819D01*
X126118715Y-103324819D02*
X125928239Y-103324819D01*
X125928239Y-103324819D02*
X125833001Y-103277200D01*
X125833001Y-103277200D02*
X125785382Y-103181961D01*
X125785382Y-103181961D02*
X125785382Y-102801009D01*
X125785382Y-102801009D02*
X125833001Y-102705771D01*
X125833001Y-102705771D02*
X125928239Y-102658152D01*
X125928239Y-102658152D02*
X126118715Y-102658152D01*
X126118715Y-102658152D02*
X126213953Y-102705771D01*
X126213953Y-102705771D02*
X126261572Y-102801009D01*
X126261572Y-102801009D02*
X126261572Y-102896247D01*
X126261572Y-102896247D02*
X125785382Y-102991485D01*
X126594906Y-102658152D02*
X126785382Y-103324819D01*
X126785382Y-103324819D02*
X126975858Y-102848628D01*
X126975858Y-102848628D02*
X127166334Y-103324819D01*
X127166334Y-103324819D02*
X127356810Y-102658152D01*
X128261572Y-103324819D02*
X127690144Y-103324819D01*
X127975858Y-103324819D02*
X127975858Y-102324819D01*
X127975858Y-102324819D02*
X127880620Y-102467676D01*
X127880620Y-102467676D02*
X127785382Y-102562914D01*
X127785382Y-102562914D02*
X127690144Y-102610533D01*
X121183571Y-106544700D02*
X122326429Y-106544700D01*
X108183571Y-106544700D02*
X109326429Y-106544700D01*
X108755000Y-107116128D02*
X108755000Y-105973271D01*
X140676333Y-160855819D02*
X140343000Y-160379628D01*
X140104905Y-160855819D02*
X140104905Y-159855819D01*
X140104905Y-159855819D02*
X140485857Y-159855819D01*
X140485857Y-159855819D02*
X140581095Y-159903438D01*
X140581095Y-159903438D02*
X140628714Y-159951057D01*
X140628714Y-159951057D02*
X140676333Y-160046295D01*
X140676333Y-160046295D02*
X140676333Y-160189152D01*
X140676333Y-160189152D02*
X140628714Y-160284390D01*
X140628714Y-160284390D02*
X140581095Y-160332009D01*
X140581095Y-160332009D02*
X140485857Y-160379628D01*
X140485857Y-160379628D02*
X140104905Y-160379628D01*
X141009667Y-159855819D02*
X141676333Y-159855819D01*
X141676333Y-159855819D02*
X141247762Y-160855819D01*
X108168333Y-131014819D02*
X107692143Y-131014819D01*
X107692143Y-131014819D02*
X107692143Y-130014819D01*
X109025476Y-131014819D02*
X108454048Y-131014819D01*
X108739762Y-131014819D02*
X108739762Y-130014819D01*
X108739762Y-130014819D02*
X108644524Y-130157676D01*
X108644524Y-130157676D02*
X108549286Y-130252914D01*
X108549286Y-130252914D02*
X108454048Y-130300533D01*
X116705142Y-119485580D02*
X116657523Y-119533200D01*
X116657523Y-119533200D02*
X116514666Y-119580819D01*
X116514666Y-119580819D02*
X116419428Y-119580819D01*
X116419428Y-119580819D02*
X116276571Y-119533200D01*
X116276571Y-119533200D02*
X116181333Y-119437961D01*
X116181333Y-119437961D02*
X116133714Y-119342723D01*
X116133714Y-119342723D02*
X116086095Y-119152247D01*
X116086095Y-119152247D02*
X116086095Y-119009390D01*
X116086095Y-119009390D02*
X116133714Y-118818914D01*
X116133714Y-118818914D02*
X116181333Y-118723676D01*
X116181333Y-118723676D02*
X116276571Y-118628438D01*
X116276571Y-118628438D02*
X116419428Y-118580819D01*
X116419428Y-118580819D02*
X116514666Y-118580819D01*
X116514666Y-118580819D02*
X116657523Y-118628438D01*
X116657523Y-118628438D02*
X116705142Y-118676057D01*
X117657523Y-119580819D02*
X117086095Y-119580819D01*
X117371809Y-119580819D02*
X117371809Y-118580819D01*
X117371809Y-118580819D02*
X117276571Y-118723676D01*
X117276571Y-118723676D02*
X117181333Y-118818914D01*
X117181333Y-118818914D02*
X117086095Y-118866533D01*
X117990857Y-118580819D02*
X118609904Y-118580819D01*
X118609904Y-118580819D02*
X118276571Y-118961771D01*
X118276571Y-118961771D02*
X118419428Y-118961771D01*
X118419428Y-118961771D02*
X118514666Y-119009390D01*
X118514666Y-119009390D02*
X118562285Y-119057009D01*
X118562285Y-119057009D02*
X118609904Y-119152247D01*
X118609904Y-119152247D02*
X118609904Y-119390342D01*
X118609904Y-119390342D02*
X118562285Y-119485580D01*
X118562285Y-119485580D02*
X118514666Y-119533200D01*
X118514666Y-119533200D02*
X118419428Y-119580819D01*
X118419428Y-119580819D02*
X118133714Y-119580819D01*
X118133714Y-119580819D02*
X118038476Y-119533200D01*
X118038476Y-119533200D02*
X117990857Y-119485580D01*
X115403333Y-131169580D02*
X115355714Y-131217200D01*
X115355714Y-131217200D02*
X115212857Y-131264819D01*
X115212857Y-131264819D02*
X115117619Y-131264819D01*
X115117619Y-131264819D02*
X114974762Y-131217200D01*
X114974762Y-131217200D02*
X114879524Y-131121961D01*
X114879524Y-131121961D02*
X114831905Y-131026723D01*
X114831905Y-131026723D02*
X114784286Y-130836247D01*
X114784286Y-130836247D02*
X114784286Y-130693390D01*
X114784286Y-130693390D02*
X114831905Y-130502914D01*
X114831905Y-130502914D02*
X114879524Y-130407676D01*
X114879524Y-130407676D02*
X114974762Y-130312438D01*
X114974762Y-130312438D02*
X115117619Y-130264819D01*
X115117619Y-130264819D02*
X115212857Y-130264819D01*
X115212857Y-130264819D02*
X115355714Y-130312438D01*
X115355714Y-130312438D02*
X115403333Y-130360057D01*
X115784286Y-130360057D02*
X115831905Y-130312438D01*
X115831905Y-130312438D02*
X115927143Y-130264819D01*
X115927143Y-130264819D02*
X116165238Y-130264819D01*
X116165238Y-130264819D02*
X116260476Y-130312438D01*
X116260476Y-130312438D02*
X116308095Y-130360057D01*
X116308095Y-130360057D02*
X116355714Y-130455295D01*
X116355714Y-130455295D02*
X116355714Y-130550533D01*
X116355714Y-130550533D02*
X116308095Y-130693390D01*
X116308095Y-130693390D02*
X115736667Y-131264819D01*
X115736667Y-131264819D02*
X116355714Y-131264819D01*
X116800595Y-111004819D02*
X116800595Y-111814342D01*
X116800595Y-111814342D02*
X116848214Y-111909580D01*
X116848214Y-111909580D02*
X116895833Y-111957200D01*
X116895833Y-111957200D02*
X116991071Y-112004819D01*
X116991071Y-112004819D02*
X117181547Y-112004819D01*
X117181547Y-112004819D02*
X117276785Y-111957200D01*
X117276785Y-111957200D02*
X117324404Y-111909580D01*
X117324404Y-111909580D02*
X117372023Y-111814342D01*
X117372023Y-111814342D02*
X117372023Y-111004819D01*
X117800595Y-111100057D02*
X117848214Y-111052438D01*
X117848214Y-111052438D02*
X117943452Y-111004819D01*
X117943452Y-111004819D02*
X118181547Y-111004819D01*
X118181547Y-111004819D02*
X118276785Y-111052438D01*
X118276785Y-111052438D02*
X118324404Y-111100057D01*
X118324404Y-111100057D02*
X118372023Y-111195295D01*
X118372023Y-111195295D02*
X118372023Y-111290533D01*
X118372023Y-111290533D02*
X118324404Y-111433390D01*
X118324404Y-111433390D02*
X117752976Y-112004819D01*
X117752976Y-112004819D02*
X118372023Y-112004819D01*
X86162189Y-132011009D02*
X86305046Y-132058628D01*
X86305046Y-132058628D02*
X86352665Y-132106247D01*
X86352665Y-132106247D02*
X86400284Y-132201485D01*
X86400284Y-132201485D02*
X86400284Y-132344342D01*
X86400284Y-132344342D02*
X86352665Y-132439580D01*
X86352665Y-132439580D02*
X86305046Y-132487200D01*
X86305046Y-132487200D02*
X86209808Y-132534819D01*
X86209808Y-132534819D02*
X85828856Y-132534819D01*
X85828856Y-132534819D02*
X85828856Y-131534819D01*
X85828856Y-131534819D02*
X86162189Y-131534819D01*
X86162189Y-131534819D02*
X86257427Y-131582438D01*
X86257427Y-131582438D02*
X86305046Y-131630057D01*
X86305046Y-131630057D02*
X86352665Y-131725295D01*
X86352665Y-131725295D02*
X86352665Y-131820533D01*
X86352665Y-131820533D02*
X86305046Y-131915771D01*
X86305046Y-131915771D02*
X86257427Y-131963390D01*
X86257427Y-131963390D02*
X86162189Y-132011009D01*
X86162189Y-132011009D02*
X85828856Y-132011009D01*
X87257427Y-132534819D02*
X87257427Y-132011009D01*
X87257427Y-132011009D02*
X87209808Y-131915771D01*
X87209808Y-131915771D02*
X87114570Y-131868152D01*
X87114570Y-131868152D02*
X86924094Y-131868152D01*
X86924094Y-131868152D02*
X86828856Y-131915771D01*
X87257427Y-132487200D02*
X87162189Y-132534819D01*
X87162189Y-132534819D02*
X86924094Y-132534819D01*
X86924094Y-132534819D02*
X86828856Y-132487200D01*
X86828856Y-132487200D02*
X86781237Y-132391961D01*
X86781237Y-132391961D02*
X86781237Y-132296723D01*
X86781237Y-132296723D02*
X86828856Y-132201485D01*
X86828856Y-132201485D02*
X86924094Y-132153866D01*
X86924094Y-132153866D02*
X87162189Y-132153866D01*
X87162189Y-132153866D02*
X87257427Y-132106247D01*
X87590761Y-131868152D02*
X87971713Y-131868152D01*
X87733618Y-131534819D02*
X87733618Y-132391961D01*
X87733618Y-132391961D02*
X87781237Y-132487200D01*
X87781237Y-132487200D02*
X87876475Y-132534819D01*
X87876475Y-132534819D02*
X87971713Y-132534819D01*
X88162190Y-131868152D02*
X88543142Y-131868152D01*
X88305047Y-131534819D02*
X88305047Y-132391961D01*
X88305047Y-132391961D02*
X88352666Y-132487200D01*
X88352666Y-132487200D02*
X88447904Y-132534819D01*
X88447904Y-132534819D02*
X88543142Y-132534819D01*
X89257428Y-132487200D02*
X89162190Y-132534819D01*
X89162190Y-132534819D02*
X88971714Y-132534819D01*
X88971714Y-132534819D02*
X88876476Y-132487200D01*
X88876476Y-132487200D02*
X88828857Y-132391961D01*
X88828857Y-132391961D02*
X88828857Y-132011009D01*
X88828857Y-132011009D02*
X88876476Y-131915771D01*
X88876476Y-131915771D02*
X88971714Y-131868152D01*
X88971714Y-131868152D02*
X89162190Y-131868152D01*
X89162190Y-131868152D02*
X89257428Y-131915771D01*
X89257428Y-131915771D02*
X89305047Y-132011009D01*
X89305047Y-132011009D02*
X89305047Y-132106247D01*
X89305047Y-132106247D02*
X88828857Y-132201485D01*
X89733619Y-132534819D02*
X89733619Y-131868152D01*
X89733619Y-132058628D02*
X89781238Y-131963390D01*
X89781238Y-131963390D02*
X89828857Y-131915771D01*
X89828857Y-131915771D02*
X89924095Y-131868152D01*
X89924095Y-131868152D02*
X90019333Y-131868152D01*
X90257429Y-131868152D02*
X90495524Y-132534819D01*
X90733619Y-131868152D02*
X90495524Y-132534819D01*
X90495524Y-132534819D02*
X90400286Y-132772914D01*
X90400286Y-132772914D02*
X90352667Y-132820533D01*
X90352667Y-132820533D02*
X90257429Y-132868152D01*
X90876477Y-132630057D02*
X91638381Y-132630057D01*
X91828858Y-132487200D02*
X91924096Y-132534819D01*
X91924096Y-132534819D02*
X92114572Y-132534819D01*
X92114572Y-132534819D02*
X92209810Y-132487200D01*
X92209810Y-132487200D02*
X92257429Y-132391961D01*
X92257429Y-132391961D02*
X92257429Y-132344342D01*
X92257429Y-132344342D02*
X92209810Y-132249104D01*
X92209810Y-132249104D02*
X92114572Y-132201485D01*
X92114572Y-132201485D02*
X91971715Y-132201485D01*
X91971715Y-132201485D02*
X91876477Y-132153866D01*
X91876477Y-132153866D02*
X91828858Y-132058628D01*
X91828858Y-132058628D02*
X91828858Y-132011009D01*
X91828858Y-132011009D02*
X91876477Y-131915771D01*
X91876477Y-131915771D02*
X91971715Y-131868152D01*
X91971715Y-131868152D02*
X92114572Y-131868152D01*
X92114572Y-131868152D02*
X92209810Y-131915771D01*
X93114572Y-132487200D02*
X93019334Y-132534819D01*
X93019334Y-132534819D02*
X92828858Y-132534819D01*
X92828858Y-132534819D02*
X92733620Y-132487200D01*
X92733620Y-132487200D02*
X92686001Y-132439580D01*
X92686001Y-132439580D02*
X92638382Y-132344342D01*
X92638382Y-132344342D02*
X92638382Y-132058628D01*
X92638382Y-132058628D02*
X92686001Y-131963390D01*
X92686001Y-131963390D02*
X92733620Y-131915771D01*
X92733620Y-131915771D02*
X92828858Y-131868152D01*
X92828858Y-131868152D02*
X93019334Y-131868152D01*
X93019334Y-131868152D02*
X93114572Y-131915771D01*
X93543144Y-132534819D02*
X93543144Y-131868152D01*
X93543144Y-132058628D02*
X93590763Y-131963390D01*
X93590763Y-131963390D02*
X93638382Y-131915771D01*
X93638382Y-131915771D02*
X93733620Y-131868152D01*
X93733620Y-131868152D02*
X93828858Y-131868152D01*
X94543144Y-132487200D02*
X94447906Y-132534819D01*
X94447906Y-132534819D02*
X94257430Y-132534819D01*
X94257430Y-132534819D02*
X94162192Y-132487200D01*
X94162192Y-132487200D02*
X94114573Y-132391961D01*
X94114573Y-132391961D02*
X94114573Y-132011009D01*
X94114573Y-132011009D02*
X94162192Y-131915771D01*
X94162192Y-131915771D02*
X94257430Y-131868152D01*
X94257430Y-131868152D02*
X94447906Y-131868152D01*
X94447906Y-131868152D02*
X94543144Y-131915771D01*
X94543144Y-131915771D02*
X94590763Y-132011009D01*
X94590763Y-132011009D02*
X94590763Y-132106247D01*
X94590763Y-132106247D02*
X94114573Y-132201485D01*
X94924097Y-131868152D02*
X95114573Y-132534819D01*
X95114573Y-132534819D02*
X95305049Y-132058628D01*
X95305049Y-132058628D02*
X95495525Y-132534819D01*
X95495525Y-132534819D02*
X95686001Y-131868152D01*
X96590763Y-132534819D02*
X96019335Y-132534819D01*
X96305049Y-132534819D02*
X96305049Y-131534819D01*
X96305049Y-131534819D02*
X96209811Y-131677676D01*
X96209811Y-131677676D02*
X96114573Y-131772914D01*
X96114573Y-131772914D02*
X96019335Y-131820533D01*
X98728571Y-128414700D02*
X99871429Y-128414700D01*
X99300000Y-128986128D02*
X99300000Y-127843271D01*
X85728571Y-128414700D02*
X86871429Y-128414700D01*
X116967095Y-141821819D02*
X116967095Y-142631342D01*
X116967095Y-142631342D02*
X117014714Y-142726580D01*
X117014714Y-142726580D02*
X117062333Y-142774200D01*
X117062333Y-142774200D02*
X117157571Y-142821819D01*
X117157571Y-142821819D02*
X117348047Y-142821819D01*
X117348047Y-142821819D02*
X117443285Y-142774200D01*
X117443285Y-142774200D02*
X117490904Y-142726580D01*
X117490904Y-142726580D02*
X117538523Y-142631342D01*
X117538523Y-142631342D02*
X117538523Y-141821819D01*
X118443285Y-141821819D02*
X118252809Y-141821819D01*
X118252809Y-141821819D02*
X118157571Y-141869438D01*
X118157571Y-141869438D02*
X118109952Y-141917057D01*
X118109952Y-141917057D02*
X118014714Y-142059914D01*
X118014714Y-142059914D02*
X117967095Y-142250390D01*
X117967095Y-142250390D02*
X117967095Y-142631342D01*
X117967095Y-142631342D02*
X118014714Y-142726580D01*
X118014714Y-142726580D02*
X118062333Y-142774200D01*
X118062333Y-142774200D02*
X118157571Y-142821819D01*
X118157571Y-142821819D02*
X118348047Y-142821819D01*
X118348047Y-142821819D02*
X118443285Y-142774200D01*
X118443285Y-142774200D02*
X118490904Y-142726580D01*
X118490904Y-142726580D02*
X118538523Y-142631342D01*
X118538523Y-142631342D02*
X118538523Y-142393247D01*
X118538523Y-142393247D02*
X118490904Y-142298009D01*
X118490904Y-142298009D02*
X118443285Y-142250390D01*
X118443285Y-142250390D02*
X118348047Y-142202771D01*
X118348047Y-142202771D02*
X118157571Y-142202771D01*
X118157571Y-142202771D02*
X118062333Y-142250390D01*
X118062333Y-142250390D02*
X118014714Y-142298009D01*
X118014714Y-142298009D02*
X117967095Y-142393247D01*
X104476333Y-112370580D02*
X104428714Y-112418200D01*
X104428714Y-112418200D02*
X104285857Y-112465819D01*
X104285857Y-112465819D02*
X104190619Y-112465819D01*
X104190619Y-112465819D02*
X104047762Y-112418200D01*
X104047762Y-112418200D02*
X103952524Y-112322961D01*
X103952524Y-112322961D02*
X103904905Y-112227723D01*
X103904905Y-112227723D02*
X103857286Y-112037247D01*
X103857286Y-112037247D02*
X103857286Y-111894390D01*
X103857286Y-111894390D02*
X103904905Y-111703914D01*
X103904905Y-111703914D02*
X103952524Y-111608676D01*
X103952524Y-111608676D02*
X104047762Y-111513438D01*
X104047762Y-111513438D02*
X104190619Y-111465819D01*
X104190619Y-111465819D02*
X104285857Y-111465819D01*
X104285857Y-111465819D02*
X104428714Y-111513438D01*
X104428714Y-111513438D02*
X104476333Y-111561057D01*
X105428714Y-112465819D02*
X104857286Y-112465819D01*
X105143000Y-112465819D02*
X105143000Y-111465819D01*
X105143000Y-111465819D02*
X105047762Y-111608676D01*
X105047762Y-111608676D02*
X104952524Y-111703914D01*
X104952524Y-111703914D02*
X104857286Y-111751533D01*
X92534819Y-152510594D02*
X91534819Y-152510594D01*
X91534819Y-152510594D02*
X91534819Y-152272499D01*
X91534819Y-152272499D02*
X91582438Y-152129642D01*
X91582438Y-152129642D02*
X91677676Y-152034404D01*
X91677676Y-152034404D02*
X91772914Y-151986785D01*
X91772914Y-151986785D02*
X91963390Y-151939166D01*
X91963390Y-151939166D02*
X92106247Y-151939166D01*
X92106247Y-151939166D02*
X92296723Y-151986785D01*
X92296723Y-151986785D02*
X92391961Y-152034404D01*
X92391961Y-152034404D02*
X92487200Y-152129642D01*
X92487200Y-152129642D02*
X92534819Y-152272499D01*
X92534819Y-152272499D02*
X92534819Y-152510594D01*
X91630057Y-151558213D02*
X91582438Y-151510594D01*
X91582438Y-151510594D02*
X91534819Y-151415356D01*
X91534819Y-151415356D02*
X91534819Y-151177261D01*
X91534819Y-151177261D02*
X91582438Y-151082023D01*
X91582438Y-151082023D02*
X91630057Y-151034404D01*
X91630057Y-151034404D02*
X91725295Y-150986785D01*
X91725295Y-150986785D02*
X91820533Y-150986785D01*
X91820533Y-150986785D02*
X91963390Y-151034404D01*
X91963390Y-151034404D02*
X92534819Y-151605832D01*
X92534819Y-151605832D02*
X92534819Y-150986785D01*
X110664666Y-159728819D02*
X110664666Y-160443104D01*
X110664666Y-160443104D02*
X110617047Y-160585961D01*
X110617047Y-160585961D02*
X110521809Y-160681200D01*
X110521809Y-160681200D02*
X110378952Y-160728819D01*
X110378952Y-160728819D02*
X110283714Y-160728819D01*
X111617047Y-159728819D02*
X111140857Y-159728819D01*
X111140857Y-159728819D02*
X111093238Y-160205009D01*
X111093238Y-160205009D02*
X111140857Y-160157390D01*
X111140857Y-160157390D02*
X111236095Y-160109771D01*
X111236095Y-160109771D02*
X111474190Y-160109771D01*
X111474190Y-160109771D02*
X111569428Y-160157390D01*
X111569428Y-160157390D02*
X111617047Y-160205009D01*
X111617047Y-160205009D02*
X111664666Y-160300247D01*
X111664666Y-160300247D02*
X111664666Y-160538342D01*
X111664666Y-160538342D02*
X111617047Y-160633580D01*
X111617047Y-160633580D02*
X111569428Y-160681200D01*
X111569428Y-160681200D02*
X111474190Y-160728819D01*
X111474190Y-160728819D02*
X111236095Y-160728819D01*
X111236095Y-160728819D02*
X111140857Y-160681200D01*
X111140857Y-160681200D02*
X111093238Y-160633580D01*
X130420833Y-128347319D02*
X130087500Y-127871128D01*
X129849405Y-128347319D02*
X129849405Y-127347319D01*
X129849405Y-127347319D02*
X130230357Y-127347319D01*
X130230357Y-127347319D02*
X130325595Y-127394938D01*
X130325595Y-127394938D02*
X130373214Y-127442557D01*
X130373214Y-127442557D02*
X130420833Y-127537795D01*
X130420833Y-127537795D02*
X130420833Y-127680652D01*
X130420833Y-127680652D02*
X130373214Y-127775890D01*
X130373214Y-127775890D02*
X130325595Y-127823509D01*
X130325595Y-127823509D02*
X130230357Y-127871128D01*
X130230357Y-127871128D02*
X129849405Y-127871128D01*
X130801786Y-127442557D02*
X130849405Y-127394938D01*
X130849405Y-127394938D02*
X130944643Y-127347319D01*
X130944643Y-127347319D02*
X131182738Y-127347319D01*
X131182738Y-127347319D02*
X131277976Y-127394938D01*
X131277976Y-127394938D02*
X131325595Y-127442557D01*
X131325595Y-127442557D02*
X131373214Y-127537795D01*
X131373214Y-127537795D02*
X131373214Y-127633033D01*
X131373214Y-127633033D02*
X131325595Y-127775890D01*
X131325595Y-127775890D02*
X130754167Y-128347319D01*
X130754167Y-128347319D02*
X131373214Y-128347319D01*
X109035074Y-114259065D02*
X109035074Y-114896486D01*
X109035074Y-114896486D02*
X109072570Y-114971476D01*
X109072570Y-114971476D02*
X109110065Y-115008972D01*
X109110065Y-115008972D02*
X109185056Y-115046467D01*
X109185056Y-115046467D02*
X109335037Y-115046467D01*
X109335037Y-115046467D02*
X109410028Y-115008972D01*
X109410028Y-115008972D02*
X109447523Y-114971476D01*
X109447523Y-114971476D02*
X109485018Y-114896486D01*
X109485018Y-114896486D02*
X109485018Y-114259065D01*
X110272420Y-115046467D02*
X109822476Y-115046467D01*
X110047448Y-115046467D02*
X110047448Y-114259065D01*
X110047448Y-114259065D02*
X109972457Y-114371551D01*
X109972457Y-114371551D02*
X109897467Y-114446542D01*
X109897467Y-114446542D02*
X109822476Y-114484037D01*
X106612400Y-113001819D02*
X106612400Y-113239914D01*
X106374305Y-113144676D02*
X106612400Y-113239914D01*
X106612400Y-113239914D02*
X106850495Y-113144676D01*
X106469543Y-113430390D02*
X106612400Y-113239914D01*
X106612400Y-113239914D02*
X106755257Y-113430390D01*
X143096666Y-159874819D02*
X143096666Y-160589104D01*
X143096666Y-160589104D02*
X143049047Y-160731961D01*
X143049047Y-160731961D02*
X142953809Y-160827200D01*
X142953809Y-160827200D02*
X142810952Y-160874819D01*
X142810952Y-160874819D02*
X142715714Y-160874819D01*
X143477619Y-159874819D02*
X144096666Y-159874819D01*
X144096666Y-159874819D02*
X143763333Y-160255771D01*
X143763333Y-160255771D02*
X143906190Y-160255771D01*
X143906190Y-160255771D02*
X144001428Y-160303390D01*
X144001428Y-160303390D02*
X144049047Y-160351009D01*
X144049047Y-160351009D02*
X144096666Y-160446247D01*
X144096666Y-160446247D02*
X144096666Y-160684342D01*
X144096666Y-160684342D02*
X144049047Y-160779580D01*
X144049047Y-160779580D02*
X144001428Y-160827200D01*
X144001428Y-160827200D02*
X143906190Y-160874819D01*
X143906190Y-160874819D02*
X143620476Y-160874819D01*
X143620476Y-160874819D02*
X143525238Y-160827200D01*
X143525238Y-160827200D02*
X143477619Y-160779580D01*
X129459405Y-120739819D02*
X129459405Y-121549342D01*
X129459405Y-121549342D02*
X129507024Y-121644580D01*
X129507024Y-121644580D02*
X129554643Y-121692200D01*
X129554643Y-121692200D02*
X129649881Y-121739819D01*
X129649881Y-121739819D02*
X129840357Y-121739819D01*
X129840357Y-121739819D02*
X129935595Y-121692200D01*
X129935595Y-121692200D02*
X129983214Y-121644580D01*
X129983214Y-121644580D02*
X130030833Y-121549342D01*
X130030833Y-121549342D02*
X130030833Y-120739819D01*
X131030833Y-121739819D02*
X130459405Y-121739819D01*
X130745119Y-121739819D02*
X130745119Y-120739819D01*
X130745119Y-120739819D02*
X130649881Y-120882676D01*
X130649881Y-120882676D02*
X130554643Y-120977914D01*
X130554643Y-120977914D02*
X130459405Y-121025533D01*
X131649881Y-120739819D02*
X131745119Y-120739819D01*
X131745119Y-120739819D02*
X131840357Y-120787438D01*
X131840357Y-120787438D02*
X131887976Y-120835057D01*
X131887976Y-120835057D02*
X131935595Y-120930295D01*
X131935595Y-120930295D02*
X131983214Y-121120771D01*
X131983214Y-121120771D02*
X131983214Y-121358866D01*
X131983214Y-121358866D02*
X131935595Y-121549342D01*
X131935595Y-121549342D02*
X131887976Y-121644580D01*
X131887976Y-121644580D02*
X131840357Y-121692200D01*
X131840357Y-121692200D02*
X131745119Y-121739819D01*
X131745119Y-121739819D02*
X131649881Y-121739819D01*
X131649881Y-121739819D02*
X131554643Y-121692200D01*
X131554643Y-121692200D02*
X131507024Y-121644580D01*
X131507024Y-121644580D02*
X131459405Y-121549342D01*
X131459405Y-121549342D02*
X131411786Y-121358866D01*
X131411786Y-121358866D02*
X131411786Y-121120771D01*
X131411786Y-121120771D02*
X131459405Y-120930295D01*
X131459405Y-120930295D02*
X131507024Y-120835057D01*
X131507024Y-120835057D02*
X131554643Y-120787438D01*
X131554643Y-120787438D02*
X131649881Y-120739819D01*
X125984819Y-152650594D02*
X124984819Y-152650594D01*
X124984819Y-152650594D02*
X124984819Y-152412499D01*
X124984819Y-152412499D02*
X125032438Y-152269642D01*
X125032438Y-152269642D02*
X125127676Y-152174404D01*
X125127676Y-152174404D02*
X125222914Y-152126785D01*
X125222914Y-152126785D02*
X125413390Y-152079166D01*
X125413390Y-152079166D02*
X125556247Y-152079166D01*
X125556247Y-152079166D02*
X125746723Y-152126785D01*
X125746723Y-152126785D02*
X125841961Y-152174404D01*
X125841961Y-152174404D02*
X125937200Y-152269642D01*
X125937200Y-152269642D02*
X125984819Y-152412499D01*
X125984819Y-152412499D02*
X125984819Y-152650594D01*
X124984819Y-151745832D02*
X124984819Y-151126785D01*
X124984819Y-151126785D02*
X125365771Y-151460118D01*
X125365771Y-151460118D02*
X125365771Y-151317261D01*
X125365771Y-151317261D02*
X125413390Y-151222023D01*
X125413390Y-151222023D02*
X125461009Y-151174404D01*
X125461009Y-151174404D02*
X125556247Y-151126785D01*
X125556247Y-151126785D02*
X125794342Y-151126785D01*
X125794342Y-151126785D02*
X125889580Y-151174404D01*
X125889580Y-151174404D02*
X125937200Y-151222023D01*
X125937200Y-151222023D02*
X125984819Y-151317261D01*
X125984819Y-151317261D02*
X125984819Y-151602975D01*
X125984819Y-151602975D02*
X125937200Y-151698213D01*
X125937200Y-151698213D02*
X125889580Y-151745832D01*
X113353333Y-159129819D02*
X113020000Y-158653628D01*
X112781905Y-159129819D02*
X112781905Y-158129819D01*
X112781905Y-158129819D02*
X113162857Y-158129819D01*
X113162857Y-158129819D02*
X113258095Y-158177438D01*
X113258095Y-158177438D02*
X113305714Y-158225057D01*
X113305714Y-158225057D02*
X113353333Y-158320295D01*
X113353333Y-158320295D02*
X113353333Y-158463152D01*
X113353333Y-158463152D02*
X113305714Y-158558390D01*
X113305714Y-158558390D02*
X113258095Y-158606009D01*
X113258095Y-158606009D02*
X113162857Y-158653628D01*
X113162857Y-158653628D02*
X112781905Y-158653628D01*
X114210476Y-158129819D02*
X114020000Y-158129819D01*
X114020000Y-158129819D02*
X113924762Y-158177438D01*
X113924762Y-158177438D02*
X113877143Y-158225057D01*
X113877143Y-158225057D02*
X113781905Y-158367914D01*
X113781905Y-158367914D02*
X113734286Y-158558390D01*
X113734286Y-158558390D02*
X113734286Y-158939342D01*
X113734286Y-158939342D02*
X113781905Y-159034580D01*
X113781905Y-159034580D02*
X113829524Y-159082200D01*
X113829524Y-159082200D02*
X113924762Y-159129819D01*
X113924762Y-159129819D02*
X114115238Y-159129819D01*
X114115238Y-159129819D02*
X114210476Y-159082200D01*
X114210476Y-159082200D02*
X114258095Y-159034580D01*
X114258095Y-159034580D02*
X114305714Y-158939342D01*
X114305714Y-158939342D02*
X114305714Y-158701247D01*
X114305714Y-158701247D02*
X114258095Y-158606009D01*
X114258095Y-158606009D02*
X114210476Y-158558390D01*
X114210476Y-158558390D02*
X114115238Y-158510771D01*
X114115238Y-158510771D02*
X113924762Y-158510771D01*
X113924762Y-158510771D02*
X113829524Y-158558390D01*
X113829524Y-158558390D02*
X113781905Y-158606009D01*
X113781905Y-158606009D02*
X113734286Y-158701247D01*
D11*
X140218190Y-117679878D02*
X140218190Y-117938925D01*
X140218190Y-117938925D02*
X140233428Y-117969401D01*
X140233428Y-117969401D02*
X140248666Y-117984640D01*
X140248666Y-117984640D02*
X140279142Y-117999878D01*
X140279142Y-117999878D02*
X140340095Y-117999878D01*
X140340095Y-117999878D02*
X140370571Y-117984640D01*
X140370571Y-117984640D02*
X140385809Y-117969401D01*
X140385809Y-117969401D02*
X140401047Y-117938925D01*
X140401047Y-117938925D02*
X140401047Y-117679878D01*
X140522952Y-117679878D02*
X140736285Y-117679878D01*
X140736285Y-117679878D02*
X140599142Y-117999878D01*
D10*
X116739580Y-151194166D02*
X116787200Y-151241785D01*
X116787200Y-151241785D02*
X116834819Y-151384642D01*
X116834819Y-151384642D02*
X116834819Y-151479880D01*
X116834819Y-151479880D02*
X116787200Y-151622737D01*
X116787200Y-151622737D02*
X116691961Y-151717975D01*
X116691961Y-151717975D02*
X116596723Y-151765594D01*
X116596723Y-151765594D02*
X116406247Y-151813213D01*
X116406247Y-151813213D02*
X116263390Y-151813213D01*
X116263390Y-151813213D02*
X116072914Y-151765594D01*
X116072914Y-151765594D02*
X115977676Y-151717975D01*
X115977676Y-151717975D02*
X115882438Y-151622737D01*
X115882438Y-151622737D02*
X115834819Y-151479880D01*
X115834819Y-151479880D02*
X115834819Y-151384642D01*
X115834819Y-151384642D02*
X115882438Y-151241785D01*
X115882438Y-151241785D02*
X115930057Y-151194166D01*
X115834819Y-150289404D02*
X115834819Y-150765594D01*
X115834819Y-150765594D02*
X116311009Y-150813213D01*
X116311009Y-150813213D02*
X116263390Y-150765594D01*
X116263390Y-150765594D02*
X116215771Y-150670356D01*
X116215771Y-150670356D02*
X116215771Y-150432261D01*
X116215771Y-150432261D02*
X116263390Y-150337023D01*
X116263390Y-150337023D02*
X116311009Y-150289404D01*
X116311009Y-150289404D02*
X116406247Y-150241785D01*
X116406247Y-150241785D02*
X116644342Y-150241785D01*
X116644342Y-150241785D02*
X116739580Y-150289404D01*
X116739580Y-150289404D02*
X116787200Y-150337023D01*
X116787200Y-150337023D02*
X116834819Y-150432261D01*
X116834819Y-150432261D02*
X116834819Y-150670356D01*
X116834819Y-150670356D02*
X116787200Y-150765594D01*
X116787200Y-150765594D02*
X116739580Y-150813213D01*
X108259580Y-137789166D02*
X108307200Y-137836785D01*
X108307200Y-137836785D02*
X108354819Y-137979642D01*
X108354819Y-137979642D02*
X108354819Y-138074880D01*
X108354819Y-138074880D02*
X108307200Y-138217737D01*
X108307200Y-138217737D02*
X108211961Y-138312975D01*
X108211961Y-138312975D02*
X108116723Y-138360594D01*
X108116723Y-138360594D02*
X107926247Y-138408213D01*
X107926247Y-138408213D02*
X107783390Y-138408213D01*
X107783390Y-138408213D02*
X107592914Y-138360594D01*
X107592914Y-138360594D02*
X107497676Y-138312975D01*
X107497676Y-138312975D02*
X107402438Y-138217737D01*
X107402438Y-138217737D02*
X107354819Y-138074880D01*
X107354819Y-138074880D02*
X107354819Y-137979642D01*
X107354819Y-137979642D02*
X107402438Y-137836785D01*
X107402438Y-137836785D02*
X107450057Y-137789166D01*
X107354819Y-137455832D02*
X107354819Y-136836785D01*
X107354819Y-136836785D02*
X107735771Y-137170118D01*
X107735771Y-137170118D02*
X107735771Y-137027261D01*
X107735771Y-137027261D02*
X107783390Y-136932023D01*
X107783390Y-136932023D02*
X107831009Y-136884404D01*
X107831009Y-136884404D02*
X107926247Y-136836785D01*
X107926247Y-136836785D02*
X108164342Y-136836785D01*
X108164342Y-136836785D02*
X108259580Y-136884404D01*
X108259580Y-136884404D02*
X108307200Y-136932023D01*
X108307200Y-136932023D02*
X108354819Y-137027261D01*
X108354819Y-137027261D02*
X108354819Y-137312975D01*
X108354819Y-137312975D02*
X108307200Y-137408213D01*
X108307200Y-137408213D02*
X108259580Y-137455832D01*
X90984642Y-122909580D02*
X90937023Y-122957200D01*
X90937023Y-122957200D02*
X90794166Y-123004819D01*
X90794166Y-123004819D02*
X90698928Y-123004819D01*
X90698928Y-123004819D02*
X90556071Y-122957200D01*
X90556071Y-122957200D02*
X90460833Y-122861961D01*
X90460833Y-122861961D02*
X90413214Y-122766723D01*
X90413214Y-122766723D02*
X90365595Y-122576247D01*
X90365595Y-122576247D02*
X90365595Y-122433390D01*
X90365595Y-122433390D02*
X90413214Y-122242914D01*
X90413214Y-122242914D02*
X90460833Y-122147676D01*
X90460833Y-122147676D02*
X90556071Y-122052438D01*
X90556071Y-122052438D02*
X90698928Y-122004819D01*
X90698928Y-122004819D02*
X90794166Y-122004819D01*
X90794166Y-122004819D02*
X90937023Y-122052438D01*
X90937023Y-122052438D02*
X90984642Y-122100057D01*
X91937023Y-123004819D02*
X91365595Y-123004819D01*
X91651309Y-123004819D02*
X91651309Y-122004819D01*
X91651309Y-122004819D02*
X91556071Y-122147676D01*
X91556071Y-122147676D02*
X91460833Y-122242914D01*
X91460833Y-122242914D02*
X91365595Y-122290533D01*
X92889404Y-123004819D02*
X92317976Y-123004819D01*
X92603690Y-123004819D02*
X92603690Y-122004819D01*
X92603690Y-122004819D02*
X92508452Y-122147676D01*
X92508452Y-122147676D02*
X92413214Y-122242914D01*
X92413214Y-122242914D02*
X92317976Y-122290533D01*
X173268333Y-109553866D02*
X173268333Y-110553866D01*
X173268333Y-110553866D02*
X173201666Y-110753866D01*
X173201666Y-110753866D02*
X173068333Y-110887200D01*
X173068333Y-110887200D02*
X172868333Y-110953866D01*
X172868333Y-110953866D02*
X172735000Y-110953866D01*
X174668333Y-110953866D02*
X173868333Y-110953866D01*
X174268333Y-110953866D02*
X174268333Y-109553866D01*
X174268333Y-109553866D02*
X174135000Y-109753866D01*
X174135000Y-109753866D02*
X174001667Y-109887200D01*
X174001667Y-109887200D02*
X173868333Y-109953866D01*
X130433333Y-131804819D02*
X129957143Y-131804819D01*
X129957143Y-131804819D02*
X129957143Y-130804819D01*
X130671429Y-130804819D02*
X131290476Y-130804819D01*
X131290476Y-130804819D02*
X130957143Y-131185771D01*
X130957143Y-131185771D02*
X131100000Y-131185771D01*
X131100000Y-131185771D02*
X131195238Y-131233390D01*
X131195238Y-131233390D02*
X131242857Y-131281009D01*
X131242857Y-131281009D02*
X131290476Y-131376247D01*
X131290476Y-131376247D02*
X131290476Y-131614342D01*
X131290476Y-131614342D02*
X131242857Y-131709580D01*
X131242857Y-131709580D02*
X131195238Y-131757200D01*
X131195238Y-131757200D02*
X131100000Y-131804819D01*
X131100000Y-131804819D02*
X130814286Y-131804819D01*
X130814286Y-131804819D02*
X130719048Y-131757200D01*
X130719048Y-131757200D02*
X130671429Y-131709580D01*
X129880833Y-120144819D02*
X129547500Y-119668628D01*
X129309405Y-120144819D02*
X129309405Y-119144819D01*
X129309405Y-119144819D02*
X129690357Y-119144819D01*
X129690357Y-119144819D02*
X129785595Y-119192438D01*
X129785595Y-119192438D02*
X129833214Y-119240057D01*
X129833214Y-119240057D02*
X129880833Y-119335295D01*
X129880833Y-119335295D02*
X129880833Y-119478152D01*
X129880833Y-119478152D02*
X129833214Y-119573390D01*
X129833214Y-119573390D02*
X129785595Y-119621009D01*
X129785595Y-119621009D02*
X129690357Y-119668628D01*
X129690357Y-119668628D02*
X129309405Y-119668628D01*
X130214167Y-119144819D02*
X130833214Y-119144819D01*
X130833214Y-119144819D02*
X130499881Y-119525771D01*
X130499881Y-119525771D02*
X130642738Y-119525771D01*
X130642738Y-119525771D02*
X130737976Y-119573390D01*
X130737976Y-119573390D02*
X130785595Y-119621009D01*
X130785595Y-119621009D02*
X130833214Y-119716247D01*
X130833214Y-119716247D02*
X130833214Y-119954342D01*
X130833214Y-119954342D02*
X130785595Y-120049580D01*
X130785595Y-120049580D02*
X130737976Y-120097200D01*
X130737976Y-120097200D02*
X130642738Y-120144819D01*
X130642738Y-120144819D02*
X130357024Y-120144819D01*
X130357024Y-120144819D02*
X130261786Y-120097200D01*
X130261786Y-120097200D02*
X130214167Y-120049580D01*
D12*
%TO.C,C6*%
X124060000Y-159320000D02*
X125310000Y-159320000D01*
X124685000Y-158695000D02*
X124685000Y-159945000D01*
X125550000Y-157784437D02*
X125550000Y-160570000D01*
X125550000Y-157784437D02*
X126614437Y-156720000D01*
X125550000Y-166375563D02*
X125550000Y-163590000D01*
X125550000Y-166375563D02*
X126614437Y-167440000D01*
X126614437Y-156720000D02*
X136270000Y-156720000D01*
X126614437Y-167440000D02*
X136270000Y-167440000D01*
X136270000Y-156720000D02*
X136270000Y-160570000D01*
X136270000Y-167440000D02*
X136270000Y-163590000D01*
%TO.C,D1*%
X99250000Y-116190000D02*
X99250000Y-118850000D01*
X100950000Y-116190000D02*
X99250000Y-116190000D01*
X100950000Y-116190000D02*
X100950000Y-118850000D01*
%TO.C,R5*%
X108232742Y-159672500D02*
X108707258Y-159672500D01*
X108232742Y-160717500D02*
X108707258Y-160717500D01*
%TO.C,C4*%
X90777500Y-160490000D02*
X92027500Y-160490000D01*
X91402500Y-159865000D02*
X91402500Y-161115000D01*
X92267500Y-158954437D02*
X92267500Y-161740000D01*
X92267500Y-158954437D02*
X93331937Y-157890000D01*
X92267500Y-167545563D02*
X92267500Y-164760000D01*
X92267500Y-167545563D02*
X93331937Y-168610000D01*
X93331937Y-157890000D02*
X102987500Y-157890000D01*
X93331937Y-168610000D02*
X102987500Y-168610000D01*
X102987500Y-157890000D02*
X102987500Y-161740000D01*
X102987500Y-168610000D02*
X102987500Y-164760000D01*
%TO.C,L2*%
X91900000Y-133820000D02*
X91900000Y-136570000D01*
X91900000Y-142570000D02*
X91900000Y-145320000D01*
X92550000Y-133170000D02*
X104050000Y-133170000D01*
X104050000Y-145970000D02*
X92550000Y-145970000D01*
X104700000Y-133820000D02*
X104700000Y-136570000D01*
X104700000Y-142570000D02*
X104700000Y-145320000D01*
X91900000Y-133820000D02*
G75*
G02*
X92550000Y-133170000I650001J-1D01*
G01*
X92550000Y-145970000D02*
G75*
G02*
X91900000Y-145320000I1J650001D01*
G01*
X104050000Y-133170000D02*
G75*
G02*
X104700000Y-133820000I0J-650000D01*
G01*
X104700000Y-145320000D02*
G75*
G02*
X104050000Y-145970000I-650000J0D01*
G01*
%TO.C,U9*%
X126060000Y-146160000D02*
X136280000Y-146160000D01*
X126060000Y-147540000D02*
X136280000Y-147540000D01*
X126060000Y-150780000D02*
X126060000Y-146160000D01*
X127285000Y-150780000D02*
X127285000Y-153310000D01*
X128255000Y-150780000D02*
X128255000Y-153310000D01*
X128310000Y-150780000D02*
X126060000Y-150780000D01*
X129320000Y-146160000D02*
X129320000Y-147540000D01*
X130685000Y-150780000D02*
X130685000Y-153416000D01*
X131655000Y-150780000D02*
X131655000Y-153416000D01*
X131710000Y-150780000D02*
X130630000Y-150780000D01*
X133020000Y-146160000D02*
X133020000Y-147540000D01*
X134085000Y-150780000D02*
X134085000Y-153416000D01*
X135055000Y-150780000D02*
X135055000Y-153416000D01*
X136280000Y-146160000D02*
X136280000Y-150780000D01*
X136280000Y-150780000D02*
X134030000Y-150780000D01*
%TO.C,U8*%
X130017500Y-113900000D02*
X129217500Y-113900000D01*
X130017500Y-113900000D02*
X130817500Y-113900000D01*
X130017500Y-117020000D02*
X129217500Y-117020000D01*
X130017500Y-117020000D02*
X130817500Y-117020000D01*
X128717500Y-113950000D02*
X128477500Y-113620000D01*
X128957500Y-113620000D01*
X128717500Y-113950000D01*
G36*
X128717500Y-113950000D02*
G01*
X128477500Y-113620000D01*
X128957500Y-113620000D01*
X128717500Y-113950000D01*
G37*
%TO.C,U3*%
X92860000Y-146970000D02*
X103080000Y-146970000D01*
X92860000Y-148350000D02*
X103080000Y-148350000D01*
X92860000Y-151590000D02*
X92860000Y-146970000D01*
X94085000Y-151590000D02*
X94085000Y-154120000D01*
X95055000Y-151590000D02*
X95055000Y-154120000D01*
X95110000Y-151590000D02*
X92860000Y-151590000D01*
X96120000Y-146970000D02*
X96120000Y-148350000D01*
X97485000Y-151590000D02*
X97485000Y-154226000D01*
X98455000Y-151590000D02*
X98455000Y-154226000D01*
X98510000Y-151590000D02*
X97430000Y-151590000D01*
X99820000Y-146970000D02*
X99820000Y-148350000D01*
X100885000Y-151590000D02*
X100885000Y-154226000D01*
X101855000Y-151590000D02*
X101855000Y-154226000D01*
X103080000Y-146970000D02*
X103080000Y-151590000D01*
X103080000Y-151590000D02*
X100830000Y-151590000D01*
%TO.C,R1*%
X127065000Y-124137258D02*
X127065000Y-123662742D01*
X128110000Y-124137258D02*
X128110000Y-123662742D01*
%TO.C,R4*%
X126477500Y-117173742D02*
X126477500Y-117648258D01*
X127522500Y-117173742D02*
X127522500Y-117648258D01*
%TO.C,C7*%
X137260000Y-146424437D02*
X137260000Y-156080000D01*
X137260000Y-156080000D02*
X141110000Y-156080000D01*
X138324437Y-145360000D02*
X137260000Y-146424437D01*
X138324437Y-145360000D02*
X141110000Y-145360000D01*
X145380000Y-143870000D02*
X145380000Y-145120000D01*
X146005000Y-144495000D02*
X144755000Y-144495000D01*
X146915563Y-145360000D02*
X144130000Y-145360000D01*
X146915563Y-145360000D02*
X147980000Y-146424437D01*
X147980000Y-146424437D02*
X147980000Y-156080000D01*
X147980000Y-156080000D02*
X144130000Y-156080000D01*
%TO.C,C12*%
X113136000Y-114122252D02*
X113136000Y-112699748D01*
X114956000Y-114122252D02*
X114956000Y-112699748D01*
D13*
%TO.C,J2*%
X140080000Y-128480000D02*
X178180000Y-128480000D01*
X140080000Y-134200000D02*
X140080000Y-128480000D01*
X178180000Y-128480000D02*
X178180000Y-134200000D01*
X178180000Y-134200000D02*
X140080000Y-134200000D01*
D14*
X177010000Y-134825000D02*
G75*
G02*
X176810000Y-134825000I-100000J0D01*
G01*
X176810000Y-134825000D02*
G75*
G02*
X177010000Y-134825000I100000J0D01*
G01*
D12*
%TO.C,R8*%
X146217258Y-158427500D02*
X145742742Y-158427500D01*
X146217258Y-159472500D02*
X145742742Y-159472500D01*
%TO.C,rec_screw1*%
X110045000Y-109140000D02*
X110045000Y-103720000D01*
X118765000Y-103720000D02*
X110045000Y-103720000D01*
X118765000Y-109140000D02*
X110045000Y-109140000D01*
X120465000Y-105020000D02*
X118765000Y-103720000D01*
X120465000Y-107840000D02*
X118765000Y-109140000D01*
X120465000Y-107840000D02*
X120465000Y-105020000D01*
%TO.C,R7*%
X140992742Y-158357500D02*
X141467258Y-158357500D01*
X140992742Y-159402500D02*
X141467258Y-159402500D01*
%TO.C,L1*%
X101965000Y-117510000D02*
X101965000Y-120260000D01*
X101965000Y-126260000D02*
X101965000Y-129010000D01*
X102615000Y-116860000D02*
X114115000Y-116860000D01*
X114115000Y-129660000D02*
X102615000Y-129660000D01*
X114765000Y-117510000D02*
X114765000Y-120260000D01*
X114765000Y-126260000D02*
X114765000Y-129010000D01*
X101965000Y-117510000D02*
G75*
G02*
X102615000Y-116860000I650001J-1D01*
G01*
X102615000Y-129660000D02*
G75*
G02*
X101965000Y-129010000I1J650001D01*
G01*
X114115000Y-116860000D02*
G75*
G02*
X114765000Y-117510000I0J-650000D01*
G01*
X114765000Y-129010000D02*
G75*
G02*
X114115000Y-129660000I-650000J0D01*
G01*
%TO.C,C13*%
X116833748Y-116140000D02*
X118256252Y-116140000D01*
X116833748Y-117960000D02*
X118256252Y-117960000D01*
%TO.C,C2*%
X116211252Y-131952500D02*
X114788748Y-131952500D01*
X116211252Y-133772500D02*
X114788748Y-133772500D01*
%TO.C,U2*%
X117562500Y-112390000D02*
X116762500Y-112390000D01*
X117562500Y-112390000D02*
X118362500Y-112390000D01*
X117562500Y-115510000D02*
X116762500Y-115510000D01*
X117562500Y-115510000D02*
X118362500Y-115510000D01*
X116262500Y-112440000D02*
X116022500Y-112110000D01*
X116502500Y-112110000D01*
X116262500Y-112440000D01*
G36*
X116262500Y-112440000D02*
G01*
X116022500Y-112110000D01*
X116502500Y-112110000D01*
X116262500Y-112440000D01*
G37*
%TO.C,Battery_screw1*%
X87590000Y-126890000D02*
X87590000Y-129710000D01*
X87590000Y-126890000D02*
X89290000Y-125590000D01*
X87590000Y-129710000D02*
X89290000Y-131010000D01*
X89290000Y-125590000D02*
X98010000Y-125590000D01*
X89290000Y-131010000D02*
X98010000Y-131010000D01*
X98010000Y-125590000D02*
X98010000Y-131010000D01*
%TO.C,U6*%
X113760000Y-134510000D02*
X117520000Y-134510000D01*
X113760000Y-141330000D02*
X117520000Y-141330000D01*
X117520000Y-134510000D02*
X117520000Y-135770000D01*
X117520000Y-141330000D02*
X117520000Y-140070000D01*
X112480000Y-134610000D02*
X112240000Y-134280000D01*
X112720000Y-134280000D01*
X112480000Y-134610000D01*
G36*
X112480000Y-134610000D02*
G01*
X112240000Y-134280000D01*
X112720000Y-134280000D01*
X112480000Y-134610000D01*
G37*
%TO.C,C1*%
X104012420Y-112901000D02*
X104293580Y-112901000D01*
X104012420Y-113921000D02*
X104293580Y-113921000D01*
%TO.C,D2*%
X87930000Y-148262500D02*
X87930000Y-153772500D01*
X91230000Y-148262500D02*
X87930000Y-148262500D01*
X91230000Y-148262500D02*
X91230000Y-153772500D01*
%TO.C,J5*%
X105940000Y-165780000D02*
X105940000Y-164080000D01*
X115280000Y-165780000D02*
X115280000Y-164080000D01*
%TO.C,R2*%
X130824758Y-125940000D02*
X130350242Y-125940000D01*
X130824758Y-126985000D02*
X130350242Y-126985000D01*
D15*
%TO.C,U1*%
X107958600Y-113013600D02*
X107958600Y-113216800D01*
X107958600Y-116163200D02*
X107958600Y-116366400D01*
X107958600Y-116366400D02*
X111311400Y-116366400D01*
X111311400Y-113013600D02*
X107958600Y-113013600D01*
X111311400Y-113216800D02*
X111311400Y-113013600D01*
X111311400Y-116366400D02*
X111311400Y-116163200D01*
D16*
X113025900Y-113879741D02*
X112771900Y-113879741D01*
X112771900Y-113498740D01*
X113025900Y-113498740D01*
X113025900Y-113879741D01*
G36*
X113025900Y-113879741D02*
G01*
X112771900Y-113879741D01*
X112771900Y-113498740D01*
X113025900Y-113498740D01*
X113025900Y-113879741D01*
G37*
D12*
%TO.C,J3*%
X138760000Y-165820000D02*
X138760000Y-164120000D01*
X148100000Y-165820000D02*
X148100000Y-164120000D01*
%TO.C,U10*%
X130697500Y-122350000D02*
X129897500Y-122350000D01*
X130697500Y-122350000D02*
X131497500Y-122350000D01*
X130697500Y-125470000D02*
X129897500Y-125470000D01*
X130697500Y-125470000D02*
X131497500Y-125470000D01*
X129397500Y-122400000D02*
X129157500Y-122070000D01*
X129637500Y-122070000D01*
X129397500Y-122400000D01*
G36*
X129397500Y-122400000D02*
G01*
X129157500Y-122070000D01*
X129637500Y-122070000D01*
X129397500Y-122400000D01*
G37*
%TO.C,D3*%
X121380000Y-148402500D02*
X121380000Y-153912500D01*
X124680000Y-148402500D02*
X121380000Y-148402500D01*
X124680000Y-148402500D02*
X124680000Y-153912500D01*
%TO.C,R6*%
X113792258Y-159522500D02*
X113317742Y-159522500D01*
X113792258Y-160567500D02*
X113317742Y-160567500D01*
D15*
%TO.C,U7*%
X141088000Y-115927000D02*
X141088000Y-119533000D01*
X145812000Y-119533000D02*
X145812000Y-115927000D01*
D17*
X141790200Y-118720600D02*
G75*
G02*
X141503000Y-118720600I-143600J0D01*
G01*
X141503000Y-118720600D02*
G75*
G02*
X141790200Y-118720600I143600J0D01*
G01*
D12*
%TO.C,C5*%
X104720000Y-146731937D02*
X104720000Y-156387500D01*
X104720000Y-156387500D02*
X108570000Y-156387500D01*
X105784437Y-145667500D02*
X104720000Y-146731937D01*
X105784437Y-145667500D02*
X108570000Y-145667500D01*
X112840000Y-144177500D02*
X112840000Y-145427500D01*
X113465000Y-144802500D02*
X112215000Y-144802500D01*
X114375563Y-145667500D02*
X111590000Y-145667500D01*
X114375563Y-145667500D02*
X115440000Y-146731937D01*
X115440000Y-146731937D02*
X115440000Y-156387500D01*
X115440000Y-156387500D02*
X111590000Y-156387500D01*
%TO.C,C3*%
X108840000Y-138333752D02*
X108840000Y-136911248D01*
X110660000Y-138333752D02*
X110660000Y-136911248D01*
%TO.C,C11*%
X86267500Y-110890000D02*
X86267500Y-114740000D01*
X86267500Y-121610000D02*
X86267500Y-117760000D01*
X95923063Y-110890000D02*
X86267500Y-110890000D01*
X95923063Y-121610000D02*
X86267500Y-121610000D01*
X96987500Y-111954437D02*
X95923063Y-110890000D01*
X96987500Y-111954437D02*
X96987500Y-114740000D01*
X96987500Y-120545563D02*
X95923063Y-121610000D01*
X96987500Y-120545563D02*
X96987500Y-117760000D01*
X97852500Y-119635000D02*
X97852500Y-118385000D01*
X98477500Y-119010000D02*
X97227500Y-119010000D01*
D13*
%TO.C,J1*%
X140080000Y-103080000D02*
X178180000Y-103080000D01*
X140080000Y-108800000D02*
X140080000Y-103080000D01*
X178180000Y-103080000D02*
X178180000Y-108800000D01*
X178180000Y-108800000D02*
X140080000Y-108800000D01*
D14*
X177010000Y-109425000D02*
G75*
G02*
X176810000Y-109425000I-100000J0D01*
G01*
X176810000Y-109425000D02*
G75*
G02*
X177010000Y-109425000I100000J0D01*
G01*
D12*
%TO.C,L3*%
X124200000Y-132850000D02*
X124200000Y-135600000D01*
X124200000Y-141600000D02*
X124200000Y-144350000D01*
X124850000Y-132200000D02*
X136350000Y-132200000D01*
X136350000Y-145000000D02*
X124850000Y-145000000D01*
X137000000Y-132850000D02*
X137000000Y-135600000D01*
X137000000Y-141600000D02*
X137000000Y-144350000D01*
X124200000Y-132850000D02*
G75*
G02*
X124850000Y-132200000I650001J-1D01*
G01*
X124850000Y-145000000D02*
G75*
G02*
X124200000Y-144350000I1J650001D01*
G01*
X136350000Y-132200000D02*
G75*
G02*
X137000000Y-132850000I0J-650000D01*
G01*
X137000000Y-144350000D02*
G75*
G02*
X136350000Y-145000000I-650000J0D01*
G01*
%TO.C,R3*%
X130284758Y-117737500D02*
X129810242Y-117737500D01*
X130284758Y-118782500D02*
X129810242Y-118782500D01*
%TD*%
%LPC*%
D18*
%TO.C,C6*%
X126710000Y-162080000D03*
X135110000Y-162080000D03*
%TD*%
D19*
%TO.C,D1*%
X100100000Y-116700000D03*
X100100000Y-118900000D03*
%TD*%
D20*
%TO.C,R5*%
X107645000Y-160195000D03*
X109295000Y-160195000D03*
%TD*%
D18*
%TO.C,C4*%
X93427500Y-163250000D03*
X101827500Y-163250000D03*
%TD*%
D21*
%TO.C,L2*%
X93450000Y-139570000D03*
X103150000Y-139570000D03*
%TD*%
D22*
%TO.C,U9*%
X127770000Y-154470000D03*
D23*
X129470000Y-150770000D03*
X131170000Y-154470000D03*
X132870000Y-150770000D03*
X134570000Y-154470000D03*
%TD*%
D24*
%TO.C,U8*%
X128880000Y-114510000D03*
X128880000Y-115460000D03*
X128880000Y-116410000D03*
X131155000Y-116410000D03*
X131155000Y-114510000D03*
%TD*%
D22*
%TO.C,U3*%
X94570000Y-155280000D03*
D23*
X96270000Y-151580000D03*
X97970000Y-155280000D03*
X99670000Y-151580000D03*
X101370000Y-155280000D03*
%TD*%
D25*
%TO.C,R1*%
X127587500Y-124725000D03*
X127587500Y-123075000D03*
%TD*%
D26*
%TO.C,R4*%
X127000000Y-116586000D03*
X127000000Y-118236000D03*
%TD*%
D27*
%TO.C,C7*%
X142620000Y-146520000D03*
X142620000Y-154920000D03*
%TD*%
D28*
%TO.C,C12*%
X114046000Y-114886000D03*
X114046000Y-111936000D03*
%TD*%
D29*
%TO.C,J2*%
X176910000Y-131650000D03*
D30*
X174370000Y-131650000D03*
X171830000Y-131650000D03*
X169290000Y-131650000D03*
X166750000Y-131650000D03*
X164210000Y-131650000D03*
X161670000Y-131650000D03*
X159130000Y-131650000D03*
X156590000Y-131650000D03*
X154050000Y-131650000D03*
X151510000Y-131650000D03*
X148970000Y-131650000D03*
X146430000Y-131650000D03*
X143890000Y-131650000D03*
X141350000Y-131650000D03*
%TD*%
D31*
%TO.C,R8*%
X146805000Y-158950000D03*
X145155000Y-158950000D03*
%TD*%
D32*
%TO.C,H4*%
X100584000Y-106934000D03*
%TD*%
D33*
%TO.C,rec_screw1*%
X117755000Y-106430000D03*
D34*
X112755000Y-106430000D03*
%TD*%
D20*
%TO.C,R7*%
X140405000Y-158880000D03*
X142055000Y-158880000D03*
%TD*%
D21*
%TO.C,L1*%
X103515000Y-123260000D03*
X113215000Y-123260000D03*
%TD*%
D35*
%TO.C,C13*%
X116070000Y-117050000D03*
X119020000Y-117050000D03*
%TD*%
D36*
%TO.C,C2*%
X116975000Y-132862500D03*
X114025000Y-132862500D03*
%TD*%
D24*
%TO.C,U2*%
X116425000Y-113000000D03*
X116425000Y-113950000D03*
X116425000Y-114900000D03*
X118700000Y-114900000D03*
X118700000Y-113000000D03*
%TD*%
D37*
%TO.C,Battery_screw1*%
X90300000Y-128300000D03*
D34*
X95300000Y-128300000D03*
%TD*%
D38*
%TO.C,U6*%
X112460000Y-135620000D03*
X112460000Y-137920000D03*
D39*
X118760000Y-137920000D03*
D38*
X112460000Y-140220000D03*
%TD*%
D40*
%TO.C,C1*%
X103378000Y-113411000D03*
X104928000Y-113411000D03*
%TD*%
D41*
%TO.C,D2*%
X89580000Y-149772500D03*
X89580000Y-153772500D03*
%TD*%
D42*
%TO.C,J5*%
X107720000Y-163275000D03*
X113500000Y-163275000D03*
D43*
X107410000Y-162200000D03*
X108210000Y-162200000D03*
D44*
X109360000Y-162200000D03*
X110360000Y-162200000D03*
X110860000Y-162200000D03*
X111860000Y-162200000D03*
D43*
X113010000Y-162200000D03*
X113810000Y-162200000D03*
X113810000Y-162200000D03*
X113010000Y-162200000D03*
D44*
X112360000Y-162200000D03*
X111360000Y-162200000D03*
X109860000Y-162200000D03*
X108860000Y-162200000D03*
D43*
X108210000Y-162200000D03*
X107410000Y-162200000D03*
D45*
X106290000Y-162775000D03*
D46*
X106290000Y-166955000D03*
D45*
X114930000Y-162775000D03*
D46*
X114930000Y-166955000D03*
%TD*%
D32*
%TO.C,H3*%
X86360000Y-160655000D03*
%TD*%
D31*
%TO.C,R2*%
X131412500Y-126462500D03*
X129762500Y-126462500D03*
%TD*%
D32*
%TO.C,H2*%
X147066000Y-139827000D03*
%TD*%
D47*
%TO.C,U1*%
X107450600Y-113689240D03*
X107450600Y-114189619D03*
X107450600Y-114690000D03*
X107450600Y-115190381D03*
X107450600Y-115690760D03*
X111819400Y-115690760D03*
X111819400Y-115190381D03*
X111819400Y-114690000D03*
X111819400Y-114189619D03*
X111819400Y-113689240D03*
D48*
X109635000Y-114690000D03*
%TD*%
D42*
%TO.C,J3*%
X140540000Y-163315000D03*
X146320000Y-163315000D03*
D43*
X140230000Y-162240000D03*
X141030000Y-162240000D03*
D44*
X142180000Y-162240000D03*
X143180000Y-162240000D03*
X143680000Y-162240000D03*
X144680000Y-162240000D03*
D43*
X145830000Y-162240000D03*
X146630000Y-162240000D03*
X146630000Y-162240000D03*
X145830000Y-162240000D03*
D44*
X145180000Y-162240000D03*
X144180000Y-162240000D03*
X142680000Y-162240000D03*
X141680000Y-162240000D03*
D43*
X141030000Y-162240000D03*
X140230000Y-162240000D03*
D45*
X139110000Y-162815000D03*
D46*
X139110000Y-166995000D03*
D45*
X147750000Y-162815000D03*
D46*
X147750000Y-166995000D03*
%TD*%
D24*
%TO.C,U10*%
X129560000Y-122960000D03*
X129560000Y-123910000D03*
X129560000Y-124860000D03*
X131835000Y-124860000D03*
X131835000Y-122960000D03*
%TD*%
D41*
%TO.C,D3*%
X123030000Y-149912500D03*
X123030000Y-153912500D03*
%TD*%
D31*
%TO.C,R6*%
X114380000Y-160045000D03*
X112730000Y-160045000D03*
%TD*%
D49*
%TO.C,U7*%
X141545000Y-120346200D03*
X142815000Y-120346200D03*
X144085000Y-120346200D03*
X145355000Y-120346200D03*
X145355000Y-115113800D03*
X144085000Y-115113800D03*
X142815000Y-115113800D03*
X141545000Y-115113800D03*
%TD*%
D27*
%TO.C,C5*%
X110080000Y-146827500D03*
X110080000Y-155227500D03*
%TD*%
D28*
%TO.C,C3*%
X109750000Y-139097500D03*
X109750000Y-136147500D03*
%TD*%
D50*
%TO.C,C11*%
X95827500Y-116250000D03*
X87427500Y-116250000D03*
%TD*%
D29*
%TO.C,J1*%
X176910000Y-106250000D03*
D30*
X174370000Y-106250000D03*
X171830000Y-106250000D03*
X169290000Y-106250000D03*
X166750000Y-106250000D03*
X164210000Y-106250000D03*
X161670000Y-106250000D03*
X159130000Y-106250000D03*
X156590000Y-106250000D03*
X154050000Y-106250000D03*
X151510000Y-106250000D03*
X148970000Y-106250000D03*
X146430000Y-106250000D03*
X143890000Y-106250000D03*
X141350000Y-106250000D03*
%TD*%
D21*
%TO.C,L3*%
X125750000Y-138600000D03*
X135450000Y-138600000D03*
%TD*%
D31*
%TO.C,R3*%
X130872500Y-118260000D03*
X129222500Y-118260000D03*
%TD*%
%LPD*%
M02*
