M48
; DRILL file {KiCad 9.0.3} date 2026-03-27T19:58:28-0500
; FORMAT={-:-/ absolute / inch / decimal}
; #@! TF.CreationDate,2026-03-27T19:58:28-05:00
; #@! TF.GenerationSoftware,Kicad,Pcbnew,9.0.3
; #@! TF.FileFunction,Plated,1,2,PTH
FMAT,2
INCH
; #@! TA.AperFunction,Plated,PTH,ViaDrill
T1C0.0118
; #@! TA.AperFunction,Plated,PTH,ViaDrill
T2C0.0157
; #@! TA.AperFunction,Plated,PTH,ComponentDrill
T3C0.0236
; #@! TA.AperFunction,Plated,PTH,ComponentDrill
T4C0.0433
; #@! TA.AperFunction,Plated,PTH,ComponentDrill
T5C0.0500
; #@! TA.AperFunction,Plated,PTH,ComponentDrill
T6C0.0709
%
G90
G05
T1
X4.455Y-4.48
T2
X3.5264Y-6.1386
X3.5896Y-4.5768
X3.8701Y-6.4252
X4.1772Y-6.3071
X4.2244Y-6.5748
X4.2598Y-6.3504
X4.29Y-4.415
X4.3224Y-5.2528
X4.3346Y-5.9528
X4.4493Y-6.3504
X4.4685Y-6.5709
X4.5488Y-6.2988
X4.5608Y-4.3909
X4.5984Y-6.4094
X4.6234Y-4.598
X4.6339Y-4.4882
X4.6756Y-5.3011
X4.7126Y-4.7638
X4.7923Y-4.4488
X4.8417Y-6.15
X4.86Y-4.595
X4.9055Y-5.1378
X4.915Y-4.935
X5.0739Y-4.4492
X5.1457Y-4.878
X5.1654Y-6.3819
X5.2165Y-4.4449
X5.2717Y-4.8346
X5.4803Y-6.3425
X5.5236Y-6.202
X5.545Y-6.575
X5.6142Y-5.9528
X5.6224Y-4.5941
X5.6709Y-4.6936
X5.6757Y-4.4461
X5.75Y-6.5748
X5.7917Y-4.6807
X5.8276Y-6.2575
X5.84Y-6.33
X6.0134Y-4.426
T4
X3.7232Y-6.1134
X3.7902Y-5.9677
X3.8571Y-6.1134
X3.924Y-5.9677
X3.9909Y-6.1134
X5.0303Y-6.0815
X5.0972Y-5.9358
X5.1642Y-6.0815
X5.2311Y-5.9358
X5.298Y-6.0815
T5
X5.565Y-4.1831
X5.565Y-5.1831
X5.665Y-4.1831
X5.665Y-5.1831
X5.765Y-4.1831
X5.765Y-5.1831
X5.865Y-4.1831
X5.865Y-5.1831
X5.965Y-4.1831
X5.965Y-5.1831
X6.065Y-4.1831
X6.065Y-5.1831
X6.165Y-4.1831
X6.165Y-5.1831
X6.265Y-4.1831
X6.265Y-5.1831
X6.365Y-4.1831
X6.365Y-5.1831
X6.465Y-4.1831
X6.465Y-5.1831
X6.565Y-4.1831
X6.565Y-5.1831
X6.665Y-4.1831
X6.665Y-5.1831
X6.765Y-4.1831
X6.765Y-5.1831
X6.865Y-4.1831
X6.865Y-5.1831
X6.965Y-4.1831
X6.965Y-5.1831
T6
X3.5551Y-5.0512
X3.752Y-5.0512
X4.4392Y-4.1902
X4.636Y-4.1902
T3
G00X4.1846Y-6.3868
M15
G01X4.1846Y-6.4301
M16
G05
G00X4.1846Y-6.5573
M15
G01X4.1846Y-6.5888
M16
G05
G00X4.5248Y-6.3868
M15
G01X4.5248Y-6.4301
M16
G05
G00X4.5248Y-6.5573
M15
G01X4.5248Y-6.5888
M16
G05
G00X5.4768Y-6.3884
M15
G01X5.4768Y-6.4317
M16
G05
G00X5.4768Y-6.5589
M15
G01X5.4768Y-6.5904
M16
G05
G00X5.8169Y-6.3884
M15
G01X5.8169Y-6.4317
M16
G05
G00X5.8169Y-6.5589
M15
G01X5.8169Y-6.5904
M16
G05
M30
