%TF.GenerationSoftware,KiCad,Pcbnew,9.0.3*%
%TF.CreationDate,2026-03-27T19:58:28-05:00*%
%TF.ProjectId,PiezoProjectEngineering,5069657a-6f50-4726-9f6a-656374456e67,rev?*%
%TF.SameCoordinates,Original*%
%TF.FileFunction,Copper,L2,Bot*%
%TF.FilePolarity,Positive*%
%FSLAX46Y46*%
G04 Gerber Fmt 4.6, Leading zero omitted, Abs format (unit mm)*
G04 Created by KiCad (PCBNEW 9.0.3) date 2026-03-27 19:58:28*
%MOMM*%
%LPD*%
G01*
G04 APERTURE LIST*
G04 Aperture macros list*
%AMRoundRect*
0 Rectangle with rounded corners*
0 $1 Rounding radius*
0 $2 $3 $4 $5 $6 $7 $8 $9 X,Y pos of 4 corners*
0 Add a 4 corners polygon primitive as box body*
4,1,4,$2,$3,$4,$5,$6,$7,$8,$9,$2,$3,0*
0 Add four circle primitives for the rounded corners*
1,1,$1+$1,$2,$3*
1,1,$1+$1,$4,$5*
1,1,$1+$1,$6,$7*
1,1,$1+$1,$8,$9*
0 Add four rect primitives between the rounded corners*
20,1,$1+$1,$2,$3,$4,$5,0*
20,1,$1+$1,$4,$5,$6,$7,0*
20,1,$1+$1,$6,$7,$8,$9,0*
20,1,$1+$1,$8,$9,$2,$3,0*%
G04 Aperture macros list end*
%TA.AperFunction,ComponentPad*%
%ADD10R,1.800000X1.800000*%
%TD*%
%TA.AperFunction,ComponentPad*%
%ADD11C,1.800000*%
%TD*%
%TA.AperFunction,ComponentPad*%
%ADD12R,1.905000X1.905000*%
%TD*%
%TA.AperFunction,ComponentPad*%
%ADD13C,1.905000*%
%TD*%
%TA.AperFunction,ComponentPad*%
%ADD14RoundRect,0.750000X0.750000X0.750000X-0.750000X0.750000X-0.750000X-0.750000X0.750000X-0.750000X0*%
%TD*%
%TA.AperFunction,ComponentPad*%
%ADD15C,3.000000*%
%TD*%
%TA.AperFunction,ComponentPad*%
%ADD16RoundRect,0.750000X-0.750000X-0.750000X0.750000X-0.750000X0.750000X0.750000X-0.750000X0.750000X0*%
%TD*%
%TA.AperFunction,HeatsinkPad*%
%ADD17O,1.000000X2.100000*%
%TD*%
%TA.AperFunction,HeatsinkPad*%
%ADD18O,1.000000X1.800000*%
%TD*%
%TA.AperFunction,ViaPad*%
%ADD19C,0.900000*%
%TD*%
%TA.AperFunction,ViaPad*%
%ADD20C,0.600000*%
%TD*%
%TA.AperFunction,Conductor*%
%ADD21C,1.200000*%
%TD*%
%TA.AperFunction,Conductor*%
%ADD22C,0.350000*%
%TD*%
%TA.AperFunction,Conductor*%
%ADD23C,0.600000*%
%TD*%
G04 APERTURE END LIST*
D10*
%TO.P,U9,1,VIN*%
%TO.N,+9V*%
X127770000Y-154470000D03*
D11*
%TO.P,U9,2,OUT*%
%TO.N,Net-(D3-K)*%
X129470000Y-150770000D03*
%TO.P,U9,3,GND*%
%TO.N,GND*%
X131170000Y-154470000D03*
%TO.P,U9,4,FB*%
%TO.N,+3.3V*%
X132870000Y-150770000D03*
%TO.P,U9,5,~{ON}/OFF*%
%TO.N,GND*%
X134570000Y-154470000D03*
%TD*%
D10*
%TO.P,U3,1,VIN*%
%TO.N,+9V*%
X94570000Y-155280000D03*
D11*
%TO.P,U3,2,OUT*%
%TO.N,Net-(D2-K)*%
X96270000Y-151580000D03*
%TO.P,U3,3,GND*%
%TO.N,GND*%
X97970000Y-155280000D03*
%TO.P,U3,4,FB*%
%TO.N,+5V*%
X99670000Y-151580000D03*
%TO.P,U3,5,~{ON}/OFF*%
%TO.N,GND*%
X101370000Y-155280000D03*
%TD*%
D12*
%TO.P,J2,1,Pin_1*%
%TO.N,unconnected-(J2-Pin_1-Pad1)*%
X176910000Y-131650000D03*
D13*
%TO.P,J2,2,Pin_2*%
%TO.N,GND*%
X174370000Y-131650000D03*
%TO.P,J2,3,Pin_3*%
%TO.N,unconnected-(J2-Pin_3-Pad3)*%
X171830000Y-131650000D03*
%TO.P,J2,4,Pin_4*%
%TO.N,/ESP_OUT*%
X169290000Y-131650000D03*
%TO.P,J2,5,Pin_5*%
%TO.N,unconnected-(J2-Pin_5-Pad5)*%
X166750000Y-131650000D03*
%TO.P,J2,6,Pin_6*%
%TO.N,unconnected-(J2-Pin_6-Pad6)*%
X164210000Y-131650000D03*
%TO.P,J2,7,Pin_7*%
%TO.N,unconnected-(J2-Pin_7-Pad7)*%
X161670000Y-131650000D03*
%TO.P,J2,8,Pin_8*%
%TO.N,unconnected-(J2-Pin_8-Pad8)*%
X159130000Y-131650000D03*
%TO.P,J2,9,Pin_9*%
%TO.N,unconnected-(J2-Pin_9-Pad9)*%
X156590000Y-131650000D03*
%TO.P,J2,10,Pin_10*%
%TO.N,unconnected-(J2-Pin_10-Pad10)*%
X154050000Y-131650000D03*
%TO.P,J2,11,Pin_11*%
%TO.N,unconnected-(J2-Pin_11-Pad11)*%
X151510000Y-131650000D03*
%TO.P,J2,12,Pin_12*%
%TO.N,unconnected-(J2-Pin_12-Pad12)*%
X148970000Y-131650000D03*
%TO.P,J2,13,Pin_13*%
%TO.N,unconnected-(J2-Pin_13-Pad13)*%
X146430000Y-131650000D03*
%TO.P,J2,14,Pin_14*%
%TO.N,/ESP_ADC*%
X143890000Y-131650000D03*
%TO.P,J2,15,Pin_15*%
%TO.N,/EN*%
X141350000Y-131650000D03*
%TD*%
D14*
%TO.P,rec_screw1,1,Pin_2*%
%TO.N,Net-(U1-PZ2)*%
X117755000Y-106430000D03*
D15*
%TO.P,rec_screw1,2,Pin_1*%
%TO.N,Net-(U1-PZ1)*%
X112755000Y-106430000D03*
%TD*%
D16*
%TO.P,Battery_screw1,1,Pin_2*%
%TO.N,GND*%
X90300000Y-128300000D03*
D15*
%TO.P,Battery_screw1,2,Pin_1*%
%TO.N,+9V*%
X95300000Y-128300000D03*
%TD*%
D17*
%TO.P,J5,S1,SHIELD*%
%TO.N,GND*%
X106290000Y-162775000D03*
D18*
X106290000Y-166955000D03*
D17*
X114930000Y-162775000D03*
D18*
X114930000Y-166955000D03*
%TD*%
D17*
%TO.P,J3,S1,SHIELD*%
%TO.N,GND*%
X139110000Y-162815000D03*
D18*
X139110000Y-166995000D03*
D17*
X147750000Y-162815000D03*
D18*
X147750000Y-166995000D03*
%TD*%
D12*
%TO.P,J1,1,Pin_1*%
%TO.N,unconnected-(J1-Pin_1-Pad1)*%
X176910000Y-106250000D03*
D13*
%TO.P,J1,2,Pin_2*%
%TO.N,GND*%
X174370000Y-106250000D03*
%TO.P,J1,3,Pin_3*%
%TO.N,unconnected-(J1-Pin_3-Pad3)*%
X171830000Y-106250000D03*
%TO.P,J1,4,Pin_4*%
%TO.N,unconnected-(J1-Pin_4-Pad4)*%
X169290000Y-106250000D03*
%TO.P,J1,5,Pin_5*%
%TO.N,unconnected-(J1-Pin_5-Pad5)*%
X166750000Y-106250000D03*
%TO.P,J1,6,Pin_6*%
%TO.N,unconnected-(J1-Pin_6-Pad6)*%
X164210000Y-106250000D03*
%TO.P,J1,7,Pin_7*%
%TO.N,unconnected-(J1-Pin_7-Pad7)*%
X161670000Y-106250000D03*
%TO.P,J1,8,Pin_8*%
%TO.N,/FRAM_CS*%
X159130000Y-106250000D03*
%TO.P,J1,9,Pin_9*%
%TO.N,/FRAM_SCK*%
X156590000Y-106250000D03*
%TO.P,J1,10,Pin_10*%
%TO.N,/FRAM_MISO*%
X154050000Y-106250000D03*
%TO.P,J1,11,Pin_11*%
%TO.N,unconnected-(J1-Pin_11-Pad11)*%
X151510000Y-106250000D03*
%TO.P,J1,12,Pin_12*%
%TO.N,unconnected-(J1-Pin_12-Pad12)*%
X148970000Y-106250000D03*
%TO.P,J1,13,Pin_13*%
%TO.N,unconnected-(J1-Pin_13-Pad13)*%
X146430000Y-106250000D03*
%TO.P,J1,14,Pin_14*%
%TO.N,unconnected-(J1-Pin_14-Pad14)*%
X143890000Y-106250000D03*
%TO.P,J1,15,Pin_15*%
%TO.N,/FRAM_MOSI*%
X141350000Y-106250000D03*
%TD*%
D19*
%TO.N,GND*%
X148020000Y-158940000D03*
X140843000Y-167005000D03*
X146050000Y-167000000D03*
X131200000Y-162100000D03*
X139200000Y-161100000D03*
X91175000Y-116250000D03*
X122980000Y-156210000D03*
X107300000Y-167000000D03*
X106100000Y-160200000D03*
X128877500Y-113010000D03*
X110100000Y-151200000D03*
X98300000Y-163200000D03*
X115845000Y-111530000D03*
X140300000Y-157530000D03*
X113500000Y-166900000D03*
D20*
X113157000Y-113792000D03*
D19*
X109790000Y-133420000D03*
X142600000Y-151200000D03*
X117435000Y-116790000D03*
X116800000Y-162800000D03*
X89570000Y-155920000D03*
X147110000Y-118890000D03*
X115540000Y-159990000D03*
X148336000Y-160782000D03*
X130700000Y-123900000D03*
%TO.N,Net-(U1-PZ1)*%
X108966000Y-112141000D03*
%TO.N,+3V3*%
X118760000Y-134647500D03*
X121725000Y-113000000D03*
X142810000Y-116690000D03*
X144040000Y-119217000D03*
%TO.N,/FRAM_SCK*%
X152740000Y-112420000D03*
X144163000Y-112930000D03*
%TO.N,/EN*%
X123444000Y-116713000D03*
X124841000Y-125349000D03*
%TO.N,/ESP_OUT*%
X119700000Y-121000000D03*
X117700000Y-114000000D03*
%TO.N,+5V*%
X113012000Y-161300000D03*
X108200000Y-161300000D03*
%TO.N,+9V*%
X132500000Y-112900000D03*
X133900000Y-122800000D03*
X124600000Y-130500000D03*
%TD*%
D21*
%TO.N,Net-(U1-PZ1)*%
X112755000Y-108352000D02*
X112755000Y-106430000D01*
X108966000Y-112141000D02*
X112755000Y-108352000D01*
D22*
%TO.N,+3V3*%
X142820000Y-116700000D02*
X142810000Y-116690000D01*
D21*
X121725000Y-131682500D02*
X118760000Y-134647500D01*
D22*
X144040000Y-119217000D02*
X142820000Y-117997000D01*
D21*
X121725000Y-113000000D02*
X121725000Y-131682500D01*
D22*
X142820000Y-117997000D02*
X142820000Y-116700000D01*
D21*
%TO.N,/FRAM_SCK*%
X152740000Y-112420000D02*
X145300000Y-112420000D01*
X144790000Y-112930000D02*
X144163000Y-112930000D01*
X145300000Y-112420000D02*
X144790000Y-112930000D01*
%TO.N,/EN*%
X123444000Y-116713000D02*
X123444000Y-123952000D01*
X123444000Y-123952000D02*
X124841000Y-125349000D01*
%TO.N,/ESP_OUT*%
X119700000Y-121000000D02*
X119700000Y-116000000D01*
X119700000Y-116000000D02*
X117700000Y-114000000D01*
D23*
%TO.N,+5V*%
X108200000Y-161300000D02*
X108200000Y-158400000D01*
X113012000Y-161300000D02*
X111100000Y-161300000D01*
X111100000Y-161300000D02*
X108200000Y-158400000D01*
X101380000Y-151580000D02*
X99670000Y-151580000D01*
X108200000Y-158400000D02*
X101380000Y-151580000D01*
D21*
%TO.N,+9V*%
X133900000Y-124100000D02*
X133900000Y-122800000D01*
X124600000Y-130500000D02*
X127500000Y-130500000D01*
X127500000Y-130500000D02*
X133900000Y-124100000D01*
X133900000Y-114300000D02*
X132500000Y-112900000D01*
X133900000Y-122800000D02*
X133900000Y-114300000D01*
%TD*%
%TA.AperFunction,Conductor*%
%TO.N,GND*%
G36*
X179782539Y-102120185D02*
G01*
X179828294Y-102172989D01*
X179839500Y-102224500D01*
X179839500Y-131901324D01*
X179819815Y-131968363D01*
X179803181Y-131989005D01*
X175423005Y-136369181D01*
X175361682Y-136402666D01*
X175335324Y-136405500D01*
X157334107Y-136405500D01*
X157206812Y-136439608D01*
X157092686Y-136505500D01*
X157092683Y-136505502D01*
X156999498Y-136598688D01*
X149535245Y-144062940D01*
X149535244Y-144062940D01*
X149535245Y-144062941D01*
X149459500Y-144138686D01*
X149393608Y-144252812D01*
X149359500Y-144380108D01*
X149359500Y-169555500D01*
X149339815Y-169622539D01*
X149287011Y-169668294D01*
X149235500Y-169679500D01*
X89078676Y-169679500D01*
X89011637Y-169659815D01*
X88990995Y-169643181D01*
X85804318Y-166456504D01*
X105290000Y-166456504D01*
X105290000Y-166705000D01*
X105990000Y-166705000D01*
X105990000Y-167205000D01*
X105290000Y-167205000D01*
X105290000Y-167453495D01*
X105328427Y-167646681D01*
X105328430Y-167646693D01*
X105403807Y-167828671D01*
X105403814Y-167828684D01*
X105513248Y-167992462D01*
X105513251Y-167992466D01*
X105652533Y-168131748D01*
X105652537Y-168131751D01*
X105816315Y-168241185D01*
X105816328Y-168241192D01*
X105998308Y-168316569D01*
X106040000Y-168324862D01*
X106040000Y-167521988D01*
X106049940Y-167539205D01*
X106105795Y-167595060D01*
X106174204Y-167634556D01*
X106250504Y-167655000D01*
X106329496Y-167655000D01*
X106405796Y-167634556D01*
X106474205Y-167595060D01*
X106530060Y-167539205D01*
X106540000Y-167521988D01*
X106540000Y-168324862D01*
X106581690Y-168316569D01*
X106581692Y-168316569D01*
X106763671Y-168241192D01*
X106763684Y-168241185D01*
X106927462Y-168131751D01*
X106927466Y-168131748D01*
X107066748Y-167992466D01*
X107066751Y-167992462D01*
X107176185Y-167828684D01*
X107176192Y-167828671D01*
X107251569Y-167646693D01*
X107251572Y-167646681D01*
X107289999Y-167453495D01*
X107290000Y-167453492D01*
X107290000Y-167205000D01*
X106590000Y-167205000D01*
X106590000Y-166705000D01*
X107290000Y-166705000D01*
X107290000Y-166456508D01*
X107289999Y-166456504D01*
X113930000Y-166456504D01*
X113930000Y-166705000D01*
X114630000Y-166705000D01*
X114630000Y-167205000D01*
X113930000Y-167205000D01*
X113930000Y-167453495D01*
X113968427Y-167646681D01*
X113968430Y-167646693D01*
X114043807Y-167828671D01*
X114043814Y-167828684D01*
X114153248Y-167992462D01*
X114153251Y-167992466D01*
X114292533Y-168131748D01*
X114292537Y-168131751D01*
X114456315Y-168241185D01*
X114456328Y-168241192D01*
X114638308Y-168316569D01*
X114680000Y-168324862D01*
X114680000Y-167521988D01*
X114689940Y-167539205D01*
X114745795Y-167595060D01*
X114814204Y-167634556D01*
X114890504Y-167655000D01*
X114969496Y-167655000D01*
X115045796Y-167634556D01*
X115114205Y-167595060D01*
X115170060Y-167539205D01*
X115180000Y-167521988D01*
X115180000Y-168324862D01*
X115221690Y-168316569D01*
X115221692Y-168316569D01*
X115403671Y-168241192D01*
X115403684Y-168241185D01*
X115567462Y-168131751D01*
X115567466Y-168131748D01*
X115706748Y-167992466D01*
X115706751Y-167992462D01*
X115816185Y-167828684D01*
X115816192Y-167828671D01*
X115891569Y-167646693D01*
X115891572Y-167646681D01*
X115929999Y-167453495D01*
X115930000Y-167453492D01*
X115930000Y-167205000D01*
X115230000Y-167205000D01*
X115230000Y-166705000D01*
X115930000Y-166705000D01*
X115930000Y-166496504D01*
X138110000Y-166496504D01*
X138110000Y-166745000D01*
X138810000Y-166745000D01*
X138810000Y-167245000D01*
X138110000Y-167245000D01*
X138110000Y-167493495D01*
X138148427Y-167686681D01*
X138148430Y-167686693D01*
X138223807Y-167868671D01*
X138223814Y-167868684D01*
X138333248Y-168032462D01*
X138333251Y-168032466D01*
X138472533Y-168171748D01*
X138472537Y-168171751D01*
X138636315Y-168281185D01*
X138636328Y-168281192D01*
X138818308Y-168356569D01*
X138860000Y-168364862D01*
X138860000Y-167561988D01*
X138869940Y-167579205D01*
X138925795Y-167635060D01*
X138994204Y-167674556D01*
X139070504Y-167695000D01*
X139149496Y-167695000D01*
X139225796Y-167674556D01*
X139294205Y-167635060D01*
X139350060Y-167579205D01*
X139360000Y-167561988D01*
X139360000Y-168364862D01*
X139401690Y-168356569D01*
X139401692Y-168356569D01*
X139583671Y-168281192D01*
X139583684Y-168281185D01*
X139747462Y-168171751D01*
X139747466Y-168171748D01*
X139886748Y-168032466D01*
X139886751Y-168032462D01*
X139996185Y-167868684D01*
X139996192Y-167868671D01*
X140071569Y-167686693D01*
X140071572Y-167686681D01*
X140109999Y-167493495D01*
X140110000Y-167493492D01*
X140110000Y-167245000D01*
X139410000Y-167245000D01*
X139410000Y-166745000D01*
X140110000Y-166745000D01*
X140110000Y-166496508D01*
X140109999Y-166496504D01*
X146750000Y-166496504D01*
X146750000Y-166745000D01*
X147450000Y-166745000D01*
X147450000Y-167245000D01*
X146750000Y-167245000D01*
X146750000Y-167493495D01*
X146788427Y-167686681D01*
X146788430Y-167686693D01*
X146863807Y-167868671D01*
X146863814Y-167868684D01*
X146973248Y-168032462D01*
X146973251Y-168032466D01*
X147112533Y-168171748D01*
X147112537Y-168171751D01*
X147276315Y-168281185D01*
X147276328Y-168281192D01*
X147458308Y-168356569D01*
X147500000Y-168364862D01*
X147500000Y-167561988D01*
X147509940Y-167579205D01*
X147565795Y-167635060D01*
X147634204Y-167674556D01*
X147710504Y-167695000D01*
X147789496Y-167695000D01*
X147865796Y-167674556D01*
X147934205Y-167635060D01*
X147990060Y-167579205D01*
X148000000Y-167561988D01*
X148000000Y-168364862D01*
X148041690Y-168356569D01*
X148041692Y-168356569D01*
X148223671Y-168281192D01*
X148223684Y-168281185D01*
X148387462Y-168171751D01*
X148387466Y-168171748D01*
X148526748Y-168032466D01*
X148526751Y-168032462D01*
X148636185Y-167868684D01*
X148636192Y-167868671D01*
X148711569Y-167686693D01*
X148711572Y-167686681D01*
X148749999Y-167493495D01*
X148750000Y-167493492D01*
X148750000Y-167245000D01*
X148050000Y-167245000D01*
X148050000Y-166745000D01*
X148750000Y-166745000D01*
X148750000Y-166496508D01*
X148749999Y-166496504D01*
X148711572Y-166303318D01*
X148711569Y-166303306D01*
X148636192Y-166121328D01*
X148636185Y-166121315D01*
X148526751Y-165957537D01*
X148526748Y-165957533D01*
X148387466Y-165818251D01*
X148387462Y-165818248D01*
X148223684Y-165708814D01*
X148223671Y-165708807D01*
X148041691Y-165633429D01*
X148041683Y-165633427D01*
X148000000Y-165625135D01*
X148000000Y-166428011D01*
X147990060Y-166410795D01*
X147934205Y-166354940D01*
X147865796Y-166315444D01*
X147789496Y-166295000D01*
X147710504Y-166295000D01*
X147634204Y-166315444D01*
X147565795Y-166354940D01*
X147509940Y-166410795D01*
X147500000Y-166428011D01*
X147500000Y-165625136D01*
X147499999Y-165625135D01*
X147458316Y-165633427D01*
X147458308Y-165633429D01*
X147276328Y-165708807D01*
X147276315Y-165708814D01*
X147112537Y-165818248D01*
X147112533Y-165818251D01*
X146973251Y-165957533D01*
X146973248Y-165957537D01*
X146863814Y-166121315D01*
X146863807Y-166121328D01*
X146788430Y-166303306D01*
X146788427Y-166303318D01*
X146750000Y-166496504D01*
X140109999Y-166496504D01*
X140071572Y-166303318D01*
X140071569Y-166303306D01*
X139996192Y-166121328D01*
X139996185Y-166121315D01*
X139886751Y-165957537D01*
X139886748Y-165957533D01*
X139747466Y-165818251D01*
X139747462Y-165818248D01*
X139583684Y-165708814D01*
X139583671Y-165708807D01*
X139401691Y-165633429D01*
X139401683Y-165633427D01*
X139360000Y-165625135D01*
X139360000Y-166428011D01*
X139350060Y-166410795D01*
X139294205Y-166354940D01*
X139225796Y-166315444D01*
X139149496Y-166295000D01*
X139070504Y-166295000D01*
X138994204Y-166315444D01*
X138925795Y-166354940D01*
X138869940Y-166410795D01*
X138860000Y-166428011D01*
X138860000Y-165625136D01*
X138859999Y-165625135D01*
X138818316Y-165633427D01*
X138818308Y-165633429D01*
X138636328Y-165708807D01*
X138636315Y-165708814D01*
X138472537Y-165818248D01*
X138472533Y-165818251D01*
X138333251Y-165957533D01*
X138333248Y-165957537D01*
X138223814Y-166121315D01*
X138223807Y-166121328D01*
X138148430Y-166303306D01*
X138148427Y-166303318D01*
X138110000Y-166496504D01*
X115930000Y-166496504D01*
X115930000Y-166456508D01*
X115929999Y-166456504D01*
X115891572Y-166263318D01*
X115891569Y-166263306D01*
X115816192Y-166081328D01*
X115816185Y-166081315D01*
X115706751Y-165917537D01*
X115706748Y-165917533D01*
X115567466Y-165778251D01*
X115567462Y-165778248D01*
X115403684Y-165668814D01*
X115403671Y-165668807D01*
X115221691Y-165593429D01*
X115221683Y-165593427D01*
X115180000Y-165585135D01*
X115180000Y-166388011D01*
X115170060Y-166370795D01*
X115114205Y-166314940D01*
X115045796Y-166275444D01*
X114969496Y-166255000D01*
X114890504Y-166255000D01*
X114814204Y-166275444D01*
X114745795Y-166314940D01*
X114689940Y-166370795D01*
X114680000Y-166388011D01*
X114680000Y-165585136D01*
X114679999Y-165585135D01*
X114638316Y-165593427D01*
X114638308Y-165593429D01*
X114456328Y-165668807D01*
X114456315Y-165668814D01*
X114292537Y-165778248D01*
X114292533Y-165778251D01*
X114153251Y-165917533D01*
X114153248Y-165917537D01*
X114043814Y-166081315D01*
X114043807Y-166081328D01*
X113968430Y-166263306D01*
X113968427Y-166263318D01*
X113930000Y-166456504D01*
X107289999Y-166456504D01*
X107251572Y-166263318D01*
X107251569Y-166263306D01*
X107176192Y-166081328D01*
X107176185Y-166081315D01*
X107066751Y-165917537D01*
X107066748Y-165917533D01*
X106927466Y-165778251D01*
X106927462Y-165778248D01*
X106763684Y-165668814D01*
X106763671Y-165668807D01*
X106581691Y-165593429D01*
X106581683Y-165593427D01*
X106540000Y-165585135D01*
X106540000Y-166388011D01*
X106530060Y-166370795D01*
X106474205Y-166314940D01*
X106405796Y-166275444D01*
X106329496Y-166255000D01*
X106250504Y-166255000D01*
X106174204Y-166275444D01*
X106105795Y-166314940D01*
X106049940Y-166370795D01*
X106040000Y-166388011D01*
X106040000Y-165585136D01*
X106039999Y-165585135D01*
X105998316Y-165593427D01*
X105998308Y-165593429D01*
X105816328Y-165668807D01*
X105816315Y-165668814D01*
X105652537Y-165778248D01*
X105652533Y-165778251D01*
X105513251Y-165917533D01*
X105513248Y-165917537D01*
X105403814Y-166081315D01*
X105403807Y-166081328D01*
X105328430Y-166263306D01*
X105328427Y-166263318D01*
X105290000Y-166456504D01*
X85804318Y-166456504D01*
X82197819Y-162850005D01*
X82164334Y-162788682D01*
X82161500Y-162762324D01*
X82161500Y-160520186D01*
X83959500Y-160520186D01*
X83959500Y-160789813D01*
X83989686Y-161057719D01*
X83989688Y-161057731D01*
X84049684Y-161320594D01*
X84049687Y-161320602D01*
X84138734Y-161575082D01*
X84255714Y-161817994D01*
X84255716Y-161817997D01*
X84399162Y-162046289D01*
X84481234Y-162149204D01*
X84562014Y-162250500D01*
X84567266Y-162257085D01*
X84757915Y-162447734D01*
X84968711Y-162615838D01*
X85197003Y-162759284D01*
X85439921Y-162876267D01*
X85631049Y-162943145D01*
X85694397Y-162965312D01*
X85694405Y-162965315D01*
X85694408Y-162965315D01*
X85694409Y-162965316D01*
X85957268Y-163025312D01*
X86225187Y-163055499D01*
X86225188Y-163055500D01*
X86225191Y-163055500D01*
X86494812Y-163055500D01*
X86494812Y-163055499D01*
X86762732Y-163025312D01*
X87025591Y-162965316D01*
X87280079Y-162876267D01*
X87280087Y-162876263D01*
X87280090Y-162876262D01*
X87309874Y-162861919D01*
X87309876Y-162861918D01*
X87461951Y-162788682D01*
X87522997Y-162759284D01*
X87751289Y-162615838D01*
X87962085Y-162447734D01*
X88152734Y-162257085D01*
X88320838Y-162046289D01*
X88464284Y-161817997D01*
X88581267Y-161575079D01*
X88670316Y-161320591D01*
X88730312Y-161057732D01*
X88760500Y-160789809D01*
X88760500Y-160520191D01*
X88730312Y-160252268D01*
X88670316Y-159989409D01*
X88581267Y-159734921D01*
X88464284Y-159492003D01*
X88320838Y-159263711D01*
X88152734Y-159052915D01*
X87962085Y-158862266D01*
X87751289Y-158694162D01*
X87522997Y-158550716D01*
X87522994Y-158550714D01*
X87280082Y-158433734D01*
X87025602Y-158344687D01*
X87025594Y-158344684D01*
X86828446Y-158299687D01*
X86762732Y-158284688D01*
X86762728Y-158284687D01*
X86762719Y-158284686D01*
X86494813Y-158254500D01*
X86494809Y-158254500D01*
X86225191Y-158254500D01*
X86225186Y-158254500D01*
X85957280Y-158284686D01*
X85957268Y-158284688D01*
X85694405Y-158344684D01*
X85694397Y-158344687D01*
X85439917Y-158433734D01*
X85197005Y-158550714D01*
X84968712Y-158694161D01*
X84757915Y-158862265D01*
X84567265Y-159052915D01*
X84399161Y-159263712D01*
X84255714Y-159492005D01*
X84138734Y-159734917D01*
X84049687Y-159989397D01*
X84049684Y-159989405D01*
X83989688Y-160252268D01*
X83989686Y-160252280D01*
X83959500Y-160520186D01*
X82161500Y-160520186D01*
X82161500Y-154332135D01*
X93169500Y-154332135D01*
X93169500Y-156227870D01*
X93169501Y-156227876D01*
X93175908Y-156287483D01*
X93226202Y-156422328D01*
X93226206Y-156422335D01*
X93312452Y-156537544D01*
X93312455Y-156537547D01*
X93427664Y-156623793D01*
X93427671Y-156623797D01*
X93562517Y-156674091D01*
X93562516Y-156674091D01*
X93569444Y-156674835D01*
X93622127Y-156680500D01*
X95517872Y-156680499D01*
X95577483Y-156674091D01*
X95712331Y-156623796D01*
X95827546Y-156537546D01*
X95913796Y-156422331D01*
X95964091Y-156287483D01*
X95970500Y-156227873D01*
X95970499Y-155169818D01*
X96570000Y-155169818D01*
X96570000Y-155390181D01*
X96604473Y-155607835D01*
X96672567Y-155817410D01*
X96772611Y-156013756D01*
X96818932Y-156077513D01*
X97446212Y-155450233D01*
X97457482Y-155492292D01*
X97529890Y-155617708D01*
X97632292Y-155720110D01*
X97757708Y-155792518D01*
X97799765Y-155803787D01*
X97172485Y-156431065D01*
X97172485Y-156431066D01*
X97236243Y-156477388D01*
X97432589Y-156577432D01*
X97642164Y-156645526D01*
X97859819Y-156680000D01*
X98080181Y-156680000D01*
X98297835Y-156645526D01*
X98507410Y-156577432D01*
X98703760Y-156477386D01*
X98767513Y-156431066D01*
X98767514Y-156431066D01*
X98140234Y-155803787D01*
X98182292Y-155792518D01*
X98307708Y-155720110D01*
X98410110Y-155617708D01*
X98482518Y-155492292D01*
X98493787Y-155450235D01*
X99121066Y-156077514D01*
X99121066Y-156077513D01*
X99167386Y-156013760D01*
X99267432Y-155817410D01*
X99335526Y-155607835D01*
X99370000Y-155390181D01*
X99370000Y-155169818D01*
X99970000Y-155169818D01*
X99970000Y-155390181D01*
X100004473Y-155607835D01*
X100072567Y-155817410D01*
X100172611Y-156013756D01*
X100218932Y-156077513D01*
X100846212Y-155450233D01*
X100857482Y-155492292D01*
X100929890Y-155617708D01*
X101032292Y-155720110D01*
X101157708Y-155792518D01*
X101199765Y-155803787D01*
X100572485Y-156431065D01*
X100572485Y-156431066D01*
X100636243Y-156477388D01*
X100832589Y-156577432D01*
X101042164Y-156645526D01*
X101259819Y-156680000D01*
X101480181Y-156680000D01*
X101697835Y-156645526D01*
X101907410Y-156577432D01*
X102103760Y-156477386D01*
X102167513Y-156431066D01*
X102167514Y-156431066D01*
X101540234Y-155803787D01*
X101582292Y-155792518D01*
X101707708Y-155720110D01*
X101810110Y-155617708D01*
X101882518Y-155492292D01*
X101893787Y-155450235D01*
X102521066Y-156077514D01*
X102521066Y-156077513D01*
X102567386Y-156013760D01*
X102667432Y-155817410D01*
X102735526Y-155607835D01*
X102770000Y-155390181D01*
X102770000Y-155169818D01*
X102735526Y-154952164D01*
X102667432Y-154742589D01*
X102567388Y-154546243D01*
X102521066Y-154482485D01*
X102521065Y-154482485D01*
X101893787Y-155109764D01*
X101882518Y-155067708D01*
X101810110Y-154942292D01*
X101707708Y-154839890D01*
X101582292Y-154767482D01*
X101540232Y-154756212D01*
X102167513Y-154128932D01*
X102103756Y-154082611D01*
X101907410Y-153982567D01*
X101697835Y-153914473D01*
X101480181Y-153880000D01*
X101259819Y-153880000D01*
X101042164Y-153914473D01*
X100832589Y-153982567D01*
X100636233Y-154082616D01*
X100572485Y-154128931D01*
X100572485Y-154128932D01*
X101199765Y-154756212D01*
X101157708Y-154767482D01*
X101032292Y-154839890D01*
X100929890Y-154942292D01*
X100857482Y-155067708D01*
X100846212Y-155109765D01*
X100218932Y-154482485D01*
X100218931Y-154482485D01*
X100172616Y-154546233D01*
X100072567Y-154742589D01*
X100004473Y-154952164D01*
X99970000Y-155169818D01*
X99370000Y-155169818D01*
X99335526Y-154952164D01*
X99267432Y-154742589D01*
X99167388Y-154546243D01*
X99121066Y-154482485D01*
X99121065Y-154482485D01*
X98493787Y-155109764D01*
X98482518Y-155067708D01*
X98410110Y-154942292D01*
X98307708Y-154839890D01*
X98182292Y-154767482D01*
X98140232Y-154756212D01*
X98767513Y-154128932D01*
X98703756Y-154082611D01*
X98507410Y-153982567D01*
X98297835Y-153914473D01*
X98080181Y-153880000D01*
X97859819Y-153880000D01*
X97642164Y-153914473D01*
X97432589Y-153982567D01*
X97236233Y-154082616D01*
X97172485Y-154128931D01*
X97172485Y-154128932D01*
X97799765Y-154756212D01*
X97757708Y-154767482D01*
X97632292Y-154839890D01*
X97529890Y-154942292D01*
X97457482Y-155067708D01*
X97446212Y-155109765D01*
X96818932Y-154482485D01*
X96818931Y-154482485D01*
X96772616Y-154546233D01*
X96672567Y-154742589D01*
X96604473Y-154952164D01*
X96570000Y-155169818D01*
X95970499Y-155169818D01*
X95970499Y-154332128D01*
X95964091Y-154272517D01*
X95913796Y-154137669D01*
X95913795Y-154137668D01*
X95913793Y-154137664D01*
X95827547Y-154022455D01*
X95827544Y-154022452D01*
X95712335Y-153936206D01*
X95712328Y-153936202D01*
X95577482Y-153885908D01*
X95577483Y-153885908D01*
X95517883Y-153879501D01*
X95517881Y-153879500D01*
X95517873Y-153879500D01*
X95517864Y-153879500D01*
X93622129Y-153879500D01*
X93622123Y-153879501D01*
X93562516Y-153885908D01*
X93427671Y-153936202D01*
X93427664Y-153936206D01*
X93312455Y-154022452D01*
X93312452Y-154022455D01*
X93226206Y-154137664D01*
X93226202Y-154137671D01*
X93175908Y-154272517D01*
X93169501Y-154332116D01*
X93169501Y-154332123D01*
X93169500Y-154332135D01*
X82161500Y-154332135D01*
X82161500Y-151469778D01*
X94869500Y-151469778D01*
X94869500Y-151690221D01*
X94903985Y-151907952D01*
X94972103Y-152117603D01*
X94972104Y-152117606D01*
X95072187Y-152314025D01*
X95201752Y-152492358D01*
X95201756Y-152492363D01*
X95357636Y-152648243D01*
X95357641Y-152648247D01*
X95513192Y-152761260D01*
X95535978Y-152777815D01*
X95664375Y-152843237D01*
X95732393Y-152877895D01*
X95732396Y-152877896D01*
X95837221Y-152911955D01*
X95942049Y-152946015D01*
X96159778Y-152980500D01*
X96159779Y-152980500D01*
X96380221Y-152980500D01*
X96380222Y-152980500D01*
X96597951Y-152946015D01*
X96807606Y-152877895D01*
X97004022Y-152777815D01*
X97182365Y-152648242D01*
X97338242Y-152492365D01*
X97467815Y-152314022D01*
X97567895Y-152117606D01*
X97636015Y-151907951D01*
X97670500Y-151690222D01*
X97670500Y-151469778D01*
X98269500Y-151469778D01*
X98269500Y-151690221D01*
X98303985Y-151907952D01*
X98372103Y-152117603D01*
X98372104Y-152117606D01*
X98472187Y-152314025D01*
X98601752Y-152492358D01*
X98601756Y-152492363D01*
X98757636Y-152648243D01*
X98757641Y-152648247D01*
X98913192Y-152761260D01*
X98935978Y-152777815D01*
X99064375Y-152843237D01*
X99132393Y-152877895D01*
X99132396Y-152877896D01*
X99237221Y-152911955D01*
X99342049Y-152946015D01*
X99559778Y-152980500D01*
X99559779Y-152980500D01*
X99780221Y-152980500D01*
X99780222Y-152980500D01*
X99997951Y-152946015D01*
X100207606Y-152877895D01*
X100404022Y-152777815D01*
X100582365Y-152648242D01*
X100738242Y-152492365D01*
X100738244Y-152492361D01*
X100738247Y-152492359D01*
X100782380Y-152431615D01*
X100786711Y-152428274D01*
X100788985Y-152423297D01*
X100814084Y-152407166D01*
X100837709Y-152388949D01*
X100844382Y-152387695D01*
X100847763Y-152385523D01*
X100882698Y-152380500D01*
X100997060Y-152380500D01*
X101064099Y-152400185D01*
X101084741Y-152416819D01*
X107363181Y-158695259D01*
X107396666Y-158756582D01*
X107399500Y-158782940D01*
X107399500Y-160749562D01*
X107379815Y-160816601D01*
X107378603Y-160818451D01*
X107357678Y-160849768D01*
X107286027Y-161022748D01*
X107286025Y-161022756D01*
X107249500Y-161206379D01*
X107249500Y-161206383D01*
X107249500Y-161206384D01*
X107249500Y-161393616D01*
X107249501Y-161393620D01*
X107263280Y-161462895D01*
X107257051Y-161532486D01*
X107214188Y-161587663D01*
X107148298Y-161610907D01*
X107080301Y-161594839D01*
X107053981Y-161574766D01*
X106927466Y-161448251D01*
X106927462Y-161448248D01*
X106763684Y-161338814D01*
X106763671Y-161338807D01*
X106581691Y-161263429D01*
X106581683Y-161263427D01*
X106540000Y-161255135D01*
X106540000Y-162058011D01*
X106530060Y-162040795D01*
X106474205Y-161984940D01*
X106405796Y-161945444D01*
X106329496Y-161925000D01*
X106250504Y-161925000D01*
X106174204Y-161945444D01*
X106105795Y-161984940D01*
X106049940Y-162040795D01*
X106040000Y-162058011D01*
X106040000Y-161255136D01*
X106039999Y-161255135D01*
X105998316Y-161263427D01*
X105998308Y-161263429D01*
X105816328Y-161338807D01*
X105816315Y-161338814D01*
X105652537Y-161448248D01*
X105652533Y-161448251D01*
X105513251Y-161587533D01*
X105513248Y-161587537D01*
X105403814Y-161751315D01*
X105403807Y-161751328D01*
X105328430Y-161933306D01*
X105328427Y-161933318D01*
X105290000Y-162126504D01*
X105290000Y-162525000D01*
X105990000Y-162525000D01*
X105990000Y-163025000D01*
X105290000Y-163025000D01*
X105290000Y-163423495D01*
X105328427Y-163616681D01*
X105328430Y-163616693D01*
X105403807Y-163798671D01*
X105403814Y-163798684D01*
X105513248Y-163962462D01*
X105513251Y-163962466D01*
X105652533Y-164101748D01*
X105652537Y-164101751D01*
X105816315Y-164211185D01*
X105816328Y-164211192D01*
X105998308Y-164286569D01*
X106040000Y-164294862D01*
X106040000Y-163491988D01*
X106049940Y-163509205D01*
X106105795Y-163565060D01*
X106174204Y-163604556D01*
X106250504Y-163625000D01*
X106329496Y-163625000D01*
X106405796Y-163604556D01*
X106474205Y-163565060D01*
X106530060Y-163509205D01*
X106540000Y-163491988D01*
X106540000Y-164294862D01*
X106581690Y-164286569D01*
X106581692Y-164286569D01*
X106763671Y-164211192D01*
X106763684Y-164211185D01*
X106927462Y-164101751D01*
X106927466Y-164101748D01*
X107066748Y-163962466D01*
X107066751Y-163962462D01*
X107176185Y-163798684D01*
X107176186Y-163798682D01*
X107180129Y-163789163D01*
X107223968Y-163734757D01*
X107290261Y-163712689D01*
X107357961Y-163729965D01*
X107363400Y-163733647D01*
X107366634Y-163735514D01*
X107366635Y-163735515D01*
X107497865Y-163811281D01*
X107644234Y-163850500D01*
X107644236Y-163850500D01*
X107795764Y-163850500D01*
X107795766Y-163850500D01*
X107942135Y-163811281D01*
X108073365Y-163735515D01*
X108180515Y-163628365D01*
X108256281Y-163497135D01*
X108295500Y-163350766D01*
X108295500Y-163199234D01*
X108256281Y-163052865D01*
X108180515Y-162921635D01*
X108073365Y-162814485D01*
X107983020Y-162762324D01*
X107942136Y-162738719D01*
X107868950Y-162719109D01*
X107795766Y-162699500D01*
X107644234Y-162699500D01*
X107497863Y-162738719D01*
X107366635Y-162814485D01*
X107366632Y-162814487D01*
X107259487Y-162921632D01*
X107259483Y-162921638D01*
X107235603Y-162963000D01*
X107185036Y-163011216D01*
X107128216Y-163025000D01*
X106590000Y-163025000D01*
X106590000Y-162525000D01*
X107290000Y-162525000D01*
X107290000Y-162126508D01*
X107289999Y-162126507D01*
X107272339Y-162037721D01*
X107278566Y-161968129D01*
X107321429Y-161912952D01*
X107387319Y-161889707D01*
X107455316Y-161905775D01*
X107481637Y-161925848D01*
X107594088Y-162038299D01*
X107594092Y-162038302D01*
X107749762Y-162142318D01*
X107749771Y-162142323D01*
X107788956Y-162158554D01*
X107922749Y-162213973D01*
X108106379Y-162250499D01*
X108106383Y-162250500D01*
X108106384Y-162250500D01*
X108293617Y-162250500D01*
X108293618Y-162250499D01*
X108477251Y-162213973D01*
X108650231Y-162142322D01*
X108805908Y-162038302D01*
X108938302Y-161905908D01*
X109042322Y-161750231D01*
X109113973Y-161577251D01*
X109150500Y-161393616D01*
X109150500Y-161206384D01*
X109113973Y-161022749D01*
X109042322Y-160849769D01*
X109035590Y-160839693D01*
X109021397Y-160818451D01*
X109015746Y-160800405D01*
X109005523Y-160784497D01*
X109001071Y-160753534D01*
X109000520Y-160751774D01*
X109000500Y-160749562D01*
X109000500Y-160631939D01*
X109020185Y-160564900D01*
X109072989Y-160519145D01*
X109142147Y-160509201D01*
X109205703Y-160538226D01*
X109212181Y-160544258D01*
X110473870Y-161805947D01*
X110473891Y-161805970D01*
X110589707Y-161921786D01*
X110589711Y-161921789D01*
X110720814Y-162009390D01*
X110720827Y-162009397D01*
X110796630Y-162040795D01*
X110866503Y-162069737D01*
X110866507Y-162069737D01*
X110866508Y-162069738D01*
X111021154Y-162100500D01*
X111021157Y-162100500D01*
X111021158Y-162100500D01*
X112461563Y-162100500D01*
X112528602Y-162120185D01*
X112530455Y-162121399D01*
X112561760Y-162142317D01*
X112561771Y-162142323D01*
X112600956Y-162158554D01*
X112734749Y-162213973D01*
X112918379Y-162250499D01*
X112918383Y-162250500D01*
X112918384Y-162250500D01*
X113105617Y-162250500D01*
X113105618Y-162250499D01*
X113289251Y-162213973D01*
X113462231Y-162142322D01*
X113617908Y-162038302D01*
X113740349Y-161915860D01*
X113801670Y-161882377D01*
X113871362Y-161887361D01*
X113927296Y-161929232D01*
X113951713Y-161994696D01*
X113949647Y-162027733D01*
X113930000Y-162126510D01*
X113930000Y-162525000D01*
X114630000Y-162525000D01*
X114630000Y-163025000D01*
X114091784Y-163025000D01*
X114024745Y-163005315D01*
X113984397Y-162963000D01*
X113983607Y-162961632D01*
X113960515Y-162921635D01*
X113853365Y-162814485D01*
X113763020Y-162762324D01*
X113722136Y-162738719D01*
X113648950Y-162719109D01*
X113575766Y-162699500D01*
X113424234Y-162699500D01*
X113277863Y-162738719D01*
X113146635Y-162814485D01*
X113146632Y-162814487D01*
X113039487Y-162921632D01*
X113039485Y-162921635D01*
X112963719Y-163052863D01*
X112924500Y-163199234D01*
X112924500Y-163350765D01*
X112963719Y-163497136D01*
X112993782Y-163549205D01*
X113039485Y-163628365D01*
X113146635Y-163735515D01*
X113277865Y-163811281D01*
X113424234Y-163850500D01*
X113424236Y-163850500D01*
X113575764Y-163850500D01*
X113575766Y-163850500D01*
X113722135Y-163811281D01*
X113853365Y-163735515D01*
X113853366Y-163735513D01*
X113860403Y-163731451D01*
X113861676Y-163733656D01*
X113914956Y-163713043D01*
X113983405Y-163727063D01*
X114033407Y-163775864D01*
X114039867Y-163789157D01*
X114043809Y-163798674D01*
X114043814Y-163798684D01*
X114153248Y-163962462D01*
X114153251Y-163962466D01*
X114292533Y-164101748D01*
X114292537Y-164101751D01*
X114456315Y-164211185D01*
X114456328Y-164211192D01*
X114638308Y-164286569D01*
X114680000Y-164294862D01*
X114680000Y-163491988D01*
X114689940Y-163509205D01*
X114745795Y-163565060D01*
X114814204Y-163604556D01*
X114890504Y-163625000D01*
X114969496Y-163625000D01*
X115045796Y-163604556D01*
X115114205Y-163565060D01*
X115170060Y-163509205D01*
X115180000Y-163491988D01*
X115180000Y-164294862D01*
X115221690Y-164286569D01*
X115221692Y-164286569D01*
X115403671Y-164211192D01*
X115403684Y-164211185D01*
X115567462Y-164101751D01*
X115567466Y-164101748D01*
X115706748Y-163962466D01*
X115706751Y-163962462D01*
X115816185Y-163798684D01*
X115816192Y-163798671D01*
X115891569Y-163616693D01*
X115891572Y-163616681D01*
X115929999Y-163423495D01*
X115930000Y-163423492D01*
X115930000Y-163025000D01*
X115230000Y-163025000D01*
X115230000Y-162525000D01*
X115930000Y-162525000D01*
X115930000Y-162166504D01*
X138110000Y-162166504D01*
X138110000Y-162565000D01*
X138810000Y-162565000D01*
X138810000Y-163065000D01*
X138110000Y-163065000D01*
X138110000Y-163463495D01*
X138148427Y-163656681D01*
X138148430Y-163656693D01*
X138223807Y-163838671D01*
X138223814Y-163838684D01*
X138333248Y-164002462D01*
X138333251Y-164002466D01*
X138472533Y-164141748D01*
X138472537Y-164141751D01*
X138636315Y-164251185D01*
X138636328Y-164251192D01*
X138818308Y-164326569D01*
X138860000Y-164334862D01*
X138860000Y-163531988D01*
X138869940Y-163549205D01*
X138925795Y-163605060D01*
X138994204Y-163644556D01*
X139070504Y-163665000D01*
X139149496Y-163665000D01*
X139225796Y-163644556D01*
X139294205Y-163605060D01*
X139350060Y-163549205D01*
X139360000Y-163531988D01*
X139360000Y-164334862D01*
X139401690Y-164326569D01*
X139401692Y-164326569D01*
X139583671Y-164251192D01*
X139583684Y-164251185D01*
X139747462Y-164141751D01*
X139747466Y-164141748D01*
X139886748Y-164002466D01*
X139886751Y-164002462D01*
X139996185Y-163838684D01*
X139996186Y-163838682D01*
X140000129Y-163829163D01*
X140043968Y-163774757D01*
X140110261Y-163752689D01*
X140177961Y-163769965D01*
X140183400Y-163773647D01*
X140186634Y-163775514D01*
X140186635Y-163775515D01*
X140226761Y-163798682D01*
X140316510Y-163850499D01*
X140317865Y-163851281D01*
X140464234Y-163890500D01*
X140464236Y-163890500D01*
X140615764Y-163890500D01*
X140615766Y-163890500D01*
X140762135Y-163851281D01*
X140893365Y-163775515D01*
X141000515Y-163668365D01*
X141076281Y-163537135D01*
X141115500Y-163390766D01*
X141115500Y-163239234D01*
X145744500Y-163239234D01*
X145744500Y-163390765D01*
X145783719Y-163537136D01*
X145821602Y-163602750D01*
X145859485Y-163668365D01*
X145966635Y-163775515D01*
X146080281Y-163841129D01*
X146096510Y-163850499D01*
X146097865Y-163851281D01*
X146244234Y-163890500D01*
X146244236Y-163890500D01*
X146395764Y-163890500D01*
X146395766Y-163890500D01*
X146542135Y-163851281D01*
X146673365Y-163775515D01*
X146673366Y-163775513D01*
X146680403Y-163771451D01*
X146681676Y-163773656D01*
X146734956Y-163753043D01*
X146803405Y-163767063D01*
X146853407Y-163815864D01*
X146859867Y-163829157D01*
X146863809Y-163838674D01*
X146863814Y-163838684D01*
X146973248Y-164002462D01*
X146973251Y-164002466D01*
X147112533Y-164141748D01*
X147112537Y-164141751D01*
X147276315Y-164251185D01*
X147276328Y-164251192D01*
X147458308Y-164326569D01*
X147500000Y-164334862D01*
X147500000Y-163531988D01*
X147509940Y-163549205D01*
X147565795Y-163605060D01*
X147634204Y-163644556D01*
X147710504Y-163665000D01*
X147789496Y-163665000D01*
X147865796Y-163644556D01*
X147934205Y-163605060D01*
X147990060Y-163549205D01*
X148000000Y-163531988D01*
X148000000Y-164334862D01*
X148041690Y-164326569D01*
X148041692Y-164326569D01*
X148223671Y-164251192D01*
X148223684Y-164251185D01*
X148387462Y-164141751D01*
X148387466Y-164141748D01*
X148526748Y-164002466D01*
X148526751Y-164002462D01*
X148636185Y-163838684D01*
X148636192Y-163838671D01*
X148711569Y-163656693D01*
X148711572Y-163656681D01*
X148749999Y-163463495D01*
X148750000Y-163463492D01*
X148750000Y-163065000D01*
X148050000Y-163065000D01*
X148050000Y-162565000D01*
X148750000Y-162565000D01*
X148750000Y-162166508D01*
X148749999Y-162166504D01*
X148711572Y-161973318D01*
X148711569Y-161973306D01*
X148636192Y-161791328D01*
X148636185Y-161791315D01*
X148526751Y-161627537D01*
X148526748Y-161627533D01*
X148387466Y-161488251D01*
X148387462Y-161488248D01*
X148223684Y-161378814D01*
X148223671Y-161378807D01*
X148041691Y-161303429D01*
X148041683Y-161303427D01*
X148000000Y-161295135D01*
X148000000Y-162098011D01*
X147990060Y-162080795D01*
X147934205Y-162024940D01*
X147865796Y-161985444D01*
X147789496Y-161965000D01*
X147710504Y-161965000D01*
X147634204Y-161985444D01*
X147565795Y-162024940D01*
X147509940Y-162080795D01*
X147500000Y-162098011D01*
X147500000Y-161295136D01*
X147499999Y-161295135D01*
X147458316Y-161303427D01*
X147458308Y-161303429D01*
X147276328Y-161378807D01*
X147276315Y-161378814D01*
X147112537Y-161488248D01*
X147112533Y-161488251D01*
X146973251Y-161627533D01*
X146973248Y-161627537D01*
X146863814Y-161791315D01*
X146863807Y-161791328D01*
X146788430Y-161973306D01*
X146788427Y-161973318D01*
X146750000Y-162166504D01*
X146750000Y-162565000D01*
X147450000Y-162565000D01*
X147450000Y-163065000D01*
X146911784Y-163065000D01*
X146844745Y-163045315D01*
X146804397Y-163003000D01*
X146782640Y-162965316D01*
X146780515Y-162961635D01*
X146673365Y-162854485D01*
X146602699Y-162813686D01*
X146542136Y-162778719D01*
X146468950Y-162759109D01*
X146395766Y-162739500D01*
X146244234Y-162739500D01*
X146097863Y-162778719D01*
X145966635Y-162854485D01*
X145966632Y-162854487D01*
X145859487Y-162961632D01*
X145859485Y-162961635D01*
X145783719Y-163092863D01*
X145744500Y-163239234D01*
X141115500Y-163239234D01*
X141076281Y-163092865D01*
X141072832Y-163086892D01*
X141054708Y-163055500D01*
X141000515Y-162961635D01*
X140893365Y-162854485D01*
X140822699Y-162813686D01*
X140762136Y-162778719D01*
X140688950Y-162759109D01*
X140615766Y-162739500D01*
X140464234Y-162739500D01*
X140317863Y-162778719D01*
X140186635Y-162854485D01*
X140186632Y-162854487D01*
X140079487Y-162961632D01*
X140079483Y-162961638D01*
X140055603Y-163003000D01*
X140005036Y-163051216D01*
X139948216Y-163065000D01*
X139410000Y-163065000D01*
X139410000Y-162565000D01*
X140110000Y-162565000D01*
X140110000Y-162166508D01*
X140109999Y-162166504D01*
X140071572Y-161973318D01*
X140071569Y-161973306D01*
X139996192Y-161791328D01*
X139996185Y-161791315D01*
X139886751Y-161627537D01*
X139886748Y-161627533D01*
X139747466Y-161488251D01*
X139747462Y-161488248D01*
X139583684Y-161378814D01*
X139583671Y-161378807D01*
X139401691Y-161303429D01*
X139401683Y-161303427D01*
X139360000Y-161295135D01*
X139360000Y-162098011D01*
X139350060Y-162080795D01*
X139294205Y-162024940D01*
X139225796Y-161985444D01*
X139149496Y-161965000D01*
X139070504Y-161965000D01*
X138994204Y-161985444D01*
X138925795Y-162024940D01*
X138869940Y-162080795D01*
X138860000Y-162098011D01*
X138860000Y-161295136D01*
X138859999Y-161295135D01*
X138818316Y-161303427D01*
X138818308Y-161303429D01*
X138636328Y-161378807D01*
X138636315Y-161378814D01*
X138472537Y-161488248D01*
X138472533Y-161488251D01*
X138333251Y-161627533D01*
X138333248Y-161627537D01*
X138223814Y-161791315D01*
X138223807Y-161791328D01*
X138148430Y-161973306D01*
X138148427Y-161973318D01*
X138110000Y-162166504D01*
X115930000Y-162166504D01*
X115930000Y-162126508D01*
X115929999Y-162126504D01*
X115891572Y-161933318D01*
X115891569Y-161933306D01*
X115816192Y-161751328D01*
X115816185Y-161751315D01*
X115706751Y-161587537D01*
X115706748Y-161587533D01*
X115567466Y-161448251D01*
X115567462Y-161448248D01*
X115403684Y-161338814D01*
X115403671Y-161338807D01*
X115221691Y-161263429D01*
X115221683Y-161263427D01*
X115180000Y-161255135D01*
X115180000Y-162058011D01*
X115170060Y-162040795D01*
X115114205Y-161984940D01*
X115045796Y-161945444D01*
X114969496Y-161925000D01*
X114890504Y-161925000D01*
X114814204Y-161945444D01*
X114745795Y-161984940D01*
X114689940Y-162040795D01*
X114680000Y-162058011D01*
X114680000Y-161255136D01*
X114679999Y-161255135D01*
X114638316Y-161263427D01*
X114638308Y-161263429D01*
X114456328Y-161338807D01*
X114456315Y-161338814D01*
X114292537Y-161448248D01*
X114156031Y-161584754D01*
X114094708Y-161618238D01*
X114025016Y-161613254D01*
X113969083Y-161571382D01*
X113944666Y-161505918D01*
X113946732Y-161472883D01*
X113962500Y-161393616D01*
X113962500Y-161206384D01*
X113925973Y-161022749D01*
X113854322Y-160849769D01*
X113854321Y-160849768D01*
X113854318Y-160849762D01*
X113750302Y-160694092D01*
X113750299Y-160694088D01*
X113617911Y-160561700D01*
X113617907Y-160561697D01*
X113462237Y-160457681D01*
X113462228Y-160457676D01*
X113289251Y-160386027D01*
X113289243Y-160386025D01*
X113105620Y-160349500D01*
X113105616Y-160349500D01*
X112918384Y-160349500D01*
X112918379Y-160349500D01*
X112734756Y-160386025D01*
X112734748Y-160386027D01*
X112561771Y-160457676D01*
X112561760Y-160457682D01*
X112530455Y-160478601D01*
X112463778Y-160499480D01*
X112461563Y-160499500D01*
X111482939Y-160499500D01*
X111415900Y-160479815D01*
X111395258Y-160463181D01*
X108710289Y-157778211D01*
X104538566Y-153606487D01*
X104454214Y-153522135D01*
X126369500Y-153522135D01*
X126369500Y-155417870D01*
X126369501Y-155417876D01*
X126375908Y-155477483D01*
X126426202Y-155612328D01*
X126426206Y-155612335D01*
X126512452Y-155727544D01*
X126512455Y-155727547D01*
X126627664Y-155813793D01*
X126627671Y-155813797D01*
X126762517Y-155864091D01*
X126762516Y-155864091D01*
X126769444Y-155864835D01*
X126822127Y-155870500D01*
X128717872Y-155870499D01*
X128777483Y-155864091D01*
X128912331Y-155813796D01*
X129027546Y-155727546D01*
X129113796Y-155612331D01*
X129164091Y-155477483D01*
X129170500Y-155417873D01*
X129170499Y-154359818D01*
X129770000Y-154359818D01*
X129770000Y-154580181D01*
X129804473Y-154797835D01*
X129872567Y-155007410D01*
X129972611Y-155203756D01*
X130018932Y-155267513D01*
X130646212Y-154640233D01*
X130657482Y-154682292D01*
X130729890Y-154807708D01*
X130832292Y-154910110D01*
X130957708Y-154982518D01*
X130999765Y-154993787D01*
X130372485Y-155621065D01*
X130372485Y-155621066D01*
X130436243Y-155667388D01*
X130632589Y-155767432D01*
X130842164Y-155835526D01*
X131059819Y-155870000D01*
X131280181Y-155870000D01*
X131497835Y-155835526D01*
X131707410Y-155767432D01*
X131903760Y-155667386D01*
X131967513Y-155621066D01*
X131967514Y-155621066D01*
X131340234Y-154993787D01*
X131382292Y-154982518D01*
X131507708Y-154910110D01*
X131610110Y-154807708D01*
X131682518Y-154682292D01*
X131693787Y-154640235D01*
X132321066Y-155267514D01*
X132321066Y-155267513D01*
X132367386Y-155203760D01*
X132467432Y-155007410D01*
X132535526Y-154797835D01*
X132570000Y-154580181D01*
X132570000Y-154359818D01*
X133170000Y-154359818D01*
X133170000Y-154580181D01*
X133204473Y-154797835D01*
X133272567Y-155007410D01*
X133372611Y-155203756D01*
X133418932Y-155267513D01*
X134046212Y-154640233D01*
X134057482Y-154682292D01*
X134129890Y-154807708D01*
X134232292Y-154910110D01*
X134357708Y-154982518D01*
X134399765Y-154993787D01*
X133772485Y-155621065D01*
X133772485Y-155621066D01*
X133836243Y-155667388D01*
X134032589Y-155767432D01*
X134242164Y-155835526D01*
X134459819Y-155870000D01*
X134680181Y-155870000D01*
X134897835Y-155835526D01*
X135107410Y-155767432D01*
X135303760Y-155667386D01*
X135367513Y-155621066D01*
X135367514Y-155621066D01*
X134740234Y-154993787D01*
X134782292Y-154982518D01*
X134907708Y-154910110D01*
X135010110Y-154807708D01*
X135082518Y-154682292D01*
X135093787Y-154640235D01*
X135721066Y-155267514D01*
X135721066Y-155267513D01*
X135767386Y-155203760D01*
X135867432Y-155007410D01*
X135935526Y-154797835D01*
X135970000Y-154580181D01*
X135970000Y-154359818D01*
X135935526Y-154142164D01*
X135867432Y-153932589D01*
X135767388Y-153736243D01*
X135721066Y-153672485D01*
X135721065Y-153672485D01*
X135093787Y-154299764D01*
X135082518Y-154257708D01*
X135010110Y-154132292D01*
X134907708Y-154029890D01*
X134782292Y-153957482D01*
X134740232Y-153946212D01*
X135367513Y-153318932D01*
X135303756Y-153272611D01*
X135107410Y-153172567D01*
X134897835Y-153104473D01*
X134680181Y-153070000D01*
X134459819Y-153070000D01*
X134242164Y-153104473D01*
X134032589Y-153172567D01*
X133836233Y-153272616D01*
X133772485Y-153318931D01*
X133772485Y-153318932D01*
X134399765Y-153946212D01*
X134357708Y-153957482D01*
X134232292Y-154029890D01*
X134129890Y-154132292D01*
X134057482Y-154257708D01*
X134046212Y-154299765D01*
X133418932Y-153672485D01*
X133418931Y-153672485D01*
X133372616Y-153736233D01*
X133272567Y-153932589D01*
X133204473Y-154142164D01*
X133170000Y-154359818D01*
X132570000Y-154359818D01*
X132535526Y-154142164D01*
X132467432Y-153932589D01*
X132367388Y-153736243D01*
X132321066Y-153672485D01*
X132321065Y-153672485D01*
X131693787Y-154299764D01*
X131682518Y-154257708D01*
X131610110Y-154132292D01*
X131507708Y-154029890D01*
X131382292Y-153957482D01*
X131340232Y-153946212D01*
X131967513Y-153318932D01*
X131903756Y-153272611D01*
X131707410Y-153172567D01*
X131497835Y-153104473D01*
X131280181Y-153070000D01*
X131059819Y-153070000D01*
X130842164Y-153104473D01*
X130632589Y-153172567D01*
X130436233Y-153272616D01*
X130372485Y-153318931D01*
X130372485Y-153318932D01*
X130999765Y-153946212D01*
X130957708Y-153957482D01*
X130832292Y-154029890D01*
X130729890Y-154132292D01*
X130657482Y-154257708D01*
X130646212Y-154299765D01*
X130018932Y-153672485D01*
X130018931Y-153672485D01*
X129972616Y-153736233D01*
X129872567Y-153932589D01*
X129804473Y-154142164D01*
X129770000Y-154359818D01*
X129170499Y-154359818D01*
X129170499Y-153522128D01*
X129164091Y-153462517D01*
X129113796Y-153327669D01*
X129113795Y-153327668D01*
X129113793Y-153327664D01*
X129027547Y-153212455D01*
X129027544Y-153212452D01*
X128912335Y-153126206D01*
X128912328Y-153126202D01*
X128777482Y-153075908D01*
X128777483Y-153075908D01*
X128717883Y-153069501D01*
X128717881Y-153069500D01*
X128717873Y-153069500D01*
X128717864Y-153069500D01*
X126822129Y-153069500D01*
X126822123Y-153069501D01*
X126762516Y-153075908D01*
X126627671Y-153126202D01*
X126627664Y-153126206D01*
X126512455Y-153212452D01*
X126512452Y-153212455D01*
X126426206Y-153327664D01*
X126426202Y-153327671D01*
X126375908Y-153462517D01*
X126369501Y-153522116D01*
X126369501Y-153522123D01*
X126369500Y-153522135D01*
X104454214Y-153522135D01*
X101890292Y-150958213D01*
X101890288Y-150958210D01*
X101759185Y-150870609D01*
X101759172Y-150870602D01*
X101613501Y-150810264D01*
X101613489Y-150810261D01*
X101458845Y-150779500D01*
X101458842Y-150779500D01*
X100882698Y-150779500D01*
X100877477Y-150777967D01*
X100872146Y-150779050D01*
X100844311Y-150768228D01*
X100815659Y-150759815D01*
X100810748Y-150755179D01*
X100807025Y-150753732D01*
X100782415Y-150728433D01*
X100781983Y-150727839D01*
X100781974Y-150727816D01*
X100781947Y-150727790D01*
X100738245Y-150667638D01*
X100730385Y-150659778D01*
X128069500Y-150659778D01*
X128069500Y-150880221D01*
X128103985Y-151097952D01*
X128172103Y-151307603D01*
X128172104Y-151307606D01*
X128272187Y-151504025D01*
X128401752Y-151682358D01*
X128401756Y-151682363D01*
X128557636Y-151838243D01*
X128557641Y-151838247D01*
X128653583Y-151907952D01*
X128735978Y-151967815D01*
X128864375Y-152033237D01*
X128932393Y-152067895D01*
X128932396Y-152067896D01*
X129037221Y-152101955D01*
X129142049Y-152136015D01*
X129359778Y-152170500D01*
X129359779Y-152170500D01*
X129580221Y-152170500D01*
X129580222Y-152170500D01*
X129797951Y-152136015D01*
X130007606Y-152067895D01*
X130204022Y-151967815D01*
X130382365Y-151838242D01*
X130538242Y-151682365D01*
X130667815Y-151504022D01*
X130767895Y-151307606D01*
X130836015Y-151097951D01*
X130870500Y-150880222D01*
X130870500Y-150659778D01*
X131469500Y-150659778D01*
X131469500Y-150880221D01*
X131503985Y-151097952D01*
X131572103Y-151307603D01*
X131572104Y-151307606D01*
X131672187Y-151504025D01*
X131801752Y-151682358D01*
X131801756Y-151682363D01*
X131957636Y-151838243D01*
X131957641Y-151838247D01*
X132053583Y-151907952D01*
X132135978Y-151967815D01*
X132264375Y-152033237D01*
X132332393Y-152067895D01*
X132332396Y-152067896D01*
X132437221Y-152101955D01*
X132542049Y-152136015D01*
X132759778Y-152170500D01*
X132759779Y-152170500D01*
X132980221Y-152170500D01*
X132980222Y-152170500D01*
X133197951Y-152136015D01*
X133407606Y-152067895D01*
X133604022Y-151967815D01*
X133782365Y-151838242D01*
X133938242Y-151682365D01*
X134067815Y-151504022D01*
X134167895Y-151307606D01*
X134236015Y-151097951D01*
X134270500Y-150880222D01*
X134270500Y-150659778D01*
X134236015Y-150442049D01*
X134167895Y-150232394D01*
X134167895Y-150232393D01*
X134133237Y-150164375D01*
X134067815Y-150035978D01*
X134051260Y-150013192D01*
X133938247Y-149857641D01*
X133938243Y-149857636D01*
X133782363Y-149701756D01*
X133782358Y-149701752D01*
X133604025Y-149572187D01*
X133604024Y-149572186D01*
X133604022Y-149572185D01*
X133541096Y-149540122D01*
X133407606Y-149472104D01*
X133407603Y-149472103D01*
X133197952Y-149403985D01*
X133089086Y-149386742D01*
X132980222Y-149369500D01*
X132759778Y-149369500D01*
X132687201Y-149380995D01*
X132542047Y-149403985D01*
X132332396Y-149472103D01*
X132332393Y-149472104D01*
X132135974Y-149572187D01*
X131957641Y-149701752D01*
X131957636Y-149701756D01*
X131801756Y-149857636D01*
X131801752Y-149857641D01*
X131672187Y-150035974D01*
X131572104Y-150232393D01*
X131572103Y-150232396D01*
X131503985Y-150442047D01*
X131469500Y-150659778D01*
X130870500Y-150659778D01*
X130836015Y-150442049D01*
X130767895Y-150232394D01*
X130767895Y-150232393D01*
X130733237Y-150164375D01*
X130667815Y-150035978D01*
X130651260Y-150013192D01*
X130538247Y-149857641D01*
X130538243Y-149857636D01*
X130382363Y-149701756D01*
X130382358Y-149701752D01*
X130204025Y-149572187D01*
X130204024Y-149572186D01*
X130204022Y-149572185D01*
X130141096Y-149540122D01*
X130007606Y-149472104D01*
X130007603Y-149472103D01*
X129797952Y-149403985D01*
X129689086Y-149386742D01*
X129580222Y-149369500D01*
X129359778Y-149369500D01*
X129287201Y-149380995D01*
X129142047Y-149403985D01*
X128932396Y-149472103D01*
X128932393Y-149472104D01*
X128735974Y-149572187D01*
X128557641Y-149701752D01*
X128557636Y-149701756D01*
X128401756Y-149857636D01*
X128401752Y-149857641D01*
X128272187Y-150035974D01*
X128172104Y-150232393D01*
X128172103Y-150232396D01*
X128103985Y-150442047D01*
X128069500Y-150659778D01*
X100730385Y-150659778D01*
X100582363Y-150511756D01*
X100582358Y-150511752D01*
X100404025Y-150382187D01*
X100404024Y-150382186D01*
X100404022Y-150382185D01*
X100341096Y-150350122D01*
X100207606Y-150282104D01*
X100207603Y-150282103D01*
X99997952Y-150213985D01*
X99889086Y-150196742D01*
X99780222Y-150179500D01*
X99559778Y-150179500D01*
X99487201Y-150190995D01*
X99342047Y-150213985D01*
X99132396Y-150282103D01*
X99132393Y-150282104D01*
X98935974Y-150382187D01*
X98757641Y-150511752D01*
X98757636Y-150511756D01*
X98601756Y-150667636D01*
X98601752Y-150667641D01*
X98472187Y-150845974D01*
X98372104Y-151042393D01*
X98372103Y-151042396D01*
X98303985Y-151252047D01*
X98269500Y-151469778D01*
X97670500Y-151469778D01*
X97636015Y-151252049D01*
X97567895Y-151042394D01*
X97567895Y-151042393D01*
X97485263Y-150880222D01*
X97467815Y-150845978D01*
X97419189Y-150779050D01*
X97338247Y-150667641D01*
X97338243Y-150667636D01*
X97182363Y-150511756D01*
X97182358Y-150511752D01*
X97004025Y-150382187D01*
X97004024Y-150382186D01*
X97004022Y-150382185D01*
X96941096Y-150350122D01*
X96807606Y-150282104D01*
X96807603Y-150282103D01*
X96597952Y-150213985D01*
X96489086Y-150196742D01*
X96380222Y-150179500D01*
X96159778Y-150179500D01*
X96087201Y-150190995D01*
X95942047Y-150213985D01*
X95732396Y-150282103D01*
X95732393Y-150282104D01*
X95535974Y-150382187D01*
X95357641Y-150511752D01*
X95357636Y-150511756D01*
X95201756Y-150667636D01*
X95201752Y-150667641D01*
X95072187Y-150845974D01*
X94972104Y-151042393D01*
X94972103Y-151042396D01*
X94903985Y-151252047D01*
X94869500Y-151469778D01*
X82161500Y-151469778D01*
X82161500Y-139692186D01*
X144665500Y-139692186D01*
X144665500Y-139961813D01*
X144695686Y-140229719D01*
X144695688Y-140229731D01*
X144755684Y-140492594D01*
X144755687Y-140492602D01*
X144844734Y-140747082D01*
X144961714Y-140989994D01*
X144961716Y-140989997D01*
X145105162Y-141218289D01*
X145273266Y-141429085D01*
X145463915Y-141619734D01*
X145674711Y-141787838D01*
X145903003Y-141931284D01*
X146145921Y-142048267D01*
X146337049Y-142115145D01*
X146400397Y-142137312D01*
X146400405Y-142137315D01*
X146400408Y-142137315D01*
X146400409Y-142137316D01*
X146663268Y-142197312D01*
X146931187Y-142227499D01*
X146931188Y-142227500D01*
X146931191Y-142227500D01*
X147200812Y-142227500D01*
X147200812Y-142227499D01*
X147468732Y-142197312D01*
X147731591Y-142137316D01*
X147986079Y-142048267D01*
X148228997Y-141931284D01*
X148457289Y-141787838D01*
X148668085Y-141619734D01*
X148858734Y-141429085D01*
X149026838Y-141218289D01*
X149170284Y-140989997D01*
X149287267Y-140747079D01*
X149376316Y-140492591D01*
X149436312Y-140229732D01*
X149466500Y-139961809D01*
X149466500Y-139692191D01*
X149436312Y-139424268D01*
X149376316Y-139161409D01*
X149287267Y-138906921D01*
X149170284Y-138664003D01*
X149026838Y-138435711D01*
X148858734Y-138224915D01*
X148668085Y-138034266D01*
X148457289Y-137866162D01*
X148228997Y-137722716D01*
X148228994Y-137722714D01*
X147986082Y-137605734D01*
X147731602Y-137516687D01*
X147731594Y-137516684D01*
X147534446Y-137471687D01*
X147468732Y-137456688D01*
X147468728Y-137456687D01*
X147468719Y-137456686D01*
X147200813Y-137426500D01*
X147200809Y-137426500D01*
X146931191Y-137426500D01*
X146931186Y-137426500D01*
X146663280Y-137456686D01*
X146663268Y-137456688D01*
X146400405Y-137516684D01*
X146400397Y-137516687D01*
X146145917Y-137605734D01*
X145903005Y-137722714D01*
X145674712Y-137866161D01*
X145463915Y-138034265D01*
X145273265Y-138224915D01*
X145105161Y-138435712D01*
X144961714Y-138664005D01*
X144844734Y-138906917D01*
X144755687Y-139161397D01*
X144755684Y-139161405D01*
X144695688Y-139424268D01*
X144695686Y-139424280D01*
X144665500Y-139692186D01*
X82161500Y-139692186D01*
X82161500Y-127485803D01*
X88300000Y-127485803D01*
X88300000Y-128050000D01*
X89432096Y-128050000D01*
X89400000Y-128211358D01*
X89400000Y-128388642D01*
X89432096Y-128550000D01*
X88300001Y-128550000D01*
X88300001Y-129114197D01*
X88310400Y-129246332D01*
X88365377Y-129464519D01*
X88458428Y-129669374D01*
X88458431Y-129669380D01*
X88586559Y-129854323D01*
X88586569Y-129854335D01*
X88745664Y-130013430D01*
X88745676Y-130013440D01*
X88930619Y-130141568D01*
X88930625Y-130141571D01*
X89135480Y-130234622D01*
X89353667Y-130289599D01*
X89485810Y-130299999D01*
X90049999Y-130299999D01*
X90050000Y-130299998D01*
X90050000Y-129167904D01*
X90211358Y-129200000D01*
X90388642Y-129200000D01*
X90550000Y-129167904D01*
X90550000Y-130299999D01*
X91114182Y-130299999D01*
X91114197Y-130299998D01*
X91246332Y-130289599D01*
X91464519Y-130234622D01*
X91669374Y-130141571D01*
X91669380Y-130141568D01*
X91854323Y-130013440D01*
X91854335Y-130013430D01*
X92013430Y-129854335D01*
X92013440Y-129854323D01*
X92141568Y-129669380D01*
X92141571Y-129669374D01*
X92234622Y-129464519D01*
X92289599Y-129246332D01*
X92299999Y-129114196D01*
X92300000Y-129114184D01*
X92300000Y-128550000D01*
X91167904Y-128550000D01*
X91200000Y-128388642D01*
X91200000Y-128211358D01*
X91191549Y-128168872D01*
X93299500Y-128168872D01*
X93299500Y-128431127D01*
X93326123Y-128633339D01*
X93333730Y-128691116D01*
X93382658Y-128873717D01*
X93401602Y-128944418D01*
X93401605Y-128944428D01*
X93501953Y-129186690D01*
X93501958Y-129186700D01*
X93633075Y-129413803D01*
X93792718Y-129621851D01*
X93792726Y-129621860D01*
X93978140Y-129807274D01*
X93978148Y-129807281D01*
X94186196Y-129966924D01*
X94413299Y-130098041D01*
X94413309Y-130098046D01*
X94652206Y-130197000D01*
X94655581Y-130198398D01*
X94908884Y-130266270D01*
X95157188Y-130298960D01*
X95165074Y-130299999D01*
X95168880Y-130300500D01*
X95168887Y-130300500D01*
X95431113Y-130300500D01*
X95431120Y-130300500D01*
X95691116Y-130266270D01*
X95944419Y-130198398D01*
X96186697Y-130098043D01*
X96413803Y-129966924D01*
X96621851Y-129807282D01*
X96621855Y-129807277D01*
X96621860Y-129807274D01*
X96807274Y-129621860D01*
X96807277Y-129621855D01*
X96807282Y-129621851D01*
X96966924Y-129413803D01*
X97098043Y-129186697D01*
X97198398Y-128944419D01*
X97266270Y-128691116D01*
X97300500Y-128431120D01*
X97300500Y-128168880D01*
X97266270Y-127908884D01*
X97198398Y-127655581D01*
X97198394Y-127655571D01*
X97098046Y-127413309D01*
X97098041Y-127413299D01*
X96966924Y-127186196D01*
X96807281Y-126978148D01*
X96807274Y-126978140D01*
X96621860Y-126792726D01*
X96621851Y-126792718D01*
X96413803Y-126633075D01*
X96186700Y-126501958D01*
X96186690Y-126501953D01*
X95944428Y-126401605D01*
X95944421Y-126401603D01*
X95944419Y-126401602D01*
X95691116Y-126333730D01*
X95633339Y-126326123D01*
X95431127Y-126299500D01*
X95431120Y-126299500D01*
X95168880Y-126299500D01*
X95168872Y-126299500D01*
X94937772Y-126329926D01*
X94908884Y-126333730D01*
X94777728Y-126368873D01*
X94655581Y-126401602D01*
X94655571Y-126401605D01*
X94413309Y-126501953D01*
X94413299Y-126501958D01*
X94186196Y-126633075D01*
X93978148Y-126792718D01*
X93792718Y-126978148D01*
X93633075Y-127186196D01*
X93501958Y-127413299D01*
X93501953Y-127413309D01*
X93401605Y-127655571D01*
X93401602Y-127655581D01*
X93333730Y-127908885D01*
X93299500Y-128168872D01*
X91191549Y-128168872D01*
X91167904Y-128050000D01*
X92299999Y-128050000D01*
X92299999Y-127485817D01*
X92299998Y-127485802D01*
X92289599Y-127353667D01*
X92234622Y-127135480D01*
X92141571Y-126930625D01*
X92141568Y-126930619D01*
X92013440Y-126745676D01*
X92013430Y-126745664D01*
X91854335Y-126586569D01*
X91854323Y-126586559D01*
X91669380Y-126458431D01*
X91669374Y-126458428D01*
X91464519Y-126365377D01*
X91246332Y-126310400D01*
X91114196Y-126300000D01*
X90550000Y-126300000D01*
X90550000Y-127432095D01*
X90388642Y-127400000D01*
X90211358Y-127400000D01*
X90050000Y-127432095D01*
X90050000Y-126300000D01*
X89485817Y-126300000D01*
X89485802Y-126300001D01*
X89353667Y-126310400D01*
X89135480Y-126365377D01*
X88930625Y-126458428D01*
X88930619Y-126458431D01*
X88745676Y-126586559D01*
X88745664Y-126586569D01*
X88586569Y-126745664D01*
X88586559Y-126745676D01*
X88458431Y-126930619D01*
X88458428Y-126930625D01*
X88365377Y-127135480D01*
X88310400Y-127353667D01*
X88300000Y-127485803D01*
X82161500Y-127485803D01*
X82161500Y-113913389D01*
X116599500Y-113913389D01*
X116599500Y-114086610D01*
X116619579Y-114213389D01*
X116626598Y-114257701D01*
X116680127Y-114422445D01*
X116758768Y-114576788D01*
X116860586Y-114716928D01*
X116860588Y-114716930D01*
X118563181Y-116419523D01*
X118596666Y-116480846D01*
X118599500Y-116507204D01*
X118599500Y-121086611D01*
X118626598Y-121257701D01*
X118680127Y-121422445D01*
X118758768Y-121576788D01*
X118860586Y-121716928D01*
X118983072Y-121839414D01*
X119123212Y-121941232D01*
X119277555Y-122019873D01*
X119442299Y-122073402D01*
X119613389Y-122100500D01*
X119613390Y-122100500D01*
X119786610Y-122100500D01*
X119786611Y-122100500D01*
X119957701Y-122073402D01*
X120122445Y-122019873D01*
X120276788Y-121941232D01*
X120416928Y-121839414D01*
X120416936Y-121839405D01*
X120419967Y-121836818D01*
X120483727Y-121808247D01*
X120552813Y-121818682D01*
X120605290Y-121864812D01*
X120624500Y-121931107D01*
X120624500Y-131175296D01*
X120604815Y-131242335D01*
X120588181Y-131262977D01*
X117920588Y-133930569D01*
X117920588Y-133930570D01*
X117920586Y-133930572D01*
X117876859Y-133990756D01*
X117818768Y-134070711D01*
X117740128Y-134225052D01*
X117686597Y-134389802D01*
X117659500Y-134560889D01*
X117659500Y-134734111D01*
X117686598Y-134905201D01*
X117740127Y-135069945D01*
X117818768Y-135224288D01*
X117920586Y-135364428D01*
X118043072Y-135486914D01*
X118183212Y-135588732D01*
X118337555Y-135667373D01*
X118502299Y-135720902D01*
X118673389Y-135748000D01*
X118673390Y-135748000D01*
X118846610Y-135748000D01*
X118846611Y-135748000D01*
X119017701Y-135720902D01*
X119182445Y-135667373D01*
X119336788Y-135588732D01*
X119476928Y-135486914D01*
X122564414Y-132399428D01*
X122666232Y-132259288D01*
X122744873Y-132104946D01*
X122798402Y-131940201D01*
X122825500Y-131769111D01*
X122825500Y-131595889D01*
X122825500Y-130413389D01*
X123499500Y-130413389D01*
X123499500Y-130586611D01*
X123507677Y-130638239D01*
X123518002Y-130703432D01*
X123526598Y-130757701D01*
X123580127Y-130922445D01*
X123658768Y-131076788D01*
X123760586Y-131216928D01*
X123883072Y-131339414D01*
X124023212Y-131441232D01*
X124177555Y-131519873D01*
X124342299Y-131573402D01*
X124513389Y-131600500D01*
X124513390Y-131600500D01*
X127586610Y-131600500D01*
X127586611Y-131600500D01*
X127757701Y-131573402D01*
X127873901Y-131535646D01*
X139897000Y-131535646D01*
X139897000Y-131764354D01*
X139902712Y-131800418D01*
X139932778Y-131990246D01*
X139932778Y-131990249D01*
X140003450Y-132207755D01*
X140077551Y-132353186D01*
X140107283Y-132411538D01*
X140241714Y-132596566D01*
X140403434Y-132758286D01*
X140588462Y-132892717D01*
X140720599Y-132960044D01*
X140792244Y-132996549D01*
X141009751Y-133067221D01*
X141009752Y-133067221D01*
X141009755Y-133067222D01*
X141235646Y-133103000D01*
X141235647Y-133103000D01*
X141464353Y-133103000D01*
X141464354Y-133103000D01*
X141690245Y-133067222D01*
X141690248Y-133067221D01*
X141690249Y-133067221D01*
X141907755Y-132996549D01*
X141907755Y-132996548D01*
X141907758Y-132996548D01*
X142111538Y-132892717D01*
X142296566Y-132758286D01*
X142458286Y-132596566D01*
X142519683Y-132512059D01*
X142575012Y-132469396D01*
X142644625Y-132463417D01*
X142706420Y-132496023D01*
X142720314Y-132512056D01*
X142781714Y-132596566D01*
X142943434Y-132758286D01*
X143128462Y-132892717D01*
X143260599Y-132960044D01*
X143332244Y-132996549D01*
X143549751Y-133067221D01*
X143549752Y-133067221D01*
X143549755Y-133067222D01*
X143775646Y-133103000D01*
X143775647Y-133103000D01*
X144004353Y-133103000D01*
X144004354Y-133103000D01*
X144230245Y-133067222D01*
X144230248Y-133067221D01*
X144230249Y-133067221D01*
X144447755Y-132996549D01*
X144447755Y-132996548D01*
X144447758Y-132996548D01*
X144651538Y-132892717D01*
X144836566Y-132758286D01*
X144998286Y-132596566D01*
X145059683Y-132512059D01*
X145115012Y-132469396D01*
X145184625Y-132463417D01*
X145246420Y-132496023D01*
X145260314Y-132512056D01*
X145321714Y-132596566D01*
X145483434Y-132758286D01*
X145668462Y-132892717D01*
X145800599Y-132960044D01*
X145872244Y-132996549D01*
X146089751Y-133067221D01*
X146089752Y-133067221D01*
X146089755Y-133067222D01*
X146315646Y-133103000D01*
X146315647Y-133103000D01*
X146544353Y-133103000D01*
X146544354Y-133103000D01*
X146770245Y-133067222D01*
X146770248Y-133067221D01*
X146770249Y-133067221D01*
X146987755Y-132996549D01*
X146987755Y-132996548D01*
X146987758Y-132996548D01*
X147191538Y-132892717D01*
X147376566Y-132758286D01*
X147538286Y-132596566D01*
X147599683Y-132512059D01*
X147655012Y-132469396D01*
X147724625Y-132463417D01*
X147786420Y-132496023D01*
X147800314Y-132512056D01*
X147861714Y-132596566D01*
X148023434Y-132758286D01*
X148208462Y-132892717D01*
X148340599Y-132960044D01*
X148412244Y-132996549D01*
X148629751Y-133067221D01*
X148629752Y-133067221D01*
X148629755Y-133067222D01*
X148855646Y-133103000D01*
X148855647Y-133103000D01*
X149084353Y-133103000D01*
X149084354Y-133103000D01*
X149310245Y-133067222D01*
X149310248Y-133067221D01*
X149310249Y-133067221D01*
X149527755Y-132996549D01*
X149527755Y-132996548D01*
X149527758Y-132996548D01*
X149731538Y-132892717D01*
X149916566Y-132758286D01*
X150078286Y-132596566D01*
X150139683Y-132512059D01*
X150195012Y-132469396D01*
X150264625Y-132463417D01*
X150326420Y-132496023D01*
X150340314Y-132512056D01*
X150401714Y-132596566D01*
X150563434Y-132758286D01*
X150748462Y-132892717D01*
X150880599Y-132960044D01*
X150952244Y-132996549D01*
X151169751Y-133067221D01*
X151169752Y-133067221D01*
X151169755Y-133067222D01*
X151395646Y-133103000D01*
X151395647Y-133103000D01*
X151624353Y-133103000D01*
X151624354Y-133103000D01*
X151850245Y-133067222D01*
X151850248Y-133067221D01*
X151850249Y-133067221D01*
X152067755Y-132996549D01*
X152067755Y-132996548D01*
X152067758Y-132996548D01*
X152271538Y-132892717D01*
X152456566Y-132758286D01*
X152618286Y-132596566D01*
X152679683Y-132512059D01*
X152735012Y-132469396D01*
X152804625Y-132463417D01*
X152866420Y-132496023D01*
X152880314Y-132512056D01*
X152941714Y-132596566D01*
X153103434Y-132758286D01*
X153288462Y-132892717D01*
X153420599Y-132960044D01*
X153492244Y-132996549D01*
X153709751Y-133067221D01*
X153709752Y-133067221D01*
X153709755Y-133067222D01*
X153935646Y-133103000D01*
X153935647Y-133103000D01*
X154164353Y-133103000D01*
X154164354Y-133103000D01*
X154390245Y-133067222D01*
X154390248Y-133067221D01*
X154390249Y-133067221D01*
X154607755Y-132996549D01*
X154607755Y-132996548D01*
X154607758Y-132996548D01*
X154811538Y-132892717D01*
X154996566Y-132758286D01*
X155158286Y-132596566D01*
X155219683Y-132512059D01*
X155275012Y-132469396D01*
X155344625Y-132463417D01*
X155406420Y-132496023D01*
X155420314Y-132512056D01*
X155481714Y-132596566D01*
X155643434Y-132758286D01*
X155828462Y-132892717D01*
X155960599Y-132960044D01*
X156032244Y-132996549D01*
X156249751Y-133067221D01*
X156249752Y-133067221D01*
X156249755Y-133067222D01*
X156475646Y-133103000D01*
X156475647Y-133103000D01*
X156704353Y-133103000D01*
X156704354Y-133103000D01*
X156930245Y-133067222D01*
X156930248Y-133067221D01*
X156930249Y-133067221D01*
X157147755Y-132996549D01*
X157147755Y-132996548D01*
X157147758Y-132996548D01*
X157351538Y-132892717D01*
X157536566Y-132758286D01*
X157698286Y-132596566D01*
X157759683Y-132512059D01*
X157815012Y-132469396D01*
X157884625Y-132463417D01*
X157946420Y-132496023D01*
X157960314Y-132512056D01*
X158021714Y-132596566D01*
X158183434Y-132758286D01*
X158368462Y-132892717D01*
X158500599Y-132960044D01*
X158572244Y-132996549D01*
X158789751Y-133067221D01*
X158789752Y-133067221D01*
X158789755Y-133067222D01*
X159015646Y-133103000D01*
X159015647Y-133103000D01*
X159244353Y-133103000D01*
X159244354Y-133103000D01*
X159470245Y-133067222D01*
X159470248Y-133067221D01*
X159470249Y-133067221D01*
X159687755Y-132996549D01*
X159687755Y-132996548D01*
X159687758Y-132996548D01*
X159891538Y-132892717D01*
X160076566Y-132758286D01*
X160238286Y-132596566D01*
X160299683Y-132512059D01*
X160355012Y-132469396D01*
X160424625Y-132463417D01*
X160486420Y-132496023D01*
X160500314Y-132512056D01*
X160561714Y-132596566D01*
X160723434Y-132758286D01*
X160908462Y-132892717D01*
X161040599Y-132960044D01*
X161112244Y-132996549D01*
X161329751Y-133067221D01*
X161329752Y-133067221D01*
X161329755Y-133067222D01*
X161555646Y-133103000D01*
X161555647Y-133103000D01*
X161784353Y-133103000D01*
X161784354Y-133103000D01*
X162010245Y-133067222D01*
X162010248Y-133067221D01*
X162010249Y-133067221D01*
X162227755Y-132996549D01*
X162227755Y-132996548D01*
X162227758Y-132996548D01*
X162431538Y-132892717D01*
X162616566Y-132758286D01*
X162778286Y-132596566D01*
X162839683Y-132512059D01*
X162895012Y-132469396D01*
X162964625Y-132463417D01*
X163026420Y-132496023D01*
X163040314Y-132512056D01*
X163101714Y-132596566D01*
X163263434Y-132758286D01*
X163448462Y-132892717D01*
X163580599Y-132960044D01*
X163652244Y-132996549D01*
X163869751Y-133067221D01*
X163869752Y-133067221D01*
X163869755Y-133067222D01*
X164095646Y-133103000D01*
X164095647Y-133103000D01*
X164324353Y-133103000D01*
X164324354Y-133103000D01*
X164550245Y-133067222D01*
X164550248Y-133067221D01*
X164550249Y-133067221D01*
X164767755Y-132996549D01*
X164767755Y-132996548D01*
X164767758Y-132996548D01*
X164971538Y-132892717D01*
X165156566Y-132758286D01*
X165318286Y-132596566D01*
X165379683Y-132512059D01*
X165435012Y-132469396D01*
X165504625Y-132463417D01*
X165566420Y-132496023D01*
X165580314Y-132512056D01*
X165641714Y-132596566D01*
X165803434Y-132758286D01*
X165988462Y-132892717D01*
X166120599Y-132960044D01*
X166192244Y-132996549D01*
X166409751Y-133067221D01*
X166409752Y-133067221D01*
X166409755Y-133067222D01*
X166635646Y-133103000D01*
X166635647Y-133103000D01*
X166864353Y-133103000D01*
X166864354Y-133103000D01*
X167090245Y-133067222D01*
X167090248Y-133067221D01*
X167090249Y-133067221D01*
X167307755Y-132996549D01*
X167307755Y-132996548D01*
X167307758Y-132996548D01*
X167511538Y-132892717D01*
X167696566Y-132758286D01*
X167858286Y-132596566D01*
X167919683Y-132512059D01*
X167975012Y-132469396D01*
X168044625Y-132463417D01*
X168106420Y-132496023D01*
X168120314Y-132512056D01*
X168181714Y-132596566D01*
X168343434Y-132758286D01*
X168528462Y-132892717D01*
X168660599Y-132960044D01*
X168732244Y-132996549D01*
X168949751Y-133067221D01*
X168949752Y-133067221D01*
X168949755Y-133067222D01*
X169175646Y-133103000D01*
X169175647Y-133103000D01*
X169404353Y-133103000D01*
X169404354Y-133103000D01*
X169630245Y-133067222D01*
X169630248Y-133067221D01*
X169630249Y-133067221D01*
X169847755Y-132996549D01*
X169847755Y-132996548D01*
X169847758Y-132996548D01*
X170051538Y-132892717D01*
X170236566Y-132758286D01*
X170398286Y-132596566D01*
X170459683Y-132512059D01*
X170515012Y-132469396D01*
X170584625Y-132463417D01*
X170646420Y-132496023D01*
X170660314Y-132512056D01*
X170721714Y-132596566D01*
X170883434Y-132758286D01*
X171068462Y-132892717D01*
X171200599Y-132960044D01*
X171272244Y-132996549D01*
X171489751Y-133067221D01*
X171489752Y-133067221D01*
X171489755Y-133067222D01*
X171715646Y-133103000D01*
X171715647Y-133103000D01*
X171944353Y-133103000D01*
X171944354Y-133103000D01*
X172170245Y-133067222D01*
X172170248Y-133067221D01*
X172170249Y-133067221D01*
X172387755Y-132996549D01*
X172387755Y-132996548D01*
X172387758Y-132996548D01*
X172591538Y-132892717D01*
X172776566Y-132758286D01*
X172938286Y-132596566D01*
X172999991Y-132511635D01*
X173055321Y-132468970D01*
X173124934Y-132462991D01*
X173164290Y-132483756D01*
X173181347Y-132485099D01*
X173780438Y-131886007D01*
X173807271Y-131950785D01*
X173876764Y-132054789D01*
X173965211Y-132143236D01*
X174069215Y-132212729D01*
X174133990Y-132239560D01*
X173534899Y-132838651D01*
X173608725Y-132892288D01*
X173608731Y-132892292D01*
X173812431Y-132996082D01*
X174029875Y-133066734D01*
X174255687Y-133102500D01*
X174484313Y-133102500D01*
X174710124Y-133066734D01*
X174710125Y-133066734D01*
X174927568Y-132996082D01*
X175131276Y-132892288D01*
X175314059Y-132759488D01*
X175379865Y-132736008D01*
X175447919Y-132751833D01*
X175496614Y-132801939D01*
X175503127Y-132816474D01*
X175513701Y-132844826D01*
X175513706Y-132844835D01*
X175599952Y-132960044D01*
X175599955Y-132960047D01*
X175715164Y-133046293D01*
X175715171Y-133046297D01*
X175850017Y-133096591D01*
X175850016Y-133096591D01*
X175856944Y-133097335D01*
X175909627Y-133103000D01*
X177910372Y-133102999D01*
X177969983Y-133096591D01*
X178104831Y-133046296D01*
X178220046Y-132960046D01*
X178306296Y-132844831D01*
X178356591Y-132709983D01*
X178363000Y-132650373D01*
X178362999Y-130649628D01*
X178356591Y-130590017D01*
X178355320Y-130586610D01*
X178306297Y-130455171D01*
X178306293Y-130455164D01*
X178220047Y-130339955D01*
X178220044Y-130339952D01*
X178104835Y-130253706D01*
X178104828Y-130253702D01*
X177969982Y-130203408D01*
X177969983Y-130203408D01*
X177910383Y-130197001D01*
X177910381Y-130197000D01*
X177910373Y-130197000D01*
X177910364Y-130197000D01*
X175909629Y-130197000D01*
X175909623Y-130197001D01*
X175850016Y-130203408D01*
X175715171Y-130253702D01*
X175715164Y-130253706D01*
X175599955Y-130339952D01*
X175599952Y-130339955D01*
X175513706Y-130455164D01*
X175513702Y-130455171D01*
X175503127Y-130483526D01*
X175461256Y-130539460D01*
X175395791Y-130563877D01*
X175327518Y-130549025D01*
X175314060Y-130540511D01*
X175131279Y-130407713D01*
X174927568Y-130303917D01*
X174710124Y-130233265D01*
X174484313Y-130197500D01*
X174255687Y-130197500D01*
X174029875Y-130233265D01*
X174029874Y-130233265D01*
X173812431Y-130303917D01*
X173608719Y-130407713D01*
X173534900Y-130461346D01*
X173534899Y-130461347D01*
X174133991Y-131060439D01*
X174069215Y-131087271D01*
X173965211Y-131156764D01*
X173876764Y-131245211D01*
X173807271Y-131349215D01*
X173780439Y-131413991D01*
X173181347Y-130814899D01*
X173164490Y-130816226D01*
X173145293Y-130831029D01*
X173075679Y-130837007D01*
X173013885Y-130804399D01*
X172999990Y-130788362D01*
X172938288Y-130703437D01*
X172938283Y-130703431D01*
X172776568Y-130541716D01*
X172776566Y-130541714D01*
X172591538Y-130407283D01*
X172387755Y-130303450D01*
X172170248Y-130232778D01*
X171984812Y-130203408D01*
X171944354Y-130197000D01*
X171715646Y-130197000D01*
X171675188Y-130203408D01*
X171489753Y-130232778D01*
X171489750Y-130232778D01*
X171272244Y-130303450D01*
X171068461Y-130407283D01*
X171002550Y-130455171D01*
X170883434Y-130541714D01*
X170883432Y-130541716D01*
X170883431Y-130541716D01*
X170721715Y-130703432D01*
X170660318Y-130787938D01*
X170604987Y-130830603D01*
X170535374Y-130836582D01*
X170473579Y-130803976D01*
X170459682Y-130787938D01*
X170398288Y-130703437D01*
X170398286Y-130703434D01*
X170236566Y-130541714D01*
X170051538Y-130407283D01*
X169847755Y-130303450D01*
X169630248Y-130232778D01*
X169444812Y-130203408D01*
X169404354Y-130197000D01*
X169175646Y-130197000D01*
X169135188Y-130203408D01*
X168949753Y-130232778D01*
X168949750Y-130232778D01*
X168732244Y-130303450D01*
X168528461Y-130407283D01*
X168462550Y-130455171D01*
X168343434Y-130541714D01*
X168343432Y-130541716D01*
X168343431Y-130541716D01*
X168181715Y-130703432D01*
X168120318Y-130787938D01*
X168064987Y-130830603D01*
X167995374Y-130836582D01*
X167933579Y-130803976D01*
X167919682Y-130787938D01*
X167858288Y-130703437D01*
X167858286Y-130703434D01*
X167696566Y-130541714D01*
X167511538Y-130407283D01*
X167307755Y-130303450D01*
X167090248Y-130232778D01*
X166904812Y-130203408D01*
X166864354Y-130197000D01*
X166635646Y-130197000D01*
X166595188Y-130203408D01*
X166409753Y-130232778D01*
X166409750Y-130232778D01*
X166192244Y-130303450D01*
X165988461Y-130407283D01*
X165922550Y-130455171D01*
X165803434Y-130541714D01*
X165803432Y-130541716D01*
X165803431Y-130541716D01*
X165641715Y-130703432D01*
X165580318Y-130787938D01*
X165524987Y-130830603D01*
X165455374Y-130836582D01*
X165393579Y-130803976D01*
X165379682Y-130787938D01*
X165318288Y-130703437D01*
X165318286Y-130703434D01*
X165156566Y-130541714D01*
X164971538Y-130407283D01*
X164767755Y-130303450D01*
X164550248Y-130232778D01*
X164364812Y-130203408D01*
X164324354Y-130197000D01*
X164095646Y-130197000D01*
X164055188Y-130203408D01*
X163869753Y-130232778D01*
X163869750Y-130232778D01*
X163652244Y-130303450D01*
X163448461Y-130407283D01*
X163382550Y-130455171D01*
X163263434Y-130541714D01*
X163263432Y-130541716D01*
X163263431Y-130541716D01*
X163101715Y-130703432D01*
X163040318Y-130787938D01*
X162984987Y-130830603D01*
X162915374Y-130836582D01*
X162853579Y-130803976D01*
X162839682Y-130787938D01*
X162778288Y-130703437D01*
X162778286Y-130703434D01*
X162616566Y-130541714D01*
X162431538Y-130407283D01*
X162227755Y-130303450D01*
X162010248Y-130232778D01*
X161824812Y-130203408D01*
X161784354Y-130197000D01*
X161555646Y-130197000D01*
X161515188Y-130203408D01*
X161329753Y-130232778D01*
X161329750Y-130232778D01*
X161112244Y-130303450D01*
X160908461Y-130407283D01*
X160842550Y-130455171D01*
X160723434Y-130541714D01*
X160723432Y-130541716D01*
X160723431Y-130541716D01*
X160561715Y-130703432D01*
X160500318Y-130787938D01*
X160444987Y-130830603D01*
X160375374Y-130836582D01*
X160313579Y-130803976D01*
X160299682Y-130787938D01*
X160238288Y-130703437D01*
X160238286Y-130703434D01*
X160076566Y-130541714D01*
X159891538Y-130407283D01*
X159687755Y-130303450D01*
X159470248Y-130232778D01*
X159284812Y-130203408D01*
X159244354Y-130197000D01*
X159015646Y-130197000D01*
X158975188Y-130203408D01*
X158789753Y-130232778D01*
X158789750Y-130232778D01*
X158572244Y-130303450D01*
X158368461Y-130407283D01*
X158302550Y-130455171D01*
X158183434Y-130541714D01*
X158183432Y-130541716D01*
X158183431Y-130541716D01*
X158021715Y-130703432D01*
X157960318Y-130787938D01*
X157904987Y-130830603D01*
X157835374Y-130836582D01*
X157773579Y-130803976D01*
X157759682Y-130787938D01*
X157698288Y-130703437D01*
X157698286Y-130703434D01*
X157536566Y-130541714D01*
X157351538Y-130407283D01*
X157147755Y-130303450D01*
X156930248Y-130232778D01*
X156744812Y-130203408D01*
X156704354Y-130197000D01*
X156475646Y-130197000D01*
X156435188Y-130203408D01*
X156249753Y-130232778D01*
X156249750Y-130232778D01*
X156032244Y-130303450D01*
X155828461Y-130407283D01*
X155762550Y-130455171D01*
X155643434Y-130541714D01*
X155643432Y-130541716D01*
X155643431Y-130541716D01*
X155481715Y-130703432D01*
X155420318Y-130787938D01*
X155364987Y-130830603D01*
X155295374Y-130836582D01*
X155233579Y-130803976D01*
X155219682Y-130787938D01*
X155158288Y-130703437D01*
X155158286Y-130703434D01*
X154996566Y-130541714D01*
X154811538Y-130407283D01*
X154607755Y-130303450D01*
X154390248Y-130232778D01*
X154204812Y-130203408D01*
X154164354Y-130197000D01*
X153935646Y-130197000D01*
X153895188Y-130203408D01*
X153709753Y-130232778D01*
X153709750Y-130232778D01*
X153492244Y-130303450D01*
X153288461Y-130407283D01*
X153222550Y-130455171D01*
X153103434Y-130541714D01*
X153103432Y-130541716D01*
X153103431Y-130541716D01*
X152941715Y-130703432D01*
X152880318Y-130787938D01*
X152824987Y-130830603D01*
X152755374Y-130836582D01*
X152693579Y-130803976D01*
X152679682Y-130787938D01*
X152618288Y-130703437D01*
X152618286Y-130703434D01*
X152456566Y-130541714D01*
X152271538Y-130407283D01*
X152067755Y-130303450D01*
X151850248Y-130232778D01*
X151664812Y-130203408D01*
X151624354Y-130197000D01*
X151395646Y-130197000D01*
X151355188Y-130203408D01*
X151169753Y-130232778D01*
X151169750Y-130232778D01*
X150952244Y-130303450D01*
X150748461Y-130407283D01*
X150682550Y-130455171D01*
X150563434Y-130541714D01*
X150563432Y-130541716D01*
X150563431Y-130541716D01*
X150401715Y-130703432D01*
X150340318Y-130787938D01*
X150284987Y-130830603D01*
X150215374Y-130836582D01*
X150153579Y-130803976D01*
X150139682Y-130787938D01*
X150078288Y-130703437D01*
X150078286Y-130703434D01*
X149916566Y-130541714D01*
X149731538Y-130407283D01*
X149527755Y-130303450D01*
X149310248Y-130232778D01*
X149124812Y-130203408D01*
X149084354Y-130197000D01*
X148855646Y-130197000D01*
X148815188Y-130203408D01*
X148629753Y-130232778D01*
X148629750Y-130232778D01*
X148412244Y-130303450D01*
X148208461Y-130407283D01*
X148142550Y-130455171D01*
X148023434Y-130541714D01*
X148023432Y-130541716D01*
X148023431Y-130541716D01*
X147861715Y-130703432D01*
X147800318Y-130787938D01*
X147744987Y-130830603D01*
X147675374Y-130836582D01*
X147613579Y-130803976D01*
X147599682Y-130787938D01*
X147538288Y-130703437D01*
X147538286Y-130703434D01*
X147376566Y-130541714D01*
X147191538Y-130407283D01*
X146987755Y-130303450D01*
X146770248Y-130232778D01*
X146584812Y-130203408D01*
X146544354Y-130197000D01*
X146315646Y-130197000D01*
X146275188Y-130203408D01*
X146089753Y-130232778D01*
X146089750Y-130232778D01*
X145872244Y-130303450D01*
X145668461Y-130407283D01*
X145602550Y-130455171D01*
X145483434Y-130541714D01*
X145483432Y-130541716D01*
X145483431Y-130541716D01*
X145321715Y-130703432D01*
X145260318Y-130787938D01*
X145204987Y-130830603D01*
X145135374Y-130836582D01*
X145073579Y-130803976D01*
X145059682Y-130787938D01*
X144998288Y-130703437D01*
X144998286Y-130703434D01*
X144836566Y-130541714D01*
X144651538Y-130407283D01*
X144447755Y-130303450D01*
X144230248Y-130232778D01*
X144044812Y-130203408D01*
X144004354Y-130197000D01*
X143775646Y-130197000D01*
X143735188Y-130203408D01*
X143549753Y-130232778D01*
X143549750Y-130232778D01*
X143332244Y-130303450D01*
X143128461Y-130407283D01*
X143062550Y-130455171D01*
X142943434Y-130541714D01*
X142943432Y-130541716D01*
X142943431Y-130541716D01*
X142781715Y-130703432D01*
X142720318Y-130787938D01*
X142664987Y-130830603D01*
X142595374Y-130836582D01*
X142533579Y-130803976D01*
X142519682Y-130787938D01*
X142458288Y-130703437D01*
X142458286Y-130703434D01*
X142296566Y-130541714D01*
X142111538Y-130407283D01*
X141907755Y-130303450D01*
X141690248Y-130232778D01*
X141504812Y-130203408D01*
X141464354Y-130197000D01*
X141235646Y-130197000D01*
X141195188Y-130203408D01*
X141009753Y-130232778D01*
X141009750Y-130232778D01*
X140792244Y-130303450D01*
X140588461Y-130407283D01*
X140522550Y-130455171D01*
X140403434Y-130541714D01*
X140403432Y-130541716D01*
X140403431Y-130541716D01*
X140241716Y-130703431D01*
X140241716Y-130703432D01*
X140241714Y-130703434D01*
X140241712Y-130703437D01*
X140107283Y-130888461D01*
X140003450Y-131092244D01*
X139932778Y-131309750D01*
X139932778Y-131309753D01*
X139913660Y-131430459D01*
X139897000Y-131535646D01*
X127873901Y-131535646D01*
X127922445Y-131519873D01*
X128076788Y-131441232D01*
X128216928Y-131339414D01*
X134739414Y-124816928D01*
X134841232Y-124676788D01*
X134919873Y-124522445D01*
X134973402Y-124357701D01*
X135000500Y-124186611D01*
X135000500Y-124013389D01*
X135000500Y-122713389D01*
X135000500Y-116596379D01*
X141859500Y-116596379D01*
X141859500Y-116783620D01*
X141896025Y-116967243D01*
X141896027Y-116967251D01*
X141967676Y-117140228D01*
X141967681Y-117140237D01*
X142071697Y-117295907D01*
X142071700Y-117295911D01*
X142108180Y-117332390D01*
X142141666Y-117393712D01*
X142144500Y-117420072D01*
X142144500Y-118063535D01*
X142170457Y-118194028D01*
X142170459Y-118194036D01*
X142221378Y-118316965D01*
X142221383Y-118316975D01*
X142295304Y-118427605D01*
X142295307Y-118427609D01*
X143053181Y-119185482D01*
X143086666Y-119246805D01*
X143089500Y-119273163D01*
X143089500Y-119310620D01*
X143126025Y-119494243D01*
X143126027Y-119494251D01*
X143197676Y-119667228D01*
X143197681Y-119667237D01*
X143301697Y-119822907D01*
X143301700Y-119822911D01*
X143434088Y-119955299D01*
X143434092Y-119955302D01*
X143589762Y-120059318D01*
X143589768Y-120059321D01*
X143589769Y-120059322D01*
X143762749Y-120130973D01*
X143946379Y-120167499D01*
X143946383Y-120167500D01*
X143946384Y-120167500D01*
X144133617Y-120167500D01*
X144133618Y-120167499D01*
X144317251Y-120130973D01*
X144490231Y-120059322D01*
X144645908Y-119955302D01*
X144778302Y-119822908D01*
X144882322Y-119667231D01*
X144953973Y-119494251D01*
X144990500Y-119310616D01*
X144990500Y-119123384D01*
X144953973Y-118939749D01*
X144882322Y-118766769D01*
X144882321Y-118766768D01*
X144882318Y-118766762D01*
X144778302Y-118611092D01*
X144778299Y-118611088D01*
X144645911Y-118478700D01*
X144645907Y-118478697D01*
X144490237Y-118374681D01*
X144490228Y-118374676D01*
X144317251Y-118303027D01*
X144317243Y-118303025D01*
X144133620Y-118266500D01*
X144133616Y-118266500D01*
X144096163Y-118266500D01*
X144029124Y-118246815D01*
X144008482Y-118230181D01*
X143531819Y-117753518D01*
X143498334Y-117692195D01*
X143495500Y-117665837D01*
X143495500Y-117400072D01*
X143515185Y-117333033D01*
X143531821Y-117312389D01*
X143548300Y-117295910D01*
X143548302Y-117295908D01*
X143652322Y-117140231D01*
X143723973Y-116967251D01*
X143760500Y-116783616D01*
X143760500Y-116596384D01*
X143723973Y-116412749D01*
X143652322Y-116239769D01*
X143652321Y-116239768D01*
X143652318Y-116239762D01*
X143548302Y-116084092D01*
X143548299Y-116084088D01*
X143415911Y-115951700D01*
X143415907Y-115951697D01*
X143260237Y-115847681D01*
X143260228Y-115847676D01*
X143087251Y-115776027D01*
X143087243Y-115776025D01*
X142903620Y-115739500D01*
X142903616Y-115739500D01*
X142716384Y-115739500D01*
X142716379Y-115739500D01*
X142532756Y-115776025D01*
X142532748Y-115776027D01*
X142359771Y-115847676D01*
X142359762Y-115847681D01*
X142204092Y-115951697D01*
X142204088Y-115951700D01*
X142071700Y-116084088D01*
X142071697Y-116084092D01*
X141967681Y-116239762D01*
X141967676Y-116239771D01*
X141896027Y-116412748D01*
X141896025Y-116412756D01*
X141859500Y-116596379D01*
X135000500Y-116596379D01*
X135000500Y-114213389D01*
X134973402Y-114042299D01*
X134919873Y-113877555D01*
X134841232Y-113723212D01*
X134739414Y-113583072D01*
X134616928Y-113460586D01*
X133999731Y-112843389D01*
X143062500Y-112843389D01*
X143062500Y-113016610D01*
X143085348Y-113160871D01*
X143089598Y-113187701D01*
X143143127Y-113352445D01*
X143221768Y-113506788D01*
X143323586Y-113646928D01*
X143446072Y-113769414D01*
X143586212Y-113871232D01*
X143740555Y-113949873D01*
X143905299Y-114003402D01*
X144076389Y-114030500D01*
X144076390Y-114030500D01*
X144876610Y-114030500D01*
X144876611Y-114030500D01*
X145047701Y-114003402D01*
X145212445Y-113949873D01*
X145366788Y-113871232D01*
X145506928Y-113769414D01*
X145719523Y-113556819D01*
X145780846Y-113523334D01*
X145807204Y-113520500D01*
X152826610Y-113520500D01*
X152826611Y-113520500D01*
X152997701Y-113493402D01*
X153162445Y-113439873D01*
X153316788Y-113361232D01*
X153456928Y-113259414D01*
X153579414Y-113136928D01*
X153681232Y-112996788D01*
X153759873Y-112842445D01*
X153813402Y-112677701D01*
X153840500Y-112506611D01*
X153840500Y-112333389D01*
X153813402Y-112162299D01*
X153759873Y-111997555D01*
X153681232Y-111843212D01*
X153579414Y-111703072D01*
X153456928Y-111580586D01*
X153316788Y-111478768D01*
X153162445Y-111400127D01*
X152997701Y-111346598D01*
X152997699Y-111346597D01*
X152997698Y-111346597D01*
X152866271Y-111325781D01*
X152826611Y-111319500D01*
X145386611Y-111319500D01*
X145213389Y-111319500D01*
X145173728Y-111325781D01*
X145042302Y-111346597D01*
X144877552Y-111400128D01*
X144723211Y-111478768D01*
X144643256Y-111536859D01*
X144583072Y-111580586D01*
X144583070Y-111580588D01*
X144583069Y-111580588D01*
X144370477Y-111793181D01*
X144309154Y-111826666D01*
X144282796Y-111829500D01*
X144076389Y-111829500D01*
X144036728Y-111835781D01*
X143905302Y-111856597D01*
X143740552Y-111910128D01*
X143586211Y-111988768D01*
X143506256Y-112046859D01*
X143446072Y-112090586D01*
X143446070Y-112090588D01*
X143446069Y-112090588D01*
X143323588Y-112213069D01*
X143323588Y-112213070D01*
X143323586Y-112213072D01*
X143313023Y-112227611D01*
X143221768Y-112353211D01*
X143143128Y-112507552D01*
X143089597Y-112672302D01*
X143062500Y-112843389D01*
X133999731Y-112843389D01*
X133216928Y-112060586D01*
X133076788Y-111958768D01*
X132922445Y-111880127D01*
X132757701Y-111826598D01*
X132757699Y-111826597D01*
X132757698Y-111826597D01*
X132626271Y-111805781D01*
X132586611Y-111799500D01*
X132413389Y-111799500D01*
X132373728Y-111805781D01*
X132242302Y-111826597D01*
X132077552Y-111880128D01*
X131923211Y-111958768D01*
X131869826Y-111997555D01*
X131783072Y-112060586D01*
X131783070Y-112060588D01*
X131783069Y-112060588D01*
X131660588Y-112183069D01*
X131660588Y-112183070D01*
X131660586Y-112183072D01*
X131616859Y-112243256D01*
X131558768Y-112323211D01*
X131480128Y-112477552D01*
X131426597Y-112642302D01*
X131399500Y-112813389D01*
X131399500Y-112986610D01*
X131410928Y-113058768D01*
X131426598Y-113157701D01*
X131480127Y-113322445D01*
X131558768Y-113476788D01*
X131660586Y-113616928D01*
X131660588Y-113616930D01*
X132763181Y-114719523D01*
X132796666Y-114780846D01*
X132799500Y-114807204D01*
X132799500Y-123592796D01*
X132779815Y-123659835D01*
X132763181Y-123680477D01*
X127080477Y-129363181D01*
X127019154Y-129396666D01*
X126992796Y-129399500D01*
X124513389Y-129399500D01*
X124473728Y-129405781D01*
X124342302Y-129426597D01*
X124177552Y-129480128D01*
X124023211Y-129558768D01*
X123943256Y-129616859D01*
X123883072Y-129660586D01*
X123883070Y-129660588D01*
X123883069Y-129660588D01*
X123760588Y-129783069D01*
X123760588Y-129783070D01*
X123760586Y-129783072D01*
X123716859Y-129843256D01*
X123658768Y-129923211D01*
X123580128Y-130077552D01*
X123526597Y-130242302D01*
X123511131Y-130339952D01*
X123499500Y-130413389D01*
X122825500Y-130413389D01*
X122825500Y-125189204D01*
X122845185Y-125122165D01*
X122897989Y-125076410D01*
X122967147Y-125066466D01*
X123030703Y-125095491D01*
X123037181Y-125101523D01*
X124124072Y-126188414D01*
X124264212Y-126290232D01*
X124283385Y-126300001D01*
X124418549Y-126368871D01*
X124418551Y-126368871D01*
X124418554Y-126368873D01*
X124583299Y-126422402D01*
X124754389Y-126449500D01*
X124754390Y-126449500D01*
X124927615Y-126449500D01*
X125022660Y-126434445D01*
X125098701Y-126422402D01*
X125263445Y-126368873D01*
X125417787Y-126290232D01*
X125557928Y-126188414D01*
X125680414Y-126065928D01*
X125782232Y-125925787D01*
X125860873Y-125771445D01*
X125914402Y-125606701D01*
X125926445Y-125530660D01*
X125941500Y-125435615D01*
X125941500Y-125262389D01*
X125914402Y-125091299D01*
X125860873Y-124926554D01*
X125860871Y-124926551D01*
X125860871Y-124926549D01*
X125782231Y-124772211D01*
X125680414Y-124632072D01*
X124580819Y-123532477D01*
X124547334Y-123471154D01*
X124544500Y-123444796D01*
X124544500Y-116626389D01*
X124539748Y-116596384D01*
X124517402Y-116455299D01*
X124463873Y-116290555D01*
X124385232Y-116136212D01*
X124283414Y-115996072D01*
X124160928Y-115873586D01*
X124020788Y-115771768D01*
X123866445Y-115693127D01*
X123701701Y-115639598D01*
X123701699Y-115639597D01*
X123701698Y-115639597D01*
X123570271Y-115618781D01*
X123530611Y-115612500D01*
X123357389Y-115612500D01*
X123317728Y-115618781D01*
X123186302Y-115639597D01*
X123021551Y-115693128D01*
X123005791Y-115701158D01*
X122937121Y-115714052D01*
X122872381Y-115687773D01*
X122832127Y-115630665D01*
X122825500Y-115590671D01*
X122825500Y-112913389D01*
X122814264Y-112842447D01*
X122798402Y-112742299D01*
X122744873Y-112577555D01*
X122666232Y-112423212D01*
X122564414Y-112283072D01*
X122441928Y-112160586D01*
X122301788Y-112058768D01*
X122147445Y-111980127D01*
X121982701Y-111926598D01*
X121982699Y-111926597D01*
X121982698Y-111926597D01*
X121851271Y-111905781D01*
X121811611Y-111899500D01*
X121638389Y-111899500D01*
X121598728Y-111905781D01*
X121467302Y-111926597D01*
X121302552Y-111980128D01*
X121148211Y-112058768D01*
X121068256Y-112116859D01*
X121008072Y-112160586D01*
X121008070Y-112160588D01*
X121008069Y-112160588D01*
X120885588Y-112283069D01*
X120885588Y-112283070D01*
X120885586Y-112283072D01*
X120841859Y-112343256D01*
X120783768Y-112423211D01*
X120705128Y-112577552D01*
X120651597Y-112742302D01*
X120624500Y-112913389D01*
X120624500Y-115068796D01*
X120604815Y-115135835D01*
X120552011Y-115181590D01*
X120482853Y-115191534D01*
X120419297Y-115162509D01*
X120412819Y-115156477D01*
X118416930Y-113160588D01*
X118416928Y-113160586D01*
X118276788Y-113058768D01*
X118122445Y-112980127D01*
X117957701Y-112926598D01*
X117957699Y-112926597D01*
X117957698Y-112926597D01*
X117826271Y-112905781D01*
X117786611Y-112899500D01*
X117613389Y-112899500D01*
X117573728Y-112905781D01*
X117442302Y-112926597D01*
X117277552Y-112980128D01*
X117123211Y-113058768D01*
X117043256Y-113116859D01*
X116983072Y-113160586D01*
X116983070Y-113160588D01*
X116983069Y-113160588D01*
X116860588Y-113283069D01*
X116860588Y-113283070D01*
X116860586Y-113283072D01*
X116831980Y-113322445D01*
X116758768Y-113423211D01*
X116680128Y-113577552D01*
X116626597Y-113742302D01*
X116599500Y-113913389D01*
X82161500Y-113913389D01*
X82161500Y-112054389D01*
X107865500Y-112054389D01*
X107865500Y-112227610D01*
X107882253Y-112333389D01*
X107892598Y-112398701D01*
X107946127Y-112563445D01*
X108024768Y-112717788D01*
X108126586Y-112857928D01*
X108249072Y-112980414D01*
X108389212Y-113082232D01*
X108543555Y-113160873D01*
X108708299Y-113214402D01*
X108879389Y-113241500D01*
X108879390Y-113241500D01*
X109052610Y-113241500D01*
X109052611Y-113241500D01*
X109223701Y-113214402D01*
X109388445Y-113160873D01*
X109542788Y-113082232D01*
X109682928Y-112980414D01*
X113594414Y-109068928D01*
X113696232Y-108928788D01*
X113774873Y-108774446D01*
X113828402Y-108609701D01*
X113855500Y-108438611D01*
X113855500Y-108265389D01*
X113855500Y-108168281D01*
X113875185Y-108101242D01*
X113904009Y-108069909D01*
X114076851Y-107937282D01*
X114160054Y-107854079D01*
X114262274Y-107751860D01*
X114262277Y-107751855D01*
X114262282Y-107751851D01*
X114421924Y-107543803D01*
X114553043Y-107316697D01*
X114555825Y-107309982D01*
X114602802Y-107196568D01*
X114653398Y-107074419D01*
X114721270Y-106821116D01*
X114755500Y-106561120D01*
X114755500Y-106298880D01*
X114721270Y-106038884D01*
X114653398Y-105785581D01*
X114653394Y-105785571D01*
X114601713Y-105660801D01*
X114583063Y-105615777D01*
X115754500Y-105615777D01*
X115754500Y-107244208D01*
X115754501Y-107244223D01*
X115764904Y-107376413D01*
X115764905Y-107376420D01*
X115819902Y-107594678D01*
X115819903Y-107594681D01*
X115912991Y-107799622D01*
X115912997Y-107799632D01*
X116041174Y-107984645D01*
X116041178Y-107984650D01*
X116041181Y-107984654D01*
X116200346Y-108143819D01*
X116200350Y-108143822D01*
X116200354Y-108143825D01*
X116339603Y-108240297D01*
X116385374Y-108272007D01*
X116590317Y-108365096D01*
X116590321Y-108365097D01*
X116808579Y-108420094D01*
X116808581Y-108420094D01*
X116808588Y-108420096D01*
X116940783Y-108430500D01*
X118569216Y-108430499D01*
X118701412Y-108420096D01*
X118919683Y-108365096D01*
X119124626Y-108272007D01*
X119309654Y-108143819D01*
X119468819Y-107984654D01*
X119597007Y-107799626D01*
X119690096Y-107594683D01*
X119745096Y-107376412D01*
X119755500Y-107244217D01*
X119755499Y-106135646D01*
X139897000Y-106135646D01*
X139897000Y-106364353D01*
X139932778Y-106590246D01*
X139932778Y-106590249D01*
X140003450Y-106807755D01*
X140080000Y-106957992D01*
X140107283Y-107011538D01*
X140241714Y-107196566D01*
X140403434Y-107358286D01*
X140588462Y-107492717D01*
X140720599Y-107560044D01*
X140792244Y-107596549D01*
X141009751Y-107667221D01*
X141009752Y-107667221D01*
X141009755Y-107667222D01*
X141235646Y-107703000D01*
X141235647Y-107703000D01*
X141464353Y-107703000D01*
X141464354Y-107703000D01*
X141690245Y-107667222D01*
X141690248Y-107667221D01*
X141690249Y-107667221D01*
X141907755Y-107596549D01*
X141907755Y-107596548D01*
X141907758Y-107596548D01*
X142111538Y-107492717D01*
X142296566Y-107358286D01*
X142458286Y-107196566D01*
X142519683Y-107112059D01*
X142575012Y-107069396D01*
X142644625Y-107063417D01*
X142706420Y-107096023D01*
X142720314Y-107112056D01*
X142781714Y-107196566D01*
X142943434Y-107358286D01*
X143128462Y-107492717D01*
X143260599Y-107560044D01*
X143332244Y-107596549D01*
X143549751Y-107667221D01*
X143549752Y-107667221D01*
X143549755Y-107667222D01*
X143775646Y-107703000D01*
X143775647Y-107703000D01*
X144004353Y-107703000D01*
X144004354Y-107703000D01*
X144230245Y-107667222D01*
X144230248Y-107667221D01*
X144230249Y-107667221D01*
X144447755Y-107596549D01*
X144447755Y-107596548D01*
X144447758Y-107596548D01*
X144651538Y-107492717D01*
X144836566Y-107358286D01*
X144998286Y-107196566D01*
X145059683Y-107112059D01*
X145115012Y-107069396D01*
X145184625Y-107063417D01*
X145246420Y-107096023D01*
X145260314Y-107112056D01*
X145321714Y-107196566D01*
X145483434Y-107358286D01*
X145668462Y-107492717D01*
X145800599Y-107560044D01*
X145872244Y-107596549D01*
X146089751Y-107667221D01*
X146089752Y-107667221D01*
X146089755Y-107667222D01*
X146315646Y-107703000D01*
X146315647Y-107703000D01*
X146544353Y-107703000D01*
X146544354Y-107703000D01*
X146770245Y-107667222D01*
X146770248Y-107667221D01*
X146770249Y-107667221D01*
X146987755Y-107596549D01*
X146987755Y-107596548D01*
X146987758Y-107596548D01*
X147191538Y-107492717D01*
X147376566Y-107358286D01*
X147538286Y-107196566D01*
X147599683Y-107112059D01*
X147655012Y-107069396D01*
X147724625Y-107063417D01*
X147786420Y-107096023D01*
X147800314Y-107112056D01*
X147861714Y-107196566D01*
X148023434Y-107358286D01*
X148208462Y-107492717D01*
X148340599Y-107560044D01*
X148412244Y-107596549D01*
X148629751Y-107667221D01*
X148629752Y-107667221D01*
X148629755Y-107667222D01*
X148855646Y-107703000D01*
X148855647Y-107703000D01*
X149084353Y-107703000D01*
X149084354Y-107703000D01*
X149310245Y-107667222D01*
X149310248Y-107667221D01*
X149310249Y-107667221D01*
X149527755Y-107596549D01*
X149527755Y-107596548D01*
X149527758Y-107596548D01*
X149731538Y-107492717D01*
X149916566Y-107358286D01*
X150078286Y-107196566D01*
X150139683Y-107112059D01*
X150195012Y-107069396D01*
X150264625Y-107063417D01*
X150326420Y-107096023D01*
X150340314Y-107112056D01*
X150401714Y-107196566D01*
X150563434Y-107358286D01*
X150748462Y-107492717D01*
X150880599Y-107560044D01*
X150952244Y-107596549D01*
X151169751Y-107667221D01*
X151169752Y-107667221D01*
X151169755Y-107667222D01*
X151395646Y-107703000D01*
X151395647Y-107703000D01*
X151624353Y-107703000D01*
X151624354Y-107703000D01*
X151850245Y-107667222D01*
X151850248Y-107667221D01*
X151850249Y-107667221D01*
X152067755Y-107596549D01*
X152067755Y-107596548D01*
X152067758Y-107596548D01*
X152271538Y-107492717D01*
X152456566Y-107358286D01*
X152618286Y-107196566D01*
X152679683Y-107112059D01*
X152735012Y-107069396D01*
X152804625Y-107063417D01*
X152866420Y-107096023D01*
X152880314Y-107112056D01*
X152941714Y-107196566D01*
X153103434Y-107358286D01*
X153288462Y-107492717D01*
X153420599Y-107560044D01*
X153492244Y-107596549D01*
X153709751Y-107667221D01*
X153709752Y-107667221D01*
X153709755Y-107667222D01*
X153935646Y-107703000D01*
X153935647Y-107703000D01*
X154164353Y-107703000D01*
X154164354Y-107703000D01*
X154390245Y-107667222D01*
X154390248Y-107667221D01*
X154390249Y-107667221D01*
X154607755Y-107596549D01*
X154607755Y-107596548D01*
X154607758Y-107596548D01*
X154811538Y-107492717D01*
X154996566Y-107358286D01*
X155158286Y-107196566D01*
X155219683Y-107112059D01*
X155275012Y-107069396D01*
X155344625Y-107063417D01*
X155406420Y-107096023D01*
X155420314Y-107112056D01*
X155481714Y-107196566D01*
X155643434Y-107358286D01*
X155828462Y-107492717D01*
X155960599Y-107560044D01*
X156032244Y-107596549D01*
X156249751Y-107667221D01*
X156249752Y-107667221D01*
X156249755Y-107667222D01*
X156475646Y-107703000D01*
X156475647Y-107703000D01*
X156704353Y-107703000D01*
X156704354Y-107703000D01*
X156930245Y-107667222D01*
X156930248Y-107667221D01*
X156930249Y-107667221D01*
X157147755Y-107596549D01*
X157147755Y-107596548D01*
X157147758Y-107596548D01*
X157351538Y-107492717D01*
X157536566Y-107358286D01*
X157698286Y-107196566D01*
X157759683Y-107112059D01*
X157815012Y-107069396D01*
X157884625Y-107063417D01*
X157946420Y-107096023D01*
X157960314Y-107112056D01*
X158021714Y-107196566D01*
X158183434Y-107358286D01*
X158368462Y-107492717D01*
X158500599Y-107560044D01*
X158572244Y-107596549D01*
X158789751Y-107667221D01*
X158789752Y-107667221D01*
X158789755Y-107667222D01*
X159015646Y-107703000D01*
X159015647Y-107703000D01*
X159244353Y-107703000D01*
X159244354Y-107703000D01*
X159470245Y-107667222D01*
X159470248Y-107667221D01*
X159470249Y-107667221D01*
X159687755Y-107596549D01*
X159687755Y-107596548D01*
X159687758Y-107596548D01*
X159891538Y-107492717D01*
X160076566Y-107358286D01*
X160238286Y-107196566D01*
X160299683Y-107112059D01*
X160355012Y-107069396D01*
X160424625Y-107063417D01*
X160486420Y-107096023D01*
X160500314Y-107112056D01*
X160561714Y-107196566D01*
X160723434Y-107358286D01*
X160908462Y-107492717D01*
X161040599Y-107560044D01*
X161112244Y-107596549D01*
X161329751Y-107667221D01*
X161329752Y-107667221D01*
X161329755Y-107667222D01*
X161555646Y-107703000D01*
X161555647Y-107703000D01*
X161784353Y-107703000D01*
X161784354Y-107703000D01*
X162010245Y-107667222D01*
X162010248Y-107667221D01*
X162010249Y-107667221D01*
X162227755Y-107596549D01*
X162227755Y-107596548D01*
X162227758Y-107596548D01*
X162431538Y-107492717D01*
X162616566Y-107358286D01*
X162778286Y-107196566D01*
X162839683Y-107112059D01*
X162895012Y-107069396D01*
X162964625Y-107063417D01*
X163026420Y-107096023D01*
X163040314Y-107112056D01*
X163101714Y-107196566D01*
X163263434Y-107358286D01*
X163448462Y-107492717D01*
X163580599Y-107560044D01*
X163652244Y-107596549D01*
X163869751Y-107667221D01*
X163869752Y-107667221D01*
X163869755Y-107667222D01*
X164095646Y-107703000D01*
X164095647Y-107703000D01*
X164324353Y-107703000D01*
X164324354Y-107703000D01*
X164550245Y-107667222D01*
X164550248Y-107667221D01*
X164550249Y-107667221D01*
X164767755Y-107596549D01*
X164767755Y-107596548D01*
X164767758Y-107596548D01*
X164971538Y-107492717D01*
X165156566Y-107358286D01*
X165318286Y-107196566D01*
X165379683Y-107112059D01*
X165435012Y-107069396D01*
X165504625Y-107063417D01*
X165566420Y-107096023D01*
X165580314Y-107112056D01*
X165641714Y-107196566D01*
X165803434Y-107358286D01*
X165988462Y-107492717D01*
X166120599Y-107560044D01*
X166192244Y-107596549D01*
X166409751Y-107667221D01*
X166409752Y-107667221D01*
X166409755Y-107667222D01*
X166635646Y-107703000D01*
X166635647Y-107703000D01*
X166864353Y-107703000D01*
X166864354Y-107703000D01*
X167090245Y-107667222D01*
X167090248Y-107667221D01*
X167090249Y-107667221D01*
X167307755Y-107596549D01*
X167307755Y-107596548D01*
X167307758Y-107596548D01*
X167511538Y-107492717D01*
X167696566Y-107358286D01*
X167858286Y-107196566D01*
X167919683Y-107112059D01*
X167975012Y-107069396D01*
X168044625Y-107063417D01*
X168106420Y-107096023D01*
X168120314Y-107112056D01*
X168181714Y-107196566D01*
X168343434Y-107358286D01*
X168528462Y-107492717D01*
X168660599Y-107560044D01*
X168732244Y-107596549D01*
X168949751Y-107667221D01*
X168949752Y-107667221D01*
X168949755Y-107667222D01*
X169175646Y-107703000D01*
X169175647Y-107703000D01*
X169404353Y-107703000D01*
X169404354Y-107703000D01*
X169630245Y-107667222D01*
X169630248Y-107667221D01*
X169630249Y-107667221D01*
X169847755Y-107596549D01*
X169847755Y-107596548D01*
X169847758Y-107596548D01*
X170051538Y-107492717D01*
X170236566Y-107358286D01*
X170398286Y-107196566D01*
X170459683Y-107112059D01*
X170515012Y-107069396D01*
X170584625Y-107063417D01*
X170646420Y-107096023D01*
X170660314Y-107112056D01*
X170721714Y-107196566D01*
X170883434Y-107358286D01*
X171068462Y-107492717D01*
X171200599Y-107560044D01*
X171272244Y-107596549D01*
X171489751Y-107667221D01*
X171489752Y-107667221D01*
X171489755Y-107667222D01*
X171715646Y-107703000D01*
X171715647Y-107703000D01*
X171944353Y-107703000D01*
X171944354Y-107703000D01*
X172170245Y-107667222D01*
X172170248Y-107667221D01*
X172170249Y-107667221D01*
X172387755Y-107596549D01*
X172387755Y-107596548D01*
X172387758Y-107596548D01*
X172591538Y-107492717D01*
X172776566Y-107358286D01*
X172938286Y-107196566D01*
X172999991Y-107111635D01*
X173055321Y-107068970D01*
X173124934Y-107062991D01*
X173164290Y-107083756D01*
X173181347Y-107085099D01*
X173780438Y-106486007D01*
X173807271Y-106550785D01*
X173876764Y-106654789D01*
X173965211Y-106743236D01*
X174069215Y-106812729D01*
X174133990Y-106839560D01*
X173534899Y-107438651D01*
X173608725Y-107492288D01*
X173608731Y-107492292D01*
X173812431Y-107596082D01*
X174029875Y-107666734D01*
X174255687Y-107702500D01*
X174484313Y-107702500D01*
X174710124Y-107666734D01*
X174710125Y-107666734D01*
X174927568Y-107596082D01*
X175131276Y-107492288D01*
X175314059Y-107359488D01*
X175379865Y-107336008D01*
X175447919Y-107351833D01*
X175496614Y-107401939D01*
X175503127Y-107416474D01*
X175513701Y-107444826D01*
X175513706Y-107444835D01*
X175599952Y-107560044D01*
X175599955Y-107560047D01*
X175715164Y-107646293D01*
X175715171Y-107646297D01*
X175850017Y-107696591D01*
X175850016Y-107696591D01*
X175856944Y-107697335D01*
X175909627Y-107703000D01*
X177910372Y-107702999D01*
X177969983Y-107696591D01*
X178104831Y-107646296D01*
X178220046Y-107560046D01*
X178306296Y-107444831D01*
X178356591Y-107309983D01*
X178363000Y-107250373D01*
X178362999Y-105249628D01*
X178356591Y-105190017D01*
X178346841Y-105163877D01*
X178306297Y-105055171D01*
X178306293Y-105055164D01*
X178220047Y-104939955D01*
X178220044Y-104939952D01*
X178104835Y-104853706D01*
X178104828Y-104853702D01*
X177969982Y-104803408D01*
X177969983Y-104803408D01*
X177910383Y-104797001D01*
X177910381Y-104797000D01*
X177910373Y-104797000D01*
X177910364Y-104797000D01*
X175909629Y-104797000D01*
X175909623Y-104797001D01*
X175850016Y-104803408D01*
X175715171Y-104853702D01*
X175715164Y-104853706D01*
X175599955Y-104939952D01*
X175599952Y-104939955D01*
X175513706Y-105055164D01*
X175513702Y-105055171D01*
X175503127Y-105083526D01*
X175461256Y-105139460D01*
X175395791Y-105163877D01*
X175327518Y-105149025D01*
X175314060Y-105140511D01*
X175131279Y-105007713D01*
X174927568Y-104903917D01*
X174710124Y-104833265D01*
X174484313Y-104797500D01*
X174255687Y-104797500D01*
X174029875Y-104833265D01*
X174029874Y-104833265D01*
X173812431Y-104903917D01*
X173608719Y-105007713D01*
X173534900Y-105061346D01*
X173534899Y-105061347D01*
X174133991Y-105660439D01*
X174069215Y-105687271D01*
X173965211Y-105756764D01*
X173876764Y-105845211D01*
X173807271Y-105949215D01*
X173780439Y-106013991D01*
X173181347Y-105414899D01*
X173164490Y-105416226D01*
X173145293Y-105431029D01*
X173075679Y-105437007D01*
X173013885Y-105404399D01*
X172999990Y-105388362D01*
X172938288Y-105303437D01*
X172938283Y-105303431D01*
X172776568Y-105141716D01*
X172776566Y-105141714D01*
X172591538Y-105007283D01*
X172524570Y-104973161D01*
X172387755Y-104903450D01*
X172170248Y-104832778D01*
X171984812Y-104803408D01*
X171944354Y-104797000D01*
X171715646Y-104797000D01*
X171675188Y-104803408D01*
X171489753Y-104832778D01*
X171489750Y-104832778D01*
X171272244Y-104903450D01*
X171068461Y-105007283D01*
X170994051Y-105061346D01*
X170883434Y-105141714D01*
X170883432Y-105141716D01*
X170883431Y-105141716D01*
X170721715Y-105303432D01*
X170660318Y-105387938D01*
X170604987Y-105430603D01*
X170535374Y-105436582D01*
X170473579Y-105403976D01*
X170459682Y-105387938D01*
X170448773Y-105372923D01*
X170398286Y-105303434D01*
X170236566Y-105141714D01*
X170051538Y-105007283D01*
X169984570Y-104973161D01*
X169847755Y-104903450D01*
X169630248Y-104832778D01*
X169444812Y-104803408D01*
X169404354Y-104797000D01*
X169175646Y-104797000D01*
X169135188Y-104803408D01*
X168949753Y-104832778D01*
X168949750Y-104832778D01*
X168732244Y-104903450D01*
X168528461Y-105007283D01*
X168454051Y-105061346D01*
X168343434Y-105141714D01*
X168343432Y-105141716D01*
X168343431Y-105141716D01*
X168181715Y-105303432D01*
X168120318Y-105387938D01*
X168064987Y-105430603D01*
X167995374Y-105436582D01*
X167933579Y-105403976D01*
X167919682Y-105387938D01*
X167908773Y-105372923D01*
X167858286Y-105303434D01*
X167696566Y-105141714D01*
X167511538Y-105007283D01*
X167444570Y-104973161D01*
X167307755Y-104903450D01*
X167090248Y-104832778D01*
X166904812Y-104803408D01*
X166864354Y-104797000D01*
X166635646Y-104797000D01*
X166595188Y-104803408D01*
X166409753Y-104832778D01*
X166409750Y-104832778D01*
X166192244Y-104903450D01*
X165988461Y-105007283D01*
X165914051Y-105061346D01*
X165803434Y-105141714D01*
X165803432Y-105141716D01*
X165803431Y-105141716D01*
X165641715Y-105303432D01*
X165580318Y-105387938D01*
X165524987Y-105430603D01*
X165455374Y-105436582D01*
X165393579Y-105403976D01*
X165379682Y-105387938D01*
X165368773Y-105372923D01*
X165318286Y-105303434D01*
X165156566Y-105141714D01*
X164971538Y-105007283D01*
X164904570Y-104973161D01*
X164767755Y-104903450D01*
X164550248Y-104832778D01*
X164364812Y-104803408D01*
X164324354Y-104797000D01*
X164095646Y-104797000D01*
X164055188Y-104803408D01*
X163869753Y-104832778D01*
X163869750Y-104832778D01*
X163652244Y-104903450D01*
X163448461Y-105007283D01*
X163374051Y-105061346D01*
X163263434Y-105141714D01*
X163263432Y-105141716D01*
X163263431Y-105141716D01*
X163101715Y-105303432D01*
X163040318Y-105387938D01*
X162984987Y-105430603D01*
X162915374Y-105436582D01*
X162853579Y-105403976D01*
X162839682Y-105387938D01*
X162828773Y-105372923D01*
X162778286Y-105303434D01*
X162616566Y-105141714D01*
X162431538Y-105007283D01*
X162364570Y-104973161D01*
X162227755Y-104903450D01*
X162010248Y-104832778D01*
X161824812Y-104803408D01*
X161784354Y-104797000D01*
X161555646Y-104797000D01*
X161515188Y-104803408D01*
X161329753Y-104832778D01*
X161329750Y-104832778D01*
X161112244Y-104903450D01*
X160908461Y-105007283D01*
X160834051Y-105061346D01*
X160723434Y-105141714D01*
X160723432Y-105141716D01*
X160723431Y-105141716D01*
X160561715Y-105303432D01*
X160500318Y-105387938D01*
X160444987Y-105430603D01*
X160375374Y-105436582D01*
X160313579Y-105403976D01*
X160299682Y-105387938D01*
X160288773Y-105372923D01*
X160238286Y-105303434D01*
X160076566Y-105141714D01*
X159891538Y-105007283D01*
X159824570Y-104973161D01*
X159687755Y-104903450D01*
X159470248Y-104832778D01*
X159284812Y-104803408D01*
X159244354Y-104797000D01*
X159015646Y-104797000D01*
X158975188Y-104803408D01*
X158789753Y-104832778D01*
X158789750Y-104832778D01*
X158572244Y-104903450D01*
X158368461Y-105007283D01*
X158294051Y-105061346D01*
X158183434Y-105141714D01*
X158183432Y-105141716D01*
X158183431Y-105141716D01*
X158021715Y-105303432D01*
X157960318Y-105387938D01*
X157904987Y-105430603D01*
X157835374Y-105436582D01*
X157773579Y-105403976D01*
X157759682Y-105387938D01*
X157748773Y-105372923D01*
X157698286Y-105303434D01*
X157536566Y-105141714D01*
X157351538Y-105007283D01*
X157284570Y-104973161D01*
X157147755Y-104903450D01*
X156930248Y-104832778D01*
X156744812Y-104803408D01*
X156704354Y-104797000D01*
X156475646Y-104797000D01*
X156435188Y-104803408D01*
X156249753Y-104832778D01*
X156249750Y-104832778D01*
X156032244Y-104903450D01*
X155828461Y-105007283D01*
X155754051Y-105061346D01*
X155643434Y-105141714D01*
X155643432Y-105141716D01*
X155643431Y-105141716D01*
X155481715Y-105303432D01*
X155420318Y-105387938D01*
X155364987Y-105430603D01*
X155295374Y-105436582D01*
X155233579Y-105403976D01*
X155219682Y-105387938D01*
X155208773Y-105372923D01*
X155158286Y-105303434D01*
X154996566Y-105141714D01*
X154811538Y-105007283D01*
X154744570Y-104973161D01*
X154607755Y-104903450D01*
X154390248Y-104832778D01*
X154204812Y-104803408D01*
X154164354Y-104797000D01*
X153935646Y-104797000D01*
X153895188Y-104803408D01*
X153709753Y-104832778D01*
X153709750Y-104832778D01*
X153492244Y-104903450D01*
X153288461Y-105007283D01*
X153214051Y-105061346D01*
X153103434Y-105141714D01*
X153103432Y-105141716D01*
X153103431Y-105141716D01*
X152941715Y-105303432D01*
X152880318Y-105387938D01*
X152824987Y-105430603D01*
X152755374Y-105436582D01*
X152693579Y-105403976D01*
X152679682Y-105387938D01*
X152668773Y-105372923D01*
X152618286Y-105303434D01*
X152456566Y-105141714D01*
X152271538Y-105007283D01*
X152204570Y-104973161D01*
X152067755Y-104903450D01*
X151850248Y-104832778D01*
X151664812Y-104803408D01*
X151624354Y-104797000D01*
X151395646Y-104797000D01*
X151355188Y-104803408D01*
X151169753Y-104832778D01*
X151169750Y-104832778D01*
X150952244Y-104903450D01*
X150748461Y-105007283D01*
X150674051Y-105061346D01*
X150563434Y-105141714D01*
X150563432Y-105141716D01*
X150563431Y-105141716D01*
X150401715Y-105303432D01*
X150340318Y-105387938D01*
X150284987Y-105430603D01*
X150215374Y-105436582D01*
X150153579Y-105403976D01*
X150139682Y-105387938D01*
X150128773Y-105372923D01*
X150078286Y-105303434D01*
X149916566Y-105141714D01*
X149731538Y-105007283D01*
X149664570Y-104973161D01*
X149527755Y-104903450D01*
X149310248Y-104832778D01*
X149124812Y-104803408D01*
X149084354Y-104797000D01*
X148855646Y-104797000D01*
X148815188Y-104803408D01*
X148629753Y-104832778D01*
X148629750Y-104832778D01*
X148412244Y-104903450D01*
X148208461Y-105007283D01*
X148134051Y-105061346D01*
X148023434Y-105141714D01*
X148023432Y-105141716D01*
X148023431Y-105141716D01*
X147861715Y-105303432D01*
X147800318Y-105387938D01*
X147744987Y-105430603D01*
X147675374Y-105436582D01*
X147613579Y-105403976D01*
X147599682Y-105387938D01*
X147588773Y-105372923D01*
X147538286Y-105303434D01*
X147376566Y-105141714D01*
X147191538Y-105007283D01*
X147124570Y-104973161D01*
X146987755Y-104903450D01*
X146770248Y-104832778D01*
X146584812Y-104803408D01*
X146544354Y-104797000D01*
X146315646Y-104797000D01*
X146275188Y-104803408D01*
X146089753Y-104832778D01*
X146089750Y-104832778D01*
X145872244Y-104903450D01*
X145668461Y-105007283D01*
X145594051Y-105061346D01*
X145483434Y-105141714D01*
X145483432Y-105141716D01*
X145483431Y-105141716D01*
X145321715Y-105303432D01*
X145260318Y-105387938D01*
X145204987Y-105430603D01*
X145135374Y-105436582D01*
X145073579Y-105403976D01*
X145059682Y-105387938D01*
X145048773Y-105372923D01*
X144998286Y-105303434D01*
X144836566Y-105141714D01*
X144651538Y-105007283D01*
X144584570Y-104973161D01*
X144447755Y-104903450D01*
X144230248Y-104832778D01*
X144044812Y-104803408D01*
X144004354Y-104797000D01*
X143775646Y-104797000D01*
X143735188Y-104803408D01*
X143549753Y-104832778D01*
X143549750Y-104832778D01*
X143332244Y-104903450D01*
X143128461Y-105007283D01*
X143054051Y-105061346D01*
X142943434Y-105141714D01*
X142943432Y-105141716D01*
X142943431Y-105141716D01*
X142781715Y-105303432D01*
X142720318Y-105387938D01*
X142664987Y-105430603D01*
X142595374Y-105436582D01*
X142533579Y-105403976D01*
X142519682Y-105387938D01*
X142508773Y-105372923D01*
X142458286Y-105303434D01*
X142296566Y-105141714D01*
X142111538Y-105007283D01*
X142044570Y-104973161D01*
X141907755Y-104903450D01*
X141690248Y-104832778D01*
X141504812Y-104803408D01*
X141464354Y-104797000D01*
X141235646Y-104797000D01*
X141195188Y-104803408D01*
X141009753Y-104832778D01*
X141009750Y-104832778D01*
X140792244Y-104903450D01*
X140588461Y-105007283D01*
X140514051Y-105061346D01*
X140403434Y-105141714D01*
X140403432Y-105141716D01*
X140403431Y-105141716D01*
X140241716Y-105303431D01*
X140241716Y-105303432D01*
X140241714Y-105303434D01*
X140183980Y-105382896D01*
X140107283Y-105488461D01*
X140003450Y-105692244D01*
X139932778Y-105909750D01*
X139932778Y-105909753D01*
X139897000Y-106135646D01*
X119755499Y-106135646D01*
X119755499Y-105615784D01*
X119745096Y-105483588D01*
X119733251Y-105436582D01*
X119690097Y-105265321D01*
X119690096Y-105265318D01*
X119682969Y-105249628D01*
X119597007Y-105060374D01*
X119536586Y-104973161D01*
X119468825Y-104875354D01*
X119468822Y-104875350D01*
X119468819Y-104875346D01*
X119309654Y-104716181D01*
X119309650Y-104716178D01*
X119309645Y-104716174D01*
X119124632Y-104587997D01*
X119124630Y-104587995D01*
X119124626Y-104587993D01*
X119071112Y-104563686D01*
X118919681Y-104494903D01*
X118919678Y-104494902D01*
X118701420Y-104439905D01*
X118701413Y-104439904D01*
X118657347Y-104436436D01*
X118569217Y-104429500D01*
X118569215Y-104429500D01*
X116940791Y-104429500D01*
X116940776Y-104429501D01*
X116808586Y-104439904D01*
X116808579Y-104439905D01*
X116590321Y-104494902D01*
X116590318Y-104494903D01*
X116385377Y-104587991D01*
X116385367Y-104587997D01*
X116200354Y-104716174D01*
X116200342Y-104716184D01*
X116041184Y-104875342D01*
X116041174Y-104875354D01*
X115912997Y-105060367D01*
X115912991Y-105060377D01*
X115819903Y-105265318D01*
X115819902Y-105265321D01*
X115764905Y-105483579D01*
X115764904Y-105483586D01*
X115754500Y-105615777D01*
X114583063Y-105615777D01*
X114553046Y-105543309D01*
X114553041Y-105543299D01*
X114421924Y-105316196D01*
X114288039Y-105141716D01*
X114262282Y-105108149D01*
X114262281Y-105108148D01*
X114262274Y-105108140D01*
X114076860Y-104922726D01*
X114076851Y-104922718D01*
X113868803Y-104763075D01*
X113641700Y-104631958D01*
X113641690Y-104631953D01*
X113399428Y-104531605D01*
X113399421Y-104531603D01*
X113399419Y-104531602D01*
X113146116Y-104463730D01*
X113088339Y-104456123D01*
X112886127Y-104429500D01*
X112886120Y-104429500D01*
X112623880Y-104429500D01*
X112623872Y-104429500D01*
X112392772Y-104459926D01*
X112363884Y-104463730D01*
X112110581Y-104531602D01*
X112110571Y-104531605D01*
X111868309Y-104631953D01*
X111868299Y-104631958D01*
X111641196Y-104763075D01*
X111433148Y-104922718D01*
X111247718Y-105108148D01*
X111088075Y-105316196D01*
X110956958Y-105543299D01*
X110956953Y-105543309D01*
X110856605Y-105785571D01*
X110856602Y-105785581D01*
X110823331Y-105909753D01*
X110788730Y-106038885D01*
X110754500Y-106298872D01*
X110754500Y-106561127D01*
X110766832Y-106654789D01*
X110788730Y-106821116D01*
X110855100Y-107068813D01*
X110856602Y-107074418D01*
X110856605Y-107074428D01*
X110956953Y-107316690D01*
X110956958Y-107316700D01*
X111088075Y-107543803D01*
X111247718Y-107751851D01*
X111247725Y-107751859D01*
X111435581Y-107939714D01*
X111469066Y-108001037D01*
X111464082Y-108070728D01*
X111435581Y-108115076D01*
X108126588Y-111424069D01*
X108126586Y-111424072D01*
X108086847Y-111478768D01*
X108024768Y-111564211D01*
X107946128Y-111718552D01*
X107892597Y-111883302D01*
X107865500Y-112054389D01*
X82161500Y-112054389D01*
X82161500Y-109017676D01*
X82181185Y-108950637D01*
X82197819Y-108929995D01*
X84328628Y-106799186D01*
X98183500Y-106799186D01*
X98183500Y-107068813D01*
X98213686Y-107336719D01*
X98213688Y-107336731D01*
X98273684Y-107599594D01*
X98273687Y-107599602D01*
X98362734Y-107854082D01*
X98479714Y-108096994D01*
X98479716Y-108096997D01*
X98623162Y-108325289D01*
X98791266Y-108536085D01*
X98981915Y-108726734D01*
X99192711Y-108894838D01*
X99421003Y-109038284D01*
X99663921Y-109155267D01*
X99855049Y-109222145D01*
X99918397Y-109244312D01*
X99918405Y-109244315D01*
X99918408Y-109244315D01*
X99918409Y-109244316D01*
X100181268Y-109304312D01*
X100449187Y-109334499D01*
X100449188Y-109334500D01*
X100449191Y-109334500D01*
X100718812Y-109334500D01*
X100718812Y-109334499D01*
X100986732Y-109304312D01*
X101249591Y-109244316D01*
X101504079Y-109155267D01*
X101746997Y-109038284D01*
X101975289Y-108894838D01*
X102186085Y-108726734D01*
X102376734Y-108536085D01*
X102544838Y-108325289D01*
X102688284Y-108096997D01*
X102805267Y-107854079D01*
X102894316Y-107599591D01*
X102954312Y-107336732D01*
X102984500Y-107068809D01*
X102984500Y-106799191D01*
X102954312Y-106531268D01*
X102894316Y-106268409D01*
X102887874Y-106250000D01*
X102823062Y-106064777D01*
X102805267Y-106013921D01*
X102688284Y-105771003D01*
X102544838Y-105542711D01*
X102376734Y-105331915D01*
X102186085Y-105141266D01*
X102185138Y-105140511D01*
X102113681Y-105083526D01*
X101975289Y-104973162D01*
X101746997Y-104829716D01*
X101746994Y-104829714D01*
X101504082Y-104712734D01*
X101249602Y-104623687D01*
X101249594Y-104623684D01*
X101052446Y-104578687D01*
X100986732Y-104563688D01*
X100986728Y-104563687D01*
X100986719Y-104563686D01*
X100718813Y-104533500D01*
X100718809Y-104533500D01*
X100449191Y-104533500D01*
X100449186Y-104533500D01*
X100181280Y-104563686D01*
X100181268Y-104563688D01*
X99918405Y-104623684D01*
X99918397Y-104623687D01*
X99663917Y-104712734D01*
X99421005Y-104829714D01*
X99192712Y-104973161D01*
X98981915Y-105141265D01*
X98791265Y-105331915D01*
X98623161Y-105542712D01*
X98479714Y-105771005D01*
X98362734Y-106013917D01*
X98273687Y-106268397D01*
X98273684Y-106268405D01*
X98213688Y-106531268D01*
X98213686Y-106531280D01*
X98183500Y-106799186D01*
X84328628Y-106799186D01*
X88990995Y-102136819D01*
X89052318Y-102103334D01*
X89078676Y-102100500D01*
X179715500Y-102100500D01*
X179782539Y-102120185D01*
G37*
%TD.AperFunction*%
%TD*%
M02*
